<svg width="65" height="65" viewBox="0 0 65 65" fill="none" xmlns="http://www.w3.org/2000/svg">
<path d="M25.1875 0.568726H60.3687L61.3437 0.812476L62.1562 1.21873L62.8875 1.86873L63.4562 2.68123L63.7812 3.49373L63.9437 4.71248V48.1812L63.8625 49.4812L62.6437 52.325L61.5875 54.7625L61.1812 55.4937L60.9375 55.7375L60.6937 55.8187H58.5V61.6687L58.3375 62.075L58.2562 62.1562L62.8062 62.2375L64.2687 62.3187L64.9187 62.8875L65 62.9687V63.7812L64.4312 64.35L64.1875 64.4312H0.89375L0.4875 64.2687L0.08125 63.9437L0 63.7812V62.8875L0.73125 62.3187L1.3 62.2375H5.28125L5.3625 42.575L5.6875 41.6812L6.25625 41.0312L6.90625 40.7062L7.475 40.5437V19.9875L6.5 19.7437L5.28125 19.2562L4.30625 18.6875L3.4125 17.9562L2.6 17.0625L2.03125 16.1687L1.4625 14.95L1.1375 13.8125L1.05625 13.1625V11.7812L1.3 10.4812L1.7875 9.18122L2.275 8.28748L3.33125 6.98748L4.30625 6.17498L5.60625 5.44373L6.825 5.03748L7.88125 4.87498H9.34375L10.4812 5.03748L11.7 5.44373L12.5938 5.93123L13.4875 6.58123L14.3 7.31248L15.1125 8.36873L15.8437 9.91248L16.1687 11.1312L16.25 11.7812V13L16.0875 14.1375L15.7625 15.1937L15.1125 16.4937L14.3 17.55L13.4875 18.3625L12.35 19.0937L11.4562 19.5L10.2375 19.9062L9.75 19.9875L9.83125 40.5437L10.6437 40.7875L11.1312 41.1125L11.7 41.7625L11.8625 42.1687L11.9437 42.6562V62.2375L27.2187 62.3187L27.0562 61.3437V55.8187H24.8625L24.4562 55.575L23.6437 54.0312L22.5875 51.5937L21.8562 49.8062L21.6125 49.3187V4.46873L21.775 3.49373L22.425 2.19373L22.9937 1.54373L23.8062 0.974976L24.7 0.649976L25.1875 0.568726ZM36.8062 55.7375L33.5562 55.8187L33.475 61.6687L33.3937 62.2375L34.6937 62.3187H52L52.1625 62.1562L52.0812 61.9125L52 57.2V55.9L51.9187 55.8187L48.425 55.7375H36.8062Z" fill="#55D917"/>
<path d="M27.7064 14.625H57.8502L58.5814 14.95L59.1502 15.4375L59.4752 15.925L59.5564 16.1687L59.6377 17.7937V32.0125L59.4752 32.7437L59.0689 33.3937L58.4189 33.8812L58.0127 34.0437L57.4439 34.125H27.7064L27.0564 33.8812L26.2439 33.15L26.0002 32.3375L25.9189 29.8187V19.5812L26.0002 16.25L26.4064 15.4375L27.0564 14.8687L27.7064 14.625Z" fill="#65B9CC"/>
<path d="M7.88125 4.875H9.34375L10.4812 5.0375L11.7 5.44375L12.5938 5.93125L13.4875 6.58125L14.3 7.3125L15.1125 8.36875L15.8437 9.9125L16.1687 11.1313L16.25 11.7813V13L16.0875 14.1375L15.7625 15.1938L15.1125 16.4938L14.3 17.55L13.4875 18.3625L12.35 19.0938L11.4562 19.5L10.2375 19.9063L9.75 19.9875L9.83125 40.5438L10.6437 40.7875L11.1312 41.1125L11.7 41.7625L11.8625 42.1688L11.9437 42.6563V62.2375L27.2187 62.3188V62.1563H33.3937L34.6937 62.2375H52L52.5687 62.1563H58.175L62.8062 62.2375L64.2687 62.3188L64.9187 62.8875L65 62.9688V63.7813L64.4312 64.35L64.1875 64.4313H0.89375L0.4875 64.2688L0.08125 63.9438L0 63.7813V62.8875L0.73125 62.3188L1.3 62.2375H5.28125L5.3625 42.575L5.6875 41.6813L6.25625 41.0313L6.90625 40.7063L7.475 40.5438V19.9875L6.5 19.7438L5.28125 19.2563L4.30625 18.6875L3.4125 17.9563L2.6 17.0625L2.03125 16.1688L1.4625 14.95L1.1375 13.8125L1.05625 13.1625V11.7813L1.3 10.4813L1.7875 9.18125L2.275 8.2875L3.33125 6.9875L4.30625 6.175L5.60625 5.44375L6.825 5.0375L7.88125 4.875Z" fill="#7F8A8B"/>
<path d="M43.8748 43.7937L47.2061 43.875L47.8561 44.2L48.4248 44.7687V44.9312H48.5873L48.7498 46.3125L48.9123 49.1562L53.9498 49.2375H63.6186L63.6998 49.6437L63.6186 50.05L62.6436 52.325L61.5873 54.7625L61.1811 55.4937L60.9373 55.7375L60.6936 55.8187H58.4998V61.6687L58.3373 62.075L58.0936 62.2375H52.4873L52.0811 62.1562L51.9998 61.9125L51.9186 57.2V55.9L48.4248 55.8187H33.5561V61.6687L33.3936 62.1562L33.3123 62.2375H27.4623L27.1373 62.075L27.0561 61.3437V55.8187H24.8623L24.4561 55.575L23.6436 54.0312L22.5873 51.5937L22.0186 50.2125L22.0998 49.725H22.2623L22.1811 49.3187L22.7498 49.2375H36.7248V48.1L36.8061 45.9062L36.9686 45.2562L37.2936 44.6875L37.6998 44.2812L38.1873 43.9562L38.5123 43.875L43.8748 43.7937Z" fill="#BC3D2C"/>
<path d="M7.88115 4.875H9.34365L10.4812 5.0375L11.6999 5.44375L12.5937 5.93125L13.4874 6.58125L14.2999 7.3125L15.1124 8.36875L15.8437 9.9125L16.1687 11.1313L16.2499 11.7813V13L16.0874 14.1375L15.7624 15.1938L15.1124 16.4938L14.2999 17.55L13.4874 18.3625L12.3499 19.0938L11.4562 19.5L9.7499 20.0688H7.55615L6.9874 19.9063L5.44365 19.3375L4.30615 18.6875L3.4124 17.9563L2.5999 17.0625L2.03115 16.1688L1.4624 14.95L1.1374 13.8125L1.05615 13.1625V11.7813L1.2999 10.4813L1.7874 9.18125L2.2749 8.2875L3.33115 6.9875L4.30615 6.175L5.60615 5.44375L6.8249 5.0375L7.88115 4.875Z" fill="#55D917"/>
<path d="M39.4875 4.7937H45.5813L57.1188 4.87495L58.0938 4.9562L58.7438 5.36245L59.15 5.7687L59.475 6.33745L59.6375 7.0687V8.0437L59.475 8.8562L59.0688 9.58745L58.6625 9.91245L58.175 10.1562L56.7125 10.3187H28.4375L27.2188 10.1562L26.5688 9.58745L26.2438 9.09995L26.0813 8.6937L26 8.0437V6.82495L26.2438 6.01245L26.5688 5.6062L26.8938 5.2812L27.5438 4.9562L27.8688 4.87495L39.4875 4.7937Z" fill="#DF7E28"/>
<path d="M11.8625 42.6562H11.9437V62.2375L27.2187 62.3188V62.1563H33.3937L34.6937 62.2375H52L52.5687 62.1563H58.175L62.8062 62.2375L64.2687 62.3188L64.9187 62.8875L65 62.9688V63.7813L64.4312 64.35L64.1875 64.4313H0.89375L0.4875 64.2688L0.08125 63.9438L0 63.7813V62.8875L0.73125 62.3188L1.3 62.2375H5.28125L5.525 62.1563L11.8625 62.2375V42.6562Z" fill="#B6BCC1"/>
<path d="M43.8751 43.7937L47.2063 43.875L47.8563 44.2L48.4251 44.7687V44.9312H48.5876L48.7501 46.3125L48.8313 47.9375V49.1562L48.4251 49.2375H37.2938L36.7251 49.1562V48.1L36.8063 45.9062L36.9688 45.2562L37.2938 44.6875L37.7001 44.2812L38.1876 43.9562L38.5126 43.875L43.8751 43.7937Z" fill="#7B3438"/>
<path d="M7.55615 20.0687H9.7499L9.83115 40.5437L10.1562 40.7062H7.1499L7.4749 40.5437L7.55615 20.0687Z" fill="#98A3A4"/>
<path d="M27.0562 55.8999H33.5562V61.6687L33.3937 62.1562L33.3124 62.2374H27.4624L27.1374 62.0749L27.0562 61.3437V55.8999Z" fill="#2E3F4F"/>
<path d="M52.0002 55.8999H58.4189L58.5002 55.9812V61.6687L58.3377 62.0749L58.0939 62.2374H52.4877L52.0814 62.1562L52.0002 61.9124L51.9189 57.1999L52.0002 55.8999Z" fill="#2D3E4F"/>
<path d="M28.6814 38.4312H29.9002L30.7939 38.7562L31.4439 39.2437L32.0127 39.8937L32.4189 40.7874L32.5002 41.1124V42.3312L32.1752 43.1437L31.7689 43.7937L31.0377 44.4437L30.2252 44.8499L29.9814 44.9312H28.6002L27.7877 44.6874L26.9752 44.1999L26.3252 43.3062L26.0002 42.4124L25.9189 41.9249V41.1937L26.2439 40.2999L26.8939 39.4062L27.7877 38.7562L28.6814 38.4312Z" fill="#F2BE28"/>
<path d="M55.7374 38.4312H56.9562L57.8499 38.7562L58.7437 39.4062L59.3124 40.2999L59.5562 41.0312L59.6374 42.0062L59.4749 42.7374L58.9874 43.6312L58.5812 44.1187L57.6874 44.6874L57.0374 44.9312H55.6562L54.6812 44.6062L53.9499 44.0374L53.3812 43.2249L53.0562 42.3312V40.9499L53.6249 39.8124L54.4374 38.9999L55.4124 38.5124L55.7374 38.4312Z" fill="#F2BE28"/>
<path d="M5.44355 42.25L5.60605 42.3313V42.7375L5.76855 43.3063V43.55V46.5563H5.60605L5.6873 47.125L5.76855 47.5313H5.60605L5.6873 48.0188V49.1563L5.60605 50.375V57.525L5.5248 57.9313L5.60605 58.4188L5.6873 59.2313L5.60605 59.5563L5.6873 60.775L5.5248 61.8313L5.3623 61.9938V42.575L5.44355 42.25Z" fill="#99A3A5"/>
<path d="M27.2189 14.7875L27.4627 14.8687L26.9752 15.1937L26.5689 15.6L26.2439 16.0875L26.1627 16.4937V32.0937L26.2439 32.9062L26.0814 32.7437L26.0002 32.3375L25.9189 29.8187V19.5812L26.0002 16.25L26.4064 15.4375L27.0564 14.8687L27.2189 14.7875Z" fill="#8C9798"/>
<path d="M22.1813 50.1312H22.3438L22.5876 50.4562V50.6187H22.7501L22.9126 51.1875H23.0751L23.1563 51.675L23.4001 52.2437L23.5626 52.65L23.9688 53.4625L24.1313 53.95V54.275L24.2938 54.3562V54.6L24.4563 54.6812V54.925L24.6188 55.0062L24.7813 55.1687L24.8626 55.7375L24.5376 55.6562L24.1313 55.0062L23.4001 53.4625L22.1001 50.4562L22.1813 50.1312Z" fill="#C7504F"/>
<path d="M5.3623 57.9312H5.5248L5.60605 58.4187L5.6873 59.2312L5.60605 59.5562L5.6873 60.7749L5.5248 61.8312L5.3623 61.9937V57.9312Z" fill="#97A2A3"/>
<path d="M6.6625 40.7875H6.825L6.6625 41.275H6.25625L6.09375 41.6812L5.6875 41.7625L6.0125 41.275L6.6625 40.7875Z" fill="#99A4A5"/>
<path d="M11.375 41.4375L11.7 41.7625L11.8625 42.1687V43.3062L11.7 43.225L11.5375 41.925L11.375 41.6812V41.4375Z" fill="#99A4A5"/>
<path d="M27.2188 14.7875L27.4625 14.8687L26.975 15.1937L26.5688 15.6L26.2438 16.0875L26.0813 16.575L26 16.25L26.4063 15.4375L27.0563 14.8687L27.2188 14.7875Z" fill="#929D9E"/>
<path d="M27.3813 39L27.5438 39.0813L26.5688 40.0563V39.8125L26.9751 39.325L27.3813 39Z" fill="#E59528"/>
</svg>
