<svg width="65" height="65" viewBox="0 0 65 65" fill="none" xmlns="http://www.w3.org/2000/svg">
<path d="M25.1875 0.568848H60.3687L61.3437 0.812598L62.1562 1.21885L62.8875 1.86885L63.4562 2.68135L63.7812 3.49385L63.9437 4.7126V48.1813L63.8625 49.4813L62.6437 52.3251L61.5875 54.7626L61.1812 55.4938L60.9375 55.7376L60.6937 55.8188H58.5V61.6688L58.3375 62.0751L58.2562 62.1563L62.8062 62.2376L64.2687 62.3188L64.9187 62.8876L65 62.9688V63.7813L64.4312 64.3501L64.1875 64.4313H0.89375L0.4875 64.2688L0.08125 63.9438L0 63.7813V62.8876L0.73125 62.3188L1.3 62.2376H5.28125L5.3625 42.5751L5.6875 41.6813L6.25625 41.0313L6.90625 40.7063L7.475 40.5438V19.9876L6.5 19.7438L5.28125 19.2563L4.30625 18.6876L3.4125 17.9563L2.6 17.0626L2.03125 16.1688L1.4625 14.9501L1.1375 13.8126L1.05625 13.1626V11.7813L1.3 10.4813L1.7875 9.18135L2.275 8.2876L3.33125 6.9876L4.30625 6.1751L5.60625 5.44385L6.825 5.0376L7.88125 4.8751H9.34375L10.4812 5.0376L11.7 5.44385L12.5938 5.93135L13.4875 6.58135L14.3 7.3126L15.1125 8.36885L15.8437 9.9126L16.1687 11.1313L16.25 11.7813V13.0001L16.0875 14.1376L15.7625 15.1938L15.1125 16.4938L14.3 17.5501L13.4875 18.3626L12.35 19.0938L11.4562 19.5001L10.2375 19.9063L9.75 19.9876L9.83125 40.5438L10.6437 40.7876L11.1312 41.1126L11.7 41.7626L11.8625 42.1688L11.9437 42.6563V62.2376L27.2187 62.3188L27.0562 61.3438V55.8188H24.8625L24.4562 55.5751L23.6437 54.0313L22.5875 51.5938L21.8562 49.8063L21.6125 49.3188V4.46885L21.775 3.49385L22.425 2.19385L22.9937 1.54385L23.8062 0.975098L24.7 0.650098L25.1875 0.568848ZM36.8062 55.7376L33.5562 55.8188L33.475 61.6688L33.3937 62.2376L34.6937 62.3188H52L52.1625 62.1563L52.0812 61.9126L52 57.2001V55.9001L51.9187 55.8188L48.425 55.7376H36.8062Z" fill="#8C8A8A"/>
<path d="M27.7055 14.625H57.8492L58.5805 14.95L59.1492 15.4375L59.4742 15.925L59.5555 16.1687L59.6367 17.7937V32.0125L59.4742 32.7437L59.068 33.3937L58.418 33.8812L58.0117 34.0437L57.443 34.125H27.7055L27.0555 33.8812L26.243 33.15L25.9992 32.3375L25.918 29.8187V19.5812L25.9992 16.25L26.4055 15.4375L27.0555 14.8687L27.7055 14.625Z" fill="#65B9CC"/>
<path d="M7.88125 4.875H9.34375L10.4812 5.0375L11.7 5.44375L12.5938 5.93125L13.4875 6.58125L14.3 7.3125L15.1125 8.36875L15.8437 9.9125L16.1687 11.1313L16.25 11.7813V13L16.0875 14.1375L15.7625 15.1938L15.1125 16.4938L14.3 17.55L13.4875 18.3625L12.35 19.0938L11.4562 19.5L10.2375 19.9063L9.75 19.9875L9.83125 40.5438L10.6437 40.7875L11.1312 41.1125L11.7 41.7625L11.8625 42.1688L11.9437 42.6563V62.2375L27.2187 62.3188V62.1563H33.3937L34.6937 62.2375H52L52.5687 62.1563H58.175L62.8062 62.2375L64.2687 62.3188L64.9187 62.8875L65 62.9688V63.7813L64.4312 64.35L64.1875 64.4313H0.89375L0.4875 64.2688L0.08125 63.9438L0 63.7813V62.8875L0.73125 62.3188L1.3 62.2375H5.28125L5.3625 42.575L5.6875 41.6813L6.25625 41.0313L6.90625 40.7063L7.475 40.5438V19.9875L6.5 19.7438L5.28125 19.2563L4.30625 18.6875L3.4125 17.9563L2.6 17.0625L2.03125 16.1688L1.4625 14.95L1.1375 13.8125L1.05625 13.1625V11.7813L1.3 10.4813L1.7875 9.18125L2.275 8.2875L3.33125 6.9875L4.30625 6.175L5.60625 5.44375L6.825 5.0375L7.88125 4.875Z" fill="#7F8A8B"/>
<path d="M43.8758 43.7939L47.207 43.8752L47.857 44.2002L48.4258 44.7689V44.9314H48.5883L48.7508 46.3127L48.9133 49.1564L53.9508 49.2377H63.6195L63.7008 49.6439L63.6195 50.0502L62.6445 52.3252L61.5883 54.7627L61.182 55.4939L60.9383 55.7377L60.6945 55.8189H58.5008V61.6689L58.3383 62.0752L58.0945 62.2377H52.4883L52.082 62.1564L52.0008 61.9127L51.9195 57.2002V55.9002L48.4258 55.8189H33.557V61.6689L33.3945 62.1564L33.3133 62.2377H27.4633L27.1383 62.0752L27.057 61.3439V55.8189H24.8633L24.457 55.5752L23.6445 54.0314L22.5883 51.5939L22.0195 50.2127L22.1008 49.7252H22.2633L22.182 49.3189L22.7508 49.2377H36.7258V48.1002L36.807 45.9064L36.9695 45.2564L37.2945 44.6877L37.7008 44.2814L38.1883 43.9564L38.5133 43.8752L43.8758 43.7939Z" fill="#BC3D2C"/>
<path d="M7.88164 4.875H9.34414L10.4816 5.0375L11.7004 5.44375L12.5941 5.93125L13.4879 6.58125L14.3004 7.3125L15.1129 8.36875L15.8441 9.9125L16.1691 11.1313L16.2504 11.7813V13L16.0879 14.1375L15.7629 15.1938L15.1129 16.4938L14.3004 17.55L13.4879 18.3625L12.3504 19.0938L11.4566 19.5L9.75039 20.0688H7.55664L6.98789 19.9063L5.44414 19.3375L4.30664 18.6875L3.41289 17.9563L2.60039 17.0625L2.03164 16.1688L1.46289 14.95L1.13789 13.8125L1.05664 13.1625V11.7813L1.30039 10.4813L1.78789 9.18125L2.27539 8.2875L3.33164 6.9875L4.30664 6.175L5.60664 5.44375L6.82539 5.0375L7.88164 4.875Z" fill="#8C8A8A"/>
<path d="M39.4875 4.79395H45.5813L57.1188 4.8752L58.0938 4.95645L58.7438 5.3627L59.15 5.76895L59.475 6.3377L59.6375 7.06895V8.04395L59.475 8.85645L59.0688 9.5877L58.6625 9.9127L58.175 10.1564L56.7125 10.3189H28.4375L27.2188 10.1564L26.5688 9.5877L26.2438 9.1002L26.0813 8.69395L26 8.04395V6.8252L26.2438 6.0127L26.5688 5.60645L26.8938 5.28145L27.5438 4.95645L27.8688 4.8752L39.4875 4.79395Z" fill="#DF7E28"/>
<path d="M11.8625 42.6562H11.9437V62.2375L27.2187 62.3188V62.1563H33.3937L34.6937 62.2375H52L52.5687 62.1563H58.175L62.8062 62.2375L64.2687 62.3188L64.9187 62.8875L65 62.9688V63.7813L64.4312 64.35L64.1875 64.4313H0.89375L0.4875 64.2688L0.08125 63.9438L0 63.7813V62.8875L0.73125 62.3188L1.3 62.2375H5.28125L5.525 62.1563L11.8625 62.2375V42.6562Z" fill="#B6BCC1"/>
<path d="M43.8746 43.7939L47.2059 43.8752L47.8559 44.2002L48.4246 44.7689V44.9314H48.5871L48.7496 46.3127L48.8309 47.9377V49.1564L48.4246 49.2377H37.2934L36.7246 49.1564V48.1002L36.8059 45.9064L36.9684 45.2564L37.2934 44.6877L37.6996 44.2814L38.1871 43.9564L38.5121 43.8752L43.8746 43.7939Z" fill="#7B3438"/>
<path d="M7.55664 20.0688H9.75039L9.83164 40.5438L10.1566 40.7063H7.15039L7.47539 40.5438L7.55664 20.0688Z" fill="#98A3A4"/>
<path d="M27.0566 55.8999H33.5566V61.6687L33.3941 62.1562L33.3129 62.2374H27.4629L27.1379 62.0749L27.0566 61.3437V55.8999Z" fill="#2E3F4F"/>
<path d="M51.9992 55.8999H58.418L58.4992 55.9812V61.6687L58.3367 62.0749L58.093 62.2374H52.4867L52.0805 62.1562L51.9992 61.9124L51.918 57.1999L51.9992 55.8999Z" fill="#2D3E4F"/>
<path d="M28.6805 38.4312H29.8992L30.793 38.7562L31.443 39.2437L32.0117 39.8937L32.418 40.7874L32.4992 41.1124V42.3312L32.1742 43.1437L31.768 43.7937L31.0367 44.4437L30.2242 44.8499L29.9805 44.9312H28.5992L27.7867 44.6874L26.9742 44.1999L26.3242 43.3062L25.9992 42.4124L25.918 41.9249V41.1937L26.243 40.2999L26.893 39.4062L27.7867 38.7562L28.6805 38.4312Z" fill="#F2BE28"/>
<path d="M55.7379 38.4312H56.9566L57.8504 38.7562L58.7441 39.4062L59.3129 40.2999L59.5566 41.0312L59.6379 42.0062L59.4754 42.7374L58.9879 43.6312L58.5816 44.1187L57.6879 44.6874L57.0379 44.9312H55.6566L54.6816 44.6062L53.9504 44.0374L53.3816 43.2249L53.0566 42.3312V40.9499L53.6254 39.8124L54.4379 38.9999L55.4129 38.5124L55.7379 38.4312Z" fill="#F2BE28"/>
<path d="M5.44453 42.25L5.60703 42.3313V42.7375L5.76953 43.3063V43.55V46.5563H5.60703L5.68828 47.125L5.76953 47.5313H5.60703L5.68828 48.0188V49.1563L5.60703 50.375V57.525L5.52578 57.9313L5.60703 58.4188L5.68828 59.2313L5.60703 59.5563L5.68828 60.775L5.52578 61.8313L5.36328 61.9938V42.575L5.44453 42.25Z" fill="#99A3A5"/>
<path d="M27.218 14.7876L27.4617 14.8688L26.9742 15.1938L26.568 15.6001L26.243 16.0876L26.1617 16.4938V32.0938L26.243 32.9063L26.0805 32.7438L25.9992 32.3376L25.918 29.8188V19.5813L25.9992 16.2501L26.4055 15.4376L27.0555 14.8688L27.218 14.7876Z" fill="#8C9798"/>
<path d="M22.1809 50.1313H22.3434L22.5871 50.4563V50.6188H22.7496L22.9121 51.1876H23.0746L23.1559 51.6751L23.3996 52.2438L23.5621 52.6501L23.9684 53.4626L24.1309 53.9501V54.2751L24.2934 54.3563V54.6001L24.4559 54.6813V54.9251L24.6184 55.0063L24.7809 55.1688L24.8621 55.7376L24.5371 55.6563L24.1309 55.0063L23.3996 53.4626L22.0996 50.4563L22.1809 50.1313Z" fill="#C7504F"/>
<path d="M5.36328 57.9312H5.52578L5.60703 58.4187L5.68828 59.2312L5.60703 59.5562L5.68828 60.7749L5.52578 61.8312L5.36328 61.9937V57.9312Z" fill="#97A2A3"/>
<path d="M6.6625 40.7876H6.825L6.6625 41.2751H6.25625L6.09375 41.6813L5.6875 41.7626L6.0125 41.2751L6.6625 40.7876Z" fill="#99A4A5"/>
<path d="M11.375 41.4375L11.7 41.7625L11.8625 42.1687V43.3062L11.7 43.225L11.5375 41.925L11.375 41.6812V41.4375Z" fill="#99A4A5"/>
<path d="M27.2188 14.7876L27.4625 14.8688L26.975 15.1938L26.5688 15.6001L26.2438 16.0876L26.0813 16.5751L26 16.2501L26.4063 15.4376L27.0563 14.8688L27.2188 14.7876Z" fill="#929D9E"/>
<path d="M27.3809 39L27.5434 39.0813L26.5684 40.0563V39.8125L26.9746 39.325L27.3809 39Z" fill="#E59528"/>
</svg>
