<svg width="70" height="70" viewBox="0 0 70 70" fill="none" xmlns="http://www.w3.org/2000/svg">
<g clip-path="url(#clip0_252_8258)">
<path d="M50.1374 0H51.8874L53.1999 0.2625L54.2499 0.7875L55.1249 1.4875L55.6499 2.1875L56.0874 3.0625L56.3499 4.1125L56.4374 6.3875L56.5249 10.2375V13.2125L55.9999 20.125L55.3874 29.225L54.9499 34.825L54.6874 36.925L54.2499 38.7625L54.1624 39.4625L55.9124 41.2125L56.6999 42.175L57.3124 43.1375L57.8374 44.275L58.0999 45.325L58.1874 45.9375V47.425L57.9249 48.825L57.3124 50.4875L56.7874 51.8875L56.5249 53.025L56.4374 54.3375L56.6124 55.7375L56.8749 56.7L57.3124 57.75L58.3624 59.325L59.4999 60.9L60.7249 62.65L61.5124 63.875L61.5999 64.1375V65.0125L61.1624 65.8L60.7249 66.15L60.2874 66.325L59.3249 66.4125H58.1874L57.9249 66.5L57.8374 67.55L57.4874 68.425L56.6999 69.3L55.9999 69.7375L55.3874 70H25.2874L24.2374 69.3L23.7124 68.5125L23.6249 68.1625L23.5374 59.675L23.6249 57.575L17.7624 57.6625L17.0624 58.275L15.8374 59.4125L15.1374 60.025L14.2624 60.8125L12.9499 62.0375L11.7249 63L10.9374 63.2625L10.0624 63.175L9.1874 62.7375L8.6624 62.0375L8.3999 61.425V60.2L8.7499 59.325L9.7124 58.45L11.1124 57.4L12.9499 56L13.9999 55.2125L15.1374 54.3375L16.7124 53.1125L17.5874 52.4125L17.6749 52.325L17.8499 51.45L18.4624 50.6625L18.8999 50.3125L19.5999 50.05H23.4499L23.5374 48.475V46.8125L23.6249 45.675L23.9749 44.7125L24.4999 43.8375L25.4624 42.9625L26.4249 42.525L27.2124 42.35H30.0124V39.375L30.1874 39.025L30.7124 38.85H32.5499L33.5124 39.1125L34.2999 39.8125L34.7374 40.6875L34.8249 40.95V42.35L40.2499 42.2625L41.3874 37.975L42.1749 34.825L42.9624 31.85L43.4874 30.45L44.0124 29.4875L44.7999 28.4375L45.6749 27.475L46.5499 26.1625L47.1624 24.7625L47.7749 22.575L48.1249 21.175L48.2124 21H46.1124L45.5874 20.65L45.3249 20.2125V11.9875L45.9374 11.2875L46.5499 11.1125H50.7499L50.9249 10.2375L51.3624 8.4875V7.7875L50.1374 0.7875V0Z" fill="#BDBEBE"/>
<path d="M30.7124 38.85H32.5499L33.5124 39.1125L34.2999 39.8125L34.7374 40.6875L34.8249 40.95V42.35H40.3374L40.5999 42.4375L44.3624 42.525L45.4999 42.7L46.2874 43.225L46.8999 44.0125L47.2499 44.8L47.3374 45.4125V48.7375L47.2499 50.4875L46.9874 51.275L46.2874 52.2375L45.4999 53.2L45.1499 53.55H44.9749V53.725H44.7999V53.9H44.6249L44.4499 54.25L43.8374 54.775L43.7499 54.95H43.5749L43.3999 55.3H43.2249L43.0499 55.65L41.2124 57.4875L41.0374 57.75H40.8624L40.6874 58.1L39.4624 59.325L39.3749 59.5H39.1999L39.0249 59.85L34.6499 64.225L34.2999 64.6625L33.8624 65.1H33.6874L33.5124 65.45L32.0249 66.9375L31.4999 67.55H31.3249L31.1499 67.9L30.7999 68.25H30.6249L30.4499 68.6L29.8374 69.2125L28.8749 70H25.2874L24.2374 69.3L23.7124 68.5125L23.6249 68.1625L23.5374 59.675L23.6249 57.575L17.7624 57.6625L17.0624 58.275L15.8374 59.4125L15.1374 60.025L14.2624 60.8125L12.9499 62.0375L11.7249 63L10.9374 63.2625L10.0624 63.175L9.1874 62.7375L8.6624 62.0375L8.3999 61.425V60.2L8.7499 59.325L9.7124 58.45L11.1124 57.4L12.9499 56L13.9999 55.2125L15.1374 54.3375L16.7124 53.1125L17.5874 52.4125L17.6749 52.325L17.8499 51.45L18.4624 50.6625L18.8999 50.3125L19.5999 50.05H23.4499L23.5374 48.475V46.8125L23.6249 45.675L23.9749 44.7125L24.4999 43.8375L25.4624 42.9625L26.4249 42.525L27.2124 42.35H30.0124V39.375L30.1874 39.025L30.7124 38.85Z" fill="#DADCDF"/>
<path d="M51.3624 8.57495L51.5374 8.66245L52.1499 11.8125L52.4124 12.8625L52.6749 13.125L53.6374 13.3875V14.0875L52.8499 18.2874L51.8874 23.275L50.1374 32.4624L49.4374 36.2249L48.6499 40.3374L48.2124 42.5249L47.5124 42.4374L42.7874 42.3499L40.4249 42.2624L40.3374 41.9124L41.3874 37.9749L42.1749 34.8249L42.9624 31.8499L43.4874 30.4499L44.0124 29.4874L44.7999 28.4374L45.6749 27.4749L46.5499 26.1624L47.1624 24.7624L47.7749 22.5749L48.1249 21.1749L48.2124 20.9999H46.1124L45.5874 20.65L45.3249 20.2125V11.9875L45.9374 11.2875L46.5499 11.1125H50.7499L50.9249 10.2375L51.3624 8.57495Z" fill="#375F7E"/>
<path d="M39.6377 47.8625L40.6002 47.95L41.2127 48.2125L41.5627 48.5625L42.0002 49.4375L42.0877 50.225L41.8252 50.925L40.7752 52.15L39.5502 53.4625L38.9377 54.075L38.3252 54.775L37.0127 56.0875L36.4002 56.7875L35.7002 57.4875L35.0877 58.1875L33.8627 59.5L33.3377 60.1125H33.1627V60.2875H32.9877L32.8127 60.6375L32.1127 61.1625L31.5002 61.425H30.8877L30.1002 61.075L29.6627 60.8125V60.6375H29.4877L29.3127 60.375L29.1377 59.2375V52.5875L29.2252 49.525L29.5752 48.7375L30.1877 48.2125L30.6252 48.0375L32.4627 47.95L39.6377 47.8625Z" fill="#BEBFBF"/>
<path d="M53.8999 39.9L54.5999 40.075L55.0374 40.3375L55.9124 41.2125L56.6999 42.175L57.3124 43.1375L57.8374 44.275L58.0999 45.325L58.1874 45.9375V47.425L57.9249 48.825L57.3124 50.4875L56.7874 51.8875L56.5249 53.025L56.4374 54.3375L56.6124 55.7375L56.8749 56.7L57.3124 57.75L58.3624 59.325L59.4999 60.9L60.7249 62.65L61.5124 63.875L61.5999 64.1375V65.0125L61.1624 65.8L60.7249 66.15L60.2874 66.325L59.3249 66.4125H58.2749L58.0999 66.2375L58.2749 66.0625L58.4499 65.45L58.7999 64.75L58.7124 64.05L58.0124 62.9125L57.3999 62.0375L56.6999 61.075V60.8125H56.5249L55.6499 59.5L55.2999 59.0625L54.9499 58.45L54.4249 57.575L53.8999 56.525L53.5499 55.0375V53.8125L53.7249 52.4125L54.1624 51.0125L54.6874 49.6125L54.7749 48.65L54.4249 48.125L53.9874 47.775L53.7249 47.6875H52.8499L52.4999 47.775V47.95L51.7999 48.5625L50.9249 49.4375L50.6624 49.525L50.3999 49.0875V46.8125L50.5749 45.325L51.1874 44.45L51.3624 44.1875H51.5374L51.7124 43.75L52.1499 43.1375L52.5874 42.35L53.1999 41.3875L53.8124 39.9875L53.8999 39.9Z" fill="#AAABAB"/>
<path d="M19.5999 50.05H23.4499L23.5374 50.225V57.4875L23.4499 57.575L17.7624 57.6625L17.0624 58.2751L15.8374 59.4125L15.1374 60.0251L14.2624 60.8126L12.9499 62.0376L11.7249 63.0001L10.9374 63.2626L10.0624 63.1751L9.1874 62.7376L8.6624 62.0376L8.3999 61.4251V60.2001L8.7499 59.3251L9.7124 58.4501L11.1124 57.4001L12.9499 56L13.9999 55.2125L15.1374 54.3375L16.7124 53.1125L17.5874 52.4125L17.6749 52.325L17.8499 51.45L18.4624 50.6625L18.8999 50.3125L19.5999 50.05Z" fill="#375F7E"/>
<path d="M35.7001 66.325H53.6376L57.6626 66.4125L57.9251 66.5L57.8376 67.55L57.4876 68.425L56.7001 69.3L56.0001 69.7375L55.3876 70H31.8501L32.9876 68.8625L33.6001 68.3375L33.6876 68.1625H33.8626L34.0376 67.8125L35.0876 66.7625L35.7001 66.325Z" fill="#AAABAB"/>
<path d="M50.1377 0H51.8877L53.2002 0.2625L54.2502 0.7875L55.1252 1.4875L55.6502 2.1875L56.0877 3.0625L56.3502 4.1125L56.4377 6.3875L56.5252 10.2375V13.2125L55.0377 13.3875H54.2502L53.0252 13.2125L52.5002 12.95L52.3252 12.5125V12.25H52.1502L51.5377 9.0125L51.3627 8.4875V7.7875L50.1377 0.7875V0Z" fill="#DADCDF"/>
<path d="M46.5502 11.1125H50.6627L50.1377 13.65L48.7377 19.075L48.2127 20.9125L48.1252 21H46.1127L45.5877 20.65L45.3252 20.2125V11.9875L45.9377 11.2875L46.5502 11.1125Z" fill="#66BAF7"/>
<path d="M39.9 48.3H40.5125L41.2125 48.5625L41.7375 49.35L41.825 49.6125V50.4875L41.2125 51.45L40.6 52.0625L39.9875 52.7625L38.5875 54.25L37.8 55.125L37.45 55.475L37.1875 55.9125L36.225 56.9625L34.825 58.45L34.0375 59.325L33.425 59.9375L33.3375 60.1125H33.1625V60.2875H32.9875L32.8125 60.6375L31.5875 61.25H30.8875L30.0125 60.9L29.75 60.55V60.2875H29.925L30.1 59.9375L31.2375 58.7125L31.675 58.1H31.85L32.025 57.75L32.9 56.875L32.9875 56.7H33.1625V56.525H33.3375L33.5125 56.175L34.7375 54.95L35.9625 53.55H36.1375L36.3125 53.2L36.925 52.5L37.275 52.15H37.45L37.625 51.8L38.675 50.6625L39.1125 49.9625L39.2875 48.825L39.55 48.3875L39.9 48.3Z" fill="#AAABAB"/>
<path d="M15.3124 54.1625L15.4874 54.25L15.2249 54.6875L15.3124 56.525L15.2249 58.7125V59.4125L15.3124 59.85L13.0374 61.95L11.9874 62.825L11.2874 63.175L10.5874 63.2625L9.7999 63.0875L9.0999 62.65L8.5749 61.8625L8.3999 61.425V60.2L8.7499 59.325L9.7124 58.45L11.1124 57.4L12.9499 56L13.9999 55.2125L15.1374 54.3375L15.3124 54.1625Z" fill="#375F7E"/>
<path d="M30.7127 38.85H32.5502L33.5127 39.1125L34.3002 39.8125L34.7377 40.6875L34.8252 40.95V42.2625L34.7377 42.35H30.3627L30.0127 42.2625V39.375L30.1877 39.025L30.7127 38.85Z" fill="#D9BA86"/>
<path d="M17.3252 52.675H17.5002L17.6752 53.6375L17.7627 57.6625L17.0627 58.275L15.8377 59.4125L15.4002 59.7625H15.2252L15.1377 59.4125V58.1875L15.2252 56.2625L15.1377 54.6875L15.4002 54.25L15.8377 53.8125L17.0627 52.85L17.3252 52.675Z" fill="#2C4F6C"/>
<path d="M23.4502 50.1375H23.7127L23.8002 50.6625V57.4L23.6252 57.75V57.575L23.4502 57.4875V50.1375Z" fill="#B7B8B8"/>
<path d="M40.3375 42.175L42.7875 42.2625L47.5125 42.35V42.4375L44.275 42.525H40.6L40.25 42.35L40.3375 42.175Z" fill="#B3B4B4"/>
<path d="M58.8877 60.2L59.3252 60.6375L60.2877 62.0375V62.3L59.8502 62.0375L59.3252 61.3375L58.8877 60.55V60.2Z" fill="#C0C1C1"/>
</g>
<defs>
<clipPath id="clip0_252_8258">
<rect width="70" height="70" fill="white"/>
</clipPath>
</defs>
</svg>
