<svg width="65" height="49" viewBox="0 0 65 49" fill="none" xmlns="http://www.w3.org/2000/svg">
<path d="M30.2656 0.693726H36.0344L37.5781 0.734351L41.3563 0.896851L45.1344 1.1406L46.7188 1.26248L48.3031 1.42498L49.6031 1.6281L50.0906 1.74998L50.6594 2.03435L51.1875 2.52185L51.6344 3.04998L52.0406 3.61873L52.6094 4.43123L53.1375 5.28435L53.625 6.13748L54.1531 7.07185L54.5594 7.8031L55.2906 9.18435L55.6969 9.95623L56.9969 12.5562L57.3625 13.3687L57.85 14.3437L58.1344 14.6687L58.3375 14.6281L58.5 14.5062H58.5812L58.6625 14.3437L58.9469 14.0187L59.1094 13.775L59.3937 12.6781L59.5563 12.3531L59.7188 12.15L59.8 12.1094L60.4906 12.0687H61.5063L62.3188 12.1094L63.1313 12.2312L63.7406 12.4344L64.2281 12.7187L64.8375 13.2469L65 13.3687V14.5469L64.5938 14.8312L64.0656 15.2375L63.2125 15.5625L62.1969 15.8469L60.9375 16.0906L59.5156 16.2937L58.7438 16.3344L59.1094 16.9437L59.6375 17.9187L60.2875 19.0969L60.8156 20.0719L61.425 21.2094L62.0344 22.4281L62.6031 23.8094L62.9281 24.8656L63.1313 25.8812L63.2938 27.1812L63.375 28.725V30.1469L63.3344 31.4062L63.2531 32.5031L63.0906 33.9656L62.8469 35.7531L62.6437 36.9312L62.1969 39.0031L61.9938 39.6531L61.5469 40.5875L61.3031 40.9125L61.1813 41.3187L61.1406 41.5625L61.1 42.9844L61.0594 45.8687L61.0187 46.4781L60.8969 46.925L60.5312 47.5344L60.2469 47.8187L60.0438 47.9L59.5563 47.9406L58.1344 47.9812H54.3563L53.8688 47.9L53.5844 47.7375L53.1781 47.1687L53.0563 46.8031L53.0156 46.5594L52.975 45.8687L52.9344 42.6187L52.7719 42.5781H46.8406L37.9031 42.6187L31.2812 42.7L26.8938 42.7406L17.875 42.7812L12.4313 42.8625V45.9094L12.35 47.0469L12.2281 47.4531L11.9031 47.8594L11.4156 48.1437L11.0094 48.225L8.36875 48.3062H5.64687L5.28125 48.225L4.95625 47.9812L4.67188 47.6562L4.46875 47.1687L4.3875 46.8844L4.34688 46.5594L4.30625 43.5125V41.9281L4.02187 41.4812L3.69688 41.1562L3.25 40.425L2.84375 39.2062L2.55938 38.1094L2.23438 36.4844L1.95 34.7375L1.74688 33.0312L1.625 31.4469L1.58438 30.5125V28.4L1.66562 27.0594L1.82812 25.9625L2.03125 25.0281L2.35625 23.9719L2.7625 22.9562L3.9 20.6812L4.50938 19.5437L5.24062 18.1625L5.72813 17.1875L6.0125 16.5375L6.175 16.2125H4.99687L3.9 16.0906L2.925 15.9281L1.82812 15.6844L1.34063 15.4812L0.89375 15.2375L0.325 14.75L0 14.5062V13.3687L0.24375 13.1656L0.528125 12.8406L1.05625 12.5156L1.74688 12.2312L2.39687 12.1094L2.84375 12.0687H3.98125L4.95625 12.1094L5.32188 12.1906L5.48438 12.3937L5.64687 12.7594V13.0844L5.80938 13.6937L6.05312 14.0594L6.62188 14.6687L6.74375 14.75L7.02813 14.3844L7.51562 13.45L8.00313 12.3937L9.05937 10.2406L9.425 9.46873L9.75 8.81873L10.3594 7.68123L10.725 6.9906L11.0906 6.3406L11.3344 5.93435L11.5781 5.48748L11.9844 4.79685L12.6344 3.78123L13.0813 3.21248L13.4469 2.7656L13.8531 2.35935L14.3813 2.03435L14.8281 1.87185L15.8438 1.66873L17.3875 1.4656L19.0938 1.3031L22.5063 1.05935L25.1063 0.896851L28.8031 0.734351L30.2656 0.693726Z" fill="#55D917"/>
<path d="M29.3721 2.76562H38.6752L41.4377 2.80625L45.5002 2.8875L49.8064 2.92812L50.2127 3.09062L50.5783 3.41562L50.9033 3.98438L51.3502 4.95937L51.6346 5.56875L52.0814 6.54375L52.5283 7.55937L53.2189 9.0625L53.8689 10.4844L54.3564 11.5812L55.0471 13.0437L55.4127 13.7344L55.6971 14.4656V14.6281L55.3721 14.6687L46.5564 14.75L39.6502 14.7906H37.7002L26.6908 14.8312L22.5877 14.8719L17.6721 14.9531H10.8064L9.54707 14.9125L9.2627 14.8719V14.6687L9.87207 13.45L10.4002 12.3125L10.7658 11.5L11.1314 10.7281L11.7814 9.26562L12.4721 7.72187L13.0408 6.42187L13.6502 4.95937L14.2596 3.78125L14.5033 3.45625L14.7877 3.25312L16.1689 3.13125L18.2814 3.05L27.2596 2.80625L29.3721 2.76562Z" fill="#32485C"/>
<path d="M42.5343 34.6562H45.0937L45.5405 34.7375L45.5812 34.8188L45.6624 35.7531L45.703 36.7281L45.7437 38.9219V40.1406L45.703 40.1813L44.8905 40.2625L43.2249 40.3031L40.5843 40.3438L27.2187 40.425L22.4249 40.5063H19.8655L19.4187 40.4656L19.378 40.3031L19.3374 39.6125V37.7031L19.378 36.2406L19.4593 35.1844L19.4999 34.9813L20.4749 34.9406L28.3155 34.8188L35.9124 34.7781L40.7062 34.6969L42.5343 34.6562Z" fill="#3D5470"/>
<path d="M59.1096 22.0625H59.8002L60.1252 22.1438L60.2877 22.3469L60.4096 22.8344L60.4908 23.5656V24.8656L60.3689 25.6781L60.1252 26.6531L59.8814 27.3031L59.5971 27.8313L59.1096 28.5625H59.0283L58.9471 28.725L58.8252 28.8875H58.7439L58.6627 29.05L58.3377 29.3344L57.7689 29.6594L57.3627 29.7813L56.7127 29.8625L54.5596 29.9031H47.4908L46.7596 29.6594L46.5971 29.4563L46.4346 29.0906V28.6844L46.8002 27.8313L47.2064 27.1L47.6533 26.3281L48.2627 25.3531L48.5471 24.9875L48.8721 24.6625L49.6033 24.3781L50.9846 24.0125L53.7471 23.3625L56.8752 22.5906L57.6471 22.3875L58.5408 22.1844L59.1096 22.0625Z" fill="#FAFAFB"/>
<path d="M5.15937 21.9812H5.525L5.97187 22.0625L7.92187 22.5906L9.18125 22.9156L10.4 23.2L11.7812 23.5656L12.8781 23.8093L15.0719 24.3375L15.6812 24.5406L16.1281 24.7843L16.6562 25.2718L17.0625 25.8406L17.4281 26.45L17.9969 27.5468L18.2812 28.1562L18.4844 28.7656V29.2125L18.3625 29.5375L18.0781 29.7812L17.6719 29.8625L17.0219 29.9031H8.08437L7.51562 29.8218L6.86562 29.4968L6.5 29.2125L6.09375 28.8468L5.72812 28.4406L5.28125 27.7093L4.99687 27.1406L4.75312 26.4093L4.59062 25.7593L4.46875 24.825V24.3781L4.55 23.4843L4.7125 22.7125L4.875 22.3062L5.07812 22.0218L5.15937 21.9812Z" fill="#FAFAFB"/>
<path d="M21.5311 27.3438L22.5873 27.3844L32.3779 27.425H35.3436L40.2998 27.3844H42.8998L42.9404 27.4656V29.6594L42.8186 29.7813L42.0061 29.8625L39.4467 29.9031H27.4217L22.0998 29.8625L21.6529 29.8219L21.4498 29.7L21.4092 29.5375V28.725L21.4904 27.3844L21.5311 27.3438Z" fill="#3D5470"/>
<path d="M61.0188 41.5219H61.1001V42.9844L61.0595 45.8687L61.0188 46.4781L60.897 46.925L60.5313 47.5344L60.247 47.8187L60.0438 47.9L59.5563 47.9406L58.1345 47.9812H54.3563L53.8688 47.9L53.5845 47.7375L53.1782 47.1687L53.0563 46.8031L53.0157 46.5594L52.9751 45.8687V42.7L56.7938 42.6187L58.0532 42.4969L58.9876 42.3344L59.9626 42.05L60.6126 41.725L60.7345 41.6031L61.0188 41.5219Z" fill="#32485C"/>
<path d="M4.3874 42.1719L5.11865 42.4156L6.13428 42.6594L7.02803 42.7813L8.04365 42.8625L9.18115 42.9031L11.578 42.9438L12.3093 42.9844L12.3905 43.025L12.4312 43.1875V45.9094L12.3499 47.0469L12.228 47.4531L11.903 47.8594L11.4155 48.1438L11.0093 48.225L8.36865 48.3063H5.64678L5.28115 48.225L4.95615 47.9813L4.67178 47.6563L4.46865 47.1688L4.3874 46.8844L4.34678 46.5594L4.30615 43.5125L4.34678 42.2125L4.3874 42.1719Z" fill="#32485C"/>
<path d="M8.57207 34.2094H9.38457L9.9127 34.3312L10.6846 34.7375L11.2127 35.225L11.5377 35.6719L11.7408 36.1594L11.8627 36.6062L11.9033 36.8906V37.3375L11.7814 37.9875L11.4971 38.5562L11.1721 39.0031L10.6846 39.4906L10.0752 39.8562L9.54707 40.0187L9.34395 40.0594H8.65332L7.9627 39.8969L7.3127 39.5719L6.90645 39.2062L6.62207 38.9219L6.29707 38.3531L6.09395 37.825L6.0127 37.4187V36.8094L6.13457 36.3219L6.45957 35.6719L6.74395 35.2656L7.10957 34.8594L7.67832 34.4937L8.16582 34.2906L8.57207 34.2094Z" fill="#FAFAFB"/>
<path d="M56.2251 33.8843H56.5501L57.1595 34.0062L57.7282 34.2499L58.3376 34.6968L58.7032 35.103L58.947 35.5093L59.1095 35.9155L59.2313 36.6468V37.1749L59.0688 37.8249L58.8251 38.3124L58.4595 38.7999L57.972 39.2468L57.5251 39.5312L56.9563 39.7343L56.7532 39.7749H55.8595L55.3313 39.6124L54.8845 39.3687L54.4782 39.0843L53.9095 38.5155L53.5845 37.8655L53.4626 37.4593L53.3813 37.0937V36.4843L53.5438 35.9155L53.9095 35.2249L54.397 34.6562L54.8845 34.2905L55.372 34.0874L55.9407 33.9249L56.2251 33.8843Z" fill="#FAFAFB"/>
<path d="M60.4908 12.0687H61.5064L62.3189 12.1094L63.1314 12.2312L63.7408 12.4344L64.2283 12.7187L64.8377 13.2469L65.0002 13.3687V14.5469L64.5939 14.8312L64.0658 15.2375L63.2127 15.5625L62.1971 15.8469L60.9377 16.0906L59.5158 16.2937H58.9471L58.6627 15.9281L58.2564 15.0344L58.2158 14.75L58.5002 14.5062H58.5814L58.6627 14.3437L58.9471 14.0187L59.1096 13.775L59.3939 12.6781L59.5564 12.3531L59.7189 12.15L59.8002 12.1094L60.4908 12.0687Z" fill="#32485C"/>
<path d="M2.84375 12.0687H3.98125L4.95625 12.1094L5.32187 12.1906L5.48438 12.3937L5.64687 12.7594V13.0844L5.80937 13.6937L6.05312 14.0594L6.62187 14.6687L6.70312 14.75L6.6625 14.9531L6.37812 15.6437L6.05312 16.1312L5.97187 16.2125H4.99687L3.9 16.0906L2.925 15.9281L1.82812 15.6844L1.34062 15.4812L0.89375 15.2375L0.325 14.75L0 14.5062V13.3687L0.24375 13.1656L0.528125 12.8406L1.05625 12.5156L1.74687 12.2312L2.39687 12.1094L2.84375 12.0687Z" fill="#32485C"/>
<path d="M56.1436 24.2562H56.4279L56.8748 24.4187L57.2404 24.6625L57.4842 24.9469L57.8498 25.6781V26.4906L57.7279 27.0594L57.4842 27.4656L57.2404 27.75L56.7936 28.0344L56.1436 28.2375H55.5748L55.1686 28.075L54.8436 27.8312V27.75L54.6811 27.6687L54.3967 27.3031L54.1936 26.9375L54.1123 26.5312V26.0844L54.2342 25.5969L54.3561 25.3531L54.6404 24.9469L55.0061 24.7031L55.2092 24.5812L55.4936 24.5H55.6561L55.6967 24.4187L56.1436 24.2562Z" fill="#C2C6CA"/>
<path d="M9.1002 24.4187H9.66895L10.0346 24.5L10.3596 24.6625L10.6846 24.9875L10.9689 25.5562L11.0502 25.9218V26.4093L10.8064 27.0593L10.5627 27.425L10.3596 27.6281L10.0346 27.9125L9.54707 28.1562L9.01895 28.1156L8.20645 27.7906L7.67832 27.3437L7.51582 27.0593L7.43457 26.4906V25.8812L7.55645 25.4343L7.92207 25.0281L8.32832 24.7843L8.69395 24.6218L9.1002 24.4187Z" fill="#C2C6CA"/>
<path d="M60.2877 25.475H60.3689L60.3283 25.8812L60.0846 26.775L59.8002 27.4656L59.4752 28.0344L59.1096 28.5625H59.0283L58.9471 28.725L58.8252 28.8875H58.7439L58.6627 29.05L58.3377 29.3344L57.7689 29.6594L57.3627 29.7812L56.7127 29.8625L54.5596 29.9031H47.4908L46.7596 29.6594L46.6377 29.5375L46.6783 29.4562L46.8002 29.5781L47.1658 29.5375L47.4096 29.6594L48.0596 29.7812H48.6283L49.1158 29.6594L49.6846 29.5781L49.7252 29.5375H50.4971V29.4562H51.0658L51.3908 29.4156H52.3658L52.5689 29.4562L53.2596 29.4969V29.4156H53.9502V29.3344H54.3971L55.1689 29.4156H56.0627L56.3877 29.375H56.8346V29.2937L57.3627 29.2125L57.7283 29.05L57.9314 28.7656L58.0127 28.5219L58.2971 28.3187L58.5814 27.9937L59.1096 27.5469H59.1908V27.4656H59.2721L59.3533 27.3031L59.7189 26.9781H59.8002L59.8408 26.8156L60.0033 26.5719L60.2064 25.8812L60.2877 25.475Z" fill="#E2D9DD"/>
<path d="M13.4471 26.3687H13.9346L14.3408 26.4905L14.7471 26.8155L14.9096 26.978L15.0314 27.628V28.1968L14.7877 28.6843L14.6252 28.7655V28.8468L14.2189 29.0093L13.3658 29.0499L12.8377 28.8874L12.5939 28.6437V28.5624H12.5127L12.4314 28.4405V28.3187H12.3502L12.3096 28.2374V27.5874L12.4314 27.0999L12.7564 26.5718L13.0002 26.4093L13.4471 26.3687Z" fill="#C2C6CA"/>
<path d="M51.5938 26.45L51.9595 26.5312L52.2032 26.6937L52.3657 26.9375L52.6501 27.5875L52.7313 27.9937L52.6907 28.3593L52.4876 28.6843L52.0813 28.9281L51.472 29.05H50.7001L50.3751 28.9281L50.0907 28.5218L49.9282 28.1156V27.7093L49.9688 27.2625L50.172 26.9375H50.2532L50.2938 26.8156L50.497 26.6937L51.147 26.4906L51.5938 26.45Z" fill="#C2C6CA"/>
<path d="M42.5343 34.6562H45.0937V34.7375L44.5655 34.7781H42.3312L41.8843 34.8187L40.503 34.8594H39.2843L38.5937 34.9H34.7343L30.9155 34.9406L30.1437 34.9V34.9812L29.9812 34.9406H29.3312L29.2499 34.9812L29.128 34.9406L28.5999 34.9812H25.9593L24.0093 35.0219L22.953 35.0625H20.5155L20.1499 35.0219V34.9812L20.4749 34.9406L28.3155 34.8187L35.9124 34.7781L40.7062 34.6969L42.5343 34.6562Z" fill="#374E66"/>
<path d="M7.02832 29.5375L7.51582 29.7H9.01895L9.70957 29.6594H10.6439L12.8783 29.6187H13.8127L14.3814 29.6594H15.6002L16.0877 29.7406L16.5346 29.7812H17.4689L18.0783 29.7406L17.9564 29.8219L17.0221 29.9031H8.08457L7.51582 29.8219L7.02832 29.5781V29.5375Z" fill="#E2D9DD"/>
<path d="M27.2592 2.80615H29.3311V2.84678L27.3811 2.8874L26.2842 2.92803L24.4154 2.96865L21.8967 3.0499L18.7686 3.13115L16.5748 3.2124L15.4779 3.29365L15.4373 3.41553H15.5186L15.4373 3.65928L15.2748 3.8624L15.1123 3.90303L14.9092 3.8624L14.8686 4.0249L14.6654 4.22803L14.5436 4.30928L14.5842 4.43115H14.4623L14.3811 4.26865H14.1779L14.0154 4.47178L13.9748 4.59365H13.8936L13.8123 4.91865H13.7311L13.6092 5.28428L13.4873 5.44678L13.5279 5.24365L14.0154 4.22803L14.4217 3.5374L14.7061 3.29365L14.7873 3.25303L16.1686 3.13115L18.2811 3.0499L27.2592 2.80615Z" fill="#3E5571"/>
<path d="M10.4002 12.3125L10.4408 12.475L10.1158 13.125L9.9127 13.6125L9.7502 13.9781L9.66895 14.1V14.3031L9.83145 14.3844L9.87207 14.5875L10.3596 14.7094L10.9689 14.8312H14.4627L15.4377 14.8719H16.6564L22.5064 14.7906L22.5877 14.8719L17.6721 14.9531H10.8064L9.54707 14.9125L9.2627 14.8719V14.6687L9.87207 13.45L10.4002 12.3125Z" fill="#3E5571"/>
<path d="M50.8219 25.475H51.2688L51.5531 25.5562L51.8781 25.6375L52.0813 25.7187L52.3656 26.0437L52.5688 26.2875L52.7719 26.4906L53.0563 27.1L53.0969 27.3844L53.1375 27.5469V28.2375L53.0563 28.3594L53.0156 28.1562L53.0563 27.9937L52.975 27.6687L52.8938 27.2625L52.5688 26.5719L52.2438 26.125L52.0813 26.0031L51.4719 25.8L51.2688 25.7187L50.7406 25.8L50.2938 26.0437L49.9281 26.4906L49.6438 27.1812V27.9125L49.6844 28.2375L49.8469 28.5625L49.6844 28.4812L49.4813 28.2375L49.3594 27.7094V27.0594L49.4 26.9375L49.4813 26.8969L49.725 26.3281L49.9281 26.2062V26.125L50.1719 25.9219L50.375 25.7187L50.8219 25.475Z" fill="#E3DADE"/>
<path d="M22.1001 27.4249H32.3782L37.9438 27.4656V27.5062L25.5532 27.5468L22.3032 27.5062L22.1001 27.4656V27.4249Z" fill="#354B62"/>
<path d="M25.9593 34.8594H34.7343V34.9L30.9155 34.9406L30.1437 34.9V34.9812L29.9812 34.9406H29.3312L29.2499 34.9812L29.128 34.9406L28.5999 34.9812H25.9593L24.0093 35.0219L22.953 35.0625H20.5155L20.1499 35.0219V34.9812L20.4749 34.9406L25.9593 34.8594Z" fill="#33495F"/>
<path d="M5.15937 21.9812H5.525L5.97187 22.0625L7.92187 22.5906L8.65312 22.7937L8.49062 22.8343L6.21562 22.2656L5.60625 22.1437L5.32187 22.1843L5.11875 22.3468L4.99687 22.7125L4.79375 23.2812L4.67188 23.9312V24.2562L4.63125 24.4593V24.9062L4.67188 25.6375L4.7125 26.0843L4.63125 25.9625L4.46875 24.825V24.3781L4.55 23.4843L4.7125 22.7125L4.875 22.3062L5.07812 22.0218L5.15937 21.9812Z" fill="#E3DADE"/>
<path d="M41.4375 2.8468H43.1031L45.5 2.88743L49.8062 2.92805L50.2125 3.09055L50.5781 3.41555L50.5375 3.4968L50.1312 3.3343V3.25305H49.8875V3.1718L49.725 3.13118L49.4406 3.04993L47.6125 3.0093L44.5656 2.96868L41.4375 2.88743V2.8468Z" fill="#3E5571"/>
<path d="M42.5344 34.6562H45.0938V34.7375L44.5656 34.7781H42.3312L41.8844 34.8187L40.5031 34.8594H39.325L39.2844 34.8187L38.5938 34.7781V34.7375L42.5344 34.6562Z" fill="#344A60"/>
<path d="M23.4812 34.8999H26.0405L25.9593 34.9812L24.0093 35.0218L22.953 35.0624H20.5155L20.1499 35.0218V34.9812L20.4749 34.9405L23.4812 34.8999Z" fill="#354B61"/>
<path d="M22.1001 27.4249H27.8688L27.8282 27.5062L26.122 27.5468L22.3032 27.5062L22.1001 27.4656V27.4249Z" fill="#364D64"/>
<path d="M55.9408 23.4437L56.3471 23.4844L56.9158 23.6469L57.3221 23.9312L57.5252 23.9719V24.0937L57.6064 24.175L57.4033 24.1344L56.9564 23.85L56.5908 23.6875L55.9814 23.5656L55.2908 23.6875L54.8439 23.8094L54.3564 24.175L54.1533 24.3781L54.1939 24.2156L54.5189 23.8094L54.6408 23.6875L55.0064 23.5656L55.3721 23.525L55.4533 23.4844H55.8189L55.9408 23.4437Z" fill="#E3DADE"/>
<path d="M54.3156 29.5375H55.6969L55.575 29.6187L55.6156 29.7406L55.4125 29.7L55.0469 29.7812L54.3563 29.8625H53.2188V29.7812L53.7875 29.7406V29.7L54.5188 29.6187L53.9906 29.6594L53.7875 29.6187V29.5781L54.3156 29.5375Z" fill="#FAFAFB"/>
<path d="M59.2312 27.8718H59.353L59.3124 28.075L59.1499 28.4812L59.1093 28.5625H59.028L58.9874 28.6843L58.6218 28.8875L58.4187 28.9687L58.3374 28.8062L58.5812 28.4L58.703 28.2781L58.9874 28.1156L59.1905 27.9125L59.2312 27.8718Z" fill="#F9F8FA"/>
<path d="M42.5342 34.6562H45.0936V34.7375L44.5654 34.7781H42.4936L42.3311 34.6969L42.5342 34.6562Z" fill="#374D65"/>
<path d="M29.9814 34.8594H34.7346V34.9L30.9158 34.9406L30.1439 34.9V34.9813L29.9814 34.9406V34.8594Z" fill="#32485C"/>
<path d="M53.6655 25.4343H53.7062L53.8687 26.6531L54.0718 27.1812L54.3155 27.6281L54.4374 27.7906L54.3968 27.8718L54.1937 27.7093L54.0718 27.425L53.8687 27.0593L53.7468 26.775L53.6655 26.0437V25.4343Z" fill="#E3DADE"/>
<path d="M48.222 25.4343L48.2626 25.5156L48.1001 26.0031L47.7751 26.5718L47.6126 26.6125L47.4907 26.6937L47.572 26.45L48.0595 25.6781L48.222 25.4343Z" fill="#E3DADE"/>
<path d="M15.7627 24.6218L16.0064 24.7031L16.4533 25.0687L16.7783 25.4343L16.7377 25.5156L16.4127 25.15L16.0877 24.9062V24.825L15.8846 24.7437L15.7627 24.6218Z" fill="#E3DADE"/>
<path d="M60.2874 25.475H60.3687L60.328 25.8812L60.2468 26.2062H60.1655L60.2062 25.8812L60.2874 25.475Z" fill="#E3DADE"/>
<path d="M58.2154 25.3125H58.2561L58.2967 25.5969V26.2469H58.2561L58.1748 25.7594L58.2154 25.3125Z" fill="#E3DADE"/>
<path d="M57.8501 24.5L58.0126 24.6625L58.1345 24.9469L58.0938 25.0688L57.8501 24.6625V24.5Z" fill="#E3DADE"/>
</svg>
