<svg width="75" height="75" viewBox="0 0 75 75" fill="none" xmlns="http://www.w3.org/2000/svg">
<g clip-path="url(#clip0_800_3737)">
<path d="M34.9219 10.0312H41.5781L43.3594 10.0781L47.7188 10.2656L52.0781 10.5469L53.9062 10.6875L55.7344 10.875L57.2344 11.1094L57.7969 11.25L58.4531 11.5781L59.0625 12.1406L59.5781 12.75L60.0469 13.4063L60.7031 14.3438L61.3125 15.3281L61.875 16.3125L62.4844 17.3906L62.9531 18.2344L63.7969 19.8281L64.2656 20.7188L65.7656 23.7188L66.1875 24.6563L66.75 25.7813L67.0781 26.1563L67.3125 26.1094L67.5 25.9688H67.5938L67.6875 25.7813L68.0156 25.4063L68.2031 25.125L68.5312 23.8594L68.7188 23.4844L68.9062 23.25L69 23.2031L69.7969 23.1563H70.9688L71.9062 23.2031L72.8438 23.3438L73.5469 23.5781L74.1094 23.9063L74.8125 24.5156L75 24.6563V26.0156L74.5312 26.3438L73.9219 26.8125L72.9375 27.1875L71.7656 27.5156L70.3125 27.7969L68.6719 28.0313L67.7812 28.0781L68.2031 28.7813L68.8125 29.9063L69.5625 31.2656L70.1719 32.3906L70.875 33.7031L71.5781 35.1094L72.2344 36.7031L72.6094 37.9219L72.8438 39.0938L73.0312 40.5938L73.125 42.375V44.0156L73.0781 45.4688L72.9844 46.7344L72.7969 48.4219L72.5156 50.4844L72.2812 51.8438L71.7656 54.2344L71.5312 54.9844L71.0156 56.0625L70.7344 56.4375L70.5938 56.9063L70.5469 57.1875L70.5 58.8281L70.4531 62.1563L70.4062 62.8594L70.2656 63.375L69.8438 64.0781L69.5156 64.4063L69.2812 64.5L68.7188 64.5469L67.0781 64.5938H62.7188L62.1562 64.5L61.8281 64.3125L61.3594 63.6563L61.2188 63.2344L61.1719 62.9531L61.125 62.1563L61.0781 58.4063L60.8906 58.3594H54.0469L43.7344 58.4063L36.0938 58.5L31.0312 58.5469L20.625 58.5938L14.3438 58.6875V62.2031L14.25 63.5156L14.1094 63.9844L13.7344 64.4531L13.1719 64.7813L12.7031 64.875L9.65625 64.9688H6.51562L6.09375 64.875L5.71875 64.5938L5.39062 64.2188L5.15625 63.6563L5.0625 63.3281L5.01562 62.9531L4.96875 59.4375V57.6094L4.64062 57.0938L4.26562 56.7188L3.75 55.875L3.28125 54.4688L2.95312 53.2031L2.57812 51.3281L2.25 49.3125L2.01562 47.3438L1.875 45.5156L1.82812 44.4375V42L1.92188 40.4531L2.10938 39.1875L2.34375 38.1094L2.71875 36.8906L3.1875 35.7188L4.5 33.0938L5.20312 31.7813L6.04688 30.1875L6.60938 29.0625L6.9375 28.3125L7.125 27.9375H5.76562L4.5 27.7969L3.375 27.6094L2.10938 27.3281L1.54688 27.0938L1.03125 26.8125L0.375 26.25L0 25.9688V24.6563L0.28125 24.4219L0.609375 24.0469L1.21875 23.6719L2.01562 23.3438L2.76562 23.2031L3.28125 23.1563H4.59375L5.71875 23.2031L6.14062 23.2969L6.32812 23.5313L6.51562 23.9531V24.3281L6.70312 25.0313L6.98438 25.4531L7.64062 26.1563L7.78125 26.25L8.10938 25.8281L8.67188 24.75L9.23438 23.5313L10.4531 21.0469L10.875 20.1563L11.25 19.4063L11.9531 18.0938L12.375 17.2969L12.7969 16.5469L13.0781 16.0781L13.3594 15.5625L13.8281 14.7656L14.5781 13.5938L15.0938 12.9375L15.5156 12.4219L15.9844 11.9531L16.5938 11.5781L17.1094 11.3906L18.2812 11.1563L20.0625 10.9219L22.0312 10.7344L25.9688 10.4531L28.9688 10.2656L33.2344 10.0781L34.9219 10.0312Z" fill="#55D917"/>
<path d="M33.8906 12.4219H44.625L47.8125 12.4688L52.5 12.5625L57.4688 12.6094L57.9375 12.7969L58.3594 13.1719L58.7344 13.8281L59.25 14.9531L59.5781 15.6562L60.0938 16.7812L60.6094 17.9531L61.4062 19.6875L62.1562 21.3281L62.7188 22.5938L63.5156 24.2812L63.9375 25.0781L64.2656 25.9219V26.1094L63.8906 26.1562L53.7188 26.25L45.75 26.2969H43.5L30.7969 26.3438L26.0625 26.3906L20.3906 26.4844H12.4688L11.0156 26.4375L10.6875 26.3906V26.1562L11.3906 24.75L12 23.4375L12.4219 22.5L12.8438 21.6094L13.5938 19.9219L14.3906 18.1406L15.0469 16.6406L15.75 14.9531L16.4531 13.5938L16.7344 13.2188L17.0625 12.9844L18.6562 12.8438L21.0938 12.75L31.4531 12.4688L33.8906 12.4219Z" fill="#32485C"/>
<path d="M49.0781 49.2188H52.0312L52.5469 49.3125L52.5938 49.4063L52.6875 50.4844L52.7344 51.6094L52.7812 54.1406V55.5469L52.7344 55.5938L51.7969 55.6875L49.875 55.7344L46.8281 55.7813L31.4062 55.875L25.875 55.9688H22.9219L22.4062 55.9219L22.3594 55.7344L22.3125 54.9375V52.7344L22.3594 51.0469L22.4531 49.8281L22.5 49.5938L23.625 49.5469L32.6719 49.4063L41.4375 49.3594L46.9688 49.2656L49.0781 49.2188Z" fill="#3D5470"/>
<path d="M68.2031 34.6875H69L69.375 34.7813L69.5625 35.0156L69.7031 35.5781L69.7969 36.4219V37.9219L69.6563 38.8594L69.375 39.9844L69.0938 40.7344L68.7656 41.3438L68.2031 42.1875H68.1094L68.0156 42.375L67.875 42.5625H67.7813L67.6875 42.75L67.3125 43.0781L66.6563 43.4531L66.1875 43.5938L65.4375 43.6875L62.9531 43.7344H54.7969L53.9531 43.4531L53.7656 43.2188L53.5781 42.7969V42.3281L54 41.3438L54.4688 40.5L54.9844 39.6094L55.6875 38.4844L56.0156 38.0625L56.3906 37.6875L57.2344 37.3594L58.8281 36.9375L62.0156 36.1875L65.625 35.2969L66.5156 35.0625L67.5469 34.8281L68.2031 34.6875Z" fill="#FAFAFB"/>
<path d="M5.95312 34.5938H6.375L6.89062 34.6875L9.14062 35.2969L10.5938 35.6719L12 36L13.5938 36.4219L14.8594 36.7031L17.3906 37.3125L18.0938 37.5469L18.6094 37.8281L19.2188 38.3906L19.6875 39.0469L20.1094 39.75L20.7656 41.0156L21.0938 41.7188L21.3281 42.4219V42.9375L21.1875 43.3125L20.8594 43.5938L20.3906 43.6875L19.6406 43.7344H9.32812L8.67188 43.6406L7.92188 43.2656L7.5 42.9375L7.03125 42.5156L6.60938 42.0469L6.09375 41.2031L5.76562 40.5469L5.48438 39.7031L5.29688 38.9531L5.15625 37.875V37.3594L5.25 36.3281L5.4375 35.4375L5.625 34.9688L5.85938 34.6406L5.95312 34.5938Z" fill="#FAFAFB"/>
<path d="M24.8438 40.7812L26.0625 40.8281L37.3594 40.875H40.7812L46.5 40.8281H49.5L49.5469 40.9219V43.4531L49.4062 43.5938L48.4688 43.6875L45.5156 43.7344H31.6406L25.5 43.6875L24.9844 43.6406L24.75 43.5L24.7031 43.3125V42.375L24.7969 40.8281L24.8438 40.7812Z" fill="#3D5470"/>
<path d="M70.4062 57.1406H70.5V58.8281L70.4531 62.1563L70.4062 62.8594L70.2656 63.375L69.8438 64.0781L69.5156 64.4063L69.2812 64.5L68.7188 64.5469L67.0781 64.5938H62.7188L62.1562 64.5L61.8281 64.3125L61.3594 63.6563L61.2188 63.2344L61.1719 62.9531L61.125 62.1563V58.5L65.5312 58.4063L66.9844 58.2656L68.0625 58.0781L69.1875 57.75L69.9375 57.375L70.0781 57.2344L70.4062 57.1406Z" fill="#32485C"/>
<path d="M5.0625 57.8906L5.90625 58.1719L7.07812 58.4531L8.10938 58.5938L9.28125 58.6875L10.5938 58.7344L13.3594 58.7812L14.2031 58.8281L14.2969 58.875L14.3438 59.0625V62.2031L14.25 63.5156L14.1094 63.9844L13.7344 64.4531L13.1719 64.7812L12.7031 64.875L9.65625 64.9688H6.51562L6.09375 64.875L5.71875 64.5938L5.39062 64.2188L5.15625 63.6562L5.0625 63.3281L5.01562 62.9531L4.96875 59.4375L5.01562 57.9375L5.0625 57.8906Z" fill="#32485C"/>
<path d="M9.89062 48.7031H10.8281L11.4375 48.8438L12.3281 49.3125L12.9375 49.875L13.3125 50.3906L13.5469 50.9531L13.6875 51.4688L13.7344 51.7969V52.3125L13.5938 53.0625L13.2656 53.7188L12.8906 54.2344L12.3281 54.7969L11.625 55.2188L11.0156 55.4063L10.7812 55.4531H9.98438L9.1875 55.2656L8.4375 54.8906L7.96875 54.4688L7.64062 54.1406L7.26562 53.4844L7.03125 52.875L6.9375 52.4063V51.7031L7.07812 51.1406L7.45312 50.3906L7.78125 49.9219L8.20312 49.4531L8.85938 49.0313L9.42188 48.7969L9.89062 48.7031Z" fill="#FAFAFB"/>
<path d="M64.875 48.3281H65.25L65.9531 48.4688L66.6094 48.75L67.3125 49.2656L67.7344 49.7344L68.0156 50.2031L68.2031 50.6719L68.3438 51.5156V52.125L68.1563 52.875L67.875 53.4375L67.4531 54L66.8906 54.5156L66.375 54.8438L65.7188 55.0781L65.4844 55.125H64.4531L63.8438 54.9375L63.3281 54.6562L62.8594 54.3281L62.2031 53.6719L61.8281 52.9219L61.6875 52.4531L61.5938 52.0312V51.3281L61.7813 50.6719L62.2031 49.875L62.7656 49.2188L63.3281 48.7969L63.8906 48.5625L64.5469 48.375L64.875 48.3281Z" fill="#FAFAFB"/>
<path d="M69.7969 23.1562H70.9688L71.9063 23.2031L72.8438 23.3438L73.5469 23.5781L74.1094 23.9063L74.8125 24.5156L75 24.6563V26.0156L74.5313 26.3438L73.9219 26.8125L72.9375 27.1875L71.7656 27.5156L70.3125 27.7969L68.6719 28.0313H68.0156L67.6875 27.6094L67.2188 26.5781L67.1719 26.25L67.5 25.9688H67.5938L67.6875 25.7813L68.0156 25.4063L68.2031 25.125L68.5313 23.8594L68.7188 23.4844L68.9063 23.25L69 23.2031L69.7969 23.1562Z" fill="#32485C"/>
<path d="M3.28125 23.1562H4.59375L5.71875 23.2031L6.14062 23.2969L6.32812 23.5312L6.51562 23.9531V24.3281L6.70312 25.0312L6.98438 25.4531L7.64062 26.1562L7.73438 26.25L7.6875 26.4844L7.35938 27.2812L6.98438 27.8438L6.89062 27.9375H5.76562L4.5 27.7969L3.375 27.6094L2.10938 27.3281L1.54688 27.0938L1.03125 26.8125L0.375 26.25L0 25.9688V24.6562L0.28125 24.4219L0.609375 24.0469L1.21875 23.6719L2.01562 23.3438L2.76562 23.2031L3.28125 23.1562Z" fill="#32485C"/>
<path d="M64.7812 37.2188H65.1094L65.625 37.4062L66.0469 37.6875L66.3281 38.0156L66.75 38.8594V39.7969L66.6094 40.4531L66.3281 40.9219L66.0469 41.25L65.5312 41.5781L64.7812 41.8125H64.125L63.6562 41.625L63.2812 41.3438V41.25L63.0938 41.1562L62.7656 40.7344L62.5312 40.3125L62.4375 39.8438V39.3281L62.5781 38.7656L62.7188 38.4844L63.0469 38.0156L63.4688 37.7344L63.7031 37.5938L64.0312 37.5H64.2188L64.2656 37.4062L64.7812 37.2188Z" fill="#C2C6CA"/>
<path d="M10.5 37.4062H11.1563L11.5781 37.5L11.9531 37.6875L12.3281 38.0625L12.6563 38.7188L12.75 39.1406V39.7031L12.4688 40.4531L12.1875 40.875L11.9531 41.1094L11.5781 41.4375L11.0156 41.7188L10.4063 41.6719L9.46875 41.2969L8.85938 40.7812L8.67188 40.4531L8.57812 39.7969V39.0938L8.71875 38.5781L9.14063 38.1094L9.60938 37.8281L10.0313 37.6406L10.5 37.4062Z" fill="#C2C6CA"/>
<path d="M69.5625 38.625H69.6562L69.6094 39.0938L69.3281 40.125L69 40.9219L68.625 41.5781L68.2031 42.1875H68.1094L68.0156 42.375L67.875 42.5625H67.7812L67.6875 42.75L67.3125 43.0781L66.6562 43.4531L66.1875 43.5938L65.4375 43.6875L62.9531 43.7344H54.7969L53.9531 43.4531L53.8125 43.3125L53.8594 43.2188L54 43.3594L54.4219 43.3125L54.7031 43.4531L55.4531 43.5938H56.1094L56.6719 43.4531L57.3281 43.3594L57.375 43.3125H58.2656V43.2188H58.9219L59.2969 43.1719H60.4219L60.6562 43.2188L61.4531 43.2656V43.1719H62.25V43.0781H62.7656L63.6562 43.1719H64.6875L65.0625 43.125H65.5781V43.0313L66.1875 42.9375L66.6094 42.75L66.8438 42.4219L66.9375 42.1406L67.2656 41.9063L67.5938 41.5313L68.2031 41.0156H68.2969V40.9219H68.3906L68.4844 40.7344L68.9062 40.3594H69L69.0469 40.1719L69.2344 39.8906L69.4688 39.0938L69.5625 38.625Z" fill="#E2D9DD"/>
<path d="M15.5156 39.6562H16.0781L16.5469 39.7969L17.0156 40.1719L17.2031 40.3594L17.3438 41.1094V41.7656L17.0625 42.3281L16.875 42.4219V42.5156L16.4063 42.7031L15.4219 42.75L14.8125 42.5625L14.5313 42.2812V42.1875H14.4375L14.3438 42.0469V41.9062H14.25L14.2031 41.8125V41.0625L14.3438 40.5L14.7188 39.8906L15 39.7031L15.5156 39.6562Z" fill="#C2C6CA"/>
<path d="M59.5312 39.75L59.9531 39.8438L60.2344 40.0312L60.4219 40.3125L60.75 41.0625L60.8438 41.5312L60.7969 41.9531L60.5625 42.3281L60.0938 42.6094L59.3906 42.75H58.5L58.125 42.6094L57.7969 42.1406L57.6094 41.6719V41.2031L57.6562 40.6875L57.8906 40.3125H57.9844L58.0312 40.1719L58.2656 40.0312L59.0156 39.7969L59.5312 39.75Z" fill="#C2C6CA"/>
<path d="M49.0781 49.2188H52.0312V49.3125L51.4219 49.3594H48.8438L48.3281 49.4062L46.7344 49.4531H45.3281L44.5312 49.5H40.0781L35.6719 49.5469L34.7812 49.5V49.5938L34.5938 49.5469H33.8438L33.75 49.5938L33.6094 49.5469L33 49.5938H29.9531L27.7031 49.6406L26.4844 49.6875H23.6719L23.25 49.6406V49.5938L23.625 49.5469L32.6719 49.4062L41.4375 49.3594L46.9688 49.2656L49.0781 49.2188Z" fill="#374E66"/>
<path d="M8.10938 43.3125L8.67188 43.5H10.4062L11.2031 43.4531H12.2812L14.8594 43.4063H15.9375L16.5938 43.4531H18L18.5625 43.5469L19.0781 43.5938H20.1562L20.8594 43.5469L20.7188 43.6406L19.6406 43.7344H9.32812L8.67188 43.6406L8.10938 43.3594V43.3125Z" fill="#E2D9DD"/>
<path d="M31.4531 12.4688H33.8438V12.5156L31.5938 12.5625L30.3281 12.6094L28.1719 12.6562L25.2656 12.75L21.6562 12.8438L19.125 12.9375L17.8594 13.0312L17.8125 13.1719H17.9062L17.8125 13.4531L17.625 13.6875L17.4375 13.7344L17.2031 13.6875L17.1562 13.875L16.9219 14.1094L16.7812 14.2031L16.8281 14.3438H16.6875L16.5938 14.1562H16.3594L16.1719 14.3906L16.125 14.5312H16.0312L15.9375 14.9062H15.8438L15.7031 15.3281L15.5625 15.5156L15.6094 15.2812L16.1719 14.1094L16.6406 13.3125L16.9688 13.0312L17.0625 12.9844L18.6562 12.8438L21.0938 12.75L31.4531 12.4688Z" fill="#3E5571"/>
<path d="M12 23.4375L12.0469 23.625L11.6719 24.375L11.4375 24.9375L11.25 25.3594L11.1562 25.5V25.7344L11.3438 25.8281L11.3906 26.0625L11.9531 26.2031L12.6562 26.3438H16.6875L17.8125 26.3906H19.2188L25.9688 26.2969L26.0625 26.3906L20.3906 26.4844H12.4688L11.0156 26.4375L10.6875 26.3906V26.1562L11.3906 24.75L12 23.4375Z" fill="#3E5571"/>
<path d="M58.6406 38.625H59.1562L59.4844 38.7188L59.8594 38.8125L60.0938 38.9062L60.4219 39.2812L60.6562 39.5625L60.8906 39.7969L61.2188 40.5L61.2656 40.8281L61.3125 41.0156V41.8125L61.2188 41.9531L61.1719 41.7188L61.2188 41.5312L61.125 41.1562L61.0312 40.6875L60.6562 39.8906L60.2812 39.375L60.0938 39.2344L59.3906 39L59.1562 38.9062L58.5469 39L58.0312 39.2812L57.6094 39.7969L57.2812 40.5938V41.4375L57.3281 41.8125L57.5156 42.1875L57.3281 42.0938L57.0938 41.8125L56.9531 41.2031V40.4531L57 40.3125L57.0938 40.2656L57.375 39.6094L57.6094 39.4688V39.375L57.8906 39.1406L58.125 38.9062L58.6406 38.625Z" fill="#E3DADE"/>
<path d="M25.5 40.875H37.3594L43.7812 40.9219V40.9688L29.4844 41.0156L25.7344 40.9688L25.5 40.9219V40.875Z" fill="#354B62"/>
<path d="M29.9531 49.4531H40.0781V49.5L35.6719 49.5469L34.7812 49.5V49.5938L34.5938 49.5469H33.8438L33.75 49.5938L33.6094 49.5469L33 49.5938H29.9531L27.7031 49.6406L26.4844 49.6875H23.6719L23.25 49.6406V49.5938L23.625 49.5469L29.9531 49.4531Z" fill="#33495F"/>
<path d="M5.95312 34.5938H6.375L6.89062 34.6875L9.14062 35.2969L9.98438 35.5312L9.79688 35.5781L7.17188 34.9219L6.46875 34.7812L6.14062 34.8281L5.90625 35.0156L5.76562 35.4375L5.53125 36.0938L5.39062 36.8438V37.2188L5.34375 37.4531V37.9688L5.39062 38.8125L5.4375 39.3281L5.34375 39.1875L5.15625 37.875V37.3594L5.25 36.3281L5.4375 35.4375L5.625 34.9688L5.85938 34.6406L5.95312 34.5938Z" fill="#E3DADE"/>
<path d="M47.8125 12.5156H49.7344L52.5 12.5625L57.4688 12.6094L57.9375 12.7969L58.3594 13.1719L58.3125 13.2656L57.8438 13.0781V12.9844H57.5625V12.8906L57.375 12.8438L57.0469 12.75L54.9375 12.7031L51.4219 12.6562L47.8125 12.5625V12.5156Z" fill="#3E5571"/>
<path d="M49.0781 49.2188H52.0312V49.3125L51.4219 49.3594H48.8438L48.3281 49.4062L46.7344 49.4531H45.375L45.3281 49.4062L44.5312 49.3594V49.3125L49.0781 49.2188Z" fill="#344A60"/>
<path d="M27.0938 49.5H30.0469L29.9531 49.5938L27.7031 49.6406L26.4844 49.6875H23.6719L23.25 49.6406V49.5938L23.625 49.5469L27.0938 49.5Z" fill="#354B61"/>
<path d="M25.5 40.875H32.1562L32.1094 40.9688L30.1406 41.0156L25.7344 40.9688L25.5 40.9219V40.875Z" fill="#364D64"/>
<path d="M64.5469 36.2812L65.0156 36.3281L65.6719 36.5156L66.1406 36.8438L66.375 36.8906V37.0312L66.4688 37.125L66.2344 37.0781L65.7188 36.75L65.2969 36.5625L64.5938 36.4219L63.7969 36.5625L63.2812 36.7031L62.7188 37.125L62.4844 37.3594L62.5312 37.1719L62.9062 36.7031L63.0469 36.5625L63.4688 36.4219L63.8906 36.375L63.9844 36.3281H64.4062L64.5469 36.2812Z" fill="#E3DADE"/>
<path d="M62.6719 43.3125H64.2656L64.125 43.4062L64.1719 43.5469L63.9375 43.5L63.5156 43.5938L62.7188 43.6875H61.4062V43.5938L62.0625 43.5469V43.5L62.9062 43.4062L62.2969 43.4531L62.0625 43.4062V43.3594L62.6719 43.3125Z" fill="#FAFAFB"/>
<path d="M68.3438 41.3906H68.4844L68.4375 41.625L68.25 42.0938L68.2031 42.1875H68.1094L68.0625 42.3281L67.6406 42.5625L67.4062 42.6562L67.3125 42.4688L67.5938 42L67.7344 41.8594L68.0625 41.6719L68.2969 41.4375L68.3438 41.3906Z" fill="#F9F8FA"/>
<path d="M49.0781 49.2188H52.0312V49.3125L51.4219 49.3594H49.0312L48.8438 49.2656L49.0781 49.2188Z" fill="#374D65"/>
<path d="M34.5938 49.4531H40.0781V49.5L35.6719 49.5469L34.7812 49.5V49.5938L34.5938 49.5469V49.4531Z" fill="#32485C"/>
<path d="M61.9219 38.5781H61.9688L62.1562 39.9844L62.3906 40.5938L62.6719 41.1094L62.8125 41.2969L62.7656 41.3906L62.5312 41.2031L62.3906 40.875L62.1562 40.4531L62.0156 40.125L61.9219 39.2812V38.5781Z" fill="#E3DADE"/>
<path d="M55.6406 38.5781L55.6875 38.6719L55.5 39.2344L55.125 39.8906L54.9375 39.9375L54.7969 40.0313L54.8906 39.75L55.4531 38.8594L55.6406 38.5781Z" fill="#E3DADE"/>
<path d="M18.1875 37.6406L18.4688 37.7344L18.9844 38.1562L19.3594 38.5781L19.3125 38.6719L18.9375 38.25L18.5625 37.9688V37.875L18.3281 37.7812L18.1875 37.6406Z" fill="#E3DADE"/>
<path d="M69.5625 38.625H69.6562L69.6094 39.0938L69.5156 39.4688H69.4219L69.4688 39.0938L69.5625 38.625Z" fill="#E3DADE"/>
<path d="M67.1719 38.4375H67.2188L67.2656 38.7656V39.5156H67.2188L67.125 38.9531L67.1719 38.4375Z" fill="#E3DADE"/>
<path d="M66.75 37.5L66.9375 37.6875L67.0781 38.0156L67.0312 38.1562L66.75 37.6875V37.5Z" fill="#E3DADE"/>
</g>
<defs>
<clipPath id="clip0_800_3737">
<rect width="75" height="75" fill="white"/>
</clipPath>
</defs>
</svg>
