<svg width="29" height="27" viewBox="0 0 29 27" fill="none" xmlns="http://www.w3.org/2000/svg">
<path d="M15.34 19.2235H23.95C25.518 19.2235 26.75 17.9757 26.75 16.483V4.7405C26.75 3.24775 25.518 2 23.95 2H5.04996C3.48196 2 2.24996 3.24775 2.24996 4.7405V16.483C2.24996 17.9757 3.48196 19.2235 5.04996 19.2235H7.84996V24.75H7.85521L7.85871 24.7483L15.34 19.2235ZM8.89996 26.1552C8.52727 26.4294 8.06192 26.5465 7.60385 26.4814C7.14577 26.4163 6.73149 26.1742 6.44996 25.807C6.22472 25.5098 6.10246 25.1474 6.10171 24.7745V20.9735H5.05171C2.53871 20.9735 0.50171 18.9627 0.50171 16.483V4.7405C0.49996 2.26075 2.53696 0.25 5.04996 0.25H23.95C26.463 0.25 28.5 2.26075 28.5 4.7405V16.483C28.5 18.9645 26.463 20.9735 23.95 20.9735H15.9175L8.89996 26.1552Z" fill="#8C8A8A"/>
</svg>
