<svg width="45" height="61" viewBox="0 0 45 61" fill="none" xmlns="http://www.w3.org/2000/svg">
<path d="M1.7749 0.03125H43.1616L43.5425 0.126465L43.9233 0.316895L44.2407 0.570801V0.634277H44.3042L44.5898 1.01514L44.812 1.52295L44.8438 1.68164V2.25293L44.7485 2.69727L44.4946 3.20508L44.209 3.52246L43.9233 3.77637L43.5107 3.9668L42.9712 4.09375H42.8125V18.3125H43.1616L43.5425 18.4077L43.9233 18.5981L44.3042 18.9155L44.5898 19.2964L44.812 19.8042L44.8438 19.9629V20.5342L44.7485 20.9785L44.4946 21.4863L44.209 21.8037L43.9233 22.0576L43.5107 22.248L42.8442 22.4067L42.8125 38.625H43.1616L43.5425 38.7202L43.9233 38.9106L44.3042 39.228L44.5898 39.6089L44.812 40.1167L44.8438 40.2754V40.8467L44.7485 41.291L44.4946 41.7988L44.209 42.1162L43.9233 42.3701L43.5107 42.5605L42.8442 42.7192L42.8125 56.9062H43.1616L43.5425 57.0015L43.9233 57.1919L44.3042 57.5093L44.5898 57.8901L44.812 58.3979L44.8438 58.5566V59.1279L44.7485 59.5723L44.4946 60.0801L44.209 60.3975L43.9233 60.6514L43.5107 60.8418L43.1616 60.937L42.7173 60.9688H2.15576L1.64795 60.9053L1.23535 60.7466L0.917969 60.5244L0.695801 60.334L0.410156 59.9531L0.251465 59.604L0.15625 59.2231V58.5249L0.314941 58.0488L0.505371 57.7314L0.854492 57.3506L1.17188 57.1284L1.61621 56.938L2.15576 56.8745L2.1875 42.6875L1.7749 42.6558L1.39404 42.5288L1.04492 42.3384L0.695801 42.0527L0.410156 41.6719L0.251465 41.3228L0.15625 40.9419V40.2437L0.314941 39.7676L0.505371 39.4502L0.854492 39.0693L1.17188 38.8472L1.61621 38.6567L2.15576 38.5933L2.1875 22.375L1.7749 22.3433L1.39404 22.2163L1.04492 22.0259L0.695801 21.7402L0.410156 21.3594L0.251465 21.0103L0.15625 20.6294V19.9312L0.314941 19.4551L0.505371 19.1377L0.854492 18.7568L1.17188 18.5347L1.61621 18.3442L2.15576 18.2808L2.1875 4.09375L1.7749 4.06201L1.39404 3.93506L1.04492 3.74463L0.695801 3.45898L0.410156 3.07812L0.251465 2.729L0.15625 2.34814V1.6499L0.314941 1.17383L0.505371 0.856445L0.854492 0.475586L1.29883 0.189941L1.61621 0.0629883L1.7749 0.03125Z" fill="#3C9A10"/>
<path d="M1.7749 0.03125H43.1616L43.5425 0.126465L43.9233 0.316895L44.2407 0.570801V0.634277H44.3042L44.5898 1.01514L44.812 1.52295L44.8438 1.68164V2.25293L44.7485 2.69727L44.4946 3.20508L44.209 3.52246L43.9233 3.77637L43.5107 3.9668L42.9712 4.09375H42.8125V18.3125H43.1616L43.5425 18.4077L43.9233 18.5981L44.3042 18.9155L44.5898 19.2964L44.812 19.8042L44.8438 19.9629V20.5342L44.7485 20.9785L44.4946 21.4863L44.209 21.8037L43.9233 22.0576L43.5107 22.248L42.8442 22.4067L42.8125 38.625H43.1616L43.5425 38.7202L43.9233 38.9106L44.3042 39.228L44.5898 39.6089L44.812 40.1167L44.8438 40.2754V40.8467L44.7485 41.291L44.4946 41.7988L44.209 42.1162L43.9233 42.3701L43.5107 42.5605L42.8442 42.7192L42.8125 56.9062L38.8452 56.938L23.3887 56.9062L22.5317 56.8745L22.5 55.0972L22.4683 44.7505L22.8174 44.7188L22.8809 44.687L23.8013 44.6235L24.7852 44.4966L25.769 44.3062L26.5942 44.084L27.5464 43.7666L28.3081 43.4492L28.9746 43.1318L29.6094 42.7827L30.1807 42.4336L30.8789 41.9575L31.4502 41.5132L31.8945 41.1323L32.2754 40.7832L32.4976 40.5928L32.7197 40.3389L33.0054 40.0532L33.2275 39.7993L33.5767 39.3867L33.8623 39.0059L34.3066 38.4028L34.5923 37.9268L34.9414 37.3237L35.3223 36.5938L35.7031 35.7051L36.0522 34.7212L36.3062 33.8008L36.4648 33.0391L36.5918 32.2139L36.6553 31.6108L36.687 31.103V30.0239L36.6235 29.1035L36.4966 28.1831L36.2744 27.104L36.0205 26.1836L35.7031 25.2949L35.354 24.4697L34.9731 23.708L34.624 23.105L34.3384 22.6606L33.9258 22.0576L33.5132 21.5498L33.1641 21.1372L32.8784 20.8198L32.7197 20.6611V20.5977H32.6562L32.5293 20.439L32.2754 20.2168L31.9897 19.9312L31.6406 19.6455L31.228 19.2964L30.7837 18.979L29.9268 18.4077L29.2603 18.0269L28.7842 17.7729L27.8638 17.3604L26.9116 17.0112L25.9277 16.7256L25.0391 16.5352L24.1821 16.4082L23.103 16.313L22.5635 16.2812L22.4683 16.2178V4.12549L9.36035 4.09375H2.21924V16.8525H2.1875V4.09375L1.7749 4.06201L1.39404 3.93506L1.04492 3.74463L0.695801 3.45898L0.410156 3.07812L0.251465 2.729L0.15625 2.34814V1.6499L0.314941 1.17383L0.505371 0.856445L0.854492 0.475586L1.29883 0.189941L1.61621 0.0629883L1.7749 0.03125Z" fill="#2F770D"/>
<path d="M21.4526 16.2812H23.103L24.1821 16.3765L25.2295 16.5352L26.1816 16.7573L27.1973 17.0747L28.0859 17.4238L29.0381 17.8682L29.7681 18.2808L30.2759 18.5981L30.7837 18.9473L31.2915 19.3281L31.7041 19.6772L32.0532 19.9629L32.4658 20.3755L32.6562 20.5342V20.5977H32.7197L32.9419 20.8516L33.3228 21.2642L33.6084 21.6133L34.021 22.1528L34.3066 22.5654L34.751 23.2637L35.1636 24.0254L35.5444 24.8188L35.8618 25.644L36.1475 26.501L36.4014 27.5166L36.5918 28.5957L36.687 29.4526L36.7188 30.0239V31.103L36.6553 31.96L36.5283 32.8486L36.3696 33.6421L36.1475 34.499L35.7983 35.5464L35.4492 36.3716L35.0684 37.165L34.6875 37.8315L34.2432 38.5298L33.8623 39.0376L33.5449 39.4502L33.1641 39.8945L32.7832 40.3071L32.0215 41.0688L31.6724 41.3545L31.2598 41.7036L30.752 42.0845L30.2759 42.4019L29.7046 42.751L29.1968 43.0366L28.5938 43.354L27.8638 43.6714L27.1973 43.9253L26.2769 44.2109L25.3247 44.4331L24.3408 44.5918L23.4839 44.687L22.8809 44.7188H21.9604L21.1035 44.6553L19.9609 44.4966L19.0723 44.3062L18.1519 44.0522L17.041 43.6396L16.2158 43.2588L15.4224 42.8462L14.7876 42.4653L14.1528 42.021L13.7402 41.7036L13.4229 41.4497L12.9468 41.0371L12.6929 40.7832L12.439 40.561L12.0264 40.1484L11.8042 39.8945L11.4233 39.4502L11.106 39.0376L10.7251 38.498L10.376 37.9585L9.93164 37.165L9.51904 36.3398L9.16992 35.4829L8.8208 34.4355L8.56689 33.4199L8.4082 32.5312L8.31299 31.6426L8.28125 31.0713V29.6748L8.34473 28.8813L8.50342 27.8657L8.72559 26.8818L8.94775 26.1201L9.2334 25.3267L9.58252 24.5015L9.83643 23.9619L10.249 23.2319L10.5029 22.7876L10.8203 22.3433L11.2646 21.7402L11.6772 21.2642L11.9629 20.915L12.312 20.5659L12.5024 20.3438L12.7563 20.1216L13.2007 19.709L13.645 19.3599L14.1211 18.979L14.978 18.4077L15.6128 18.0269L16.4697 17.5825L17.4536 17.1699L18.501 16.8208L19.6436 16.5352L20.3418 16.4082L21.0718 16.313L21.4526 16.2812Z" fill="#D7E6F0"/>
<path d="M6.47217 4.06201H9.36035L22.4683 4.09375L22.5 4.12549V16.2178L22.5635 16.2812L21.4526 16.313L20.6274 16.4082L19.9927 16.5034L19.231 16.6621L18.4058 16.8843L17.4536 17.2017L16.6284 17.5508L15.835 17.9316L15.1685 18.3125L14.3115 18.8838L13.8037 19.2646L13.2959 19.6772L12.9785 19.9629L12.7246 20.1851L12.3755 20.5024L12.1533 20.7563L11.8994 21.0103L11.6138 21.3594L11.2646 21.772L10.8203 22.375L10.5029 22.8511L10.1855 23.3906L9.83643 24.0254L9.45557 24.8506L9.16992 25.5806L8.85254 26.5327L8.59863 27.5483L8.43994 28.4053L8.34473 29.1987L8.31299 29.6748V31.0713L8.37646 31.96L8.47168 32.7534L8.69385 33.8325L8.97949 34.8481L9.29688 35.7368L9.646 36.5303L10.0586 37.3555L10.4077 37.9585L10.4395 38.1489L10.4077 38.1807V38.5615L10.0586 38.625H6.47217L6.25 38.5933L6.18652 38.4028L6.15479 26.1201V22.5972L6.18652 22.4067L2.21924 22.375V37.1333H2.1875V22.375L1.7749 22.3433L1.39404 22.2163L1.04492 22.0259L0.695801 21.7402L0.410156 21.3594L0.251465 21.0103L0.15625 20.6294V19.9312L0.314941 19.4551L0.505371 19.1377L0.854492 18.7568L1.17188 18.5347L1.61621 18.3442L2.15576 18.2808L2.1875 16.8525L2.21924 4.09375L6.47217 4.06201Z" fill="#3C9A10"/>
<path d="M44.812 40.3706H44.8438V40.8467L44.7485 41.291L44.4946 41.7988L44.209 42.1162L43.9233 42.3701L43.5107 42.5605L42.8442 42.7192L42.8125 56.9062L38.8452 56.938L23.3887 56.9062L22.5317 56.8745L22.5 55.0972L22.4683 44.7505L22.8174 44.7188L22.8809 44.687L23.8013 44.6235L24.7852 44.4966L25.769 44.3062L26.5942 44.084L27.5464 43.7666L28.3081 43.4492L28.9746 43.1318L29.6094 42.7827L30.1807 42.4336L30.8789 41.9575L31.4502 41.5132L31.8945 41.1323L32.2754 40.7832L32.4658 40.6562H44.812V40.3706Z" fill="#2F770D"/>
<path d="M22.0874 19.3281H22.7856L23.1982 19.4233L23.7061 19.6772L24.0869 20.0264L24.4043 20.3755L24.8169 20.915L25.2612 21.4863L25.7056 22.0894L26.1182 22.6606L26.5308 23.2637L26.8481 23.708L27.4512 24.6284L27.832 25.2314L28.1177 25.7075L28.5938 26.5327L29.1333 27.5483L29.5459 28.4053L29.9268 29.3257L30.2441 30.2144L30.498 31.23L30.5933 31.7695L30.625 32.0869V33.0708L30.5298 33.8643L30.3711 34.5942L30.1807 35.229L29.8633 35.9907L29.5142 36.6572L29.292 37.0063L28.9746 37.4507L28.689 37.7998L28.3081 38.2124L27.959 38.5615L27.6099 38.8472L27.0703 39.2598L26.499 39.6089L25.8325 39.958L25.1025 40.2437L24.563 40.4023L23.8013 40.561L23.1665 40.6562L22.3413 40.688L21.8018 40.6562L21.0083 40.5293L20.2148 40.3389L19.6436 40.1484L18.9136 39.8311L18.2788 39.4819L17.7075 39.1011L17.2632 38.752L16.8823 38.4028L16.3428 37.8633L15.9937 37.4189L15.6763 36.9746L15.2954 36.3398L15.0098 35.7368L14.7241 34.9751L14.502 34.0864L14.375 33.1343V31.833L14.502 31.0713L14.7876 30.0557L15.105 29.167L15.4858 28.2783L15.9619 27.2944L16.3428 26.5962L16.7554 25.8662L17.1362 25.2314L17.6123 24.4697L17.9297 23.9937L18.3423 23.3906L19.104 22.3115L19.4849 21.8037L19.9292 21.2007L20.2783 20.7563L20.9131 19.9629L21.1987 19.709L21.6431 19.4551L22.0874 19.3281Z" fill="#473F4C"/>
<path d="M30.022 18.2808L32.3389 18.3125H43.1616L43.5425 18.4077L43.9233 18.5981L44.3042 18.9155L44.5898 19.2964L44.812 19.8042L44.8438 19.9629V20.5342L44.7485 20.9785L44.4946 21.4863L44.209 21.8037L43.9233 22.0576L43.5107 22.248L42.8442 22.4067L42.8125 38.625H43.1616L43.5425 38.7202L43.9233 38.9106L44.3042 39.228L44.5898 39.6089L44.812 40.1167L44.8438 40.3706L44.812 40.6562L32.4658 40.688L32.3389 40.7515L32.5293 40.5293L33.0054 40.0532L33.2275 39.7993L33.5767 39.3867L33.8623 39.0059L34.3066 38.4028L34.5923 37.9268L34.9414 37.3237L35.3223 36.5938L35.7031 35.7051L36.0522 34.7212L36.3062 33.8008L36.4648 33.0391L36.5918 32.2139L36.6553 31.6108L36.687 31.103V30.0239L36.6235 29.1035L36.4966 28.1831L36.2744 27.104L36.0205 26.1836L35.7031 25.2949L35.354 24.4697L34.9731 23.708L34.624 23.105L34.3384 22.6606L33.9258 22.0576L33.5132 21.5498L33.1641 21.1372L32.8784 20.8198L32.7197 20.6611V20.5977H32.6562L32.5293 20.439L32.2754 20.2168L31.9897 19.9312L31.6406 19.6455L31.228 19.2964L30.7837 18.979L29.9268 18.4077L30.022 18.2808Z" fill="#2F770D"/>
<path d="M2.21924 22.375H6.6626V22.4067H6.18652V26.1201L6.21826 38.4028L6.25 38.5615L6.47217 38.5933H10.0586L10.376 38.5298V38.1807L10.4077 38.022L10.5347 38.1489L10.7568 38.498L11.0742 38.9424L11.4868 39.4819L11.8994 39.958L12.3438 40.4341L12.6294 40.7197L12.8833 40.9419L13.2959 41.3228L13.7402 41.6719L14.2798 42.0845L14.9463 42.5288L15.105 42.624V42.6875L13.042 42.7192H11.6455L9.39209 42.6875H2.21924V55.478H2.1875V42.6875L1.7749 42.6558L1.39404 42.5288L1.04492 42.3384L0.695801 42.0527L0.410156 41.6719L0.251465 41.3228L0.15625 40.9419V40.2437L0.314941 39.7676L0.505371 39.4502L0.854492 39.0693L1.17188 38.8472L1.61621 38.6567L2.15576 38.5933L2.1875 37.1333L2.21924 22.375Z" fill="#3C9A10"/>
<path d="M1.7749 0.03125H43.1616L43.5425 0.126465L43.9233 0.316895L44.2407 0.570801V0.634277H44.3042L44.5898 1.01514L44.812 1.52295L44.8438 1.77686L44.812 2.0625H0.187988L0.15625 1.6499L0.314941 1.17383L0.505371 0.856445L0.854492 0.475586L1.29883 0.189941L1.61621 0.0629883L1.7749 0.03125Z" fill="#FC9F1B"/>
<path d="M0.15625 58.5884H0.187988V58.9375H44.812V58.6519H44.8438V59.1279L44.7485 59.5723L44.4946 60.0801L44.209 60.3975L43.9233 60.6514L43.5107 60.8418L43.1616 60.937L42.7173 60.9688H2.15576L1.64795 60.9053L1.23535 60.7466L0.917969 60.5244L0.695801 60.334L0.410156 59.9531L0.251465 59.604L0.15625 59.2231V58.5884Z" fill="#EF6522"/>
<path d="M22.0874 19.3281H22.5V27.9927L22.4683 28.8179L22.373 29.4526L22.2144 29.9604L21.9604 30.4683L21.6431 30.9761L21.2622 31.3887L20.9448 31.6743L20.437 31.9917L19.9927 32.2139L19.3262 32.436L18.8501 32.4995L15.9302 32.5312H14.4067V33.1343H14.375V31.833L14.502 31.0713L14.7876 30.0557L15.105 29.167L15.4858 28.2783L15.9619 27.2944L16.3428 26.5962L16.7554 25.8662L17.1362 25.2314L17.6123 24.4697L17.9297 23.9937L18.3423 23.3906L19.104 22.3115L19.4849 21.8037L19.9292 21.2007L20.2783 20.7563L20.9131 19.9629L21.1987 19.709L21.6431 19.4551L22.0874 19.3281Z" fill="#565B6E"/>
<path d="M6.47217 4.06201H9.36035L10.376 4.09375L10.3442 16.3765L10.3125 18.3125H6.9165L6.31348 18.2808L6.18652 18.1538L6.15479 16.7573V4.31592L6.18652 4.12549L6.47217 4.06201Z" fill="#77E145"/>
<path d="M6.44043 42.6558H9.39209L10.3442 42.6875L10.376 42.8462L10.3442 54.875L10.3125 56.9062H7.04346L6.31348 56.8745L6.21826 56.8428L6.18652 56.7793L6.15479 55.605V42.9097L6.18652 42.7192L6.44043 42.6558Z" fill="#77E145"/>
<path d="M6.6626 22.375H10.7251V22.5337L10.5029 22.8511L10.1855 23.3906L9.83643 24.0254L9.45557 24.8506L9.16992 25.5806L8.85254 26.5327L8.59863 27.5483L8.43994 28.4053L8.34473 29.1987L8.31299 29.6748V31.0713L8.37646 31.96L8.47168 32.7534L8.69385 33.8325L8.97949 34.8481L9.29688 35.7368L9.646 36.5303L10.0586 37.3555L10.4077 37.9585L10.4395 38.1489L10.4077 38.1807V38.5615L10.0586 38.625H6.47217L6.25 38.5933L6.18652 38.4028L6.15479 26.1201V22.5972L6.18652 22.4067L6.6626 22.375Z" fill="#77E145"/>
<path d="M21.4526 16.2812H22.7222L22.9761 16.3447L23.23 16.5669L23.4521 16.9478L23.5156 17.1699V17.4238L23.4204 17.7412L23.1982 18.0586L23.0396 18.1855L22.8809 18.249L22.373 18.3125L21.1353 18.4077L19.9927 18.5981L19.104 18.8203L18.1519 19.1377L17.3901 19.4551L16.8506 19.709L16.1841 20.0898L15.6763 20.4072L15.1685 20.7881L14.8828 21.0103L14.4702 21.3594L14.1528 21.645L13.3911 22.4067L12.8198 23.105L12.4707 23.5811L12.1216 24.1206L11.709 24.8506L11.3281 25.644L11.0107 26.501L10.7568 27.3262L10.5981 28.0244L10.4712 28.7544L10.3442 29.8652L10.2808 30.5952L10.2173 30.9126L10.0903 31.1348L9.86816 31.3569L9.55078 31.4839H9.07471L8.8208 31.3887L8.56689 31.2617L8.31299 31.0396L8.28125 30.6904V29.6748L8.34473 28.8813L8.50342 27.8657L8.72559 26.8818L8.94775 26.1201L9.2334 25.3267L9.58252 24.5015L9.83643 23.9619L10.249 23.2319L10.5029 22.7876L10.8203 22.3433L11.2646 21.7402L11.6772 21.2642L11.9629 20.915L12.312 20.5659L12.5024 20.3438L12.7563 20.1216L13.2007 19.709L13.645 19.3599L14.1211 18.979L14.978 18.4077L15.6128 18.0269L16.4697 17.5825L17.4536 17.1699L18.501 16.8208L19.6436 16.5352L20.3418 16.4082L21.0718 16.313L21.4526 16.2812Z" fill="#FDFDFD"/>
<path d="M0.15625 40.3071H0.187988V40.6562L12.5342 40.6245L12.9468 41.0054L13.2959 41.3228L13.7402 41.6719L14.2798 42.0845L14.9463 42.5288L15.105 42.624V42.6875L13.042 42.7192H11.6455L9.39209 42.6875H2.21924V55.478H2.1875V42.6875L1.7749 42.6558L1.39404 42.5288L1.04492 42.3384L0.695801 42.0527L0.410156 41.6719L0.251465 41.3228L0.15625 40.9419V40.3071Z" fill="#EF6522"/>
<path d="M30.022 18.2808L32.3389 18.3125H43.1616L43.5425 18.4077L43.9233 18.5981L44.3042 18.9155L44.5898 19.2964L44.812 19.8042L44.8438 20.0581L44.812 20.3438L32.561 20.3755L32.4658 20.4072L31.9897 19.9312L31.6406 19.6455L31.228 19.2964L30.7837 18.979L29.9268 18.4077L30.022 18.2808Z" fill="#FC9F1B"/>
<path d="M0.15625 19.9946H0.187988V20.3438H12.5024L12.312 20.5977L11.8994 21.0103L11.6138 21.3594L11.2646 21.772L10.8203 22.375L10.6934 22.502L10.7251 22.375L6.69434 22.4067L2.21924 22.375V37.1333H2.1875V22.375L1.7749 22.3433L1.39404 22.2163L1.04492 22.0259L0.695801 21.7402L0.410156 21.3594L0.251465 21.0103L0.15625 20.6294V19.9946Z" fill="#EF6522"/>
<path d="M34.2114 38.5298L34.2432 38.5933L36.814 38.625H43.1616L43.5425 38.7202L43.9233 38.9106L44.3042 39.228L44.5898 39.6089L44.812 40.1167L44.8438 40.3706L44.812 40.6562L32.4658 40.688L32.3389 40.7515L32.5293 40.5293L33.0054 40.0532L33.2275 39.7993L33.5767 39.3867L33.8623 39.0059L34.2114 38.5298Z" fill="#FC9F1B"/>
<path d="M30.2124 60.7148H35.3857L37.9248 60.7466L38.8135 60.7783L39.2261 60.8735V60.9053H6.50391V60.8735L6.85303 60.8101L8.75732 60.7783H9.83643L9.99512 60.7466H20.7227L21.6431 60.7783H22.0239L22.5635 60.7466L30.2124 60.7148Z" fill="#FB7626"/>
<path d="M33.1323 20.6294L33.418 20.7246L33.5767 20.915L33.6084 21.0737H33.6719V21.1689H33.7354L33.894 21.4229L33.9258 21.5181H33.9893L34.1162 21.7085L34.2432 21.9307L34.1479 21.8989V21.8354L34.0527 21.8672L33.9893 21.8037L34.021 21.7402H33.9575V21.6768H33.894L33.8623 21.5498H33.7988V21.4546L33.6719 21.3911L33.5132 21.2959L33.3862 21.2642L33.2593 21.0103L33.1006 20.7563L33.1323 20.6294Z" fill="#FA7525"/>
<path d="M12.1216 20.4072L12.2803 20.439L12.2168 20.5977L12.1216 20.6294V20.6929H12.0581V20.7563H11.9946L11.9312 20.8833L11.6455 21.1689L11.4868 21.3594H11.4233L11.3599 21.5498L11.1694 21.7085V21.645L11.0742 21.6768L11.1377 21.5181L11.2329 21.3276H11.2964L11.3599 21.1689L11.6455 20.915L11.8042 20.7246L11.8677 20.6611L11.9629 20.5024L12.1216 20.4072Z" fill="#FB7626"/>
<path d="M44.5581 41.4497L44.6533 41.5132L44.4946 41.7988L44.209 42.1162L43.9233 42.3701L43.5107 42.5605L43.3203 42.5923V42.5288L43.606 42.4019L43.7646 42.3066L43.8916 42.2749V42.2114L44.082 42.0527L44.2407 41.894L44.3994 41.6719H44.4629V41.6084L44.5264 41.5767L44.5581 41.4497Z" fill="#FB7B24"/>
<path d="M44.5581 21.1372L44.6533 21.2007L44.4946 21.4863L44.209 21.8037L43.9233 22.0576L43.5107 22.248L43.3521 22.2798L43.3838 22.1846H43.479L43.5107 22.1211L43.7646 21.9941L43.8916 21.9624V21.8989L44.082 21.7402L44.2407 21.5815L44.3994 21.3594H44.4629V21.2959L44.5264 21.2642L44.5581 21.1372Z" fill="#FB7B24"/>
<path d="M44.6216 2.82422L44.6851 2.85596L44.4946 3.20508L44.209 3.52246L43.9233 3.77637L43.5107 3.9668L43.3521 3.99854L43.3838 3.90332L43.606 3.80811L43.8281 3.68115H43.8916V3.61768L44.0186 3.58594L44.082 3.45898H44.1772L44.209 3.33203L44.3359 3.17334L44.3994 3.07812H44.4629V3.01465L44.5264 2.98291L44.5898 2.85596L44.6216 2.82422Z" fill="#FB7B24"/>
<path d="M44.6216 59.6992L44.6851 59.731L44.4946 60.0801L44.209 60.3975L43.9233 60.6514L43.5107 60.8418L43.3838 60.8735V60.8101L43.7012 60.6831L43.8281 60.5562H43.8916V60.4927L44.1455 60.2705L44.3359 60.0483L44.3994 59.9531H44.4629L44.5264 59.8262L44.5581 59.731L44.6216 59.6992Z" fill="#FB7B24"/>
<path d="M9.04297 22.375H10.7251V22.5337L10.5029 22.8511L10.376 23.0415L10.3442 22.978L10.4712 22.5654V22.4385L9.04297 22.4067V22.375Z" fill="#FC9F1B"/>
<path d="M44.812 1.77686H44.8438V2.25293L44.7485 2.69727L44.6851 2.57031L44.6533 2.12598L44.5898 2.0625H44.812V1.77686Z" fill="#F97624"/>
<path d="M44.812 40.3706H44.8438V40.8467L44.7485 41.291L44.6851 41.1641L44.6533 40.7197L44.6851 40.6562H44.812V40.3706Z" fill="#F97624"/>
<path d="M44.812 20.0581H44.8438V20.5342L44.7485 20.9785L44.6851 20.8516L44.6533 20.4072L44.6851 20.3438H44.812V20.0581Z" fill="#F97624"/>
<path d="M0.219727 2.50684L0.314941 2.57031L0.410156 2.79248L0.441895 2.91943L0.505371 2.95117L0.600586 3.20508V3.30029L0.473633 3.17334L0.251465 2.729L0.219727 2.50684Z" fill="#FB7B24"/>
<path d="M0.219727 59.3818L0.314941 59.5088L0.441895 59.731V59.7944L0.505371 59.8262L0.600586 60.0801L0.568848 60.1753L0.34668 59.8262L0.219727 59.5088V59.3818Z" fill="#FB7C24"/>
<path d="M0.219727 41.1006L0.314941 41.2275L0.441895 41.4497V41.5132L0.505371 41.5449L0.600586 41.7988V41.894L0.473633 41.7671L0.251465 41.3228L0.219727 41.1006Z" fill="#FB7C24"/>
<path d="M0.219727 20.7881L0.314941 20.915L0.537109 21.2959L0.600586 21.4863V21.5815L0.473633 21.4546L0.251465 21.0103L0.219727 20.7881Z" fill="#FB7C24"/>
<path d="M44.6851 58.9692H44.812L44.8438 59.1279L44.7485 59.5723L44.6851 59.4453V58.9692Z" fill="#FB7A24"/>
<path d="M12.3438 20.3438H12.5024L12.312 20.5977L12.0581 20.8516L11.9946 20.8198V20.7563H12.0581V20.6929H12.1216V20.6294L12.2168 20.5659L12.2803 20.4707L12.3438 20.3438Z" fill="#F26F20"/>
<path d="M1.1084 3.74463L1.26709 3.77637L1.3623 3.83984L1.61621 3.90332L1.71143 3.99854L1.64795 4.03027L1.26709 3.87158L1.1084 3.77637V3.74463Z" fill="#FB7B24"/>
<path d="M29.8633 18.1538H29.9585L29.9902 18.2173L30.1172 18.2808L29.9585 18.376L29.8315 18.3442L29.7681 18.2808L29.7998 18.1855L29.8633 18.1538Z" fill="#FB7A24"/>
<path d="M15.2002 28.9448H15.2637L15.2002 29.1987L15.0732 29.5161H15.0415L15.0732 29.2305L15.2002 28.9448Z" fill="#4D4959"/>
<path d="M0.727539 60.334H0.88623L1.14014 60.6196H1.04492L0.727539 60.3657V60.334Z" fill="#FB7D24"/>
<path d="M15.5493 28.1514H15.6128L15.5811 28.3101L15.4541 28.564H15.4224L15.4541 28.3418L15.5493 28.1514Z" fill="#4C4958"/>
<path d="M0.791016 3.45898L0.917969 3.49072L1.1084 3.74463L0.949707 3.68115L0.759277 3.52246L0.791016 3.45898Z" fill="#FB7C24"/>
</svg>
