<svg width="70" height="70" viewBox="0 0 70 70" fill="none" xmlns="http://www.w3.org/2000/svg">
<g clip-path="url(#clip0_252_8280)">
<path d="M48.7376 0H52.2376L52.8501 0.6125L53.0251 0.9625V23.5375L52.6751 25.725L51.8876 29.4L51.7126 30.975V36.75L52.3251 38.9375L52.6751 41.125L53.0251 44.975L53.1126 46.9L52.9376 48.0375L52.5001 49.0875L51.8001 49.9625L50.9251 50.575L49.7001 51.0125L45.4126 51.1L45.0626 52.5875L44.2751 56.0875L44.1876 56.7875L45.4126 60.025L47.1626 64.575L48.3876 67.725L48.4751 67.8125L49.2626 67.9875L49.7876 68.6V69.3L49.1751 70H17.5001L16.9751 69.3V68.6875L17.4126 67.9875L17.5876 67.9L20.0376 67.8125L20.3876 66.5875L20.9126 64.225L21.3501 61.5125L21.5251 59.7625L21.6126 58.1875V55.125L21.4376 52.5L21.0876 50.05L20.3876 46.55L20.1251 45.7625L19.3376 45.4125L18.9001 44.8875L18.8126 44.45V40.1625L19.0751 39.55L19.5126 39.1125L20.3001 38.9375L26.8626 38.5L34.6501 38.0625V37.8L34.0376 36.925L32.9876 35.2625L31.6751 33.25L30.7126 31.7625L30.1001 30.8L29.6626 30.7125H23.9751L23.4501 30.5375L23.1001 30.1875L22.9251 29.6625V27.3875L23.2751 26.6875L23.5376 26.5125L23.9751 26.425H37.0126L38.4126 26.5125L40.6001 26.95L42.0876 27.3875L43.6626 28.0875L44.1001 28.35H44.3626L44.9751 26.6L46.4626 23.5375L47.1626 21.6125L47.6001 19.95L47.8626 17.85L47.9501 13.5625H45.4126L44.7126 13.3L44.2751 12.95L43.9251 12.3375L43.8376 11.9V4.8125L44.1876 4.1125L44.6251 3.675L45.3251 3.325L47.8626 3.2375L47.9501 0.9625L48.4751 0.2625L48.7376 0ZM32.5501 30.7125L32.9876 31.5L34.2126 33.3375L35.6126 35.525L36.9251 37.5375L37.1876 37.8875H39.9001L40.7751 38.0625L41.5626 38.4125L42.3501 38.9375L42.9626 39.6375L43.4001 40.5125L43.5751 41.125H43.7501V33.1625L43.4001 32.8125L41.9126 31.9375L40.6876 31.4125L39.3751 30.975L37.8876 30.7125H32.5501ZM22.4001 45.675L22.4876 46.375L23.1001 49.525L23.5376 52.7625L23.6251 53.8125V59.4125L23.3626 61.95L22.8376 65.1875L22.3126 67.4625L22.2251 67.9H29.3126L29.5751 67.4625L31.3251 62.9125L32.8126 59.0625L33.6001 57.05L33.6876 56.6125L32.5501 51.5375L32.4626 51.0125L28.2626 50.925L27.3001 50.575L26.4251 50.05L25.6376 49.175L25.2001 48.3L25.0251 47.5125L24.9376 45.675H22.4001Z" fill="#66B8F5"/>
<path d="M43.7501 33.3375L44.1876 33.5125L45.6751 35L46.5501 36.225L47.2501 37.45L47.9501 39.2L48.3001 40.6875L48.6501 44.1875L48.8251 45.675L53.0251 45.7625L53.1126 46.9L52.9376 48.0375L52.5001 49.0875L51.8001 49.9625L50.9251 50.575L49.7001 51.0125L45.4126 51.1L45.0626 52.5875L44.2751 56.0875L44.1876 56.7875L45.4126 60.025L47.1626 64.575L48.3876 67.725L48.4751 67.8125L49.2626 67.9875L49.7876 68.6V69.3L49.1751 70H17.5001L16.9751 69.3V68.6875L17.4126 67.9875L17.5876 67.9L20.6501 67.8125H29.3126L29.7501 66.7625L31.4126 62.475L32.7251 59.0625L33.5126 57.05L33.6001 56.6125L32.4626 51.5375V51.0125H28.2626L27.3001 50.6625L26.4251 50.1375L25.8126 49.525L25.2001 48.5625L24.9376 47.5125V45.85L25.0251 45.7625L43.7501 45.675V33.3375Z" fill="#375E7D"/>
<path d="M41.3001 56.7H44.1001L44.5376 57.75L47.1626 64.575L48.3876 67.725L48.4751 67.8125L49.2626 67.9875L49.7876 68.6V69.3L49.1751 70H17.5001L16.9751 69.3V68.6875L17.4126 67.9875L17.5876 67.9L20.6501 67.8125H29.3126L29.7501 66.7625L31.4126 62.475L33.6001 56.7875L41.3001 56.7Z" fill="#375E7D"/>
<path d="M48.7374 0H52.2374L52.8499 0.6125L53.0249 0.9625V23.5375L52.6749 25.725L51.8874 29.4L51.7124 30.975L51.6249 36.4L51.4499 36.3125L50.7499 34.9125L49.9624 33.6L49.0874 32.4625L48.2999 31.5L47.3374 30.5375L45.8499 29.4L44.7124 28.6125L44.4499 28.4375L44.5374 27.7375L45.0624 26.425L46.4624 23.5375L47.1624 21.6125L47.5999 19.95L47.8624 17.85L47.9499 13.5625H45.4124L44.7124 13.3L44.2749 12.95L43.9249 12.3375L43.8374 11.9V4.8125L44.1874 4.1125L44.6249 3.675L45.3249 3.325L47.8624 3.2375L47.9499 0.9625L48.4749 0.2625L48.7374 0Z" fill="#375E7D"/>
<path d="M23.9748 26.425H37.0123L38.4123 26.5125L40.5998 26.95L42.0873 27.3875L43.6623 28.0875L44.0998 28.35L44.6248 28.4375L45.3248 28.9625L46.5498 29.8375L47.6873 30.8L48.6498 31.7625L49.7873 33.25L50.5748 34.475L51.0998 35.35L51.6248 36.4L51.8873 37.45L52.2373 38.5875L52.5873 40.425L53.0248 44.975V45.7626H48.8248L48.6498 45.2376L48.2998 41.475L48.0373 39.8125L47.5123 38.2375L46.8123 36.75L46.0248 35.6125L45.3248 34.7375L44.0998 33.5125L43.7498 33.3375L43.5748 32.9875L41.7373 31.9375L40.4248 31.4125L38.9373 30.975L37.8873 30.8H32.6373L34.2998 33.3375L35.6998 35.525L37.0123 37.5375L37.1873 37.8L37.5373 37.8875L38.1498 39.1125L38.9373 40.3376L39.3748 41.2126L39.4623 41.5625V42.2626L38.9373 42.7001H38.1498L37.7123 42.4375V42.2626H37.5373L35.4373 39.1125L34.7373 38.2375L34.6498 37.8L34.0373 36.925L32.9873 35.2625L31.6748 33.25L30.7123 31.7625L30.0998 30.8L29.6623 30.7125H23.9748L23.4498 30.5375L23.0998 30.1875L22.9248 29.6625V27.3875L23.2748 26.6875L23.5373 26.5125L23.9748 26.425Z" fill="#DEE0E0"/>
<path d="M43.2251 56.7875H44.1876L45.4126 60.025L47.1626 64.575L48.3876 67.725L48.4751 67.8125L49.2626 67.9875L49.7876 68.6V69.3L49.1751 70H17.5001L16.9751 69.3V68.6875L17.4126 67.9875L17.5876 67.9L20.6501 67.8125H29.3126L29.7501 67.725L37.6251 67.8125H45.1501L44.9751 67.025L44.7126 66.5875L44.5376 65.8875L44.1001 64.575L43.3126 62.5625L42.7001 60.725L42.2626 59.7625L41.7376 58.1875L41.3001 56.9625V56.875L43.2251 56.7875Z" fill="#2B4D67"/>
<path d="M50.1375 0H52.2375L52.85 0.6125L53.025 0.9625V23.5375L52.675 25.725L51.8875 29.4L51.7125 30.975L51.625 36.4L51.45 36.3125L50.75 34.9125L49.9625 33.6L49.0875 32.4625L49 31.675V30.8L49.0875 30.5375L49.175 29.4875L49.4375 28.175L49.7 26.425L49.7875 26.075L49.875 25.2875L50.05 24.675L50.1375 23.625L50.225 22.4875L50.3125 20.0375V13.3L50.4 7.4375V4.9875L50.3125 0.0875L50.1375 0Z" fill="#2B4D67"/>
<path d="M32.6374 50.925H42.5249L45.4124 51.0125L44.7124 54.1625L44.0999 56.7L41.2999 56.7875H33.5999L33.2499 55.0375L32.4624 51.5375V51.0125L32.6374 50.925Z" fill="#DFE0E0"/>
<path d="M20.3874 43.4H21.0874L21.7874 44.0125L22.4874 45.5L22.5749 46.375L23.1874 49.525L23.6249 52.7625L23.7124 53.8125V59.4125L23.4499 61.95L22.9249 65.1875L22.3999 67.4625L22.2249 67.9H20.6499L20.1249 67.8125L20.2999 67.025L20.9124 64.225L21.3499 61.5125L21.5249 59.7625L21.6124 58.1875V55.125L21.4374 52.5L21.0874 50.05L20.3874 46.55L20.1249 45.7625L19.8624 45.675L19.7749 44.975V43.925L20.2124 43.4875L20.3874 43.4Z" fill="#CACACA"/>
<path d="M47.8624 3.23755H47.9499L48.0374 6.65005L47.9499 13.5625H45.4124L44.7124 13.3L44.2749 12.95L43.9249 12.3375L43.8374 11.9V4.81255L44.1874 4.11255L44.6249 3.67505L45.3249 3.32505L47.8624 3.23755Z" fill="#66B8F5"/>
<path d="M30.4502 28.7L30.9752 28.875L31.5002 29.225L32.2877 30.1875L32.5502 30.625L32.4627 30.8H32.6377L34.3002 33.3375L35.7002 35.525L37.0127 37.5375L37.1877 37.8L37.5377 37.8875L38.1502 39.1125L38.9377 40.3375L39.3752 41.2125L39.4627 41.5625V42.2625L38.9377 42.7H38.1502L37.7127 42.4375V42.2625H37.5377L35.4377 39.1125L34.7377 38.2375L34.6502 37.8L34.0377 36.925L32.9877 35.2625L31.6752 33.25L30.7127 31.7625L30.1002 30.8L29.5752 30.625L29.8377 30.5375L29.9252 30.1875H29.7502L29.6627 29.4875L29.8377 28.9625L30.4502 28.7Z" fill="#CACACA"/>
<path d="M32.6374 50.925H42.5249L45.4124 51.0125L44.7124 54.1625L44.0999 56.7L41.2999 56.7875H33.5999L33.6874 56.6125L34.8249 56.525L35.6124 56.35L40.9499 56.2625L41.2124 56.175L41.8249 53.55L42.0874 51.975L42.1749 51.3625L42.0874 51.275L32.5499 51.1875L32.4624 51.0125L32.6374 50.925Z" fill="#C0C8CE"/>
<path d="M49.9625 45.85H53.025L53.1125 46.9L52.9375 48.0375L52.5 49.0875L51.8 49.9625L50.925 50.575L49.7 51.0125H46.8125V50.8375H46.9875L47.075 50.575L48.475 49.875L49.35 48.825L49.7 47.6875L49.875 46.725V45.9375L49.9625 45.85Z" fill="#2B4E68"/>
<path d="M36.575 63.175H40.775L41.3875 63.2625L41.825 63.7L42 64.4875L41.7375 64.925L41.125 65.1875L39.8125 65.275H37.5375L36.4875 65.1L36.05 64.8375L35.875 64.4875V63.7875L35.9625 63.525H36.1375L36.225 63.2625L36.575 63.175Z" fill="#2B4D67"/>
<path d="M46.2002 35.7L46.6377 35.9625L47.5127 37.5375L48.2127 39.2875L48.6502 41.65L49.0002 45.0625L49.0877 45.2375L50.0502 45.325L51.9752 45.4125L53.0252 45.5875V45.7625H48.8252L48.6502 45.2375L48.3002 41.475L48.0377 39.8125L47.5127 38.2375L46.8127 36.75L46.2002 35.875V35.7Z" fill="#B4C6D3"/>
<path d="M46.2002 35.7L46.6377 35.9625L47.5127 37.5375L48.2127 39.2875L48.6502 41.65L48.7377 42.525V43.4L48.6502 44.1875H48.5627L48.2127 40.6875L47.8627 39.2L47.1627 37.45L46.6377 36.4875L46.2002 35.875V35.7Z" fill="#A2C2DB"/>
<path d="M43.75 33.25L44.275 33.3375L45.325 34.3L46.2 35.35L46.1125 35.7L45.325 34.7375L44.1 33.5125L43.75 33.25Z" fill="#A1C2DB"/>
<path d="M45.6748 29.3125L46.1123 29.4875L47.0748 30.275L47.9498 31.0625L48.6498 31.7625L48.5623 31.9375L47.5123 30.975L46.2873 29.925L45.6748 29.4875V29.3125Z" fill="#9BC1DE"/>
<path d="M48.6499 31.9375L49.0874 32.375L49.7874 33.25L50.3999 34.125V34.3L50.1374 34.2125L49.1749 32.8125L48.6499 32.1125V31.9375Z" fill="#A7C3D9"/>
<path d="M48.4751 41.65H48.6501L48.7376 42.525V43.4L48.6501 44.1875H48.5626L48.4751 43.1375V41.65Z" fill="#A8C3D8"/>
<path d="M46.2002 35.7L46.6377 35.9625L47.2502 37.0125L47.1627 37.275L46.9002 36.925L46.2877 35.9625L46.2002 35.7Z" fill="#A5C3DA"/>
<path d="M22.9248 29.4L23.3623 29.75L23.4498 30.3625L23.2748 30.45L23.0123 30.0125L22.9248 29.4Z" fill="#FEFEFE"/>
<path d="M44.4502 28.4375L44.8002 28.6125L45.6752 29.225L45.4127 29.3125L44.5377 28.7L44.4502 28.4375Z" fill="#A3C3DA"/>
<path d="M48.2998 40.6875H48.4748L48.5623 41.65L48.4748 42.2625H48.3873L48.2998 41.475V40.6875Z" fill="#99C1DF"/>
<path d="M45.6748 29.3125L46.1123 29.4875L46.6373 29.925L46.7248 30.1875L46.3748 30.0125L45.6748 29.4875V29.3125Z" fill="#A4C3DA"/>
<path d="M23.5376 26.5125L23.8001 26.6L23.7126 26.8625L23.2751 27.125H23.1001L23.2751 26.6875L23.5376 26.5125Z" fill="#FEFEFE"/>
</g>
<defs>
<clipPath id="clip0_252_8280">
<rect width="70" height="70" fill="white"/>
</clipPath>
</defs>
</svg>
