<svg width="52" height="63" viewBox="0 0 52 63" fill="none" xmlns="http://www.w3.org/2000/svg">
<path d="M27.2188 0.706299H30.225L31.0375 0.868799L31.6875 1.27505L32.175 1.8438L32.5812 2.8188V26.8688H33.7188L34.3688 27.275L34.6125 27.7625V29.225H39.8937L41.1125 29.3875L41.925 29.7125L42.7375 30.3625L43.225 31.0125L43.6313 31.9063L43.7938 32.475L43.875 49.05L44.1188 49.7001L44.4438 50.1063L45.175 50.4313H45.9875L46.7188 50.0251L47.0438 49.6188L47.2062 49.05L47.2875 22.2375H46.6375L46.3937 22.075V20.45H45.7438L45.2563 20.2875L45.175 20.125L45.0938 15.575L45.0125 14.3563L44.3625 13.7875L42.6562 12.8125L41.3563 12L41.1125 11.7563L40.95 11.025L41.275 9.9688L42.3312 7.5313L42.9 6.2313L43.225 5.7438L43.7938 5.4188L44.4438 5.50005L45.7438 6.15005L47.775 7.28755L49.4813 8.26255L50.4562 8.9938L51.1063 9.72505L51.7563 11.025L52 11.9188V20.125L51.675 20.3688L50.7812 20.5313V21.3438L50.7 22.075L50.4562 22.2375H49.8875V26.4625L49.8063 49.2938L49.5625 50.2688L49.075 51.2438L48.3438 52.0563L47.45 52.625L46.8813 52.8688L46.0688 53.0313H44.85L43.7125 52.7063L42.8188 52.1376L42.1688 51.4875L41.5187 50.35L41.275 49.6188L41.1937 47.8313L41.1125 32.5563L40.7875 32.0688L40.2188 31.825H34.6937V32.9625L34.5312 33.5313L34.125 34.0188L33.8812 34.1813L33.475 34.2626H32.5812V53.925H34.775L35.1813 54.1688L35.5875 54.9813V61.1563L35.3438 61.725L34.775 62.2126L33.8812 62.2938H1.1375L0.56875 62.1313L0.08125 61.5625L0 61.4001V54.8188L0.40625 54.1688L0.8125 53.925L2.925 53.8438L3.00625 2.8188L3.33125 2.0063L3.81875 1.3563L4.3875 0.950049L4.79375 0.787549H22.6688L27.2188 0.706299Z" fill="#468BF8"/>
<path d="M6.6623 3.55005H29.0873L29.5748 3.87505L29.8186 4.36255V19.15L29.5748 19.6375L29.0873 20.0438L28.2748 20.2063H6.8248L6.25605 20.125L5.93105 19.7188L5.8498 19.3938L5.76855 16.1438V4.85005L5.93105 4.1188L6.4998 3.6313L6.6623 3.55005Z" fill="#E8E9E9"/>
<path d="M2.925 53.8438L6.0125 53.925L8.6125 54.0063H18.2813L32.5813 53.8438L34.775 53.925L35.1813 54.1688L35.5875 54.9813V61.1563L35.3438 61.725L34.775 62.2125L33.8813 62.2938H1.1375L0.56875 62.1313L0.08125 61.5625L0 61.4V54.8188L0.40625 54.1688L0.8125 53.925L2.925 53.8438Z" fill="#545454"/>
<path d="M43.7938 5.41895L44.4438 5.5002L45.7438 6.1502L47.7751 7.2877L49.4813 8.2627L50.4563 8.99395L51.1063 9.7252L51.7563 11.0252L52.0001 11.9189V20.1252L51.6751 20.3689L50.7813 20.5314V21.3439L50.7001 22.0752L50.4563 22.2377H49.8876V26.4627L49.8063 49.2939L49.5626 50.2689L49.0751 51.2439L48.3438 52.0564L47.4501 52.6252L46.8813 52.8689L46.0688 53.0314H44.8501L43.7126 52.7064L42.8188 52.1377L42.1688 51.4877L41.5188 50.3502L41.2751 49.6189L41.1938 47.8314L41.1126 32.5564L40.7876 32.0689L40.2188 31.8252L34.6938 31.7439V29.2252H39.8938L41.1126 29.3877L41.9251 29.7127L42.7376 30.3627L43.2251 31.0127L43.6313 31.9064L43.7938 32.4752L43.8751 49.0502L44.1188 49.7002L44.4438 50.1064L45.1751 50.4314H45.9876L46.7188 50.0252L47.0438 49.6189L47.2063 49.0502L47.2876 22.2377H46.6376L46.3938 22.0752V20.4502H45.7438L45.2563 20.2877L45.1751 20.1252L45.0938 15.5752L45.0126 14.3564L44.3626 13.7877L42.6563 12.8127L41.3563 12.0002L41.1126 11.7564L40.9501 11.0252L41.2751 9.96895L42.3313 7.53145L42.9001 6.23145L43.2251 5.74395L43.7938 5.41895Z" fill="#929394"/>
<path d="M31.1188 1.11255H31.5251L32.1751 1.8438L32.5813 2.8188V26.8688H33.7188L34.3688 27.2751L34.6126 27.7626L34.6938 29.2251V32.9626L34.5313 33.5313L34.1251 34.0188L33.8813 34.1813L33.4751 34.2626H32.5813V53.8438L31.6876 53.9251L26.0813 54.0063L18.2813 54.0876H8.6126L3.65635 53.9251L3.00635 53.8438V52.7876L3.7376 51.9751L3.81885 51.8126L4.5501 51.6501H7.88135L10.0751 51.7313H19.1751L21.1251 51.6501H26.0813L28.4376 51.7313L29.5751 51.5688L29.9813 51.4063L30.1438 51.2438L30.3063 50.7563L30.3876 49.4563L30.4688 48.5626L30.3876 46.9376L30.4688 42.6313V38.0813L30.3876 36.7001V32.5563L30.4688 31.7438V29.7126L30.5501 28.4125L30.4688 27.6813V23.0501L30.5501 21.7501L30.6313 21.5876L30.7126 20.0438L30.6313 19.3938L30.5501 19.3126L30.4688 18.5813L30.7126 17.3626V12.4063L30.7938 10.2938L30.8751 5.7438L30.9563 5.2563V3.22505L30.8751 2.8188L30.7938 2.25005L30.8751 2.08755L30.7938 1.27505L31.1188 1.11255Z" fill="#2868D3"/>
<path d="M43.7939 5.41895L44.4439 5.5002L45.7439 6.1502L47.7752 7.2877L49.4814 8.2627L50.4564 8.99395L51.1064 9.72519L51.7564 11.0252L52.0002 11.9189V20.1252L51.6752 20.3689L51.2689 20.4502H45.7439L45.2564 20.2877L45.1752 20.1252L45.0939 15.5752L45.0127 14.3564L44.3627 13.7877L42.6564 12.8127L41.3564 12.0002L41.1127 11.7564L40.9502 11.0252L41.2752 9.96895L42.3314 7.53145L42.9002 6.23145L43.2252 5.74395L43.7939 5.41895Z" fill="#FDC428"/>
<path d="M17.55 24.5127H19.9062L20.6375 24.5939L20.7187 25.0002L19.6625 27.4377L18.85 29.1439L18.3625 30.2002L18.0375 30.8502L17.875 31.4189H21.45L22.1812 31.5002V31.9877L21.6125 32.8002L20.3125 34.5064L19.6625 35.3189L18.85 36.3752L17.0625 38.6502L16.4125 39.5439L15.8438 40.1939H15.6812V39.6252L16.575 37.3502L17.4688 34.6689L17.7937 33.7752L13.65 33.6939L13.4062 33.5314L13.4875 32.9627L14.3 31.0127L15.7625 27.7627L16.9 25.1627L17.3062 24.5939L17.55 24.5127Z" fill="#FDC427"/>
<path d="M34.2873 53.925H34.7748L35.1811 54.1688L35.5873 54.9813V61.1563L35.3436 61.725L34.7748 62.2125L33.8811 62.2938H1.1373L0.568555 62.1313L0.0810547 61.5625V61.075L0.731055 60.9938H22.6686L33.7186 60.9125L34.0436 60.75L34.1248 60.2625L34.2873 53.925Z" fill="#404243"/>
<path d="M31.1189 1.11255H31.5251L31.3626 1.76255H31.2001L31.3626 4.4438L31.2814 8.42505V18.9876L31.3626 20.125L31.2814 22.0751V30.6875L31.2001 32.8001V47.0188L31.1189 49.0501V50.5938L30.9564 51.4876L30.7126 52.0563L30.0626 52.3813H29.6564V52.5438H26.0814L23.9689 52.4626L16.9813 52.3813L9.2626 52.4626L7.3126 52.5438L5.8501 52.4626H4.30635L3.4126 52.7876L3.33135 53.1938L3.0876 53.2751L3.00635 53.1938V52.7876L3.7376 51.9751L3.81885 51.8126L4.5501 51.6501H7.88135L10.0751 51.7313H19.1751L21.1251 51.6501H26.0814L28.4376 51.7313L29.5751 51.5688L29.9814 51.4063L30.1439 51.2438L30.3064 50.7563L30.3876 49.4563L30.4689 48.5625L30.3876 46.9375L30.4689 42.6313V38.0813L30.3876 36.7001V32.5563L30.4689 31.7438V29.7126L30.5501 28.4125L30.4689 27.6813V23.0501L30.5501 21.75L30.6314 21.5875L30.7126 20.0438L30.6314 19.3938L30.5501 19.3125L30.4689 18.5813L30.7126 17.3625V12.4063L30.7939 10.2938L30.8751 5.7438L30.9564 5.2563V3.22505L30.8751 2.8188L30.7939 2.25005L30.8751 2.08755L30.7939 1.27505L31.1189 1.11255Z" fill="#3176E2"/>
<path d="M28.6001 3.55005H29.0876L29.5751 3.87505L29.8188 4.36255V19.15L29.5751 19.6375L29.0876 20.0438L28.2751 20.2063H6.8251L6.25635 20.125L5.93135 19.7188L5.8501 19.3938V16.4688H5.93135V18.9875L15.1938 18.9063H27.9501L28.1938 18.825L28.3563 18.4188L28.4376 17.525L28.5188 13.5438V9.07505L28.6001 6.0688V4.85005L28.6813 3.71255L28.6001 3.55005Z" fill="#C8CDD3"/>
<path d="M11.4563 6.4751H17.0626L17.1438 6.55635V7.4501L16.4126 7.53135H12.2688L12.3501 9.96885L15.3563 10.0501L15.4376 10.1313V10.7813L15.2751 11.1063H12.2688V15.7376H16.9001L17.1438 15.8188V16.6313L17.0626 16.7938L16.6563 16.8751H11.8626L11.2938 16.7126L11.2126 16.5501L11.1313 14.5188L11.2126 6.8001L11.2938 6.55635L11.4563 6.4751Z" fill="#4B4D4E"/>
<path d="M48.0186 7.9375H48.9123L50.0498 8.66875L50.7811 9.31875L51.3498 10.1313L51.7561 11.025L51.9998 11.9188V15.4938L51.9186 15.6563L51.2686 15.7375L50.2936 15.25L49.2373 14.3563L48.6686 13.4625L48.0998 12.2438L47.7748 11.1875L47.6123 10.5375V8.75L47.7748 8.1L48.0186 7.9375Z" fill="#FDAB1D"/>
<path d="M18.6061 6.4751H19.1748L19.4998 7.20635L20.7186 11.7563L21.2873 14.0313L21.4498 13.7876L22.0998 11.2688L23.1561 7.36885L23.3998 6.6376L23.5623 6.4751L24.1311 6.55635L24.3748 6.6376L24.2936 7.36885L23.8873 8.83135L23.4811 10.5376L22.9123 12.6501L22.6686 13.3813L22.3436 14.7626L21.8561 16.3063L21.6123 16.7126L21.1248 16.7938L20.9623 16.7126L20.5561 15.4126L19.5811 12.0001L18.4436 7.7751L18.3623 7.36885V6.6376L18.6061 6.4751Z" fill="#444647"/>
<path d="M32.7438 26.8689H33.7188L34.3688 27.2751L34.6126 27.7626L34.6938 29.2251V32.9626L34.5313 33.5314L34.1251 34.0189L33.8813 34.1814L33.4751 34.2626H32.7438L32.6626 33.8564V26.9501L32.7438 26.8689Z" fill="#929394"/>
<path d="M28.5998 3.55005H29.0873L29.5748 3.87505L29.8186 4.36255V19.15L29.5748 19.6376L29.0873 20.0438L28.8436 20.125H28.2748L28.5998 19.9625L29.2498 19.7188L29.1686 19.15L28.9248 19.2313L29.0061 18.6625L28.7623 19.15L28.6811 19.2313L28.8436 19.3938H28.2748L28.1123 18.9875L28.8436 18.7438L29.0061 17.0375V16.0625L28.9248 15.7375V14.6813L28.8436 12.65V10.2125L28.9248 8.1813L29.0061 7.28755V5.66255L28.7623 3.9563L28.5998 3.55005Z" fill="#C8CDD4"/>
<path d="M28.7627 3.9563L28.9252 4.20005L29.0064 5.0938L29.0877 5.66255V7.28755L29.0064 8.5063L28.9252 10.9438V13.4625L29.0064 15.25V15.9813L29.0877 16.0625V17.2813L29.0064 18.2563L28.8439 18.7438L28.1939 19.0688L28.2752 19.3125L28.6002 19.2313L28.8439 18.825L29.0877 18.5L29.0064 19.15H29.2502V19.5563V19.8L28.6002 20.0438H24.7002L24.7814 19.7188L25.2689 19.6375L24.9439 19.5563V19.2313L24.4564 19.15L15.7627 19.0688V18.9875L27.9502 18.9063L28.1939 18.825L28.3564 18.4188L28.4377 17.525L28.5189 13.5438V9.07505L28.6002 6.0688V4.85005L28.7627 3.9563Z" fill="#D8D6CD"/>
<path d="M46.3936 20.4502H50.7811V21.3439L50.6998 22.0752L50.4561 22.2377L49.8061 22.3189V22.4002H48.9123L49.0748 22.2377L47.6123 22.1564V22.3189L46.6373 22.2377L46.3936 22.0752V20.4502Z" fill="#595A5A"/>
<path d="M21.7751 31.5813H22.1813L22.1001 32.15L21.1251 33.45L20.3126 34.5063L19.6626 35.3188L18.8501 36.375L17.0626 38.65L16.5751 39.3L16.4126 39.3813V38.325L16.6563 37.7563L17.1438 37.1875L17.6313 36.8625L18.0376 36.5375L18.5251 35.6438L18.9313 35.1563L19.0126 34.9125H19.1751V34.75H19.3376L19.5001 34.425L20.2313 33.6125L20.7188 32.8L21.3688 31.9063V31.7438L21.7751 31.5813Z" fill="#FDAC1D"/>
<path d="M19.8252 24.675H20.7189L20.6377 25.1625L19.9064 26.8688L19.0939 28.6563L18.5252 29.875L18.0377 30.85L17.7939 31.2563L17.7127 31.4188L17.4689 31.3375L17.3877 30.9313L17.5502 30.2L17.9564 29.4688L18.3627 28.3313L18.6877 27.6L19.5814 25.5688L19.7439 24.7563L19.8252 24.675Z" fill="#FDAC1D"/>
<path d="M11.6188 6.5564H17.1438V7.45015H13.4063L13.5688 7.12515V6.96265H13.4063V6.80015L13.1626 6.8814H11.5376L11.6188 6.5564Z" fill="#3C3A3C"/>
<path d="M5.93115 18.9875H11.6999V19.0688L9.5874 19.15L9.4249 19.3125L9.7499 19.475H9.2624L9.18115 19.2313H8.7749L9.01865 19.475L9.18115 19.5563V19.7188L8.53115 19.6375V19.8H7.55615L6.58115 19.8813L6.3374 19.6375V19.475L6.0124 19.3125L5.93115 18.9875Z" fill="#D8D6CD"/>
<path d="M13.8936 15.9001H17.0623L17.1436 16.0626V16.6314L16.9811 16.7126H16.0061L15.5186 16.5501L14.2186 16.4689L13.8936 16.3064V15.9001Z" fill="#3B3A3C"/>
<path d="M12.2686 10.1313H15.2748V11.0251H13.4873L13.8123 10.8626L14.2186 10.7813L14.3811 10.4563L13.8123 10.3751V10.2938H12.5936L12.2686 10.1313Z" fill="#3B393B"/>
<path d="M48.7502 7.9375L49.2377 8.1L50.3752 8.9125L51.1064 9.725L51.5939 10.6187L51.5127 10.7812L51.2689 10.6187V10.4562H51.1064L50.6189 9.64375L50.2127 9.4V9.2375H50.0502V9.075L49.7252 8.9125L49.2377 8.50625L48.8314 8.34375V8.18125L48.6689 8.1L48.7502 7.9375Z" fill="#FEC528"/>
<path d="M20.6377 15.1689H20.8002L21.1252 15.6564L21.6127 15.9002H21.8564L21.7752 16.4689L21.4502 16.7939L20.9627 16.7127L20.6377 15.6564V15.1689Z" fill="#3E3D3F"/>
<path d="M20.9624 12.4875H21.5312V13.7875L21.3687 14.1938L21.2062 14.0313L20.9624 13.0563V12.4875Z" fill="#F8F8F8"/>
<path d="M22.9938 8.0188L23.1563 8.26255L23.0751 9.3188L22.8313 9.88755L22.5876 10.1313L22.5063 9.8063L22.9938 8.0188Z" fill="#4A494B"/>
<path d="M23.5627 6.4751L24.1314 6.55635V6.8001H23.7252L23.4814 7.53135L23.1564 7.85635L23.0752 7.69385L23.4002 6.6376L23.5627 6.4751Z" fill="#4B4A4C"/>
<path d="M22.4248 10.1313L22.5061 10.4563L22.4248 10.7001H22.5873L22.3436 12.0001L22.0998 12.0813L22.0186 12.2438V11.5938L22.4248 10.1313Z" fill="#494849"/>
<path d="M11.6188 6.5564H13.0813L13.0001 6.80015L11.5376 6.8814L11.6188 6.5564Z" fill="#3B393B"/>
<path d="M12.3501 8.8313L12.4313 9.1563H12.5938L12.8376 9.56255L12.7563 9.88755L12.3501 10.05V8.8313Z" fill="#FCFCFC"/>
<path d="M18.2814 7.3689H18.4439L18.6877 8.3439V8.8314L18.5252 8.75015L18.2002 7.77515L18.2814 7.3689Z" fill="#F5F6F6"/>
<path d="M20.0688 14.2751H20.2313V14.5189H20.3938L20.5563 15.5751H20.3938L20.0688 14.7626V14.2751Z" fill="#F4F4F4"/>
</svg>
