<svg width="28" height="20" viewBox="0 0 28 20" fill="none" xmlns="http://www.w3.org/2000/svg">
<path d="M17.75 0C16.4239 0 15.1521 0.526784 14.2145 1.46447C13.2768 2.40215 12.75 3.67392 12.75 5C12.75 6.32608 13.2768 7.59785 14.2145 8.53553C15.1521 9.47322 16.4239 10 17.75 10C19.0761 10 20.3478 9.47322 21.2855 8.53553C22.2232 7.59785 22.75 6.32608 22.75 5C22.75 3.67392 22.2232 2.40215 21.2855 1.46447C20.3478 0.526784 19.0761 0 17.75 0ZM17.75 2.375C18.0947 2.375 18.4361 2.4429 18.7545 2.57482C19.073 2.70673 19.3624 2.90009 19.6062 3.14384C19.8499 3.3876 20.0433 3.67698 20.1752 3.99546C20.3071 4.31394 20.375 4.65528 20.375 5C20.375 5.34472 20.3071 5.68606 20.1752 6.00454C20.0433 6.32302 19.8499 6.6124 19.6062 6.85616C19.3624 7.09991 19.073 7.29327 18.7545 7.42518C18.4361 7.5571 18.0947 7.625 17.75 7.625C17.4053 7.625 17.0639 7.5571 16.7455 7.42518C16.427 7.29327 16.1376 7.09991 15.8938 6.85616C15.6501 6.6124 15.4567 6.32302 15.3248 6.00454C15.1929 5.68606 15.125 5.34472 15.125 5C15.125 4.30381 15.4016 3.63613 15.8938 3.14384C16.3861 2.65156 17.0538 2.375 17.75 2.375ZM4 3.75V7.5H0.25V10H4V13.75H6.5V10H10.25V7.5H6.5V3.75H4ZM17.75 11.25C14.4125 11.25 7.75 12.9125 7.75 16.25V20H27.75V16.25C27.75 12.9125 21.0875 11.25 17.75 11.25ZM17.75 13.625C21.4625 13.625 25.375 15.45 25.375 16.25V17.625H10.125V16.25C10.125 15.45 14 13.625 17.75 13.625Z" fill="#FFFAFA"/>
</svg>
