<svg width="65" height="65" viewBox="0 0 65 65" fill="none" xmlns="http://www.w3.org/2000/svg">
<g clip-path="url(#clip0_245_5541)">
<path d="M56.9562 0.568848L57.6875 0.650098L58.6625 1.38135L60.0437 2.51885L61.3437 3.5751L61.8312 3.98135L61.9937 4.2251L62.075 4.7126V9.2626H63.4562L64.1062 9.50635L64.5125 9.83135L65 10.5626V19.9876L64.4312 20.8001L63.9437 21.1251L63.4562 21.2876H62.075V42.4939L61.9937 44.6876L61.75 45.9063L61.2625 47.2063L60.6125 48.3438L59.7187 49.4001L58.9062 50.2126L57.85 50.9439L56.6312 51.5938L55.1687 52.0814L54.0312 52.3251L53.3812 52.4063H51.9187L50.4562 52.1626L49.1562 51.7564L48.0187 51.2689L46.8 50.4564L45.9875 49.7251L45.2562 48.9939L44.6875 48.1814L43.9562 46.8001L43.55 45.5813L43.3875 44.6876L43.3062 43.1438V36.6438L41.6812 36.5626V60.5313H46.6375L47.6125 60.6939L48.2625 61.1814L48.6687 61.8314L48.75 62.1563V62.8876L48.3438 63.7001L47.6937 64.2689L47.2875 64.4314L46.475 64.5126H2.84375L1.38125 64.4314L0.65 64.0251L0 63.2126V61.8314L0.4875 61.1814L0.975 60.7751L1.54375 60.5313H6.9875V2.9251L7.3125 2.2751L7.71875 1.86885L8.04375 1.6251L8.53125 1.4626H39.7312L40.625 1.6251L41.275 2.1126L41.6812 2.9251V30.8751L42.9812 30.7938L44.2 30.9563L44.6875 31.2813L45.2562 31.9313L45.4187 32.4188V34.3689L45.3375 35.5064V44.1189L45.5812 45.5001L46.0687 46.7188L46.8 47.7751L47.125 48.1001V48.2626L47.45 48.4251L48.1 48.9939L49.1562 49.6439L50.4562 50.1314L51.4312 50.3751L53.0562 50.4564L54.3562 50.2938L55.6562 49.8876L56.7937 49.3189L57.7687 48.5876L58.175 48.2626L58.9062 47.3689L59.5562 46.2313L59.8812 45.2564L60.0437 44.2813L60.125 21.2876H53.4625L53.0562 21.0438L52.8937 20.7188L52.8125 20.2313V14.9501L53.0562 14.3813L53.8687 13.7313L55.25 12.7563L56.7125 11.7001L57.1187 11.2938L57.2812 10.4813L57.7687 9.7501L58.175 9.4251L58.5812 9.2626H60.125L60.0437 5.0376L58.9875 4.14385L57.85 3.2501L56.7937 2.35635L56.3062 1.7876L56.225 1.3001L56.55 0.812598L56.9562 0.568848ZM57.0375 13.8126L55.575 14.8688L54.8437 15.3563L54.7625 15.4376V19.4188H57.1187L57.2 19.0938V13.8126H57.0375Z" fill="#FD8B00"/>
<path d="M13.8938 6.5H33.8813L35.1813 6.58125L35.9125 7.06875L36.075 7.39375H36.2375L36.4 7.71875L36.4813 8.85625V22.75H12.2688L12.1875 22.3437V12.675L12.2688 8.36875L12.35 7.6375L12.8375 6.9875L13.5688 6.58125L13.8938 6.5Z" fill="#C5E3FB"/>
<path d="M8.53125 1.4624H10.6437L10.8875 1.70615L10.725 2.1124L10.4 2.35615L10.3187 2.84365V5.6874L10.2375 10.9687V18.6874L10.3187 22.5874L10.2375 24.1312L10.3187 24.8624V27.8687L10.2375 29.9812V31.6874L10.1562 38.5937L10.075 43.4687L9.99375 50.8624V54.4374L10.075 55.8186L10.1562 56.3874V57.5249L10.2375 58.4187L10.5625 59.4749L11.2125 60.4499L10.5625 60.5312L11.4562 60.6124L15.5187 60.6936H28.4375L39.4062 60.6124L41.7625 60.5312H46.6375L47.6125 60.6936L48.2625 61.1811L48.6687 61.8312L48.75 62.1562V62.8874L48.3438 63.6999L47.6937 64.2687L47.2875 64.4311L46.475 64.5124H2.84375L1.38125 64.4311L0.65 64.0249L0 63.2124V61.8312L0.4875 61.1811L0.975 60.7749L1.54375 60.5312H6.9875V2.9249L7.3125 2.2749L7.71875 1.86865L8.04375 1.6249L8.53125 1.4624Z" fill="#E96904"/>
<path d="M56.9564 0.568848L57.6877 0.650098L58.6627 1.38135L60.0439 2.51885L61.3439 3.5751L61.8314 3.98135L61.9939 4.2251L62.0752 4.7126V9.2626H63.4564L64.1064 9.50635L64.5127 9.83135L65.0002 10.5626V19.9876L64.4314 20.8001L63.9439 21.1251L63.4564 21.2876H62.0752V42.4939L61.9939 44.6876L61.7502 45.9063L61.2627 47.2063L60.6127 48.3438L59.7189 49.4001L58.9064 50.2126L57.8502 50.9439L56.6314 51.5938L55.1689 52.0814L54.0314 52.3251L53.3814 52.4063H51.9189L50.4564 52.1626L49.1564 51.7564L48.0189 51.2689L46.8002 50.4564L45.9877 49.7251L45.2564 48.9939L44.6877 48.1814L43.9564 46.8001L43.5502 45.5813L43.3877 44.6876L43.3064 43.1438V36.6438L41.8439 36.5626L41.7627 36.1563V31.1188L41.8439 30.8751L42.9814 30.7938L44.2002 30.9563L44.6877 31.2813L45.2564 31.9313L45.4189 32.4188V34.3689L45.3377 35.5064V44.1189L45.5814 45.5001L46.0689 46.7188L46.8002 47.7751L47.1252 48.1001V48.2626L47.4502 48.4251L48.1002 48.9939L49.1564 49.6439L50.4564 50.1314L51.4314 50.3751L53.0564 50.4564L54.3564 50.2938L55.6564 49.8876L56.7939 49.3189L57.7689 48.5876L58.1752 48.2626L58.9064 47.3689L59.5564 46.2313L59.8814 45.2564L60.0439 44.2813L60.1252 21.2876H53.4627L53.0564 21.0438L52.8939 20.7188L52.8127 20.2313V14.9501L53.0564 14.3813L53.8689 13.7313L55.2502 12.7563L56.7127 11.7001L57.1189 11.2938L57.2814 10.4813L57.7689 9.7501L58.1752 9.4251L58.5814 9.2626H60.1252L60.0439 5.0376L58.9877 4.14385L57.8502 3.2501L56.7939 2.35635L56.3064 1.7876L56.2252 1.3001L56.5502 0.812598L56.9564 0.568848ZM57.0377 13.8126L55.5752 14.8688L54.8439 15.3563L54.7627 15.4376V19.4188H57.1189L57.2002 19.0938V13.8126H57.0377Z" fill="#FD8B01"/>
<path d="M1.54375 60.5312H6.90625L9.425 60.6125L15.5187 60.6938H28.4375L39.4062 60.6125L41.7625 60.5312H46.6375L47.6125 60.6938L48.2625 61.1813L48.6687 61.8313L48.75 62.1563V62.8875L48.3438 63.7L47.6937 64.2688L47.2875 64.4313L46.475 64.5125H2.84375L1.38125 64.4313L0.65 64.025L0 63.2125V61.8313L0.4875 61.1813L0.975 60.775L1.54375 60.5312Z" fill="#3A3841"/>
<path d="M16.575 6.5H33.8813L35.1813 6.58125L35.9125 7.06875L36.075 7.39375H36.2375L36.4 7.71875L36.4813 8.85625V22.75H15.4375V22.6687L23.6438 22.5875L23.9688 22.5062L23.8063 19.3375L23.6438 18.7687L24.9438 18.6875L25.9188 18.2L26.5688 17.55L26.975 16.9L27.1375 16.4937V15.4375L26.7313 14.4625L26 13.2437L24.8625 11.5375L24.375 10.9688L24.5375 10.4812L24.7 9.18125L24.9438 7.8L25.2688 7.39375L25.675 7.3125V6.90625L26.0813 6.6625L16.575 6.58125V6.5Z" fill="#DDEFF9"/>
<path d="M60.1252 21.45H62.0752V42.4937L61.9939 44.6875L61.7502 45.9062L61.2627 47.2062L60.6127 48.3437L59.7189 49.4L58.9064 50.2125L57.8502 50.9437L56.6314 51.5937L55.1689 52.0812L54.0314 52.325L53.3814 52.4062H51.9189L50.4564 52.1625L49.1564 51.7562L48.0189 51.2687L46.8002 50.4562L45.9877 49.725L45.2564 48.9937L44.6877 48.1812L43.9564 46.8L43.5502 45.5812L43.3877 44.6875L43.3064 43.1437V36.6437L41.8439 36.5625L41.7627 36.1562V31.1187L41.8439 30.875L42.9814 30.7937L44.2002 30.9562L44.6877 31.2812L45.2564 31.9312L45.4189 32.4187V34.3687L45.3377 35.5062V44.1187L45.5814 45.5L46.0689 46.7187L46.8002 47.775L47.1252 48.1V48.2625L47.4502 48.425L48.1002 48.9937L49.1564 49.6437L50.4564 50.1312L51.4314 50.375L53.0564 50.4562L54.3564 50.2937L55.6564 49.8875L56.7939 49.3187L57.7689 48.5875L58.1752 48.2625L58.9064 47.3687L59.5564 46.2312L59.8814 45.2562L60.0439 44.2812L60.1252 21.45Z" fill="#BBBCB6"/>
<path d="M13.8123 22.6687L36.3186 22.75V25.1062L36.1561 26L35.9123 26.4062L35.2623 26.7312L34.8561 26.8125L32.4998 26.8937H23.6436L16.6561 26.975H14.2186L13.3248 26.8125L12.8373 26.4875L12.5123 26.0812L12.3498 25.5937L12.2686 23.075V22.75L13.8123 22.6687Z" fill="#5C626F"/>
<path d="M1.54355 60.5312H6.90605L9.4248 60.6125L15.5186 60.6938H28.4373L39.4061 60.6125L41.7623 60.5312H46.6373L47.6123 60.6938L48.2623 61.1813L48.5873 61.75L48.1811 61.9938L47.9373 62.4L47.0436 62.4813L39.5686 62.5625H36.3186L27.2186 62.6438H7.71855L2.51855 62.5625L0.893555 62.4L0.324805 61.8313L0.0810547 61.6688L0.812305 60.8563L1.54355 60.5312Z" fill="#5C626E"/>
<path d="M13.9751 29.8999H24.1313L24.7813 30.2249L25.3501 30.9562L25.5938 32.0124V33.7187L25.3501 34.5312L24.8626 35.2624L24.2938 35.5874L23.8063 35.6687H14.4626L13.2438 35.5062L12.7563 35.1812L12.5126 34.8562L12.3501 34.2062V31.1187L12.9188 30.3874H13.0813V30.2249L13.9751 29.8999Z" fill="#FEC15F"/>
<path d="M13.8938 6.5H16.575L17.225 6.6625V6.74375L16.1688 6.90625L15.8438 7.23125H15.6813L15.6 8.36875L15.5188 11.7812L15.4375 22.6687L13.8125 22.75H12.2688L12.1875 22.3437V12.675L12.2688 8.36875L12.35 7.6375L12.8375 6.9875L13.5688 6.58125L13.8938 6.5Z" fill="#91C7F1"/>
<path d="M62.4812 9.26245H63.4562L64.1062 9.5062L64.5125 9.8312L65 10.5625V19.9875L64.4312 20.8L63.9437 21.125L63.4562 21.2875H62.075V21.45H60.125V21.3687L61.8312 21.2875L61.5062 20.6375L61.2625 20.3125L61.1812 20.0687L61.1 18.9312L61.0187 14.3812L61.1 11.4562L61.1812 10.4L61.6687 9.74995L62.2375 9.3437L62.4812 9.26245Z" fill="#FCA751"/>
<path d="M13.9749 29.8999H24.1312L24.7812 30.2249L25.3499 30.9562L25.4312 31.1999V32.1749L24.5374 32.6624L24.1312 32.7437L20.5562 32.8249H16.2499L13.5687 32.7437L12.8374 32.4999V32.3374H12.4312V30.9562L12.9187 30.3874H13.0812V30.2249L13.9749 29.8999Z" fill="#FED8A4"/>
<path d="M24.1314 11.05H24.5377L25.1877 11.8625L26.3252 13.65L26.9752 14.7875L27.2189 15.4375V16.4938L26.8127 17.3063L26.0814 18.1188L25.3502 18.6063L24.9439 18.7688H23.8064L22.6689 18.2L22.0189 17.55L21.6127 16.8188L21.4502 16.1688V15.6L21.6939 14.7875L22.5064 13.325L23.3189 12.1063L23.9689 11.2125L24.1314 11.05Z" fill="#4D79D6"/>
<path d="M57.0375 11.4563H57.1188V13.2438L57.0375 13.8938L55.575 14.95L54.8438 15.4375L54.7625 19.4188H57.1188L57.3625 20.15L57.9313 20.9625L58.175 21.2875H53.4625L53.0563 21.0438L52.8938 20.7188L52.8125 20.2313V14.95L53.0563 14.3813L53.8688 13.7313L55.25 12.7563L56.7125 11.7L57.0375 11.4563Z" fill="#BCBDB8"/>
<path d="M56.9563 0.568848L57.6876 0.650098L58.6626 1.38135L60.0438 2.51885L61.3438 3.5751L61.8313 3.98135L61.9938 4.2251L62.0751 4.7126V9.01885L61.9938 9.1001H60.1251L60.0438 5.0376L58.9876 4.14385L57.8501 3.2501L56.7938 2.35635L56.3063 1.7876L56.2251 1.3001L56.5501 0.812598L56.9563 0.568848Z" fill="#484C5B"/>
<path d="M42.5752 30.7937L43.8752 30.875L44.5252 31.1187L45.0939 31.6875L45.4189 32.4187V34.3687L45.3377 35.5062L44.7689 36.075L43.7939 36.5625L43.3064 36.6437L41.8439 36.5625L41.7627 36.1562V31.1187L41.8439 30.875L42.5752 30.7937Z" fill="#5E6470"/>
<path d="M6.9877 60.6125H9.4252L15.5189 60.6938H28.4377L40.3002 60.6125V60.775L39.2439 60.9375V61.1L38.7564 61.0188L38.2689 61.1813L37.5377 61.1L35.8314 61.2625H34.2877L33.8002 61.1813H29.3314L28.2752 61.2625H19.1752L17.6314 61.425H16.8189L16.2502 61.3438H16.0064H15.0314L14.4627 61.2625H8.85645L8.53145 61.1V60.9375H7.71895L6.8252 60.8563L6.9877 60.6125Z" fill="#4B5C75"/>
<path d="M31.1188 29.8999H33.6376L36.8063 29.9812L37.0501 30.0624V30.2249H37.2126L37.2938 30.9562L37.2126 31.5249L36.9688 31.6874L35.2626 31.7687H30.3063L29.4126 31.6874L29.1688 31.5249L29.0063 30.9562L29.0876 30.2249L29.1688 30.0624L29.4126 29.9812L31.1188 29.8999Z" fill="#E96904"/>
<path d="M13.8123 22.6687H15.4373L15.5998 26.2437L15.7623 26.4875V26.7312L16.0061 26.8125L15.7623 26.8937H13.5686L12.9186 26.5687L12.5123 26.0812L12.3498 25.5937L12.2686 23.075V22.75L13.8123 22.6687Z" fill="#36363F"/>
<path d="M56.3063 1.13745L56.5501 1.2187L56.7126 1.62495L56.9563 2.0312L57.9313 2.6812V2.8437L58.6626 3.08745L59.2313 3.73745L59.7188 4.06245L60.0438 4.22495L60.5313 4.54995L60.7751 5.1187L60.6938 5.52495L60.6126 5.7687L60.6938 6.01245L60.6126 7.0687V7.79995L60.5313 8.5312L60.3688 8.8562V9.0187H61.9126V9.09995H60.1251L60.0438 5.03745L58.9876 4.1437L57.8501 3.24995L56.7938 2.3562L56.3063 1.78745L56.2251 1.29995L56.3063 1.13745Z" fill="#515763"/>
<path d="M14.625 60.7749H36.075V60.8562L35.0188 60.9374H33.3938L30.0625 61.0187H17.225V60.9374L14.625 60.8562V60.7749Z" fill="#424552"/>
<path d="M38.9188 60.6125H40.3V60.775L39.2438 60.9375V61.1L38.7563 61.0188L38.2688 61.1813L37.5375 61.1L35.8313 61.2625H34.2875L33.8 61.1813H29.4938L29.3313 61.0188L30.0625 60.9375L33.475 60.8563H35.5063L28.4375 60.775V60.6938L38.9188 60.6125Z" fill="#4C5C75"/>
<path d="M58.9062 1.625L59.5563 2.1125L60.5313 2.925L61.6688 3.81875L61.9938 4.225L62.075 4.7125V8.20625H61.9938L61.9125 6.5L61.6688 5.76875L61.5875 5.60625L61.425 4.55L61.1813 4.14375L60.9375 4.0625L60.775 3.7375L60.0438 3.00625V2.84375L59.7188 2.7625L59.3938 2.6V2.4375H59.2313L58.9062 1.7875V1.625Z" fill="#5D626B"/>
<path d="M34.4498 6.5813H35.1811L35.8311 6.98755L35.6686 7.0688L35.8311 7.63755L35.6686 7.80005L35.2623 7.7188L34.4498 7.15005L34.3686 6.82505L34.2061 6.66255L34.4498 6.5813Z" fill="#C8E3F8"/>
<path d="M12.1063 11.7812H12.1876L12.2688 12.675L12.1876 20.3125H12.1063L12.0251 17.7125L11.9438 16.25L12.0251 15.3562V13.5687L12.1063 11.7812Z" fill="#E96904"/>
<path d="M28.4375 60.6938H38.8375V60.7751L36.6437 60.8563L36.3187 60.9376L36.075 60.8563L28.4375 60.7751V60.6938Z" fill="#555B67"/>
<path d="M10.5625 60.6938H15.5188V60.7751H14.625V60.9376L14.2188 61.0188L13.7313 60.9376H11.9438L10.5625 60.7751V60.6938Z" fill="#515763"/>
<path d="M36.3189 22.75H36.4814L36.4002 25.4312L36.2377 26.1625L35.8314 26.65L35.5064 26.8125H34.8564V26.7312L35.6689 26.4875L35.9127 26.4062L36.1564 25.675L36.2377 25.1062L36.3189 22.75Z" fill="#E96904"/>
<path d="M15.5186 24.8625H15.5998L15.6811 26L16.4123 26.8125V26.8938H15.7623L15.5998 26.4063L15.5186 26.2438V24.8625Z" fill="#484D5A"/>
<path d="M6.9877 60.6125H9.4252V60.6938H7.88145V60.8563H6.8252L6.9877 60.6125Z" fill="#525E70"/>
<path d="M61.9127 6.5H61.9939V8.125L61.6689 7.8L61.7502 7.06875H61.9127V6.5Z" fill="#4D535F"/>
<path d="M12.8374 60.7749H14.6249V60.9374L14.2187 61.0187L13.7312 60.9374L12.8374 60.8562V60.7749Z" fill="#474B59"/>
</g>
<defs>
<clipPath id="clip0_245_5541">
<rect width="65" height="65" fill="white"/>
</clipPath>
</defs>
</svg>
