<svg width="61" height="61" viewBox="0 0 61 61" fill="none" xmlns="http://www.w3.org/2000/svg">
<path d="M11.2129 0H12.1879L13.8129 0.24375L15.4379 0.73125L16.7379 1.3L17.8754 1.95L18.9316 2.7625L19.7441 3.49375L20.4754 4.225L21.3691 5.44375L22.1004 6.74375L22.6691 8.04375L23.0754 9.425L23.2379 10.2375L23.3191 11.05V20.3125H24.2941L24.3754 20.3937L24.4566 27.3813H27.3004L27.7879 27.7063L30.3066 30.225L30.4691 30.3062V8.53125L30.7941 7.6375L31.5254 6.825L31.9316 6.5L32.7441 6.09375L38.5129 6.0125L38.5941 2.03125H46.6379L46.7191 2.1125V5.44375L47.6129 5.2L48.9941 5.0375H50.6191L52.3254 5.28125L54.2754 5.93125L55.6566 6.6625L56.5504 7.3125L57.6879 8.2875L58.5816 9.2625L59.3941 10.4812L60.0441 11.7812L60.6129 13.325L60.9379 15.0312V17.3875L60.5316 19.4188L60.0441 20.7188L59.4754 21.8563L58.8254 22.8313L58.2566 23.5625L57.0379 24.7812L55.9004 25.5938L55.0066 26.1625L54.9254 26.2437L54.8441 58.0125L54.6816 58.9062L54.2754 59.7188L53.6254 60.3688L53.0566 60.6938L52.4066 60.8563L51.4316 60.9375H33.2316L32.2566 60.6938L31.5254 60.2062L30.8754 59.475L30.5504 58.7438L30.4691 58.4188V39.65L26.5691 40.625H26.4066V60.8563L26.1629 60.9375H20.3129L20.2316 57.0375V54.925L18.6066 54.6813L17.3066 54.275L16.0066 53.625L15.1129 52.975L14.3004 52.2438L13.4879 51.1875L12.7566 49.8063L12.3504 48.5875L12.1879 47.6125L12.1066 37.7L9.18164 36.5625L9.26289 35.75L10.2379 31.3625L10.9691 28.1125L11.1316 27.4625L11.5379 27.3813H15.0316L15.3566 27.0562L16.4941 24.375L17.4691 22.1L18.0379 20.8813L18.2816 20.3125H19.2566L19.1754 11.2937L18.9316 9.9125L18.2816 8.36875L17.5504 7.23125L16.6566 6.25625L15.7629 5.525L14.7879 4.95625L13.3254 4.3875L12.0254 4.14375L11.2129 4.0625L11.1316 3.7375V0.1625L11.2129 0ZM16.2504 39.1625V47.2062L16.4941 48.1813L16.9816 49.075L17.5504 49.725L18.2004 50.2125L18.8504 50.5375L20.2316 50.8625L20.3129 48.2625V40.625L19.3379 40.2188L16.4129 39.1625H16.2504Z" fill="#87CCE6"/>
<path d="M11.2129 0H12.1879L13.8129 0.24375L15.4379 0.73125L16.7379 1.3L17.8754 1.95L18.9316 2.7625L19.7441 3.49375L20.4754 4.225L21.3691 5.44375L22.1004 6.74375L22.6691 8.04375L23.0754 9.425L23.2379 10.2375L23.3191 11.05V20.3125H24.2941L24.3754 20.3937L24.4566 27.3812H27.3004L27.7879 27.7062L30.4691 30.3875V39.5687L29.8191 39.8125L26.5691 40.625H26.4066V60.8562L26.1629 60.9375H20.3129L20.2316 57.0375V54.925L18.6066 54.6812L17.3066 54.275L16.0066 53.625L15.1129 52.975L14.3004 52.2437L13.4879 51.1875L12.7566 49.8062L12.3504 48.5875L12.1879 47.6125L12.1066 37.7L9.18164 36.5625L9.26289 35.75L10.2379 31.3625L10.9691 28.1125L11.1316 27.4625L11.5379 27.3812H15.0316L15.3566 27.0562L16.4941 24.375L17.4691 22.1L18.0379 20.8812L18.2816 20.3125H19.2566L19.1754 11.2937L18.9316 9.9125L18.2816 8.36875L17.5504 7.23125L16.6566 6.25625L15.7629 5.525L14.7879 4.95625L13.3254 4.3875L12.0254 4.14375L11.2129 4.0625L11.1316 3.7375V0.1625L11.2129 0ZM16.2504 39.1625V47.2062L16.4941 48.1812L16.9816 49.075L17.5504 49.725L18.2004 50.2125L18.8504 50.5375L20.2316 50.8625L20.3129 48.2625V40.625L19.3379 40.2188L16.4129 39.1625H16.2504Z" fill="#2F7463"/>
<path d="M38.5939 2.03125H46.6377L46.7189 2.1125V5.44375L47.6127 5.2L48.9939 5.0375H50.6189L52.3252 5.28125L54.2752 5.93125L55.6564 6.6625L56.5502 7.3125L57.6877 8.2875L58.5814 9.2625L59.3939 10.4813L60.0439 11.7813L60.6127 13.325L60.9377 15.0313V17.3875L60.5314 19.4188L60.0439 20.7188L59.4752 21.8563L58.8252 22.8313L58.2564 23.5625L57.0377 24.7813L55.9002 25.5938L55.0064 26.1625L54.3564 26.4063L52.8127 26.975L51.3502 27.3L50.7814 27.3813H48.6689L47.0439 27.1375L45.9064 26.7313L44.2002 25.9188L42.6564 24.8625L40.8689 23.075L40.3002 22.2625L39.6502 20.9625L39.0814 19.6625L38.7564 18.2812L38.5939 16.9813V15.4375L38.7564 14.1375L39.2439 12.5125L39.7314 11.2938L40.6252 9.83125L41.3564 8.9375L42.0877 8.125L42.9814 7.39375L43.8752 6.74375L44.8502 6.175L38.5127 6.09375L38.5939 2.03125Z" fill="#3D92BF"/>
<path d="M24.2941 25.9187H24.3754L24.4566 27.3812H27.3004L27.7879 27.7062L30.4691 30.3875V39.5687L29.8191 39.8125L26.5691 40.625H26.4066V60.8562L26.1629 60.9375L24.2941 60.8562L24.3754 59.8L24.2941 40.7062L22.2629 39.8937L19.9879 39.0812L18.9316 38.675L16.0879 37.6187L15.1129 37.2937L14.4629 37.05L13.3254 36.6437L13.2441 36.2375L13.8129 33.8812L14.7879 29.3312L14.9504 28.6L15.1129 27.95L15.1941 27.4625H21.6941L24.2941 27.3812V25.9187Z" fill="#3E9081"/>
<path d="M11.2121 0H12.1871L13.8121 0.24375L15.4371 0.73125L16.7371 1.3L17.8746 1.95L18.9309 2.7625L19.7434 3.49375L20.4746 4.225L21.3684 5.44375L22.0996 6.74375L22.6684 8.04375L23.0746 9.425L23.2371 10.2375L23.3184 11.05V20.3125H24.2934L24.3746 20.3938V25.9188L24.2934 27.3813L24.0496 27.4625L20.7184 27.5438H15.2746L15.0309 27.3813L15.3559 27.0563L16.4934 24.375L17.4684 22.1L18.0371 20.8813L18.2809 20.3125H19.2559L19.1746 11.2938L18.9309 9.9125L18.2809 8.36875L17.5496 7.23125L16.6559 6.25625L15.7621 5.525L14.7871 4.95625L13.3246 4.3875L12.0246 4.14375L11.2121 4.0625L11.1309 3.7375V0.1625L11.2121 0Z" fill="#2F7463"/>
<path d="M44.0377 27.3H48.6689L50.7002 27.4625V31.4438L50.5377 31.525H34.5314L34.4502 29.575V27.5438L34.5314 27.4625L37.5377 27.3813L44.0377 27.3Z" fill="#FDD55A"/>
<path d="M34.4502 35.5063H50.6189L50.7002 35.5876V39.5688L50.4564 39.6501H34.5314L34.4502 39.1626V35.5063Z" fill="#FDD55A"/>
<path d="M34.5314 43.6313H50.6189L50.7002 43.7126V47.6938L50.5377 47.7751H34.6127L34.5314 47.6938L34.4502 45.9876V43.7126L34.5314 43.6313Z" fill="#FDD55A"/>
<path d="M36.9689 51.7563H50.6189L50.7002 51.8376V55.8188L50.2939 55.9001H34.6127L34.5314 55.8188L34.4502 54.1126V51.8376L36.9689 51.7563Z" fill="#FDD55A"/>
<path d="M3.98125 4.0625L4.3875 4.46875L5.2 5.76875L6.09375 7.23125L7.06875 9.01875L7.8 10.6437L8.125 11.8625V12.675L7.88125 13.65L7.39375 14.5437L6.6625 15.3562L5.525 16.0062L4.3875 16.25H3.65625L2.84375 16.0875L2.03125 15.7625L1.3 15.1937L0.65 14.4625L0.1625 13.4875L0 12.8375V11.7L0.40625 10.4L1.38125 8.36875L2.19375 6.90625L3.16875 5.3625L3.81875 4.30625L3.98125 4.0625Z" fill="#FDD55A"/>
<path d="M11.2121 0H12.1871L13.8121 0.24375L15.4371 0.73125L16.7371 1.3L17.8746 1.95L18.9309 2.7625L19.7434 3.49375L20.4746 4.225L21.3684 5.44375L22.0996 6.74375L22.6684 8.04375L23.0746 9.425L23.2371 10.2375L23.3184 11.05V20.2313H21.3684L21.2871 20.0688V17.55L21.2059 13.5688L20.9621 11.5375L20.5559 10.075L19.5809 8.125L19.0934 7.39375L18.2809 6.25625L17.3871 5.28125L16.4121 4.46875L14.9496 3.575L13.7309 3.00625L12.1871 2.4375L11.2121 2.275V3.575H11.1309V0.1625L11.2121 0Z" fill="#7A8485"/>
<path d="M12.1875 37.7L12.2688 37.8625H12.9188L14.3 38.35L14.2188 38.675V45.175L14.3813 47.2062L14.7063 48.425L15.5188 49.9687L15.925 50.5375V50.7H16.0875L16.4125 51.1062V51.2687L16.7375 51.4312L17.55 52.1625L19.2563 53.1375L20.2313 53.625V54.6L20.15 54.8437L19.0125 54.7625L17.4688 54.3562L16.0875 53.7062L15.1125 52.975L14.3 52.2437L13.4875 51.1875L12.7563 49.8062L12.35 48.5875L12.1875 47.6125V37.7Z" fill="#63696A"/>
<path d="M50.6191 9.50635L50.8629 9.66885V15.0313L51.5129 15.1126L53.7066 15.1938L53.6254 15.7626H53.4629V16.0063H53.3004L52.7316 17.1438H52.5691L52.2441 17.9563H52.0816V18.2001H51.9191L51.7566 18.7688L51.5129 18.8501L51.3504 19.3376L51.1066 19.7438L50.9441 19.8251L50.7004 20.3938H50.5379L50.4566 20.8001H50.2941L50.1316 21.3688L49.8879 21.4501V21.6938L49.7254 21.7751L49.4816 22.3438L49.3191 22.4251L49.0754 22.8313L48.7504 22.9938L48.6691 19.3376L48.5879 17.3063H45.8254L45.7441 17.1438L46.8004 15.5188L47.0441 15.1126L47.1254 14.7876L47.4504 14.4626L48.1816 13.2438L48.3441 12.8376H48.5066L48.6691 12.4313L48.9941 12.0251L49.4004 11.1313L49.8066 10.7251L49.9691 10.2376H50.1316L50.2941 9.9126L50.6191 9.50635Z" fill="#FAD560"/>
<path d="M11.2121 2.2749H11.7809L12.9184 2.5999L14.8684 3.4124L16.2496 4.30615L17.3059 5.11865L18.1184 5.93115L19.3371 7.55615L19.7434 8.2874L20.3934 9.5874L20.7184 10.3999L21.0434 11.5374L21.2871 13.8124L21.3684 17.6312V20.2312H23.3184V20.3124L21.8559 20.3937H20.7184L19.5809 20.3124L19.2559 20.2312L19.1746 11.2937L18.9309 9.9124L18.2809 8.36865L17.5496 7.23115L16.6559 6.25615L15.7621 5.5249L14.7871 4.95615L13.3246 4.3874L12.0246 4.14365L11.2121 4.0624L11.1309 3.7374L11.2121 2.2749Z" fill="#636A6C"/>
<path d="M38.5939 2.03125H46.6377L46.7189 2.1125V5.28125L46.4752 5.525L45.0939 6.09375H38.5127L38.5939 2.03125Z" fill="#63696A"/>
<path d="M14.2189 38.4312L15.6002 38.9187L16.1689 39.1624L16.2502 46.7999L16.4939 48.0187L17.0627 49.0749L17.5502 49.6437L18.2002 50.1312L18.8502 50.4562L20.0689 50.7812L20.2314 51.0249V53.6249L19.4189 53.2999L17.9564 52.4874L17.3064 51.9999L16.4127 51.2687L16.0877 50.8624V50.6999H15.9252L15.1127 49.3999L14.5439 48.1812L14.3002 47.2062L14.1377 45.1749V38.6749L14.2189 38.4312Z" fill="#404B4E"/>
<path d="M54.7625 26.4062H54.8438V58.0125L54.7625 58.6625H54.6812L54.6 56.7937L54.4375 56.875L54.3562 56.4687L54.275 58.0937H54.0312L53.95 58.0125L53.7875 53.7875L53.7062 52.5687V51.1875L53.625 48.5875L53.7062 47.45V46.8812L53.7875 46.0687V43.9562L53.625 43.0625L53.7062 38.5938L53.7875 37.4562L53.8687 36.725L53.7875 36.4L53.8687 32.0125V29.575L54.0312 28.7625L54.1937 28.925L54.275 30.1437L54.3562 33.3125L54.4375 30.9562L54.6 30.6312L54.5187 30.3062L54.6 30.225V26.5687L54.7625 26.4062Z" fill="#87CCE6"/>
<path d="M42.6562 7.63745L42.8188 7.7187L41.7625 8.77495L41.1125 9.58745L40.7063 10.2375H40.5438L40.4625 10.725L39.975 11.8625L39.65 13.65L39.5688 14.625V16.0062L39.8125 17.7125L40.3813 19.3375L41.0313 20.7187L41.6813 21.6937L42.575 22.8312L43.4688 23.725L44.0375 24.1312V24.2937L44.3625 24.4562L45.6625 25.2687L46.9625 25.8375L48.75 26.325L50.2938 26.5687H51.1063L52.1625 26.325L53.3 26.1625L54.275 25.9187L55.0063 25.5937L56.4688 24.8625L56.7938 24.6187H57.0375V24.7812L55.9 25.5937L55.0063 26.1625L54.3563 26.4062L52.8125 26.975L51.35 27.3L50.7813 27.3812H48.6688L47.0438 27.1375L45.9063 26.7312L44.2 25.9187L42.6562 24.8625L40.8688 23.075L40.3 22.2625L39.65 20.9625L39.0813 19.6625L38.7563 18.2812L38.5938 16.9812V15.4375L38.7563 14.1375L39.2438 12.5125L39.7313 11.2937L40.625 9.8312L41.3563 8.93745L42.0875 8.12495L42.6562 7.63745Z" fill="#2E81AA"/>
<path d="M36.8062 19.2563H38.8375L39.325 19.9876L40.0562 21.6938L40.7062 22.7501L40.95 23.0751L40.8687 23.3188L40.7062 23.4001H34.6125L34.5312 23.3188V19.4188L34.6125 19.3376L36.8062 19.2563Z" fill="#FCD55B"/>
<path d="M36.075 11.1313H39.65L39.7312 11.4563L39.1625 13.0001L38.5938 15.1126L38.2687 15.2751H34.6937L34.5312 15.1126V11.2126L36.075 11.1313Z" fill="#FDD55A"/>
<path d="M11.0496 17.3062L11.2934 17.3874L12.1871 18.8499L12.9996 20.3937L13.1621 20.8812V21.9374L12.6746 22.7499L11.9434 23.2374L11.6184 23.3187H10.6434L10.0746 23.0749L9.66836 22.7499L9.26211 22.0999L9.09961 21.5312L9.18086 20.7999L9.50586 19.9874L10.3996 18.3624L10.8871 17.6312L11.0496 17.3062Z" fill="#FDD55C"/>
<path d="M54.0312 28.7625L54.1937 28.925L54.275 30.1437L54.3562 33.3125L54.4375 33.3937V35.5062L54.275 37.7L54.1937 42.1687V47.9375L54.275 50.375L54.3562 53.3812L54.4375 55.1687V56.1437L54.3562 56.4687L54.275 58.0937H54.0312L53.95 58.0125L53.7875 53.7875L53.7062 52.5687V51.1875L53.625 48.5875L53.7062 47.45V46.8812L53.7875 46.0687V43.9562L53.625 43.0625L53.7062 38.5937L53.7875 37.4562L53.8687 36.725L53.7875 36.4L53.8687 32.0125V29.575L54.0312 28.7625Z" fill="#87CCE6"/>
<path d="M33.7188 6.17505H37.2937L37.1312 6.4188H36.725V6.5813L36.3187 6.66255H33.9625L33.3125 6.7438H32.5V6.50005H32.6625V6.33755L33.7188 6.17505Z" fill="#87CCE6"/>
<path d="M54.7625 26.4062H54.8438V31.3625L54.6 32.175L54.4375 32.2563V30.9563L54.6 30.6313L54.5187 30.3063L54.6 30.225V26.5688L54.7625 26.4062Z" fill="#87CCE6"/>
<path d="M42.6564 7.63745L42.8189 7.7187L41.7627 8.77495L41.1127 9.58745L40.7064 10.2375L40.3814 10.5625L39.8127 11.7812H39.6502L39.4877 12.5125H39.3252L39.4064 12.025L40.0564 10.725L40.8689 9.5062L41.9252 8.28745L42.6564 7.63745Z" fill="#3286B1"/>
<path d="M41.4375 23.5625L41.7625 23.725L42.6563 24.6188L43.4688 25.1875L45.0125 26.0813L46.0688 26.5688L45.7438 26.65L44.2 25.9188L42.6563 24.8625L41.4375 23.6438V23.5625Z" fill="#30786F"/>
<path d="M56.7939 24.6187H57.0377V24.7812L55.9002 25.5937L55.0064 26.1624L54.7627 26.2437L54.9252 25.9187L55.0877 25.8374L54.9252 25.7562L55.4127 25.3499L56.3877 24.9437L56.7939 24.6187Z" fill="#3688AF"/>
<path d="M37.2939 6.17505H37.9439L37.7814 6.33755L37.9439 6.50005L37.7002 6.66255L37.9439 6.5813L38.3502 6.7438V6.82505L37.7002 6.9063H37.1314L36.4814 6.66255L36.7252 6.5813V6.4188L37.2127 6.2563L37.2939 6.17505Z" fill="#87CCE6"/>
<path d="M34.6125 11.05H39.8938L39.8125 11.2938L39.65 11.2125H34.5312L34.6125 11.05Z" fill="#87CCE6"/>
<path d="M38.675 19.0938H39L39.0813 19.5813L38.8375 19.3375H36.8063L34.5312 19.4188V19.2563L38.675 19.0938Z" fill="#87CCE6"/>
<path d="M34.5312 15.1125L34.775 15.1938H38.2687L38.5938 15.1125L38.5125 15.4375L34.5312 15.3563V15.1125Z" fill="#87CCE6"/>
<path d="M40.4627 10.075H40.6252L40.4627 10.4812L39.8127 11.7812H39.6502L39.4877 12.5125H39.3252L39.4064 12.025L40.0564 10.725L40.4627 10.075Z" fill="#48756B"/>
<path d="M54.6 30.7124H54.6813V31.7687L54.5188 32.2562H54.4375V30.9562L54.6 30.7124Z" fill="#87CCE6"/>
<path d="M41.1127 9.18115H41.2752L41.1127 9.5874L40.7064 10.2374L40.5439 9.99365L41.1127 9.18115Z" fill="#2F7F9A"/>
<path d="M40.9502 23.1562L41.2752 23.4L41.1939 23.5625L39.7314 23.4812V23.4L40.7064 23.3187L40.9502 23.1562Z" fill="#87CCE6"/>
<path d="M40.4623 10.075H40.6248L40.4623 10.4812L40.0561 11.2125H39.8936L40.0561 10.725L40.4623 10.075Z" fill="#327A72"/>
<path d="M32.5 8.53125L32.7438 8.6125V9.18125L32.5 9.425V8.53125Z" fill="#87CCE6"/>
<path d="M42.6562 24.7L42.9813 24.8625L43.7938 25.4312L43.7125 25.5937L42.6562 24.8625V24.7Z" fill="#327B71"/>
<path d="M38.5127 15.1125L38.5939 15.275L38.5127 15.4375L36.8877 15.3563V15.275L38.2689 15.1938L38.5127 15.1125Z" fill="#87CCE6"/>
</svg>
