<svg width="32" height="30" viewBox="0 0 32 30" fill="none" xmlns="http://www.w3.org/2000/svg">
<g clip-path="url(#clip0_384_4392)">
<path d="M25.5187 21.5842C26.1438 22.518 26.8848 23.372 27.724 24.1275V24.2915H5.01465V24.1244C5.84424 23.3654 6.57556 22.5095 7.19133 21.5754L7.23072 21.5156L7.26425 21.4523C8.02136 20.024 8.47594 18.4612 8.5992 16.8564L8.60361 16.799V16.7415L8.60361 12.6248L8.6036 12.6217C8.59984 10.821 9.27136 9.0718 10.5069 7.69933C11.7435 6.32554 13.4629 5.42209 15.3514 5.16998L16.3318 5.0391L17.2726 5.15521C19.1783 5.39039 20.919 6.28858 22.1723 7.66717C23.4243 9.04441 24.1053 10.8065 24.1005 12.6209V12.6248V16.7415V16.799L24.1049 16.8564C24.2282 18.4612 24.6828 20.024 25.4399 21.4523L25.4759 21.5203L25.5187 21.5842Z" stroke="#8C8A8A" stroke-width="3"/>
<path d="M14.1001 26.6665C14.1758 27.1947 14.4467 27.6787 14.863 28.029C15.2793 28.3793 15.8127 28.5722 16.3648 28.5722C16.9168 28.5722 17.4503 28.3793 17.8665 28.029C18.2828 27.6787 18.5538 27.1947 18.6294 26.6665H14.1001Z" fill="#8C8A8A"/>
</g>
<defs>
<clipPath id="clip0_384_4392">
<rect width="31.0583" height="30" fill="white" transform="translate(0.883301)"/>
</clipPath>
</defs>
</svg>
