<svg width="64" height="57" viewBox="0 0 64 57" fill="none" xmlns="http://www.w3.org/2000/svg">
<path d="M39.7313 0.306274L41.0313 0.387524L42.3313 0.712524L43.6313 1.36252L44.4438 1.93127L45.0125 2.41877L45.7438 3.31252L46.475 4.61252L46.8813 5.83127L46.9625 6.64377L46.7188 7.21252L46.3125 7.70002L45.6625 7.94377H45.4188V8.59377L44.9313 9.89377L44.3625 10.7875L43.6313 11.6L42.8188 12.1688L41.925 12.575L41.1938 12.8188L39.4875 12.9813L39 13.6313L38.5938 13.9563L38.35 14.0375H37.6188L36.8875 13.7125L37.05 15.4188L37.1313 15.7438L38.2688 17.2875L39.1625 18.425L39.5688 18.9125V19.075L39.8938 19.2375L41.1125 19.725L43.7938 20.7813L45.3375 21.4313V20.2938L45.5 19.725L45.9063 19.2375L46.475 18.9938L50.4563 18.3438L53.8688 17.8563H54.4375L55.3313 18.1813L55.8188 18.5063L56.6313 19.3188L57.2813 20.6188L57.6063 21.5938L57.6875 22.1625V23.3L57.3625 24.6L57.0375 25.3313L56.6313 26.0625L55.9 26.875L55.25 27.2813L54.8438 27.4438L54.275 27.525L52.975 27.4438L52.5688 27.3625L52.7313 28.3375L53.625 32.6438L54.1938 35.325V35.65L55.1688 35.8938L56.4688 36.3813L58.0125 37.1938L58.9875 37.925L59.9625 38.8188L60.6125 39.4688L61.3438 40.4438L62.1563 41.825L62.8063 43.45L63.1313 44.6688L63.2938 45.9688V46.9438H61.425V47.7563L61.1 49.5438L60.6938 50.7625L59.9625 52.1438L59.2313 53.1188L58.5 53.9313L57.6875 54.6625L56.225 55.5563L54.6 56.2063L53.2188 56.5313L52.65 56.6125H50.7813L49.1563 56.2875L47.6125 55.7188L46.2313 54.9063L45.3375 54.175L44.3625 53.2L43.55 52.0625L42.8188 50.6813L42.3313 49.0563L42.0875 47.5938V46.9438L24.2938 47.025L23.9688 49.0563L23.5625 50.3563L23.1563 51.3313L22.425 52.55L21.775 53.3625L21.3688 53.85L20.7188 54.4188L19.4188 55.3125L18.0375 55.9625L16.7375 56.3688L15.4375 56.6125H13.4875L11.9438 56.2875L10.5625 55.8L9.34375 55.15L8.36875 54.4188L7.39375 53.525L6.5 52.3875L5.76875 51.0875L5.28125 49.8688L4.95625 48.4063L4.875 47.8375V46.9438H3.00625V37.0313L3.25 35.5688L3.575 34.5938L4.225 33.2938L4.79375 32.4L5.6875 31.3438L6.3375 30.775L7.39375 30.0438L8.125 29.6375L8.69375 29.3125L8.775 26.7938L9.18125 25.8188L9.66875 25.25L10.4813 24.7625L1.7875 24.6813L1.05625 24.6L0.56875 24.275L0.1625 23.7875L0.08125 23.5438L0 21.8375V14.6063L0.08125 9.56878L0.325 9.08127L0.89375 8.59377L1.21875 8.43127H15.275L15.7625 8.75628L16.1688 9.24378L16.3313 9.65003V23.5438L16.0875 24.0313L15.4375 24.6L17.4688 24.6813L17.0625 23.625V22.2438L17.4688 21.025L18.4438 18.8313L19.175 17.125L19.9875 15.5813L20.8 14.4438L21.775 13.3063L22.5875 12.575L23.725 11.7625L24.9438 11.0313L26.4063 10.3813L28.275 9.81252L30.225 9.40627L32.5813 9.16253H33.15L32.9875 8.67502L32.9062 7.94377V6.96877L33.0688 5.91252L33.475 4.61252L34.0438 3.55627L34.6938 2.74377L35.2625 2.09377L36.4 1.28127L37.375 0.793774L38.4313 0.468774L39.7313 0.306274ZM32.3375 18.5875L30.4688 19.4813L26.975 21.1875L26.4875 21.4313V21.5938L29.6563 23.0563L32.9062 24.5188L34.3688 25.1688L35.6688 25.8188L36.4813 26.55L36.8875 27.4438L37.05 28.4188L36.725 40.2L36.8063 40.2813H42.4125L43.1438 39.3875L44.2813 38.25L45.3375 37.4375V24.8438L44.7688 24.6L38.1875 22.65L36.9688 22.2438L36.2375 21.5938L35.1813 20.7813L33.8 19.6438L32.6625 18.75L32.3375 18.5875ZM30.1438 29.8V40.2813H32.3375L32.4188 40.2L32.5 33.1313V30.6125L31.6875 30.2875L30.3063 29.8H30.1438Z" fill="#55D917"/>
<path d="M39.7311 0.306274L41.0311 0.387524L42.3311 0.712524L43.6311 1.36252L44.4436 1.93127L45.0123 2.41877L45.7436 3.31252L46.4748 4.61252L46.8811 5.83127L46.9623 6.64377L46.7186 7.21252L46.3123 7.70002L45.6623 7.94377H45.4186V8.59377L44.9311 9.89377L44.3623 10.7875L43.6311 11.6L42.8186 12.1688L41.9248 12.575L41.1936 12.8188L39.4873 12.9813L38.9998 13.6313L38.5936 13.9563L38.3498 14.0375H37.6186L36.8873 13.7125L37.0498 15.4188L37.1311 15.7438L38.2686 17.2875L39.1623 18.425L39.5686 18.9125V19.075L39.8936 19.2375L41.1123 19.725L43.7936 20.7813L45.1748 21.35L45.5811 21.4313L46.7186 21.9188L47.5311 22.2438L47.3686 22.65H47.1248L47.0436 22.8938H46.8811L46.7186 23.5438H46.5561V24.1938L46.6373 24.6V25.1688L45.9873 25.0875L45.4998 25.0063L45.3373 25.0875L45.2561 24.8438L43.3873 24.275L39.2436 23.0563L37.1311 22.4063L35.9936 21.5125L35.0998 20.7813L33.7998 19.725L32.6623 18.8313L32.3373 18.6688L30.4686 19.5625L26.9748 21.2688L26.5686 21.4313L26.4061 21.5938L25.9998 21.35L24.2936 20.6188L21.4498 19.3188L19.1748 18.3438L18.7686 18.1813L19.1748 17.125L19.9873 15.5813L20.7998 14.4438L21.7748 13.3063L22.5873 12.575L23.7248 11.7625L24.9436 11.0313L26.4061 10.3813L28.2748 9.81252L30.2248 9.40627L32.5811 9.16252H33.1498L32.9873 8.67502L32.9061 7.94377V6.96877L33.0686 5.91252L33.4748 4.61252L34.0436 3.55627L34.6936 2.74377L35.2623 2.09377L36.3998 1.28127L37.3748 0.793774L38.4311 0.468774L39.7311 0.306274Z" fill="#FDD870"/>
<path d="M1.21875 8.43127H15.275L15.7625 8.75627L16.1687 9.24377L16.3312 9.65002V23.5438L16.0875 24.0313L15.4375 24.6V24.7625H10.725L1.7875 24.6813L1.05625 24.6L0.56875 24.275L0.1625 23.7875L0.08125 23.5438L0 21.8375V14.6063L0.08125 9.56877L0.325 9.08127L0.89375 8.59377L1.21875 8.43127Z" fill="#FDD870"/>
<path d="M18.7687 18.1813L19.1749 18.2625L21.7749 19.4L24.4562 20.6188L25.9999 21.2688L26.9749 21.7563L32.9062 24.4375L34.3687 25.0875L35.6687 25.7375L36.4812 26.4688L36.9687 27.4438L37.1312 28.4188L36.8062 39.9563L36.7249 41.6625L36.6437 41.7438H32.4999L32.4187 41.6625L32.3374 40.2L32.4187 33.1313V30.6125L29.5749 29.6375L28.1124 29.0688L26.9749 28.7438L18.5249 28.6625H14.9499L11.4562 28.7438L9.4249 29.0688L8.7749 29.15V26.7938L9.18115 25.8188L9.66865 25.25L10.4812 24.7625L15.4374 24.6813H17.4687L17.0624 23.625V22.2438L17.4687 21.025L18.4437 18.8313L18.7687 18.1813Z" fill="#44444B"/>
<path d="M39.7313 0.306274L41.0313 0.387524L42.3313 0.712524L43.6313 1.36252L44.4438 1.93127L45.0125 2.41877L45.7438 3.31252L46.475 4.61252L46.8813 5.83127L46.9625 6.64377L46.7188 7.21252L46.3125 7.70002L45.6625 7.94377H45.4188V8.59377L44.9313 9.89377L44.3625 10.7875L43.6313 11.6L42.8188 12.1688L41.925 12.575L41.1938 12.8188L39.4875 12.9813L39 13.6313L38.5938 13.9563L38.35 14.0375H37.6188L36.6438 13.6313L35.75 13.0625L34.9375 12.3313L34.3688 11.6813L33.7188 10.625L33.15 9.32502L32.9875 8.67502L32.9062 7.94377V6.96877L33.0688 5.91252L33.475 4.61252L34.0438 3.55627L34.6938 2.74377L35.2625 2.09377L36.4 1.28127L37.375 0.793774L38.4313 0.468774L39.7313 0.306274Z" fill="#E74F48"/>
<path d="M22.75 47.025H23.9688L24.2125 47.1063L24.1313 48.2438L23.725 49.95L23.2375 51.1688L22.5063 52.4688L21.775 53.3625L21.3688 53.85L20.7188 54.4188L19.4188 55.3125L18.0375 55.9625L16.7375 56.3688L15.4375 56.6125H13.4875L11.9438 56.2875L10.5625 55.8L9.34375 55.15L8.36875 54.4188L7.39375 53.525L6.5 52.3875L5.76875 51.0875L5.28125 49.8688L4.95625 48.4063L4.875 47.8375V47.1063H9.66875L10.1563 48.8938L10.6438 49.7875L11.375 50.6L12.35 51.25L13.2438 51.575L14.3813 51.7375L15.4375 51.6563L16.4938 51.3313L17.4688 50.7625L18.2813 49.95L18.9313 48.8125L19.4188 47.1063L22.75 47.025Z" fill="#44444B"/>
<path d="M42.1687 47.025L46.9624 47.1063L47.2062 48.325L47.6124 49.3L48.0999 50.0313L48.5874 50.6L49.4812 51.1688L50.4562 51.575L51.2687 51.7375H52.3249L53.6249 51.4125L54.7624 50.7625L55.6562 49.8688L56.1437 48.8938L56.5499 47.5125L56.6312 47.1063L61.3437 47.025L61.4249 47.1063V47.7563L61.0999 49.5438L60.6937 50.7625L59.9624 52.1438L59.2312 53.1188L58.4999 53.9313L57.6874 54.6625L56.2249 55.5563L54.5999 56.2063L53.2187 56.5313L52.6499 56.6125H50.7812L49.1562 56.2875L47.6124 55.7188L46.2312 54.9063L45.3374 54.175L44.3624 53.2L43.5499 52.0625L42.8187 50.6813L42.3312 49.0563L42.0874 47.5938V47.1063L42.1687 47.025Z" fill="#44444B"/>
<path d="M53.8687 17.8563H54.4374L55.3312 18.1813L55.8187 18.5063L56.6312 19.3188L57.2812 20.6188L57.6062 21.5938L57.6874 22.1626V23.3001L57.3624 24.6001L57.0374 25.3313L56.6312 26.0626L55.8999 26.8751L55.2499 27.2813L54.8437 27.4438L54.2749 27.5251L52.9749 27.4438L52.5687 27.3626L52.4874 27.5251H52.3249V27.3626L51.5124 27.2813L50.4562 27.0376L49.3999 26.8751L48.9124 26.7126V26.3876L49.6437 25.9001L50.2124 25.2501L50.4562 24.9251L50.5374 23.8688L50.2937 23.1376L49.8062 22.5688L48.9937 22.1626L48.1812 22.0813L47.6937 22.3251L47.6124 22.4876L47.4499 22.4063L47.5312 22.2438L46.7187 22.0001L45.4187 21.4313L45.3374 21.3501V20.2938L45.4999 19.7251L45.9062 19.2376L46.4749 18.9938L50.4562 18.3438L53.8687 17.8563Z" fill="#4DC515"/>
<path d="M52.5686 35.7313H53.4623L54.2748 35.8938V35.7313L54.9248 35.8126L56.4686 36.3813L58.0123 37.1938L58.9873 37.9251L59.9623 38.8188L60.6123 39.4688L61.3436 40.4438L62.1561 41.8251L62.8061 43.4501L63.1311 44.6688L63.2936 45.9688V46.9438H61.4248L61.3436 47.1063H56.6311L56.7123 46.9438L58.0123 46.7813L58.1748 46.2938L57.9311 46.0501V45.4001L57.5248 43.3688L57.6061 43.2063H57.4436L57.2811 42.5563L56.8748 41.5813L56.3873 40.8501V40.6063H56.2248L55.8998 40.0376V39.8751L55.6561 39.7938L55.0873 39.0626V38.9001H54.9248L54.4373 38.3313L53.8686 37.8438V37.6813L53.5436 37.5188V37.3563L52.9748 37.1938L52.0811 36.3813V36.2188L51.7561 36.1376L51.6748 35.8938L51.7561 35.8126L52.5686 35.7313Z" fill="#4DC515"/>
<path d="M13.975 35.5688H15.6L16.0875 35.6501L17.225 35.8126L18.4437 36.2188L19.4187 36.6251L19.9062 36.7876V36.9501L20.3125 37.1126L20.8812 37.4376L21.775 38.0876L22.5875 38.8188L23.2375 39.4688L24.1312 40.6876L25.025 42.3938L25.5125 43.7751L25.9187 45.5626L26 45.9688V46.8626L24.4562 46.9438L24.2125 47.1063H19.4187V47.0251L21.125 46.9438L21.0437 46.0501H20.8812L20.7187 45.1563L20.6375 44.6688L20.3125 43.6126L20.3937 43.4501H20.2312L19.9875 42.6376L19.3375 41.3376L18.85 40.4438L18.6062 40.2001L18.525 39.9563L18.2 39.6313L17.6312 38.9001L17.4687 38.8188V38.6563L17.1437 38.5751L16.575 37.9251L16.0062 37.4376L15.6 37.1938L15.275 36.8688L14.4625 36.4626V36.3001L14.0562 36.1376L13.8125 35.7313L13.975 35.5688Z" fill="#4DC515"/>
<path d="M13.3248 8.43127H15.2748L15.7623 8.75627L16.1686 9.24377L16.3311 9.65002V23.5438L16.0873 24.0313L15.4373 24.6V24.7625H12.9998V24.6813L11.8623 24.6L12.0248 24.4375L13.3248 24.3563V8.43127Z" fill="#FDC72F"/>
<path d="M47.4499 46.9438H55.9812L56.6312 47.0251L56.5499 47.8376L56.0624 49.3001L55.5749 50.0313L54.7624 50.8438L53.6249 51.4938L52.3249 51.8188H51.2687L49.9687 51.4938L48.9124 50.9251L48.1812 50.2751L47.6124 49.4626L47.2062 48.5688L46.9624 47.6751V47.0251L47.4499 46.9438Z" fill="#F3EFF4"/>
<path d="M9.66895 47.025H19.3377L19.4189 47.1875L19.0939 48.5688L18.5252 49.7063L17.7939 50.5188L17.2252 51.0063L16.0877 51.575L14.7877 51.8188L13.6502 51.7375L12.5939 51.4125L11.9439 51.0875L11.1314 50.4375L10.5627 49.7875L9.99395 48.65L9.66895 47.4313V47.025Z" fill="#F3F1F7"/>
<path d="M48.1814 22L48.9939 22.0813L49.8064 22.4875L50.3752 23.1375L50.6189 23.8688L50.5377 24.925L49.8877 25.7375H49.7252L49.6439 25.9813L49.0752 26.3875H48.9127L48.9939 26.6313L49.4814 26.7938L51.3502 27.1188L52.3252 27.3625V27.525L52.5689 27.6063L53.0564 29.9625V30.775L52.6502 30.8563L50.9439 30.2063L49.7252 29.8L49.6439 29.6375L49.2377 29.5563L47.9377 29.0688L47.2064 28.7438L46.1502 28.3375L45.4189 28.175V26.4688L45.6627 26.3063H46.3939H46.7189L47.2064 26.3875H47.8564V26.1438L47.3689 25.9813L46.9627 25.6563L46.8002 25.4125L46.6377 24.7625L46.4752 24.0312L46.5564 23.5438H46.7189V23.1375L47.1252 22.65L47.6127 22.4875L47.7752 22.1625L48.1814 22Z" fill="#4DC515"/>
<path d="M5.8501 8.43127H10.5626L10.6438 8.59377L10.5626 14.4438L10.4813 15.0938L10.1563 15.3375H6.3376L5.93135 15.0938L5.8501 14.6063V8.43127Z" fill="#E74F48"/>
<path d="M53.8687 17.8563H54.4375L55.3312 18.1813L55.8187 18.5063L56.6312 19.3188L57.2812 20.6188L57.6062 21.5938L57.6875 22.1626V23.3001L57.3625 24.6001L57.0375 25.3313L56.6312 26.0626L55.9 26.8751L55.25 27.2813L54.8438 27.4438L54.275 27.5251H53.625L53.7062 17.9376L53.8687 17.8563Z" fill="#FDD86D"/>
<path d="M32.5814 9.1626H33.1502L33.9627 10.9501L34.7752 12.0876L35.5064 12.8188L36.4002 13.3876L36.8877 13.7126L37.0502 15.4188L37.1314 15.7438L38.2689 17.2876L39.1627 18.4251L39.5689 18.9126V19.0751L39.8939 19.2376L41.1127 19.7251L43.7939 20.7813L45.1752 21.3501L45.5814 21.4313L46.7189 21.9188L47.5314 22.2438L47.3689 22.6501H47.1252L47.0439 22.8938H46.8814L46.7189 23.5438L46.5564 23.3813L46.3939 23.0563L45.4189 22.6501L40.3814 20.7001L39.2439 20.2938L38.5127 19.8876L37.9439 19.4001L37.0502 18.2626L36.4002 17.4501V17.2876H36.2377L35.7502 16.3938L35.5064 15.2563L35.3439 14.6063L34.9377 13.9563L33.9627 12.9813V12.8188H33.8002L32.9064 11.6001L32.2564 10.3001L32.0127 10.0563L30.7939 9.9751L29.8189 10.0563L28.6002 10.1376L26.7314 10.5438L26.4064 10.7063H25.9189L26.1627 10.4626L28.2752 9.8126L30.2252 9.40635L32.5814 9.1626Z" fill="#FDC82F"/>
<path d="M32.3374 41.8251H38.9999L39.4874 42.1501L39.9749 42.8001L40.1374 43.2876V44.3438L39.8937 44.8313L39.4874 45.3188L38.9999 45.5626L38.5937 45.6438H34.2874L33.5562 45.4001L32.9062 44.9126L32.4999 44.2626L32.4187 43.9376L32.3374 41.8251Z" fill="#FEC82E"/>
<path d="M41.0312 7.4563H41.6812L42.7375 7.6188L44.4437 7.7813L45.4187 7.9438V8.5938L44.9312 9.8938L44.3625 10.7875L43.6312 11.6L42.8187 12.1688L41.925 12.575L41.1937 12.8188L39.4875 12.9813H39.4062L39.4875 11.5188L39.7312 8.9188L39.975 8.18755L40.3812 7.7813L41.0312 7.4563Z" fill="#F1D6CA"/>
<path d="M53.3001 17.9375H53.7063V27.4437H52.9751L52.5688 27.3625L52.4876 27.525H52.3251V27.3625L51.5126 27.2812L50.4563 27.0375L49.4001 26.875L48.9126 26.7125V26.3875L49.6438 25.9L50.2126 25.25L50.4563 24.925L50.5376 23.8687L50.3751 23.1375H50.5376L50.7001 23.625L51.1876 23.95L51.2688 23.2188L51.1063 22.8125V21.9187L51.3501 21.8375V22H51.5126V22.1625L51.8376 22.0812L51.9188 22.325H52.0813L52.3251 22.975L52.8126 22.8125L52.9751 23.1375L53.1376 23.7875L53.3001 23.5437L53.2188 23.3V21.4312L53.1376 20.6187V19.6437L53.3001 19.3187V18.8312L53.2188 18.2625L53.3813 18.1L53.3001 17.9375Z" fill="#4DC515"/>
<path d="M39.7314 0.306274L41.0314 0.387524L42.3314 0.712524L43.6314 1.36252L44.4439 1.93127L45.0127 2.41877L45.7439 3.31252L46.4752 4.61252L46.8814 5.83127L46.9627 6.64377L46.7189 7.21252L46.3127 7.70002L45.8252 7.78127L45.4189 7.13127V6.96877H45.2564L45.0939 6.56252L44.9314 5.50627L44.7689 4.93752L44.5252 4.36877L44.1189 3.80002L44.0377 3.23127H43.8752V3.06877H43.7127V2.90627H43.5502L43.3877 2.41877H43.1439L43.0627 2.09377L42.7377 1.93127L42.0064 1.52502H41.6002L41.3564 1.28127L41.0314 1.11877V1.28127H40.8689V1.11877H40.4627L40.2189 1.20002V1.03752H39.4877L39.1627 0.875024V0.712524L38.6752 0.793774L38.5127 0.712524L38.5939 0.468774L39.7314 0.306274Z" fill="#C84541"/>
<path d="M47.3686 47.1063H56.3061L56.3873 47.4313L56.1436 48.1626L56.0623 48.3251L55.8186 48.4063L55.6561 48.8938L55.3311 48.9751L55.2498 48.7313L55.3311 48.5688H55.0873V48.4063H52.3248L52.2436 48.5688L51.9998 48.4876V48.7313H51.8373L51.7561 48.9751L51.5123 49.1376L51.4311 49.3813L50.3748 49.4626L50.2936 48.9751L50.1311 48.8938V48.7313L49.8061 48.8938H49.3186H48.9936L48.5061 48.5688L47.9373 47.9188L47.2873 48.0001L47.2061 47.1876L47.3686 47.1063Z" fill="#EEF5FD"/>
<path d="M9.66895 47.025H19.3377L19.4189 47.1875L19.2564 47.8375L19.0127 48.0813H18.5252L18.3627 48.4063L18.0377 48.65L17.7939 48.5688V48.325H14.8689L14.7877 48.4875V48.325L14.2189 48.4063L13.9752 48.5688L12.8377 48.65L12.9189 48.7313H13.4064L13.6502 48.65V48.8125L13.8939 48.7313V48.8938L13.4877 49.1375L12.7564 49.2188L12.1877 48.975L12.0252 48.7313V48.4875H11.7814L11.7002 48.7313L11.2127 48.325L11.0502 48L10.8877 47.9188L9.83145 47.8375L9.66895 47.4313V47.025Z" fill="#EEF3FA"/>
<path d="M48.1813 22.1626L48.9938 22.2438L49.6438 22.5688L50.0501 22.9751L50.2938 23.3001L50.4563 23.7063V24.5188L50.0501 25.3313L49.5626 25.7376L48.9126 26.0626H48.0188L47.2063 25.6563L46.8001 25.1688L46.5563 24.6001L46.4751 24.0313L46.5563 23.5438H46.7188V23.1376L47.1251 22.6501L48.1813 22.1626Z" fill="#44444A"/>
<path d="M32.3374 41.8251H35.7499L35.6687 45.4001L35.4249 45.5626H33.8812L33.0687 45.0751L32.6624 44.5876L32.4187 43.9376L32.3374 41.8251Z" fill="#FED86F"/>
<path d="M14.9502 28.5813H20.0689L26.9752 28.6625L28.5189 29.15L29.5752 29.5563L29.3314 29.6375L27.3814 28.9875L26.8939 28.9063L23.3189 28.825H14.5439L11.7814 28.9063L9.99395 29.0688L8.85645 29.2313L8.9377 29.0688L10.8064 28.7438L11.4564 28.6625L14.9502 28.5813Z" fill="#715555"/>
<path d="M5.76875 8.43127H5.85L5.93125 14.6063L6.09375 15.175L6.3375 15.2563L10.1562 15.3375V15.4188L7.06875 15.5L6.175 15.4188L5.76875 15.175L5.6875 14.2V8.67502L5.76875 8.43127Z" fill="#FEC82E"/>
<path d="M57.2001 36.7876L58.0126 37.1938L58.9876 37.9251L59.9626 38.8188L60.2876 39.2251L60.1251 39.3876H59.8813V39.2251H59.7188V39.0626H59.5563L59.2313 38.7376V38.5751L58.9063 38.4126L58.4188 38.0063L58.3376 37.8438L58.0938 37.9251L58.0126 37.5188L57.7688 37.6001L57.3626 37.2751L57.0376 37.1126H57.2001V36.7876Z" fill="#4DC515"/>
<path d="M48.1812 50.1125L48.8312 50.6L49.5624 51.0875L50.6187 51.4938L51.0249 51.575H52.6499L53.4624 51.3313L54.2749 50.925L54.8437 50.5188L55.0062 50.6L54.3562 51.0875L53.3812 51.575L52.3249 51.8188H51.2687L49.9687 51.4938L48.9124 50.925L48.1812 50.275V50.1125Z" fill="#F1D6CA"/>
<path d="M10.3999 48.7313H10.5624L10.6437 49.0563L10.8874 49.1376L11.4562 49.7876L11.7812 50.1126V50.2751L11.3749 50.1126L10.8062 49.7063L10.4812 49.3001L10.3999 48.7313Z" fill="#FDFDFD"/>
<path d="M53.2189 24.0312H53.3002L53.3814 25.0062V25.8187L52.9752 25.9L52.7314 25.4937L53.0564 25.4125H53.2189L53.0564 24.925L52.9752 24.7625H52.8127L52.8939 24.4375L53.1377 24.5187L53.2189 24.0312Z" fill="#4DC515"/>
<path d="M45.3374 20.5376H45.4187L45.4999 21.1876L46.2312 21.5938L47.5312 22.0001L47.7749 22.2438L47.6124 22.4876L47.4499 22.4063L47.5312 22.2438L46.7187 22.0001L45.4187 21.4313L45.3374 21.3501V20.5376Z" fill="#4DC515"/>
<path d="M48.5062 21.8375L49.2374 22L50.0499 22.325L50.2937 22.65L50.3749 23.1375L49.9687 22.7313L49.2374 22.2438L48.1812 22L48.5062 21.8375Z" fill="#4DC515"/>
<path d="M44.3623 1.93127L44.8498 2.25627L45.4186 2.90627L45.3373 3.06877L44.9311 2.98752V2.82502L44.7686 2.74377L44.5248 2.58127L44.3623 2.50002V1.93127Z" fill="#C84541"/>
<path d="M45.4189 25.1688H45.9877V25.5751L45.8252 25.7376L45.4189 25.8188V25.1688Z" fill="#4DC515"/>
<path d="M52.5687 25.8188L52.8125 25.9813L52.7312 26.3876L52.8938 26.4688L52.8125 26.7938L52.4875 26.8751L52.4062 26.4688L52.4875 25.9001L52.5687 25.8188Z" fill="#4DC515"/>
<path d="M33.3123 5.58752L33.5561 5.66877V6.15627L33.1498 6.40002H32.9873L33.1498 5.75002L33.3123 5.58752Z" fill="#EC4E55"/>
<path d="M34.3687 11.275H34.5312V11.4375H34.7749L34.8562 11.7625L35.0999 11.8438L35.4249 12.1688L35.3437 12.3313L35.0187 12.1688V12.0063L34.6937 11.8438L34.3687 11.275Z" fill="#EC4750"/>
<path d="M3.33105 45.8063L3.5748 45.9688V46.2125H3.7373L3.81855 46.5375L3.5748 46.7L3.33105 46.4563V45.8063Z" fill="#EC4750"/>
<path d="M26.6502 10.3L26.8127 10.3813L26.6502 10.625L25.9189 10.7063L26.1627 10.4625L26.6502 10.3Z" fill="#FECB3A"/>
</svg>
