<svg width="64" height="57" viewBox="0 0 64 57" fill="none" xmlns="http://www.w3.org/2000/svg">
<path d="M39.7313 0.306152L41.0313 0.387402L42.3313 0.712402L43.6313 1.3624L44.4438 1.93115L45.0125 2.41865L45.7438 3.3124L46.475 4.6124L46.8813 5.83115L46.9625 6.64365L46.7188 7.2124L46.3125 7.6999L45.6625 7.94365H45.4188V8.59365L44.9313 9.89365L44.3625 10.7874L43.6313 11.5999L42.8188 12.1687L41.925 12.5749L41.1938 12.8187L39.4875 12.9812L39 13.6312L38.5938 13.9562L38.35 14.0374H37.6188L36.8875 13.7124L37.05 15.4187L37.1313 15.7437L38.2688 17.2874L39.1625 18.4249L39.5688 18.9124V19.0749L39.8938 19.2374L41.1125 19.7249L43.7938 20.7812L45.3375 21.4312V20.2937L45.5 19.7249L45.9063 19.2374L46.475 18.9937L50.4563 18.3437L53.8688 17.8562H54.4375L55.3313 18.1812L55.8188 18.5062L56.6313 19.3187L57.2813 20.6187L57.6063 21.5937L57.6875 22.1624V23.2999L57.3625 24.5999L57.0375 25.3312L56.6313 26.0624L55.9 26.8749L55.25 27.2812L54.8438 27.4437L54.275 27.5249L52.975 27.4437L52.5688 27.3624L52.7313 28.3374L53.625 32.6437L54.1938 35.3249V35.6499L55.1688 35.8937L56.4688 36.3812L58.0125 37.1937L58.9875 37.9249L59.9625 38.8187L60.6125 39.4687L61.3438 40.4437L62.1563 41.8249L62.8063 43.4499L63.1313 44.6687L63.2938 45.9687V46.9437H61.425V47.7562L61.1 49.5437L60.6938 50.7624L59.9625 52.1437L59.2313 53.1187L58.5 53.9312L57.6875 54.6624L56.225 55.5562L54.6 56.2062L53.2188 56.5312L52.65 56.6124H50.7813L49.1563 56.2874L47.6125 55.7187L46.2313 54.9062L45.3375 54.1749L44.3625 53.1999L43.55 52.0624L42.8188 50.6812L42.3313 49.0562L42.0875 47.5937V46.9437L24.2938 47.0249L23.9688 49.0562L23.5625 50.3562L23.1563 51.3312L22.425 52.5499L21.775 53.3624L21.3688 53.8499L20.7188 54.4187L19.4188 55.3124L18.0375 55.9624L16.7375 56.3687L15.4375 56.6124H13.4875L11.9438 56.2874L10.5625 55.7999L9.34375 55.1499L8.36875 54.4187L7.39375 53.5249L6.5 52.3874L5.76875 51.0874L5.28125 49.8687L4.95625 48.4062L4.875 47.8374V46.9437H3.00625V37.0312L3.25 35.5687L3.575 34.5937L4.225 33.2937L4.79375 32.3999L5.6875 31.3437L6.3375 30.7749L7.39375 30.0437L8.125 29.6374L8.69375 29.3124L8.775 26.7937L9.18125 25.8187L9.66875 25.2499L10.4813 24.7624L1.7875 24.6812L1.05625 24.5999L0.56875 24.2749L0.1625 23.7874L0.08125 23.5437L0 21.8374V14.6062L0.08125 9.56865L0.325 9.08115L0.89375 8.59365L1.21875 8.43115H15.275L15.7625 8.75615L16.1688 9.24365L16.3313 9.6499V23.5437L16.0875 24.0312L15.4375 24.5999L17.4688 24.6812L17.0625 23.6249V22.2437L17.4688 21.0249L18.4438 18.8312L19.175 17.1249L19.9875 15.5812L20.8 14.4437L21.775 13.3062L22.5875 12.5749L23.725 11.7624L24.9438 11.0312L26.4063 10.3812L28.275 9.8124L30.225 9.40615L32.5813 9.1624H33.15L32.9875 8.6749L32.9062 7.94365V6.96865L33.0688 5.9124L33.475 4.6124L34.0438 3.55615L34.6938 2.74365L35.2625 2.09365L36.4 1.28115L37.375 0.793652L38.4313 0.468652L39.7313 0.306152ZM32.3375 18.5874L30.4688 19.4812L26.975 21.1874L26.4875 21.4312V21.5937L29.6563 23.0562L32.9062 24.5187L34.3688 25.1687L35.6688 25.8187L36.4813 26.5499L36.8875 27.4437L37.05 28.4187L36.725 40.1999L36.8063 40.2812H42.4125L43.1438 39.3874L44.2813 38.2499L45.3375 37.4374V24.8437L44.7688 24.5999L38.1875 22.6499L36.9688 22.2437L36.2375 21.5937L35.1813 20.7812L33.8 19.6437L32.6625 18.7499L32.3375 18.5874ZM30.1438 29.7999V40.2812H32.3375L32.4188 40.1999L32.5 33.1312V30.6124L31.6875 30.2874L30.3063 29.7999H30.1438Z" fill="#8C8A8A"/>
<path d="M39.732 0.306152L41.032 0.387402L42.332 0.712402L43.632 1.3624L44.4445 1.93115L45.0133 2.41865L45.7445 3.3124L46.4758 4.6124L46.882 5.83115L46.9633 6.64365L46.7195 7.2124L46.3133 7.6999L45.6633 7.94365H45.4195V8.59365L44.932 9.89365L44.3633 10.7874L43.632 11.5999L42.8195 12.1687L41.9258 12.5749L41.1945 12.8187L39.4883 12.9812L39.0008 13.6312L38.5945 13.9562L38.3508 14.0374H37.6195L36.8883 13.7124L37.0508 15.4187L37.132 15.7437L38.2695 17.2874L39.1633 18.4249L39.5695 18.9124V19.0749L39.8945 19.2374L41.1133 19.7249L43.7945 20.7812L45.1758 21.3499L45.582 21.4312L46.7195 21.9187L47.532 22.2437L47.3695 22.6499H47.1258L47.0445 22.8937H46.882L46.7195 23.5437H46.557V24.1937L46.6383 24.5999V25.1687L45.9883 25.0874L45.5008 25.0062L45.3383 25.0874L45.257 24.8437L43.3883 24.2749L39.2445 23.0562L37.132 22.4062L35.9945 21.5124L35.1008 20.7812L33.8008 19.7249L32.6633 18.8312L32.3383 18.6687L30.4695 19.5624L26.9758 21.2687L26.5695 21.4312L26.407 21.5937L26.0008 21.3499L24.2945 20.6187L21.4508 19.3187L19.1758 18.3437L18.7695 18.1812L19.1758 17.1249L19.9883 15.5812L20.8008 14.4437L21.7758 13.3062L22.5883 12.5749L23.7258 11.7624L24.9445 11.0312L26.407 10.3812L28.2758 9.8124L30.2258 9.40615L32.582 9.1624H33.1508L32.9883 8.6749L32.907 7.94365V6.96865L33.0695 5.9124L33.4758 4.6124L34.0445 3.55615L34.6945 2.74365L35.2633 2.09365L36.4008 1.28115L37.3758 0.793652L38.432 0.468652L39.732 0.306152Z" fill="#FDD870"/>
<path d="M1.21875 8.43115H15.275L15.7625 8.75615L16.1687 9.24365L16.3312 9.6499V23.5437L16.0875 24.0312L15.4375 24.5999V24.7624H10.725L1.7875 24.6812L1.05625 24.5999L0.56875 24.2749L0.1625 23.7874L0.08125 23.5437L0 21.8374V14.6062L0.08125 9.56865L0.325 9.08115L0.89375 8.59365L1.21875 8.43115Z" fill="#FDD870"/>
<path d="M18.7691 18.1812L19.1754 18.2624L21.7754 19.3999L24.4566 20.6187L26.0004 21.2687L26.9754 21.7562L32.9066 24.4374L34.3691 25.0874L35.6691 25.7374L36.4816 26.4687L36.9691 27.4437L37.1316 28.4187L36.8066 39.9562L36.7254 41.6624L36.6441 41.7437H32.5004L32.4191 41.6624L32.3379 40.1999L32.4191 33.1312V30.6124L29.5754 29.6374L28.1129 29.0687L26.9754 28.7437L18.5254 28.6624H14.9504L11.4566 28.7437L9.42539 29.0687L8.77539 29.1499V26.7937L9.18164 25.8187L9.66914 25.2499L10.4816 24.7624L15.4379 24.6812H17.4691L17.0629 23.6249V22.2437L17.4691 21.0249L18.4441 18.8312L18.7691 18.1812Z" fill="#44444B"/>
<path d="M39.7313 0.306152L41.0313 0.387402L42.3313 0.712402L43.6313 1.3624L44.4438 1.93115L45.0125 2.41865L45.7438 3.3124L46.475 4.6124L46.8813 5.83115L46.9625 6.64365L46.7188 7.2124L46.3125 7.6999L45.6625 7.94365H45.4188V8.59365L44.9313 9.89365L44.3625 10.7874L43.6313 11.5999L42.8188 12.1687L41.925 12.5749L41.1938 12.8187L39.4875 12.9812L39 13.6312L38.5938 13.9562L38.35 14.0374H37.6188L36.6438 13.6312L35.75 13.0624L34.9375 12.3312L34.3688 11.6812L33.7188 10.6249L33.15 9.3249L32.9875 8.6749L32.9062 7.94365V6.96865L33.0688 5.9124L33.475 4.6124L34.0438 3.55615L34.6938 2.74365L35.2625 2.09365L36.4 1.28115L37.375 0.793652L38.4313 0.468652L39.7313 0.306152Z" fill="#E74F48"/>
<path d="M22.75 47.0249H23.9688L24.2125 47.1062L24.1313 48.2437L23.725 49.9499L23.2375 51.1687L22.5063 52.4687L21.775 53.3624L21.3688 53.8499L20.7188 54.4187L19.4188 55.3124L18.0375 55.9624L16.7375 56.3687L15.4375 56.6124H13.4875L11.9438 56.2874L10.5625 55.7999L9.34375 55.1499L8.36875 54.4187L7.39375 53.5249L6.5 52.3874L5.76875 51.0874L5.28125 49.8687L4.95625 48.4062L4.875 47.8374V47.1062H9.66875L10.1563 48.8937L10.6438 49.7874L11.375 50.5999L12.35 51.2499L13.2438 51.5749L14.3813 51.7374L15.4375 51.6562L16.4938 51.3312L17.4688 50.7624L18.2813 49.9499L18.9313 48.8124L19.4188 47.1062L22.75 47.0249Z" fill="#44444B"/>
<path d="M42.1691 47.0249L46.9629 47.1062L47.2066 48.3249L47.6129 49.2999L48.1004 50.0312L48.5879 50.5999L49.4816 51.1687L50.4566 51.5749L51.2691 51.7374H52.3254L53.6254 51.4124L54.7629 50.7624L55.6566 49.8687L56.1441 48.8937L56.5504 47.5124L56.6316 47.1062L61.3441 47.0249L61.4254 47.1062V47.7562L61.1004 49.5437L60.6941 50.7624L59.9629 52.1437L59.2316 53.1187L58.5004 53.9312L57.6879 54.6624L56.2254 55.5562L54.6004 56.2062L53.2191 56.5312L52.6504 56.6124H50.7816L49.1566 56.2874L47.6129 55.7187L46.2316 54.9062L45.3379 54.1749L44.3629 53.1999L43.5504 52.0624L42.8191 50.6812L42.3316 49.0562L42.0879 47.5937V47.1062L42.1691 47.0249Z" fill="#44444B"/>
<path d="M53.8691 17.856H54.4379L55.3316 18.181L55.8191 18.506L56.6316 19.3185L57.2816 20.6185L57.6066 21.5935L57.6879 22.1622V23.2997L57.3629 24.5997L57.0379 25.331L56.6316 26.0622L55.9004 26.8747L55.2504 27.281L54.8441 27.4435L54.2754 27.5247L52.9754 27.4435L52.5691 27.3622L52.4879 27.5247H52.3254V27.3622L51.5129 27.281L50.4566 27.0372L49.4004 26.8747L48.9129 26.7122V26.3872L49.6441 25.8997L50.2129 25.2497L50.4566 24.9247L50.5379 23.8685L50.2941 23.1372L49.8066 22.5685L48.9941 22.1622L48.1816 22.081L47.6941 22.3247L47.6129 22.4872L47.4504 22.406L47.5316 22.2435L46.7191 21.9997L45.4191 21.431L45.3379 21.3497V20.2935L45.5004 19.7247L45.9066 19.2372L46.4754 18.9935L50.4566 18.3435L53.8691 17.856Z" fill="#715555"/>
<path d="M52.5695 35.731H53.4633L54.2758 35.8935V35.731L54.9258 35.8122L56.4695 36.381L58.0133 37.1935L58.9883 37.9247L59.9633 38.8185L60.6133 39.4685L61.3445 40.4435L62.157 41.8247L62.807 43.4497L63.132 44.6685L63.2945 45.9685V46.9435H61.4258L61.3445 47.106H56.632L56.7133 46.9435L58.0133 46.781L58.1758 46.2935L57.932 46.0497V45.3997L57.5258 43.3685L57.607 43.206H57.4445L57.282 42.556L56.8758 41.581L56.3883 40.8497V40.606H56.2258L55.9008 40.0372V39.8747L55.657 39.7935L55.0883 39.0622V38.8997H54.9258L54.4383 38.331L53.8695 37.8435V37.681L53.5445 37.5185V37.356L52.9758 37.1935L52.082 36.381V36.2185L51.757 36.1372L51.6758 35.8935L51.757 35.8122L52.5695 35.731Z" fill="#715555"/>
<path d="M13.975 35.5688H15.6L16.0875 35.6501L17.225 35.8126L18.4437 36.2188L19.4187 36.6251L19.9062 36.7876V36.9501L20.3125 37.1126L20.8812 37.4376L21.775 38.0876L22.5875 38.8188L23.2375 39.4688L24.1312 40.6876L25.025 42.3938L25.5125 43.7751L25.9187 45.5626L26 45.9688V46.8626L24.4562 46.9438L24.2125 47.1063H19.4187V47.0251L21.125 46.9438L21.0437 46.0501H20.8812L20.7187 45.1563L20.6375 44.6688L20.3125 43.6126L20.3937 43.4501H20.2312L19.9875 42.6376L19.3375 41.3376L18.85 40.4438L18.6062 40.2001L18.525 39.9563L18.2 39.6313L17.6312 38.9001L17.4687 38.8188V38.6563L17.1437 38.5751L16.575 37.9251L16.0062 37.4376L15.6 37.1938L15.275 36.8688L14.4625 36.4626V36.3001L14.0562 36.1376L13.8125 35.7313L13.975 35.5688Z" fill="#715555"/>
<path d="M13.3258 8.43115H15.2758L15.7633 8.75615L16.1695 9.24365L16.332 9.6499V23.5437L16.0883 24.0312L15.4383 24.5999V24.7624H13.0008V24.6812L11.8633 24.5999L12.0258 24.4374L13.3258 24.3562V8.43115Z" fill="#FDC72F"/>
<path d="M47.4504 46.9438H55.9816L56.6316 47.0251L56.5504 47.8376L56.0629 49.3001L55.5754 50.0313L54.7629 50.8438L53.6254 51.4938L52.3254 51.8188H51.2691L49.9691 51.4938L48.9129 50.9251L48.1816 50.2751L47.6129 49.4626L47.2066 48.5688L46.9629 47.6751V47.0251L47.4504 46.9438Z" fill="#F3EFF4"/>
<path d="M9.66797 47.0249H19.3367L19.418 47.1874L19.093 48.5687L18.5242 49.7062L17.793 50.5187L17.2242 51.0062L16.0867 51.5749L14.7867 51.8187L13.6492 51.7374L12.593 51.4124L11.943 51.0874L11.1305 50.4374L10.5617 49.7874L9.99297 48.6499L9.66797 47.4312V47.0249Z" fill="#F3F1F7"/>
<path d="M48.1805 22L48.993 22.0813L49.8055 22.4875L50.3742 23.1375L50.618 23.8688L50.5367 24.925L49.8867 25.7375H49.7242L49.643 25.9813L49.0742 26.3875H48.9117L48.993 26.6313L49.4805 26.7938L51.3492 27.1188L52.3242 27.3625V27.525L52.568 27.6063L53.0555 29.9625V30.775L52.6492 30.8563L50.943 30.2063L49.7242 29.8L49.643 29.6375L49.2367 29.5563L47.9367 29.0688L47.2055 28.7438L46.1492 28.3375L45.418 28.175V26.4688L45.6617 26.3063H46.393H46.718L47.2055 26.3875H47.8555V26.1438L47.368 25.9813L46.9617 25.6563L46.7992 25.4125L46.6367 24.7625L46.4742 24.0312L46.5555 23.5438H46.718V23.1375L47.1242 22.65L47.6117 22.4875L47.7742 22.1625L48.1805 22Z" fill="#715555"/>
<path d="M5.84961 8.43115H10.5621L10.6434 8.59365L10.5621 14.4437L10.4809 15.0937L10.1559 15.3374H6.33711L5.93086 15.0937L5.84961 14.6062V8.43115Z" fill="#E74F48"/>
<path d="M53.8687 17.856H54.4375L55.3312 18.181L55.8187 18.506L56.6312 19.3185L57.2812 20.6185L57.6062 21.5935L57.6875 22.1622V23.2997L57.3625 24.5997L57.0375 25.331L56.6312 26.0622L55.9 26.8747L55.25 27.281L54.8438 27.4435L54.275 27.5247H53.625L53.7062 17.9372L53.8687 17.856Z" fill="#FDD86D"/>
<path d="M32.5805 9.1626H33.1492L33.9617 10.9501L34.7742 12.0876L35.5055 12.8188L36.3992 13.3876L36.8867 13.7126L37.0492 15.4188L37.1305 15.7438L38.268 17.2876L39.1617 18.4251L39.568 18.9126V19.0751L39.893 19.2376L41.1117 19.7251L43.793 20.7813L45.1742 21.3501L45.5805 21.4313L46.718 21.9188L47.5305 22.2438L47.368 22.6501H47.1242L47.043 22.8938H46.8805L46.718 23.5438L46.5555 23.3813L46.393 23.0563L45.418 22.6501L40.3805 20.7001L39.243 20.2938L38.5117 19.8876L37.943 19.4001L37.0492 18.2626L36.3992 17.4501V17.2876H36.2367L35.7492 16.3938L35.5055 15.2563L35.343 14.6063L34.9367 13.9563L33.9617 12.9813V12.8188H33.7992L32.9055 11.6001L32.2555 10.3001L32.0117 10.0563L30.793 9.9751L29.818 10.0563L28.5992 10.1376L26.7305 10.5438L26.4055 10.7063H25.918L26.1617 10.4626L28.2742 9.8126L30.2242 9.40635L32.5805 9.1626Z" fill="#FDC82F"/>
<path d="M32.3379 41.8247H39.0004L39.4879 42.1497L39.9754 42.7997L40.1379 43.2872V44.3435L39.8941 44.831L39.4879 45.3185L39.0004 45.5622L38.5941 45.6435H34.2879L33.5566 45.3997L32.9066 44.9122L32.5004 44.2622L32.4191 43.9372L32.3379 41.8247Z" fill="#FEC82E"/>
<path d="M41.0312 7.45605H41.6812L42.7375 7.61855L44.4437 7.78105L45.4187 7.94355V8.59355L44.9312 9.89355L44.3625 10.7873L43.6312 11.5998L42.8187 12.1686L41.925 12.5748L41.1937 12.8186L39.4875 12.9811H39.4062L39.4875 11.5186L39.7312 8.91855L39.975 8.1873L40.3812 7.78105L41.0312 7.45605Z" fill="#F1D6CA"/>
<path d="M53.2996 17.9375H53.7059V27.4437H52.9746L52.5684 27.3625L52.4871 27.525H52.3246V27.3625L51.5121 27.2812L50.4559 27.0375L49.3996 26.875L48.9121 26.7125V26.3875L49.6434 25.9L50.2121 25.25L50.4559 24.925L50.5371 23.8687L50.3746 23.1375H50.5371L50.6996 23.625L51.1871 23.95L51.2684 23.2188L51.1059 22.8125V21.9187L51.3496 21.8375V22H51.5121V22.1625L51.8371 22.0812L51.9184 22.325H52.0809L52.3246 22.975L52.8121 22.8125L52.9746 23.1375L53.1371 23.7875L53.2996 23.5437L53.2184 23.3V21.4312L53.1371 20.6187V19.6437L53.2996 19.3187V18.8312L53.2184 18.2625L53.3809 18.1L53.2996 17.9375Z" fill="#715555"/>
<path d="M39.7305 0.306152L41.0305 0.387402L42.3305 0.712402L43.6305 1.3624L44.443 1.93115L45.0117 2.41865L45.743 3.3124L46.4742 4.6124L46.8805 5.83115L46.9617 6.64365L46.718 7.2124L46.3117 7.6999L45.8242 7.78115L45.418 7.13115V6.96865H45.2555L45.093 6.5624L44.9305 5.50615L44.768 4.9374L44.5242 4.36865L44.118 3.7999L44.0367 3.23115H43.8742V3.06865H43.7117V2.90615H43.5492L43.3867 2.41865H43.143L43.0617 2.09365L42.7367 1.93115L42.0055 1.5249H41.5992L41.3555 1.28115L41.0305 1.11865V1.28115H40.868V1.11865H40.4617L40.218 1.1999V1.0374H39.4867L39.1617 0.874902V0.712402L38.6742 0.793652L38.5117 0.712402L38.593 0.468652L39.7305 0.306152Z" fill="#C84541"/>
<path d="M47.3695 47.106H56.307L56.3883 47.431L56.1445 48.1622L56.0633 48.3247L55.8195 48.406L55.657 48.8935L55.332 48.9747L55.2508 48.731L55.332 48.5685H55.0883V48.406H52.3258L52.2445 48.5685L52.0008 48.4872V48.731H51.8383L51.757 48.9747L51.5133 49.1372L51.432 49.381L50.3758 49.4622L50.2945 48.9747L50.132 48.8935V48.731L49.807 48.8935H49.3195H48.9945L48.507 48.5685L47.9383 47.9185L47.2883 47.9997L47.207 47.1872L47.3695 47.106Z" fill="#EEF5FD"/>
<path d="M9.66797 47.0249H19.3367L19.418 47.1874L19.2555 47.8374L19.0117 48.0812H18.5242L18.3617 48.4062L18.0367 48.6499L17.793 48.5687V48.3249H14.868L14.7867 48.4874V48.3249L14.218 48.4062L13.9742 48.5687L12.8367 48.6499L12.918 48.7312H13.4055L13.6492 48.6499V48.8124L13.893 48.7312V48.8937L13.4867 49.1374L12.7555 49.2187L12.1867 48.9749L12.0242 48.7312V48.4874H11.7805L11.6992 48.7312L11.2117 48.3249L11.0492 47.9999L10.8867 47.9187L9.83047 47.8374L9.66797 47.4312V47.0249Z" fill="#EEF3FA"/>
<path d="M48.1809 22.1626L48.9934 22.2438L49.6434 22.5688L50.0496 22.9751L50.2934 23.3001L50.4559 23.7063V24.5188L50.0496 25.3313L49.5621 25.7376L48.9121 26.0626H48.0184L47.2059 25.6563L46.7996 25.1688L46.5559 24.6001L46.4746 24.0313L46.5559 23.5438H46.7184V23.1376L47.1246 22.6501L48.1809 22.1626Z" fill="#44444A"/>
<path d="M32.3379 41.8247H35.7504L35.6691 45.3997L35.4254 45.5622H33.8816L33.0691 45.0747L32.6629 44.5872L32.4191 43.9372L32.3379 41.8247Z" fill="#FED86F"/>
<path d="M14.9492 28.5811H20.068L26.9742 28.6623L28.518 29.1498L29.5742 29.5561L29.3305 29.6373L27.3805 28.9873L26.893 28.9061L23.318 28.8248H14.543L11.7805 28.9061L9.99297 29.0686L8.85547 29.2311L8.93672 29.0686L10.8055 28.7436L11.4555 28.6623L14.9492 28.5811Z" fill="#715555"/>
<path d="M5.76875 8.43115H5.85L5.93125 14.6062L6.09375 15.1749L6.3375 15.2562L10.1562 15.3374V15.4187L7.06875 15.4999L6.175 15.4187L5.76875 15.1749L5.6875 14.1999V8.6749L5.76875 8.43115Z" fill="#FEC82E"/>
<path d="M57.1996 36.7876L58.0121 37.1938L58.9871 37.9251L59.9621 38.8188L60.2871 39.2251L60.1246 39.3876H59.8809V39.2251H59.7184V39.0626H59.5559L59.2309 38.7376V38.5751L58.9059 38.4126L58.4184 38.0063L58.3371 37.8438L58.0934 37.9251L58.0121 37.5188L57.7684 37.6001L57.3621 37.2751L57.0371 37.1126H57.1996V36.7876Z" fill="#715555"/>
<path d="M48.1816 50.1123L48.8316 50.5998L49.5629 51.0873L50.6191 51.4936L51.0254 51.5748H52.6504L53.4629 51.3311L54.2754 50.9248L54.8441 50.5186L55.0066 50.5998L54.3566 51.0873L53.3816 51.5748L52.3254 51.8186H51.2691L49.9691 51.4936L48.9129 50.9248L48.1816 50.2748V50.1123Z" fill="#F1D6CA"/>
<path d="M10.4004 48.731H10.5629L10.6441 49.056L10.8879 49.1372L11.4566 49.7872L11.7816 50.1122V50.2747L11.3754 50.1122L10.8066 49.706L10.4816 49.2997L10.4004 48.731Z" fill="#FDFDFD"/>
<path d="M53.218 24.0312H53.2992L53.3805 25.0062V25.8187L52.9742 25.9L52.7305 25.4937L53.0555 25.4125H53.218L53.0555 24.925L52.9742 24.7625H52.8117L52.893 24.4375L53.1367 24.5187L53.218 24.0312Z" fill="#715555"/>
<path d="M45.3379 20.5376H45.4191L45.5004 21.1876L46.2316 21.5938L47.5316 22.0001L47.7754 22.2438L47.6129 22.4876L47.4504 22.4063L47.5316 22.2438L46.7191 22.0001L45.4191 21.4313L45.3379 21.3501V20.5376Z" fill="#715555"/>
<path d="M48.5066 21.8374L49.2379 21.9999L50.0504 22.3249L50.2941 22.6499L50.3754 23.1374L49.9691 22.7312L49.2379 22.2437L48.1816 21.9999L48.5066 21.8374Z" fill="#715555"/>
<path d="M44.3633 1.93115L44.8508 2.25615L45.4195 2.90615L45.3383 3.06865L44.932 2.9874V2.8249L44.7695 2.74365L44.5258 2.58115L44.3633 2.4999V1.93115Z" fill="#C84541"/>
<path d="M45.418 25.1685H45.9867V25.5747L45.8242 25.7372L45.418 25.8185V25.1685Z" fill="#715555"/>
<path d="M52.5687 25.8188L52.8125 25.9813L52.7312 26.3876L52.8938 26.4688L52.8125 26.7938L52.4875 26.8751L52.4062 26.4688L52.4875 25.9001L52.5687 25.8188Z" fill="#715555"/>
<path d="M33.3133 5.5874L33.557 5.66865V6.15615L33.1508 6.3999H32.9883L33.1508 5.7499L33.3133 5.5874Z" fill="#EC4E55"/>
<path d="M34.3691 11.2749H34.5316V11.4374H34.7754L34.8566 11.7624L35.1004 11.8437L35.4254 12.1687L35.3441 12.3312L35.0191 12.1687V12.0062L34.6941 11.8437L34.3691 11.2749Z" fill="#EC4750"/>
<path d="M3.33203 45.8062L3.57578 45.9687V46.2124H3.73828L3.81953 46.5374L3.57578 46.6999L3.33203 46.4562V45.8062Z" fill="#EC4750"/>
<path d="M26.6492 10.2998L26.8117 10.3811L26.6492 10.6248L25.918 10.7061L26.1617 10.4623L26.6492 10.2998Z" fill="#FECB3A"/>
</svg>
