<svg width="7" height="27" viewBox="0 0 7 27" fill="none" xmlns="http://www.w3.org/2000/svg">
<path d="M0.583252 23.7083C0.583252 25.3125 1.89575 26.625 3.49992 26.625C5.10408 26.625 6.41658 25.3125 6.41658 23.7083C6.41658 22.1042 5.10408 20.7917 3.49992 20.7917C1.89575 20.7917 0.583252 22.1042 0.583252 23.7083ZM0.583251 3.29167C0.583251 4.89583 1.89575 6.20833 3.49992 6.20833C5.10408 6.20833 6.41658 4.89583 6.41658 3.29167C6.41658 1.6875 5.10408 0.375 3.49992 0.375C1.89575 0.375 0.583251 1.6875 0.583251 3.29167ZM0.583251 13.5C0.583251 15.1042 1.89575 16.4167 3.49992 16.4167C5.10408 16.4167 6.41658 15.1042 6.41658 13.5C6.41658 11.8958 5.10408 10.5833 3.49992 10.5833C1.89575 10.5833 0.583251 11.8958 0.583251 13.5Z" fill="#8C8A8A"/>
</svg>
