<svg width="66" height="75" viewBox="0 0 66 75" fill="none" xmlns="http://www.w3.org/2000/svg">
<path d="M44.6027 18.75C44.6027 15.642 43.3661 12.6613 41.1649 10.4636C38.9637 8.2659 35.9782 7.03125 32.8652 7.03125C29.7522 7.03125 26.7667 8.2659 24.5655 10.4636C22.3642 12.6613 21.1276 15.642 21.1276 18.75C21.1276 21.858 22.3642 24.8387 24.5655 27.0364C26.7667 29.2341 29.7522 30.4687 32.8652 30.4688C35.9782 30.4687 38.9637 29.2341 41.1649 27.0364C43.3661 24.8387 44.6027 21.858 44.6027 18.75ZM14.0851 18.75C14.0851 13.7772 16.0637 9.00805 19.5856 5.49175C23.1076 1.97544 27.8844 0 32.8652 0C37.846 0 42.6228 1.97544 46.1447 5.49175C49.6667 9.00805 51.6453 13.7772 51.6453 18.75C51.6453 23.7228 49.6667 28.4919 46.1447 32.0083C42.6228 35.5246 37.846 37.5 32.8652 37.5C27.8844 37.5 23.1076 35.5246 19.5856 32.0083C16.0637 28.4919 14.0851 23.7228 14.0851 18.75ZM7.23327 67.9688H58.4971C57.1913 58.6963 49.2097 51.5625 39.5703 51.5625H26.1601C16.5206 51.5625 8.53908 58.6963 7.23327 67.9688ZM0 70.6494C0 56.2207 11.7082 44.5312 26.1601 44.5312H39.5703C54.0221 44.5312 65.7303 56.2207 65.7303 70.6494C65.7303 73.0518 63.779 75 61.3728 75H4.35757C1.95137 75 0 73.0518 0 70.6494Z" fill="#8C8A8A"/>
</svg>
