<svg width="16" height="16" viewBox="0 0 16 16" fill="none" xmlns="http://www.w3.org/2000/svg">
<path fill-rule="evenodd" clip-rule="evenodd" d="M2.63898 7.3652C2.03767 7.96653 1.63589 8.73827 1.48812 9.57572L1.02115 12.2173C0.982409 12.4362 0.997041 12.6611 1.0638 12.8731C1.13057 13.0851 1.24749 13.2779 1.40466 13.435C1.56182 13.5922 1.75458 13.7091 1.96657 13.7759C2.17857 13.8427 2.40354 13.8573 2.6224 13.8186L5.26398 13.3516C6.10144 13.2038 6.87317 12.802 7.47451 12.2007L11.716 7.95928L14.4791 5.19612C14.7092 4.96418 14.8387 4.65102 14.8397 4.32434C14.8397 3.17746 14.3841 2.07754 13.5731 1.26657C12.7622 0.455599 11.6622 0 10.5154 0C10.188 0.00101571 9.87426 0.131082 9.6422 0.361974L6.87905 3.12513L2.63898 7.3652ZM8.07687 4.85901L4.10345 8.83105C3.80305 9.13181 3.60241 9.51767 3.52872 9.93632L3.23444 11.6053L4.90339 11.311L4.98214 11.2972C5.37107 11.2127 5.72744 11.0179 6.00865 10.7362L9.98069 6.76283C9.91076 6.28276 9.68766 5.83812 9.34462 5.49508C9.00159 5.15204 8.55694 4.92895 8.07687 4.85901ZM11.611 5.13395C11.1944 4.31225 10.5272 3.64448 9.70576 3.22737L10.8387 2.09447C11.3196 2.16401 11.7652 2.38726 12.1088 2.73089C12.4524 3.07452 12.6757 3.52009 12.7452 4.00105L11.611 5.13395Z" fill="#55D917"/>
<path d="M1 14.7368H15" stroke="#55D917" stroke-width="2" stroke-linecap="round"/>
</svg>
