<svg width="68" height="65" viewBox="0 0 68 65" fill="none" xmlns="http://www.w3.org/2000/svg">
<path d="M34.2398 0.849609H37.4683L40.1022 1.10451L43.0759 1.61432L45.2849 2.20909L47.7488 3.05876L50.0428 4.07837L51.9969 5.09797L53.8661 6.28752L56.245 8.07183L57.0947 8.83654L57.7744 9.43131L59.8984 11.5555L60.6631 12.4901L61.6826 13.7646L62.4473 14.8692L63.6368 16.7385L64.7413 18.7777L65.7608 21.0718L66.7804 24.1306L67.545 27.2744L67.9698 29.9934V35.7712L67.4601 38.83L66.8653 41.464L66.3556 43.1633L65.6759 44.9476L64.9962 46.4771L64.3165 47.9215L63.127 49.9607L62.4473 50.9803L61.2578 52.5947L60.2383 53.7842L59.6435 54.464L58.7089 55.4836L57.8593 56.3333L57.1796 56.928L55.9901 57.9476L54.6307 58.9672L53.1014 59.9869L51.2323 61.0914L49.1932 62.111L46.8992 63.0457L44.7751 63.7254L42.736 64.2352L39.5924 64.745L37.8932 64.915L35.4292 64.9999L32.7954 64.83L30.4165 64.4901L28.2924 64.0653L26.1683 63.4705L24.0443 62.7058L21.7503 61.6862L19.5413 60.4967L17.842 59.3921L16.5676 58.4574L15.3781 57.5228L14.3586 56.5882L13.6789 55.9934L12.4044 54.7189L11.8097 54.0391L10.8751 52.9346L9.60068 51.2352L8.49617 49.5359L7.3067 47.4117L6.28715 45.2025L5.52249 43.1633L4.92775 41.1241L4.41798 38.9999L3.99317 36.0261L3.9082 35.0065V30.8431L4.16309 28.379L4.50294 26.3398L5.2676 23.4509L6.03226 21.2418L6.79692 19.3725L7.47662 18.013L8.58113 16.0588L9.68565 14.4444L10.7052 13.0849L11.4699 12.1503L12.4044 11.0457L14.2736 9.1764L15.2082 8.4117L16.2277 7.56203L17.842 6.37248L19.4563 5.35288L20.8157 4.58817L22.2601 3.82346L24.724 2.80386L27.4428 1.95418L29.227 1.52935L31.7759 1.10451L34.2398 0.849609Z" fill="#9F9F9F"/>
<path d="M50.5524 4.50317L50.9772 4.58814L52.2516 5.26788L53.8659 6.28749L56.2449 8.0718L57.0945 8.83651L57.7742 9.43128L59.8982 11.5555L60.6629 12.4901L61.6825 13.7646L62.4471 14.8692L63.6366 16.7385L64.7411 18.7777L65.7606 21.0718L66.7802 24.1306L67.5449 27.2744L67.9697 29.9934V35.7711L67.4599 38.83L66.8652 41.464L66.3554 43.1633L65.6757 44.9476L64.996 46.477L64.3163 47.9215L63.1268 49.9607L62.4471 50.9803L61.2576 52.5947L60.2381 53.7842L59.6434 54.464L58.7088 55.4836L57.8591 56.3332L57.1794 56.928L55.99 57.9476L54.6306 58.9672L53.1013 59.9868L51.2321 61.0914L49.193 62.111L46.899 63.0457L44.7749 63.7254L42.7358 64.2352L39.5922 64.745L37.893 64.9149L35.4291 64.9999L32.7952 64.83L30.4163 64.4901L28.2922 64.0653L26.1682 63.4705L24.0441 62.7058L21.7501 61.6862L19.5411 60.4966L17.8419 59.3921L17.587 58.8823L17.3321 58.7123V58.5424L16.9922 58.4574L16.5674 58.0326L15.8877 57.5228L15.6328 57.2679L15.4629 56.7581L14.9531 56.6731L14.1885 55.9084L14.0186 55.5685L13.7637 55.3136V54.8888L14.1885 54.464L15.0381 53.8692L16.2276 53.1894H16.7374L17.0772 53.6143V53.7842H17.3321L17.6719 54.294V54.7189L16.9922 55.4836L16.4825 55.8234H16.3125V55.9934H16.1426L15.9727 56.3332L15.8877 56.7581H16.4825L16.9922 56.4182L17.7569 56.3332L17.8419 56.1633L18.0968 56.0783H18.8614L19.1163 55.8234L20.1358 56.1633V55.8234H19.9659L19.711 55.3986V55.2287L19.3712 55.0587L18.7765 54.464L18.5216 54.1241L18.6065 53.8692L19.881 53.5293L20.9855 53.1045L21.0704 53.0195H21.4952V53.1894L21.7501 53.2744V53.5293L22.1749 53.6992L22.9396 54.9738L23.7043 56.1633L24.0441 56.5881L24.4689 56.5032L25.5734 55.4836L26.0832 54.9738V53.7842L25.7434 51.5751L25.6584 50.6404L25.5734 50.1306L26.0832 49.7058L26.678 49.4509L27.4426 48.8561L27.8674 48.4313L28.6321 47.9215L29.6516 47.0718L30.7561 46.2221L32.2005 45.0326L33.305 44.0979L35.684 42.0587L36.7885 41.0391L37.6381 40.3594L37.808 40.4443L38.4877 41.9738L39.2524 43.7581L40.3569 46.3071L40.9516 47.7515L41.5464 49.026L42.2261 50.5555L42.6509 51.66L43.0757 52.3398L43.5005 52.2548L44.3501 51.5751L46.4742 49.4509L46.984 48.7711L47.0689 48.0914L46.984 47.4966V46.3071L47.4937 46.2221V46.0522H47.6637V45.8823L47.9185 45.7123L48.0035 45.4574H48.1734L48.2584 45.0326L48.3434 44.9476L48.4283 43.928H48.2584L48.0035 43.3332L47.3238 42.7385L46.5592 42.5685L46.4742 42.2287L46.6441 41.9738H46.899L46.984 41.7189L47.4088 41.379L47.7486 40.6992V39.7646L47.4088 38.9149L46.899 38.4901L46.0494 38.2352L45.7945 37.4705L45.3697 34.0718L45.2847 32.7973L45.8794 32.2025L46.4742 31.5228L47.2388 30.5881L48.1734 29.5685L48.9381 28.5489L49.2779 28.2091L49.6178 27.6143H49.7877L49.8727 27.2744L50.0426 27.0195H50.2125L50.2975 26.6796L51.317 24.9803L52.0817 23.5359L52.4216 22.6012L52.5915 21.4117V20.7319L52.2516 19.9672L51.9967 19.5424L51.2321 19.2025L50.2125 19.1176L49.0231 19.3725L47.9185 19.7973L46.5592 20.477L45.3697 21.2417L45.0298 21.1568L44.9449 20.9019V19.5424L44.69 18.0979V17.4182L44.8599 16.6535L45.2847 16.2287L45.5396 16.4836L45.8794 16.0587L46.814 15.379L47.4937 14.7842L47.7486 14.4443H47.9185L48.0885 14.1045L48.5133 13.5947H48.0885V13.2548H48.3434V13.4247H48.5133L48.5982 13.1698L49.5328 13.3398L50.2125 13.4247L50.9772 13.7646L51.7419 14.0195L53.1013 14.5293L53.5261 14.4443V12.66L53.0163 11.3006L52.3366 9.68618L51.8268 8.5816L51.487 7.8169L51.0622 6.45742L50.5524 5.43781V5.18291H50.3825L50.2975 4.75808L50.5524 4.50317Z" fill="#797878"/>
<path d="M50.2125 19.0327L51.2321 19.1177L52.0817 19.5425L52.5065 20.2223L52.6764 20.7321L52.5915 22.1765L52.2516 23.2811L51.5719 24.7255L50.3824 26.6798L50.2125 27.0196L49.8727 27.3595L49.7877 27.6144H49.6178L49.4479 27.9543L49.193 28.3791H49.023L48.8531 28.804L47.9185 29.9085L47.3238 30.5883L46.3042 31.7778L45.3697 32.7974L45.5396 34.7517L45.8794 37.4706L46.0494 38.2353L46.6441 38.3203L47.2388 38.6602L47.5787 39L47.8336 39.7647V40.6994L47.4937 41.3791L46.9839 41.804L46.899 41.9739L46.6441 42.0589L46.5591 42.4837L47.3238 42.6536L48.1734 43.4183L48.2584 43.9281H48.4283V44.9477L48.1734 45.4575H48.0035L47.9185 45.7974L47.6636 45.8824V46.0523H47.4937V46.2223L46.9839 46.3072L47.1539 48.5164L46.899 49.0262L45.8794 50.1307L44.0952 51.9151L43.4155 52.4249L42.9907 52.3399L42.5659 51.6602L41.7163 49.6209L40.9516 47.8366L40.5268 46.902L39.1674 43.7582L38.1479 41.3791L37.723 40.4445L37.2982 40.6994L36.1937 41.719L35.0042 42.7386L33.7298 43.8432L32.5403 44.8628L31.6058 45.6275L30.1614 46.817L28.802 47.8366L28.0373 48.4314L27.6125 48.6863L27.1877 49.1111L26.423 49.7059L25.8283 49.9608L25.6584 50.1307L25.9133 52.085L26.1682 53.7843V54.9739L24.8937 56.2484L24.3839 56.6732L23.9591 56.5883L23.4494 55.9085L21.7501 53.1896L21.5802 52.8497L20.8155 53.1046L19.4561 53.6144L18.9464 53.6994H18.2667L18.0118 53.3595V52.4249L18.5215 51.0654L18.8614 50.5556L18.9464 50.2157L18.4366 50.0458L17.7569 49.536L16.6524 48.8562L15.7178 48.2615L15.123 47.8366V47.3268L15.4629 47.1569L15.6328 46.7321L16.2276 46.1373L16.9073 45.6275L17.0772 45.5425H17.6719L20.2208 45.9673L21.5802 46.0523L22.1749 45.2876L22.8546 44.353L23.7892 43.1634L24.6388 42.0589L25.7433 40.6994L26.508 39.7647L27.6975 38.3203L28.4621 37.4706L29.2268 36.536L30.1614 35.5164L30.7561 34.8366L31.011 34.4968H31.1809L31.2659 34.1569L30.2464 33.6471L28.9719 33.1373L26.8479 32.2026L23.0245 30.5883L21.2403 29.8236L20.2208 29.3987L20.1358 29.1438L19.796 29.0589L19.2862 28.719L19.3712 28.2942L20.1358 27.4445L22.005 25.5752L22.8546 24.8105L23.1945 24.6406H25.4035L25.8283 23.9608L26.423 23.536L27.0178 23.366L27.8674 23.451L28.5471 23.7909L29.0569 24.3857L29.3967 25.1504V25.3203L29.7366 25.1504L29.9915 24.7255L30.7561 24.0458L31.011 23.9608H32.0306L32.8802 24.3007L33.4749 24.8955L33.6448 25.3203L33.7298 25.8301L37.723 26.3399L38.8276 26.4249L39.6772 25.7451L40.6967 24.8105L41.6313 24.0458L42.8208 23.0262L44.1802 22.0066L45.6245 20.987L46.899 20.2223L48.2584 19.5425L49.7027 19.1177L50.2125 19.0327Z" fill="#C0D4FB"/>
<path d="M25.4896 2.54907L27.1888 2.88894L27.6986 3.22881L28.1234 3.56868L28.6332 4.58829L28.973 6.28763L29.3129 7.05234L29.9076 7.73208L30.6723 8.15691L31.0121 8.24188L37.0445 8.32685L37.9791 8.49678L38.9986 9.00659L39.5933 9.68633L40.0182 10.621L40.1031 11.0458V11.8955L39.8482 12.7451L39.1685 13.7648L38.4888 14.4445L37.3843 15.1242L36.2798 15.4641L34.4106 15.634L33.3061 16.0589L32.4565 16.5687L31.352 17.5883L27.2738 21.6667L25.9144 22.6863L24.7249 23.3661L23.1106 24.0458L21.4964 24.4706L20.4768 24.6406L19.2873 24.7255H16.0588L15.1242 25.0654L14.4445 25.5752L14.1046 26L13.7648 26.9347V28.1242L14.1046 28.9739L14.8693 29.8236L15.6339 30.2484L15.9738 30.3334L20.2219 30.4183L20.8167 30.7582L21.0715 31.268V31.8628L20.7317 32.3726L20.2219 32.6275H18.4377L16.3986 32.2876L14.6144 31.7778L12.8302 31.0131L10.961 29.9085L9.60162 28.804L8.58207 27.8693L7.98734 27.1896L7.30764 26.3399L6.62794 25.0654L6.28809 23.9608L6.20312 23.451V20.817L6.79786 19.3726L7.47756 18.0131L8.58207 16.0589L9.68658 14.4445L10.7061 13.085L11.4708 12.1504L12.4054 11.0458L14.2746 9.17652L15.2091 8.41182L16.2287 7.56214L17.843 6.3726L19.4573 5.35299L20.8167 4.58829L22.261 3.82358L24.7249 2.80397L25.4896 2.54907Z" fill="#E1F1FD"/>
<path d="M34.2406 0.849609H37.4692L40.103 1.10451L43.0767 1.61432L45.2857 2.20909L47.7496 3.05876L50.0436 4.07837L50.6383 4.41824L50.5534 4.58817H50.3834V5.18294H50.5534L51.1481 6.45745L51.403 7.30712L51.7428 8.1568L52.3376 9.60124L52.8473 10.7058L53.3571 12.0653L53.612 12.83V13.8496L53.527 14.4444L53.1022 14.6143L51.7428 14.1045L50.8083 13.7646L50.1286 13.5097L48.8541 13.2548H48.5992L48.5143 13.4248H48.3443V13.2548H48.0895L48.2594 13.5097L48.5143 13.5947L48.4293 13.8496H48.2594L48.0895 14.1895L47.9195 14.4444H47.7496L47.5797 14.7842L46.9849 15.379L46.2203 15.8888L45.8804 16.0588L45.7105 16.3986L45.4556 16.5686V16.3137L45.1158 16.3986L44.8609 16.8235L44.7759 17.7581L44.9458 19.1176L45.0308 20.0522V20.9019L45.1158 21.1568L45.2857 21.3267L43.8413 22.3463L42.6519 23.281L41.5473 24.2156L40.6128 24.9803L40.018 25.5751L38.8286 26.5097L36.3646 26.2548L33.7308 25.915L33.4759 25.1503L33.221 24.7254L32.7113 24.3006L32.0316 24.0457H31.012L30.4173 24.3856L29.9075 24.8954L29.7376 25.2352L29.3977 25.3202L29.0579 24.5555L28.718 24.0457L28.2932 23.7058L27.5286 23.4509L26.6789 23.5359L25.9143 23.9607L25.6594 24.3006L25.4045 24.7254H23.1955L22.4308 25.2352L21.8361 25.83H21.6662L21.4962 26.1699L19.6271 28.0391L19.3722 28.379L19.4571 28.8039L19.6271 28.8888L19.712 29.5686H19.8819V29.7385L20.2218 29.9084L20.4767 30.1633V30.3333L20.8165 30.5032L21.1564 31.013V31.2679H20.9865L20.7316 30.7581L20.2218 30.5032L15.9737 30.4182L15.124 30.0784L14.4443 29.4836L13.9346 28.8039L13.6797 28.1241V26.9346L14.1045 25.915L14.6143 25.3202L15.4639 24.8104L16.0586 24.6405H19.2872L20.9865 24.4705L22.5158 24.1306L23.5353 23.7908L25.0646 23.111L26.1692 22.4313L27.0188 21.7516L27.8684 20.9869L28.4631 20.4771L29.0579 19.7973L32.0316 16.8235L32.9661 16.1437L33.9007 15.7189L34.4105 15.549L36.2797 15.379L37.5541 14.9542L38.5737 14.2744L39.1684 13.6797L39.7631 12.745L40.018 11.8954V11.0457L39.7631 10.196L39.2534 9.34634L38.8286 9.00647L37.9789 8.58163L37.0443 8.4117L31.012 8.32673L30.1624 7.98686L29.3128 7.22216L28.9729 6.54242L28.4631 4.33327L28.1233 3.7385V3.56856L27.7834 3.39863L27.3586 3.05876L25.9992 2.71889L25.5744 2.63392L25.7443 2.46399L28.3782 1.69928L30.5872 1.27445L33.1361 0.934577L34.2406 0.849609Z" fill="#9F9F9F"/>
<path d="M60.5773 22.5164L63.551 22.6013L64.7405 22.8562L65.3352 23.1961L65.5901 23.451L66.0149 23.7059L66.6946 24.3856L66.8646 24.4706L67.5443 27.2745L67.9691 29.9935V35.7713L67.4593 38.8301L66.8646 41.4641L66.3548 43.1634L65.6751 44.9477L64.9954 46.4771L64.3157 47.9216L63.1262 49.9608L62.4465 50.9804L62.1067 51.3203L61.6819 51.4052L61.342 51.5752H60.1525L59.3879 51.2353L58.9631 50.8105L58.6232 50.3007L58.4533 49.1961V40.1046H58.2834L57.9435 39.085L57.7736 38.8301V38.5752L57.4337 38.4052L57.0939 38.0654L55.8195 37.6405L53.7804 37.3856L52.5059 36.9608L51.7413 36.536L50.8916 36.0262L49.957 35.0915L49.2773 33.9869L48.9375 33.1373V32.4575L49.2773 32.2876V32.1177L50.4668 31.183H50.6367V31.0131L51.4014 30.4183L51.7413 30.2484V30.0784L52.8458 29.3137L54.1202 28.634L54.7999 28.1242L55.5646 27.6144H55.7345L55.9044 27.2745L56.6691 26.4249L57.0939 26.085L57.5187 26L57.6037 25.5752L57.2638 25.1503V24.9804L56.924 24.8105V24.6405H56.754L56.1593 23.9608L55.1398 22.8562L55.2247 22.6013L60.5773 22.5164Z" fill="#C0D4FB"/>
<path d="M49.4478 19.2876H50.2124L50.1275 19.7974L49.6177 20.3922L49.4478 21.2418L48.3433 22.3464H48.1734L48.0034 22.6863L47.4937 23.1111L47.0688 23.2811L46.644 23.1961L45.5395 22.7713L44.9448 22.6863L43.9252 23.1961L43.3305 23.7909L42.6508 24.3856L42.141 24.8954L42.0561 25.1503L42.9906 25.2353L43.9252 25.6601L44.2651 26.085L44.0102 26.7647L43.6703 27.4445L42.6508 28.549H42.4809V28.719L41.6313 29.3987L41.2064 29.9085L40.7816 30.3333L40.3568 30.6732L39.932 31.183L39.4222 31.6079H39.2523L39.0824 31.9477H38.9125V32.1177L37.0433 33.9869L36.3636 34.5817L35.8538 35.0915H35.6839L35.514 35.4314L35.0042 35.8562L34.6643 36.2811L34.2395 36.7059L32.8801 38.1503L31.8606 39.2549L30.5861 40.6144L29.9914 41.2092L29.3967 41.8889L29.0568 42.3137H28.8869L28.717 42.6536L28.1222 43.2484L27.1876 44.4379L27.0177 44.6928H26.8478L26.6779 45.0327L25.7433 46.0523L25.1485 46.732L24.4688 47.3268L23.6192 48.0915H23.4493L23.2794 48.4314H23.1095L22.9395 48.7713H22.7696L22.5997 49.1111H22.4298L22.3448 49.451H22.1749L22.0049 49.7909L20.9004 50.8105L19.9658 51.5752L19.2012 51.8301H18.8613L18.6914 51.3203L19.1162 50.2157L19.2012 49.7909L20.3907 47.8366L21.3252 46.4771L21.4102 46.1373L21.835 45.7974L22.5147 44.7778L23.5343 43.5033L24.6388 42.0588L25.7433 40.6994L26.5079 39.7647L27.6974 38.3203L28.4621 37.4706L29.2267 36.536L30.1613 35.5164L30.7561 34.8366L31.011 34.4967H31.1809L31.2658 34.1569L30.2463 33.6471L28.9719 33.1373L26.8478 32.2026L23.0245 30.5882L21.2403 29.8235L20.2207 29.3987L20.1358 29.1438L19.7959 29.0588L19.2861 28.719L19.3711 28.2941L20.1358 27.4445L22.0049 25.5752L22.8546 24.8105L23.1944 24.6405H25.4034L25.8282 23.9608L26.423 23.536L27.0177 23.366L27.8673 23.451L28.547 23.7909L29.0568 24.3856L29.3967 25.1503V25.3203L29.7365 25.1503L29.9914 24.7255L30.7561 24.0458L31.011 23.9608H32.0305L32.8801 24.3007L33.4749 24.8954L33.6448 25.3203L33.7297 25.8301L37.723 26.3399L38.8275 26.4249L39.6771 25.7451L40.6967 24.8105L41.6313 24.0458L42.8207 23.0262L44.1801 22.0066L45.6245 20.9869L46.3042 20.5621L46.9839 20.3072L48.4282 19.6275L49.4478 19.2876Z" fill="#E1F1FD"/>
<path d="M6.20219 20.9019H6.28715V23.4509L6.627 24.8104L7.3067 26.1698L7.9864 27.1045L8.58113 27.6992L8.92098 28.1241L9.60068 28.7188L10.6202 29.5685L11.8097 30.3332L13.1691 31.0979L14.8684 31.7777L16.3977 32.2025L18.4368 32.5424L20.136 32.6273L19.8811 32.7973L20.136 32.8822L20.0511 33.2221L19.3714 33.647L18.5217 34.1568L17.5022 34.4966L16.2277 35.1764L15.4631 35.5162H15.2932L15.1232 36.026L14.8684 36.4509L14.4435 36.7907L14.3586 37.0456V37.8953L14.5285 38.3202L15.3781 38.745L18.2668 39.5097L19.4563 39.8496L20.3059 40.2744L19.8811 40.6143L19.3714 40.8692H17.6721L14.6135 40.3594L14.4435 40.4443L14.5285 41.294L14.6984 42.9084L14.6135 43.7581L14.4435 43.928L13.8488 43.843L13.509 43.4182L13.2541 42.6535L12.7443 40.7842L12.4044 40.0195L11.9796 40.1045L11.7247 40.1894L11.5548 40.5293L11.045 40.8692L10.6202 41.8038L10.1105 42.5685L9.85557 42.9084V43.928L10.5353 45.7123L10.7052 46.3071L10.1105 46.392L9.85557 46.477L8.58113 45.6273L7.90144 45.0326L7.56159 45.2025L7.39166 46.2221L7.73151 46.8169L7.81647 48.0914L7.47662 47.7515L6.45707 45.6273L5.60745 43.4182L4.92775 41.1241L4.41798 38.9999L3.99317 36.026L3.9082 35.0064V30.843L4.16309 28.379L4.50294 26.3398L5.2676 23.4509L6.03226 21.2417L6.20219 20.9019Z" fill="#B1B0B0"/>
<path d="M50.5519 4.50317L50.9767 4.58814L52.2511 5.26788L53.8654 6.28749L56.2443 8.0718L57.094 8.83651L57.7737 9.43128L59.8977 11.5555L60.6624 12.4901L61.6819 13.7646L62.4466 14.8692L63.6361 16.7385L64.7406 18.7777L65.7601 21.0718L66.7797 24.1306L66.6947 24.4705L65.8451 23.6208L65.4203 23.3659L64.9955 23.026L63.9759 22.7711L63.5511 22.6862L60.5774 22.6012H55.1398V22.5162L56.6691 22.4313L55.9045 19.7973L55.4797 18.7777L55.2248 18.2679L54.9699 18.013L55.3947 17.1633V16.0587H55.2248V15.8888L54.3752 15.8038L54.2052 15.6339L53.6955 15.7189L52.9308 16.8234L52.421 17.5881L52.0812 17.928L52.1661 18.5228L52.3361 18.6077V18.7777L52.591 18.8626L53.1007 19.5424L53.0158 19.7973L52.3361 19.8823L51.8263 19.4574L51.2316 19.2025L50.212 19.1175L49.0225 19.3725L47.918 19.7973L46.5586 20.477L45.3692 21.2417L45.0293 21.1568L44.9443 20.9019V19.5424L44.6895 18.0979V17.4182L44.8594 16.6535L45.2842 16.2287L45.5391 16.4836L45.8789 16.0587L46.8135 15.379L47.4932 14.7842L47.7481 14.4443H47.918L48.0879 14.1045L48.5128 13.5947H48.0879V13.2548H48.3428V13.4247H48.5128L48.5977 13.1698L49.5323 13.3398L50.212 13.4247L50.9767 13.7646L51.7413 14.0195L53.1007 14.5293L53.5255 14.4443V12.66L53.0158 11.3006L52.3361 9.68618L51.8263 8.5816L51.4864 7.8169L51.0616 6.45742L50.5519 5.43781V5.18291H50.3819L50.297 4.75808L50.5519 4.50317Z" fill="#8C8C8C"/>
<path d="M53.8664 15.5491L54.2912 15.634L54.3761 15.719H54.8859L55.2258 15.8889V16.0589H55.3957L55.4806 16.9085L55.3957 17.3334L55.0558 18.0131L55.3957 18.438L55.9055 19.5425L56.6701 22.0916L56.7551 22.5164L55.2258 22.6014L55.3107 22.9412L55.9055 23.536L56.5002 24.2157L56.7551 24.4706V24.6406H56.925L57.5197 25.3203L57.6897 25.5752L57.6047 26.0001L57.01 26.255L56.4152 26.7648L55.7355 27.6144L54.5461 28.3791L53.6964 28.9739L52.422 29.6536L51.9122 30.0785H51.7423V30.2484L50.8077 31.0131H50.6378V31.1831L49.6182 31.9478L49.2784 32.1177V32.2876L49.0235 32.4576V33.1373L49.4483 34.1569L50.0431 35.0916L50.8927 35.9412L51.4024 36.2811L52.337 36.7909L53.4415 37.2157L54.4611 37.3857L55.8205 37.5556L57.0949 37.9804L57.7746 38.5752L58.1145 39.255L58.2844 40.1046H58.4543L58.5393 49.1961L58.7092 50.3007L59.219 51.0654L59.8987 51.4053L60.1536 51.4902H61.343L61.7679 51.2353H62.1077L61.9378 51.5752L61.1731 51.7451H60.1536L59.4739 51.4902L58.7092 50.8105V50.6406L58.4543 50.5556V50.3007L57.7746 50.2157H56.925L56.7551 49.7909L56.84 49.1112L57.1799 48.3465L57.2649 47.8367L56.925 47.9216L56.5002 48.4314H56.1603L56.0754 47.8367L56.2453 47.5817L55.9904 47.2419L56.0754 46.3922L56.2453 45.2876L56.4152 44.8628L57.01 42.4837L57.3498 40.6144L57.2649 40.2746H56.925V40.4445L55.6506 40.6144L53.4415 41.0393L50.3829 41.5491L49.0235 41.8889L48.6837 42.0589L48.5987 42.8236L48.7686 43.1635L48.6837 43.6733L48.8536 43.9282L48.6837 44.268H48.5987L48.5137 44.7778H48.4288V43.9282H48.2588L48.004 43.3334L47.3243 42.7386L46.5596 42.5687L46.4746 42.2288L46.6446 41.9739H46.8994L46.9844 41.719L47.4092 41.3791L47.7491 40.6994V39.7648L47.4092 38.9151L46.8994 38.4902L46.0498 38.2353L45.7949 37.4706L45.3701 34.0719L45.2852 32.7974L45.8799 32.2027L46.4746 31.5229L47.2393 30.5883L48.1739 29.5687L48.9385 28.5491L49.2784 28.2092L49.6182 27.6144H49.7882L49.8731 27.2746L50.0431 27.0197H50.213L50.2979 26.6798L51.3175 24.9804L52.0821 23.536L52.422 22.6014L52.5919 21.4118V20.7321L52.2521 19.9674V19.7125L52.422 19.7974L53.0167 19.7125L52.8468 19.2876L52.5919 19.0327V18.8628L52.2521 18.7778L52.337 18.6079L52.0821 18.5229L51.9972 17.9282L52.5919 17.2484L53.1867 16.3138L53.6964 15.634L53.8664 15.5491Z" fill="#797878"/>
<path d="M27.0187 23.366L27.8683 23.4509L28.548 23.7908L29.0578 24.3856L29.3976 25.1503V25.3202L29.7375 25.1503L29.9924 24.7254L30.757 24.0457L31.0119 23.9607H32.0315L32.8811 24.3006L33.4758 24.8954L33.6458 25.3202L33.7307 25.83L37.7239 26.3398L38.5736 26.4248L38.7435 26.5098L38.5736 26.8496L37.7239 27.6993L37.0442 28.2941L34.4954 30.8431L33.9006 31.5228L33.136 32.2875L32.5412 32.9673L31.6067 33.9869L31.2668 34.1568L30.2473 33.647L28.9728 33.1372L26.8488 32.2026L23.0255 30.5882L21.2412 29.8235L20.2217 29.3986L20.1367 29.1437L19.7969 29.0588L19.2871 28.7189L19.3721 28.2941L20.1367 27.4444L22.0059 25.5751L22.8555 24.8104L23.1954 24.6405H25.4044L25.8292 23.9607L26.424 23.5359L27.0187 23.366Z" fill="#5A5A5A"/>
<path d="M45.0294 33.1372H45.3693L45.7941 36.7908L45.964 37.8954L46.049 38.2352L46.6437 38.3202L47.2384 38.6601L47.5783 39L47.8332 39.7647V40.6993L47.4933 41.379L46.9836 41.8039L46.8986 41.9738L46.6437 42.0588L46.5587 42.4836L47.3234 42.6535L48.173 43.4183L48.258 43.9281H48.4279V44.9477L48.173 45.4575H48.0031L47.9181 45.7973L47.6633 45.8823V46.0522H47.4933V46.2222L46.9836 46.3071L47.1535 48.5163L46.8986 49.0261L45.879 50.1307L44.0948 51.915L43.4151 52.4248L42.9903 52.3398L42.5655 51.6601L41.7159 49.6209L40.9512 47.8366L40.5264 46.9019L39.167 43.7581L38.1475 41.379L37.7227 40.4444L37.8926 40.1045L38.4873 39.5098L39.167 38.915L40.1016 37.9803L40.7813 37.3856L45.0294 33.1372Z" fill="#5A5A5A"/>
<path d="M38.3188 14.4443L38.7436 14.6143H38.9985L39.1684 14.7842L38.3188 15.6339L37.5541 16.1437L36.9594 16.3986L36.4496 16.3136L36.1947 16.4836L35.515 16.5685L35.6849 16.7385L35.0052 17.1633L35.2601 17.3332L34.3255 17.843L33.221 18.7777L32.8812 19.0326H32.7113L32.5413 19.3724L31.6068 20.1371L31.1819 20.477H31.012L30.8421 20.8169L30.2474 21.2417V22.4313L30.4173 22.8561H30.8421L31.012 23.026L32.2015 23.196H34.0707L41.2925 23.3659L42.0571 23.7058L41.6323 24.1306L40.4428 25.1502L39.4233 26.0849L38.8286 26.5097L36.3646 26.2548L33.7308 25.9149L33.4759 25.1502L33.221 24.7254L32.7113 24.3005L32.0316 24.0456H31.012L30.4173 24.3855L29.9075 24.8953L29.7376 25.2352L29.3977 25.3202L29.0579 24.5554L28.718 24.0456L28.2932 23.7058L27.5286 23.4509L26.6789 23.5358L25.9143 23.9607L25.6594 24.3005L25.4045 24.7254H23.1955L22.4308 25.2352L21.8361 25.83H21.6662L21.4962 26.1698L19.6271 28.0391L19.3722 28.379L19.4571 28.8038L19.6271 28.8888L19.712 29.5685H19.8819V29.7385L20.2218 29.9084L20.4767 30.1633V30.3332L20.8165 30.5032L21.1564 31.013V31.2679H20.9865L20.7316 30.7581L20.2218 30.5032L15.9737 30.4182L15.124 30.0783L14.4443 29.4836L13.9346 28.8038L13.6797 28.1241V26.9345L14.1045 25.9149L14.6143 25.3202L15.4639 24.8103L16.0586 24.6404H19.2872L20.9865 24.4705L22.5158 24.1306L23.5353 23.7907L25.0646 23.111L26.1692 22.4313L27.0188 21.7515L27.8684 20.9868L28.4631 20.477L29.0579 19.7973L32.0316 16.8234L32.9661 16.1437L33.9007 15.7188L34.4105 15.5489L36.2797 15.379L37.5541 14.9541L38.3188 14.4443Z" fill="#9F9F9F"/>
<path d="M60.5773 22.5164L63.551 22.6013L64.7405 22.8562L65.3352 23.1961L65.5901 23.451L66.0149 23.7059L66.6946 24.3856L66.8646 24.4706L67.0345 25.1503V25.6601H66.7796L66.3548 25.2353L66.0149 24.4706H65.7601V24.3007L65.3352 24.2157L65.1653 23.7909L64.7405 23.366L64.5706 23.0262L63.8909 22.8562L62.5315 22.7713H55.3946L55.9044 23.366L56.4992 23.9608V24.1307H56.6691V24.3007L57.0089 24.4706L57.1789 24.8105H57.3488V24.9804H57.5187L57.9435 25.4052L58.9631 26.5098L60.4074 27.9543L61.0871 28.549L61.5119 28.8889L62.5315 30.1634V30.4183H62.7014L62.9563 30.9281V31.353L62.6164 31.7778L61.9367 32.1177L61.257 32.5425L60.1525 33.2222L59.6428 33.4771L58.8781 33.9869L57.9435 34.5817L57.0089 35.2615L56.754 35.3464L56.6691 35.5164H56.4992L56.4142 35.8562L56.1593 36.2811L55.7345 36.536L54.8849 36.9608L54.7999 37.1307L56.2443 37.5556L56.4992 37.8105L55.3097 37.5556L53.7804 37.3856L52.5059 36.9608L51.7413 36.536L50.8916 36.0262L49.957 35.0915L49.2773 33.9869L48.9375 33.1373V32.4575L49.2773 32.2876V32.1177L50.4668 31.183H50.6367V31.0131L51.4014 30.4183L51.7413 30.2484V30.0784L52.8458 29.3137L54.1202 28.634L54.7999 28.1242L55.5646 27.6144H55.7345L55.9044 27.2745L56.6691 26.4249L57.0939 26.085L57.5187 26L57.6037 25.5752L57.2638 25.1503V24.9804L56.924 24.8105V24.6405H56.754L56.1593 23.9608L55.1398 22.8562L55.2247 22.6013L60.5773 22.5164Z" fill="#9F9F9F"/>
<path d="M40.1027 11.3857L40.1877 11.6406L40.4426 11.7256V13.0001L40.9523 12.8302L41.2922 12.6603L41.632 12.7452L41.8869 13.0001L42.3117 14.2746L42.8215 16.6537L43.2463 19.2877L43.5862 22.0916L43.6711 22.4315L42.9914 23.0263L42.1418 23.706L41.717 23.621L41.2922 23.4511L33.3057 23.2812H32.0313L31.0117 23.1112L30.8418 22.9413H30.417L30.1621 22.4315V21.242L30.9268 20.6472L31.3516 20.2223L32.626 19.2027L33.0508 18.7779L34.2403 17.8433L35.005 17.3335L34.835 17.0786L35.5147 16.8236L35.5997 16.7387L35.4298 16.5687L35.5147 16.4838L36.3644 16.3138L36.5343 16.2289L36.9591 16.3138L37.9786 15.804L38.9982 14.8694L39.0832 14.7844L38.8283 14.6145H38.5734L38.4035 14.4446L39.1681 13.6799L39.7629 12.7452L40.1027 11.3857Z" fill="#AEAEAE"/>
<path d="M50.8076 4.58813L51.3174 4.75807L52.252 5.26787L53.8663 6.28748L56.2452 8.07179L57.0948 8.8365L57.7745 9.43127L59.8986 11.5555L60.6633 12.4901L61.6828 13.7646L62.4475 14.8692L63.6369 16.7385L64.7414 18.7777L65.761 21.0718L66.7805 24.1306L66.6956 24.4705L65.846 23.6208L65.4211 23.3659L64.9963 23.026L64.4016 22.7711L64.3166 22.2613L63.6369 21.3267V21.1568H63.467L62.7024 20.2221L61.8527 19.2875V19.1175L61.5129 18.9476L61.0881 18.5228V18.3528H60.9181L60.0685 17.5032L58.964 16.5685L57.8595 15.7189L57.0948 15.1241V14.9541L56.755 14.8692L55.4805 14.0195V13.8496L55.2257 13.7646L54.376 12.9149L54.1212 12.4051L53.6963 11.7254V11.4705H53.5264L52.7618 10.196L52.252 8.75153L51.8272 7.47702L51.4024 6.54238L50.8076 5.35284L50.7227 4.75807L50.8076 4.58813Z" fill="#8C8C8C"/>
<path d="M58.3695 50.9805L58.7093 51.0654L58.9642 51.1504L59.0492 51.3203L60.1537 51.6602H61.1733L61.9379 51.4903L61.768 51.9151L61.0883 52.7648L60.3236 53.6994L58.7943 55.3988L57.8597 56.3334L57.18 56.9282L55.9905 57.9478L54.6311 58.9674L53.1018 59.987L51.2327 61.0916L49.1936 62.1112L46.8996 63.0458L44.7755 63.7256L42.7364 64.2354L39.5928 64.7452L38.9131 64.8301H38.0635V64.5752L37.6387 64.4053L37.8936 64.3203V64.1504L38.4883 64.0654L38.9131 63.8955H39.7627L41.8868 63.0458L42.2266 62.8759L42.5665 62.536L43.4161 62.2811L43.5011 62.0262L43.8409 62.1112V62.2811L44.8605 61.8563L44.9454 61.6863L45.7101 61.6014L45.7951 61.1765L46.3048 60.9216L46.7296 60.5818L47.4093 60.4118L48.174 59.8171L49.5334 58.4576L50.6379 57.6079L52.0823 56.2484L52.3372 55.9086H52.5071L52.677 55.5687L53.6116 54.4641L54.6311 53.1047L55.3958 52.255L56.7552 51.2354L57.7748 51.0654L58.3695 50.9805Z" fill="#8C8A8A"/>
<path d="M53.8663 15.5491L54.2911 15.634L54.3761 15.719H54.8859L55.2257 15.8889V16.0589H55.3956L55.4806 16.9085L55.3956 17.3334L55.0558 18.0131L55.3956 18.438L55.9054 19.5425L56.6701 22.0916L56.755 22.5164L55.2257 22.6014L55.3107 22.9412L55.9054 23.536L56.5001 24.2157L56.755 24.4706V24.6406H56.9249L57.5197 25.3203L57.6896 25.5752L57.6046 26L57.0099 26.255L56.4152 26.7648L55.7355 27.6144L54.546 28.3791L53.6964 28.9739L52.4219 29.6536L51.9122 30.0785H51.7422V30.2484L50.8077 31.0131H50.6377V31.1831L49.6182 31.9478L49.2783 32.1177V32.2876L49.0234 32.4576L48.9385 32.8824L48.7686 32.6275L48.5986 31.8628L48.5137 30.8432V29.9085L48.5986 28.9739L48.9385 28.5491L49.2783 28.2092L49.6182 27.6144H49.7881L49.8731 27.2746L50.043 27.0197H50.2129L50.2979 26.6798L51.3174 24.9804L52.0821 23.536L52.4219 22.6014L52.5919 21.4118V20.7321L52.252 19.9674V19.7125L52.4219 19.7974L53.0167 19.7125L52.8468 19.2876L52.5919 19.0327V18.8628L52.252 18.7778L52.337 18.6079L52.0821 18.5229L51.9971 17.9282L52.5919 17.2484L53.1866 16.3138L53.6964 15.634L53.8663 15.5491Z" fill="#AEAEAE"/>
<path d="M21.0704 53.0195H21.4952V53.1895L21.7501 53.2744V53.5293L22.1749 53.6993L22.09 53.8692L21.4952 53.6143L21.2404 53.4444L20.6456 53.6143H20.8156L20.9855 54.0391V54.294H20.3058L20.0509 54.2091L19.796 54.464L19.881 54.9738V55.1437L21.9201 57.1829L22.09 57.2679V57.4378L22.3449 57.5228L22.7697 58.0326L23.3644 58.5424L23.9592 59.2221L24.214 59.477V59.647L24.5539 59.8169V59.9869L24.8088 60.0718V60.2418L25.1486 60.4117L25.8283 61.0065V61.1764L26.1682 61.3463L26.8479 62.111V62.6208L25.8283 62.4509L25.1486 62.281L25.4885 62.6208L25.7434 62.7908V62.9607L26.3381 63.0457V63.3006L26.678 63.4705L26.508 63.5555L24.4689 62.8757L21.9201 61.7712L19.9659 60.7516L18.3516 59.7319L17.7569 59.3071L17.587 58.8823L17.3321 58.7123V58.5424L16.9922 58.4574L16.5674 58.0326L15.8877 57.5228L15.6328 57.2679L15.4629 56.7581L14.9531 56.6731L14.1885 55.9084L14.0186 55.5686L13.7637 55.3136V54.8888L14.1885 54.464L15.0381 53.8692L16.2276 53.1895H16.7374L17.0772 53.6143V53.7842H17.3321L17.6719 54.294V54.7189L16.9922 55.4836L16.4825 55.8235H16.3125V55.9934H16.1426L15.9727 56.3333L15.8877 56.7581H16.4825L16.9922 56.4182L17.7569 56.3333L17.8419 56.1633L18.0968 56.0784H18.8614L19.1163 55.8235L20.1359 56.1633V55.8235H19.9659L19.711 55.3986V55.2287L19.3712 55.0587L18.7765 54.464L18.5216 54.1241L18.6065 53.8692L19.881 53.5293L20.9855 53.1045L21.0704 53.0195Z" fill="#8C8C8C"/>
<path d="M59.4738 27.1045L60.0685 27.6143L60.5783 28.0391L61.0031 28.464L61.5129 28.8888L62.5324 30.1633V30.4182H62.7024L62.9572 30.928V31.3529L62.6174 31.7777L61.9377 32.1176L61.258 32.5424L60.1535 33.2221L59.6437 33.477L58.8791 33.9868L57.9445 34.5816L57.0099 35.2614L56.755 35.3463L56.67 35.5163H56.5001L56.4151 35.8561L56.1603 36.281L55.7354 36.5359L54.8858 36.9607L54.8009 37.1306L56.2452 37.5555L56.5001 37.8104L55.3106 37.5555L53.7813 37.3855L52.5069 36.9607L51.7422 36.5359L51.0625 36.111L50.4678 35.4313L50.2129 35.0914V34.9215L50.3828 34.8365L51.2324 34.7515L51.9971 34.3267L52.9317 33.647L53.2715 33.3921H53.4415L53.6114 33.0522L54.2911 32.4574L55.6505 31.6078L56.1603 31.4378L57.0099 31.013L57.8595 30.5032L58.1994 30.1633L58.8791 29.7385L59.7287 28.8888L60.3234 28.464L60.1535 28.0391L59.4738 27.2744V27.1045Z" fill="#B1B0B0"/>
<path d="M22.4307 25.3203L22.5157 25.4902H22.6856V25.6602L22.3458 25.7451L22.5157 26.0001V26.3399L22.9405 26.5099L23.6202 26.6798H23.7901L24.2149 26.8497V27.0197L24.3849 27.1046L24.2999 27.1896L24.8097 27.5295L24.9796 27.8693L25.4894 28.2092H26.1691L26.0841 28.5491L25.4044 29.3987V29.6536L25.5743 29.7386V29.5687L26.339 28.9739L26.6788 28.719L26.8488 28.804L26.7638 28.8889L27.5285 29.0589L27.8683 29.3138L29.3127 29.6536L30.3322 29.9935L30.6721 30.1634V29.9085L31.0969 30.0785L31.7766 30.5883H32.5412L32.6262 30.7582V31.438L32.3713 31.5229L32.2014 32.0327H32.0315V32.3726H32.2864L32.9661 32.2876L32.8811 32.6275L31.5217 34.0719H31.1818L29.5676 33.3922L27.4435 32.4576L23.0255 30.5883L21.2412 29.8236L20.2217 29.3987L20.1367 29.1438L19.7969 29.0589L19.2871 28.719L19.3721 28.2942L20.1367 27.4445L22.0059 25.5752L22.4307 25.3203Z" fill="#5A5A5A"/>
<path d="M56.925 37.9805L57.2648 38.1504L57.7746 38.5752L58.1145 39.255L58.2844 40.1047H58.4543L58.5393 49.1962L58.7092 50.3007L59.219 51.0654L59.8987 51.4053L60.1536 51.4903H61.343L61.7678 51.2354H62.1077L61.9378 51.5752L61.1731 51.7452H60.1536L59.4739 51.4903L58.7092 50.8105V50.6406L58.4543 50.5556V50.3007L57.7746 50.2158H56.925L56.7551 49.7909L56.84 49.1112L57.1799 48.3465L57.2648 47.8367L56.925 47.9216L56.5002 48.4314H56.1603L56.0754 47.8367L56.2453 47.5818L55.9904 47.2419L56.0754 46.3922L56.2453 45.2877L56.4152 44.8628L57.0099 42.4837L57.3498 40.6145L57.2648 40.2746H56.925V40.4445L55.6505 40.6145L53.4415 41.0393L50.3829 41.5491L49.0235 41.889L48.6836 42.0589L48.5987 42.8236L48.7686 43.1635L48.6836 43.6733L48.8536 43.9282L48.6836 44.2681H48.5987L48.5137 44.7779H48.4287V43.9282H48.2588L48.0039 43.3334L47.3242 42.7386L46.5596 42.5687L46.4746 42.2288L46.6445 41.9739H46.8994L46.9844 41.719L47.4092 41.3792L47.749 40.6994L47.834 39.8497L48.0889 40.1047H49.7032L52.1671 39.7648L54.2062 39.3399L54.631 39.085H54.8009L54.9708 38.7452L55.5656 38.4053H56.5002L57.0949 38.3203L56.925 37.9805Z" fill="#8C8C8C"/>
<path d="M15.6339 48.2615L15.9737 48.3464L17.3331 49.1961L18.2677 49.7909L18.9474 50.2157L18.8624 50.7255L18.4376 51.4053L18.0978 52.4249V53.3595L18.2677 53.6144H18.9474L19.967 53.3595L21.1564 52.8497H21.5812L22.0061 53.4445L21.9211 53.6144L21.7512 53.5294L21.6662 53.2745L21.4963 53.1896V53.0196L20.7316 53.2745L19.3722 53.7843L18.6076 53.9543L18.7775 54.2942L19.3722 54.9739L19.797 55.3987L19.967 55.8236H20.1369L20.2218 56.2484L19.0324 55.9085L18.8624 56.1634H18.0978L17.9279 56.0785L17.8429 56.2484L17.3331 56.4183L16.7384 56.6732L16.3136 56.8432H15.8888L15.8038 56.4183L16.1437 55.9935H16.3136V55.8236L16.9933 55.3987L17.588 54.719V54.2942L17.3331 53.9543V53.7843H17.0782L16.7384 53.3595V53.1896L16.0587 53.3595L14.3594 54.3791L14.1046 54.634H13.9346L13.8497 55.3138V55.4837L14.1895 55.6536L14.4444 56.0785L14.9542 56.5883L15.5489 56.6732L15.8038 57.353L16.1437 57.6928L16.5685 57.9477L16.9933 58.3726L17.3331 58.5425L17.673 58.8824L17.7579 59.2223L17.3331 59.0523L15.8038 57.8628L14.6993 56.9281L13.6797 55.9935V55.8236H13.8497L13.5948 55.3138L12.9151 54.8889L12.4903 54.2092L11.7256 53.3595V53.1896H11.5557L11.1309 52.6798L10.7061 51.9151L10.4512 51.4053V50.9804L10.791 50.8955L10.876 51.0654L11.3008 51.1504L11.2158 50.8105L11.6406 50.5556L12.2354 50.3857L13.9346 50.4706L14.1895 50.3857L15.294 50.8105H15.7188L16.0587 50.3007L16.1437 50.0458L16.7384 50.1308L16.6534 49.7909L16.2286 49.451V49.2811L15.8888 49.1111L15.6339 48.7713V48.2615Z" fill="#8C8C8C"/>
<path d="M38.5723 39.5947L38.8272 39.8496L38.9971 40.2745L39.167 40.8692L39.3369 40.9542L39.5918 41.379V41.1241L39.4219 40.6143L39.7618 40.6993L39.8467 40.9542L40.2715 41.1241L40.6963 41.9738L40.5264 42.0588L40.8663 42.5686L41.2061 43.1634V43.3333L41.6309 43.5032L41.9708 43.6732L42.2257 44.5228L42.5655 44.6928L42.8204 45.0326H42.6505L42.9054 45.4575L43.0753 45.7973H43.2452L43.4151 46.2222L43.9249 46.3921L44.2648 47.1568V47.3268L44.5196 47.4117L44.7745 47.6666V47.9215L45.0294 47.8366L45.3693 48.2614L45.4542 48.5163L45.879 48.4313L46.2189 48.0915L46.4738 48.1764V48.8562L46.5587 49.0261L46.4738 49.196L46.6437 49.281L46.049 49.9607L44.0948 51.915L43.4151 52.4248L42.9903 52.3398L42.5655 51.6601L41.7159 49.6209L40.9512 47.8366L40.5264 46.9019L39.167 43.7581L38.1475 41.379L37.7227 40.4444L37.8926 40.1045L38.2324 39.8496L38.5723 39.5947Z" fill="#5A5A5A"/>
<path d="M27.0186 23.366L27.8682 23.4509L28.5479 23.7908L29.0577 24.3856L29.3975 25.1503V25.3202L29.7374 25.1503L29.9923 24.7254L30.7569 24.0457L31.0118 23.9607H32.0314L32.881 24.3006L33.4757 24.8954L33.6457 25.3202L33.7306 25.83L37.7239 26.3398L38.5735 26.4248L38.7434 26.5098L38.5735 26.8496L37.7239 27.6993L37.0442 28.2941L36.8742 28.464L35.5148 28.2941L35.2599 28.2091L33.7306 28.0392L31.0118 27.6993L29.3975 27.3594L28.378 27.1045L27.5284 26.8496L25.999 26.1699L25.7442 25.915V25.1503V24.9803L24.7246 24.8954L24.8096 24.7254L25.4043 24.6405L25.8291 23.9607L26.4239 23.5359L27.0186 23.366Z" fill="#5A5A5A"/>
<path d="M45.0293 33.1372H45.3692L45.794 36.7908L45.9639 37.8954L46.0489 38.2352L46.6436 38.3202L47.2384 38.6601L47.5782 39L47.8331 39.7647V40.6993L47.4932 41.379L46.9835 41.8039L46.8985 41.9738L46.6436 42.0588L46.5587 42.4836L47.3233 42.6535L48.1729 43.4183L48.2579 43.9281H48.4278V44.9477L48.1729 45.4575H48.003L47.918 45.7973L47.6632 45.8823V46.0522H47.4932V46.2222L46.9835 46.3071V46.9869H46.8985V45.6274L46.6436 45.7124L46.3887 45.2875L46.1338 45.2026V45.0326L45.794 44.9477L45.5391 44.6078L45.1143 44.183L44.8594 43.5882L44.6045 43.0784L44.4346 42.2287L44.2647 41.549L44.0098 39.7647L43.8399 39L43.6699 37.4705L43.415 36.6209L43.2451 36.1111L43.1602 35.6862L43.2451 35.5163L43.1602 35.1764L43.5 34.8366L43.7549 34.4117L45.0293 33.1372Z" fill="#5A5A5A"/>
<path d="M19.627 28.9739L20.1367 29.1438L20.3916 29.3987L22.0909 30.0785L23.0254 30.5033L25.8292 31.6928L28.2082 32.7124L29.5676 33.3072L30.6721 33.732L31.3518 34.1569L31.1818 34.4968L30.757 34.9216L29.6525 36.1111L28.8879 37.0458L28.3781 37.6405L26.6788 35.9412L25.9991 35.3464L24.9796 34.2418L24.2999 33.5621L23.3653 32.7974L22.0059 31.4379L21.4961 31.0131V30.7582L21.1563 30.5883L20.7315 30.1634L20.0518 29.3987L19.627 28.9739Z" fill="#797878"/>
<path d="M49.4474 3.90845L49.8722 3.99341L50.6368 4.41825L50.5519 4.58819H50.382V5.18296H50.5519L51.1466 6.45747L51.4015 7.30714L51.7414 8.15681L52.3361 9.60126L52.8459 10.7058L53.3556 12.0653L53.6105 12.83V13.8496L53.5256 14.4444L53.1008 14.6143L51.7414 14.1045L50.8068 13.7647L50.1271 13.5098L48.8526 13.2549H48.5977L48.5128 13.4248H48.3429V13.2549H48.088L48.2579 13.5098L48.5128 13.5947L48.4278 13.8496H48.2579L48.088 14.1895L47.918 14.4444H47.7481L47.5782 14.7843L46.9835 15.379L46.2188 15.8888L45.8789 16.0588L45.709 16.3986L45.4541 16.5686V16.3137L45.1143 16.3986L44.8594 16.8235L44.7744 17.7581L44.9444 19.1176L45.0293 20.0522V20.9019L45.1143 21.1568L45.2842 21.3267L44.8594 21.4117L44.7744 21.0718V20.3071L44.0947 15.8039L43.6699 13.5098L43.415 12.4901L43.3301 11.7254L43.585 11.4705L45.0293 11.7254L46.3887 12.0653L47.6632 12.4052L50.212 13.2549L52.591 14.1895H53.0158L53.1008 14.1045V13.4248L52.8459 11.5555L52.506 10.4509L51.9113 9.26139L50.9767 7.98688L50.212 7.1372L49.7023 6.54243L49.5323 6.45747V6.20256H49.3624V6.03263L49.1075 5.94766L48.4278 5.01302L48.3429 4.67315L48.5977 4.58819V4.33328L49.2774 4.24832L49.4474 3.90845Z" fill="#AEAEAE"/>
<path d="M45.625 6.11768L46.4747 6.28761L47.6641 7.13728L48.6837 8.07192L48.9386 8.24186V8.41179L49.2784 8.58173L49.7032 9.00656V9.1765H49.8732L50.6378 10.1111L51.7423 11.4706L52.0822 11.9804V12.3203L51.4874 12.2353L50.5529 11.8105L48.8536 11.2157L47.5792 10.7909L46.6446 10.536L44.1807 9.85624L43.1611 9.4314L42.9062 9.09153V8.58173L43.2461 8.07192L43.501 7.81702L43.8408 7.22225L44.6905 6.79741L45.2002 6.62748L45.625 6.11768Z" fill="#AEAEAE"/>
<path d="M53.8672 15.5491L54.292 15.634L54.377 15.719H54.8868L55.2266 15.8889V16.0589H55.3965L55.4815 16.9085L55.3965 17.3334L55.0567 18.0131L55.3965 18.438L55.9063 19.5425L56.671 22.0916L56.7559 22.5164L55.1417 22.6014L54.9717 22.7713L53.6123 23.1112L52.5928 23.451H52.3379L52.5928 21.4118V20.7321L52.2529 19.9674V19.7125L52.4229 19.7974L53.0176 19.7125L52.8477 19.2876L52.5928 19.0327V18.8628L52.2529 18.7778L52.3379 18.6079L52.083 18.5229L51.998 17.9282L52.5928 17.2484L53.1875 16.3138L53.6973 15.634L53.8672 15.5491Z" fill="#9F9F9F"/>
<path d="M44.8604 22.7712L45.71 22.8562L46.8995 23.451L47.6642 24.0457L48.3439 24.8105L48.9386 26.085L49.0236 26.9346L48.5987 27.6993L47.5792 28.8039L46.9845 29.4837L46.7296 29.5686L46.4747 28.8889L46.0499 27.8693L45.5401 27.0196L45.2002 26.6797V26.5098L44.8604 26.3399L44.0957 25.8301L42.9912 25.3203L42.2266 25.0654L42.3965 24.7255L43.2461 23.8758L43.9258 23.281L44.6055 22.8562L44.8604 22.7712Z" fill="#9B758B"/>
<path d="M19.9669 41.5491L22.4308 41.719L24.4699 41.9739V42.3987L23.4503 43.6733L22.8556 44.438L22.006 45.6275L21.5811 46.1373L20.2217 46.0523L17.6729 45.6275H17.0781L16.5684 45.7974V45.2027L16.8232 44.8628L17.1631 44.6929L17.5879 44.268L17.8428 44.1831L18.3526 44.268L18.5225 44.0131H18.1826V43.6733L17.9278 43.5883L18.2676 42.9935L18.5225 42.3987H19.0323L19.2022 42.0589H19.3721L19.4571 41.719L19.9669 41.5491Z" fill="#8C8C8C"/>
<path d="M17.0772 45.5425H17.6719L20.2208 45.9673L21.1554 46.0523L21.4103 46.1373L21.3253 46.6471L20.6456 47.5817L19.5411 49.366L19.0313 50.2157L18.6065 50.1307L17.7569 49.5359L16.6524 48.8562L15.7178 48.2614L15.123 47.8366V47.3268L15.4629 47.1569L15.6328 46.732L16.2276 46.1373L16.9073 45.6274L17.0772 45.5425Z" fill="#5A5A5A"/>
<path d="M25.3184 50.3857H25.6583L25.7432 50.6406L25.9132 52.0851L26.168 53.7844V54.974L24.8936 56.2485L24.3838 56.6733L23.959 56.5884L23.4493 55.9086L21.75 53.1897L21.5801 53.0197L21.665 52.6799L22.5147 52.1701L24.044 51.2354L25.3184 50.3857Z" fill="#5A5A5A"/>
<path d="M59.2197 11.9805H59.6445L60.3242 12.6602L60.7491 12.5752L61.8536 14.0197L62.4483 14.8694L63.6378 16.7386L64.7423 18.7779L65.7618 21.072L66.7814 24.1308L66.6964 24.4707L65.8468 23.621L65.422 23.3661L65.2521 23.1962V22.8563H65.0821V22.4314L64.7423 22.2615L64.4874 21.8367V21.6667H64.3175L63.8927 20.902L63.3829 19.8824L62.7032 19.0328L62.5333 18.523L62.6182 18.353H62.7881L62.4483 17.7582L62.1934 16.9935L61.5137 15.6341L61.2588 15.2092L61.0889 14.7844H60.919L61.0889 14.4445L60.919 14.2746L61.0039 14.1047L60.834 13.5099L60.6641 13.4249V13.255L60.1543 13.3399L59.8145 13.255L59.4746 12.9151L59.1348 12.6602V12.0654L59.2197 11.9805Z" fill="#9F9F9F"/>
<path d="M56.6699 16.8235L57.0098 16.9085L58.5391 17.9281L59.3038 18.6078L59.9835 19.2026L60.4083 19.5424L61.5977 20.732L62.1925 21.4117L62.3624 21.4967V21.6666L62.7023 21.8366L62.9571 22.5163L60.5782 22.6013H58.8789L58.3692 22.4313L58.1143 21.8366L57.6045 20.0522L57.0098 18.2679L56.7549 17.6732L56.5 16.9085L56.6699 16.8235Z" fill="#9F9F9F"/>
<path d="M19.7112 5.18311L20.051 5.35304L19.6262 5.77788L19.1164 6.11775L18.7766 6.45762L17.927 6.88245L17.757 7.22232L17.0773 7.81709L16.3127 8.3269L16.1427 8.8367L15.1232 9.3465L14.6134 9.68637L14.0187 10.3661L13.7638 10.4511L13.5939 10.7909L13.254 11.3008L12.4894 11.8955L12.2345 11.9805L12.0645 12.6602L11.7247 13.17L11.2149 13.7648L10.96 14.2746L10.7051 14.5295L10.4503 14.8694H10.1954L10.1104 15.2942L10.1954 15.4641L9.6856 16.2289L9.43071 16.5687L9.17582 17.1635L8.58109 18.0981L8.24124 18.523L8.15628 18.353L7.6465 19.5426L7.47658 20.0524H7.30665L7.22169 20.3073L7.13673 19.9674L6.71192 19.8825L6.62695 20.0524L6.71192 19.6275L7.56154 17.8432L8.75101 15.804L9.6856 14.4445L10.7051 13.0851L11.4698 12.1504L12.4044 11.0458L14.2736 9.17657L15.2082 8.41186L16.2277 7.56219L17.842 6.37265L19.4563 5.35304L19.7112 5.18311Z" fill="#E2F5FE"/>
<path d="M21.4961 7.05225H22.5157L23.1954 7.39212L23.7901 8.07185L24.045 8.75159V9.2614L23.6202 10.0261L23.2803 10.4509L22.6856 10.7908L22.0909 10.8758L21.3262 10.7058L20.6465 10.281L20.3066 9.7712L20.1367 9.17643L20.2217 8.24179L20.5615 7.64702H20.7315V7.47708L21.4961 7.05225Z" fill="#FE6B43"/>
<path d="M62.6172 25.5752H63.2969L64.1465 26L64.5713 26.5098L64.8262 27.2745L64.7413 27.9543L64.4014 28.634L63.8067 29.1438L63.212 29.3987L62.4473 29.3138L61.7676 28.9739L61.1729 28.2941L61.0879 28.0392V27.1046L61.3428 26.4249L62.0225 25.8301L62.6172 25.5752Z" fill="#87DDB1"/>
<path d="M42.5655 19.8823H42.8204L42.9054 20.3921L43.1602 20.5621L43.4151 21.3268L43.5001 21.4117L43.67 22.4313L42.9903 23.0261L42.5655 23.366L41.8858 23.281L41.2911 23.196H40.4415L39.8467 23.281H38.2324L37.8076 23.196L37.8926 23.0261L37.7227 22.9411L37.8926 22.6013L38.9971 22.2614L39.7618 21.4967L40.7813 21.0719L41.2911 20.647L41.8858 20.3921L42.4805 20.3072L42.5655 19.8823Z" fill="#8C8C8C"/>
<path d="M11.6406 20.9019H12.5752L13.3399 21.3267L13.7647 21.8365L13.9346 22.1764V23.2809L13.5948 23.8757L13 24.3855L12.4903 24.6404H11.8106L11.0459 24.2156L10.4512 23.5358L10.2812 23.111V22.3463L10.5361 21.7515L10.9609 21.2417L11.6406 20.9019Z" fill="#87DDB1"/>
<path d="M24.6387 37.1306L24.8936 37.2156L24.9786 37.6404L25.4884 37.3855L25.9132 37.4705L26.1681 38.2352L26.338 38.66V39.5947H26.5079L26.4229 39.9345L25.9132 40.5293L25.2335 40.4443L24.2139 40.1894L23.4493 40.2744L21.3252 39.8496V39.6796L20.9004 39.5947V39.4247L21.1553 39.2548L21.75 39.1698L22.5996 38.5751L23.4493 38.2352L24.129 37.9803V37.7254H23.8741V37.4705L24.6387 37.1306Z" fill="#8C8C8C"/>
<path d="M49.4474 19.2876H50.212L50.1271 19.7974L49.6173 20.3922L49.4474 21.2418L48.3428 22.3464H48.1729L48.003 22.6863L47.4932 23.1111L47.0684 23.2811L46.6436 23.1961L45.5391 22.7713L44.9444 22.6863L44.0098 23.1111L44.0947 22.8562L44.9444 22.1765L45.9639 21.4967L46.3887 21.0719L47.3233 20.5621V20.1373L48.6827 19.5425L49.4474 19.2876Z" fill="#E2F2FE"/>
<path d="M40.3575 24.6406L40.6974 24.8106L40.1876 25.4053L39.0831 26.34L38.8282 26.5099L36.3643 26.255L33.7305 25.9151L33.4756 25.1504L33.3906 24.7256H33.6455V24.8955L34.4951 24.7256H39.8478L40.3575 24.6406Z" fill="#9F9F9F"/>
<path d="M0.424812 54.2942H1.10451L2.20902 54.6341L2.29398 54.804L2.20902 56.2484V57.438L1.86917 57.7778L0.849624 58.2027L0.424812 58.1177L0.0849624 57.6929L0 57.5229V55.0589L0.33985 54.3792L0.424812 54.2942Z" fill="#FE6D43"/>
<path d="M56.7539 0L57.7735 0.0849673L58.708 0.424837L59.4727 0.93464L60.0674 1.69935L60.1524 2.20915L59.8126 2.54902L58.9629 2.88889L58.5381 2.97386L58.0283 2.71895L57.3486 2.29412L56.499 2.12418L56.4141 2.03922V0.424837L56.584 0.0849673L56.7539 0Z" fill="#FD341C"/>
<path d="M2.63381 48.5164L3.14359 48.6013L4.16314 49.1961L4.33306 49.366L4.2481 49.9608L3.22855 52.17L2.97366 52.4249L2.37893 52.3399L1.35938 51.8301L1.18945 51.6601L1.27442 51.1503L1.86915 49.7909L2.37893 48.7713L2.63381 48.5164Z" fill="#FE6C43"/>
<path d="M58.709 4.92822L59.8135 5.01319L60.4932 5.26809V6.20273L59.9834 7.98705L59.5586 8.75175L58.8789 8.66678L57.8594 8.15698L57.6895 7.98705L57.8594 7.22234L58.4541 5.18312L58.709 4.92822Z" fill="#FD341C"/>
<path d="M5.43852 58.2876H6.28814L6.62799 58.9673L6.79792 59.732L6.71295 60.1569L6.28814 60.4118L5.43852 60.5817L4.58889 60.6667H3.56935L3.05957 60.4118L2.97461 60.3268V59.6471L3.2295 58.7124L3.65431 58.4575L5.43852 58.2876Z" fill="#FE6D43"/>
<path d="M11.3008 56.0784L11.6407 56.1633L12.1505 56.8431L12.4903 57.5228L12.4053 57.8627L11.9805 58.2026L9.85647 59.2222H9.34669L9.00684 58.8823L8.58203 57.8627L8.66699 57.4378L9.34669 57.013L10.7061 56.3333L11.3008 56.0784Z" fill="#FE6B43"/>
<path d="M53.1006 0.509766H53.7803L54.1202 1.27447L54.2901 2.20911L53.9503 2.54898L51.4863 3.48362L51.0615 3.39865L50.4668 2.12414V1.61434L51.8262 0.934602L53.1006 0.509766Z" fill="#FE351C"/>
<path d="M16.2276 53.1895H16.7374L17.0772 53.6143V53.7842H17.3321L17.587 54.379L17.502 54.7189L17.0772 55.2287L16.5674 55.4836L16.4825 55.6535L16.0577 55.8234L15.9727 55.9934L15.378 56.1633V56.3332L14.6983 56.4182L14.1885 55.9084L14.0186 55.5685L13.7637 55.3136V54.8888L14.1885 54.464L15.0381 53.8692L16.2276 53.1895Z" fill="#8C8C8C"/>
<path d="M56.6699 10.4509H57.1797L58.2842 11.0457L58.4542 11.3006L58.1143 12.1503L57.3496 13.5098L56.9248 14.1045L56.585 14.1895L55.6504 13.5947L55.2256 13.4248L55.1406 13.1699L55.3955 12.5751H55.5654L55.7354 12.1503L56.0752 11.4705L56.3301 10.8758H56.5L56.6699 10.4509Z" fill="#FC321C"/>
<path d="M23.0244 51.8301L23.1944 51.915L23.0244 52.085L23.1944 52.1699V52.4248L23.5342 52.5098L24.2139 53.9543V54.3791H24.3838L24.2989 55.1438L24.6387 55.9085L24.7237 56.3333L24.3838 56.6732L23.959 56.5882L23.4493 55.9085L21.75 53.1896L21.5801 53.0196L21.665 52.6798L22.5147 52.1699L23.0244 51.8301Z" fill="#5A5A5A"/>
<path d="M15.4629 46.9868L15.7178 47.0718L15.9727 47.5816L16.3975 47.4966L16.7373 47.5816H17.502L18.6065 47.9215L19.3712 48.1764V48.3463L19.9659 48.4313L19.8809 48.7711L19.2012 49.9607L19.0313 50.2156L18.6065 50.1306L17.7569 49.5358L16.6524 48.8561L15.7178 48.2613L15.123 47.8365V47.3267L15.4629 47.1568V46.9868Z" fill="#5A5A5A"/>
<path d="M53.8653 15.5491L54.2901 15.634L55.3096 16.3138V16.8236L54.46 18.1831L53.8653 18.9478L53.6104 19.2027L53.1856 19.1177L52.166 18.438V17.9282L53.1006 16.3987L53.6953 15.634L53.8653 15.5491Z" fill="#FE311A"/>
<path d="M39.8477 45.3726L40.1025 45.7124L40.9522 47.7516L41.5469 49.0262L42.2266 50.5556L42.6514 51.6601L43.0762 52.3399L43.501 52.2549L43.9259 51.915L44.0958 52L43.501 52.6797H43.3311L43.2462 53.0196L42.9063 53.6144L42.4815 53.9543L42.1416 53.8693L41.9717 53.2745L41.8018 53.1046V52.2549L41.5469 51.1503L41.7168 50.6405L41.2071 49.7059L41.0371 49.536L40.9522 48.9412L40.6973 48.5163L40.5274 48.0065L40.3574 47.3268V46.817L39.8477 45.6275V45.3726Z" fill="#8C8C8C"/>
<path d="M46.4746 42.4836L47.3242 42.6536L48.1739 43.4183L48.2588 43.9281H48.4287V44.9477L48.1739 45.4575H48.0039L47.919 45.7974L47.6641 45.8823V46.0523H47.4942V46.2222L46.9844 46.3072V46.9869H46.8994L46.7295 45.0327L46.4746 42.9085V42.4836Z" fill="#EEF2FB"/>
<path d="M45.8789 37.8955L46.0488 38.2354L46.6436 38.3203L47.2383 38.6602L47.5782 39.0001L47.833 39.7648V40.6994L47.4932 41.3792L46.9834 41.804L46.8985 41.9739L46.6436 42.0589L46.4736 42.4837H46.3887L46.2188 40.6994L45.8789 38.1504V37.8955Z" fill="#F6F8FC"/>
<path d="M31.0108 23.9607H32.0303L32.8799 24.3006L33.4747 24.8953L33.6446 25.3202V25.83L30.7559 25.4901L29.8213 25.3202L29.7363 25.1502L29.9912 24.7254L30.7559 24.0457L31.0108 23.9607Z" fill="#F6F8FC"/>
<path d="M27.0176 23.366L27.8672 23.4509L28.5469 23.7908L29.0567 24.3856L29.3966 25.2352L28.0372 25.1503L25.9981 24.8954L24.8086 24.8104V24.7254L25.4033 24.6405L25.8281 23.9607L26.4229 23.5359L27.0176 23.366Z" fill="#F2F6FB"/>
<path d="M17.332 45.6274L19.2862 45.7974L20.2208 45.9673L21.1553 46.0523L21.4102 46.1372L21.3253 46.647L20.9854 47.0719L20.4756 47.2418H19.7959L18.6065 46.647L17.8418 46.5621L16.8223 46.647L16.9072 45.9673L17.332 45.6274Z" fill="#5A5A5A"/>
<path d="M24.3839 10.366L24.4688 10.5359L23.8741 11.3006L24.4688 11.1307L24.8087 10.5359L24.8936 10.7908L24.6388 11.3006L23.3643 11.8954L22.9395 12.0653L22.3448 12.3202H21.835L21.4102 11.9803L20.9004 11.8954L20.4756 11.6405L20.2207 11.1307L20.0508 10.7058L20.8154 10.8758L21.835 11.1307H22.2598L22.6846 11.0457L23.4493 10.8758L24.3839 10.366Z" fill="#E2F6FF"/>
<path d="M48.8535 44.353L49.1934 44.6079L49.1084 45.1177L48.7686 46.2223L48.1738 47.4119L48.0039 47.8367H47.749L47.6641 48.0916L47.4941 47.9217L47.2393 48.6014L47.0693 48.9413L46.9844 48.7713L47.0693 48.0916L46.9844 47.4968V46.3073L47.4941 46.2223V46.0524H47.6641V45.8824L47.919 45.7125L48.0039 45.4576H48.1738L48.2588 45.0328L48.4287 44.9478V45.2027H48.5987L48.7686 44.9478L48.8535 44.353Z" fill="#8C8C8C"/>
<path d="M60.5782 22.5164L63.5519 22.6013L64.7414 22.8562L65.3361 23.1961L65.591 23.451L66.0158 23.7059L66.6955 24.3856L66.8654 24.4706L67.0354 25.1503V25.6601H66.7805L66.3557 25.2353L66.0158 24.4706H65.7609V24.3007L65.3361 24.2157L65.1662 23.7909L64.7414 23.366L64.5714 23.0262L63.8917 22.8562L62.5324 22.7713H55.3955L55.9053 23.366L56.5 23.9608V24.1307H56.6699V24.3007L57.0098 24.4706L57.1797 24.8105L56.7549 24.6405L56.1602 23.9608L55.1406 22.8562L55.2256 22.6013L60.5782 22.5164Z" fill="#95A6EE"/>
<path d="M25.3194 50.3857H25.6592L25.7442 50.6406L25.9141 52.0851L25.9991 52.5949V53.6995H25.7442L25.5742 53.6145V53.1047H25.4043L25.3194 53.3596L25.2344 52.9348H25.0645V52.7648L24.8096 52.6799L24.4697 51.9152L24.0449 51.4053V51.2354L25.3194 50.3857Z" fill="#5A5A5A"/>
<path d="M35.7687 29.9934L35.9386 30.0784L35.089 31.2679L34.3243 32.1176L33.7296 32.7973L32.625 33.9019L32.2002 34.8365L31.6905 35.1764L31.2657 35.6013H30.501L29.9063 36.0261L29.7363 35.9411L30.8408 34.7516L31.0108 34.4967H31.1807L31.3506 34.1568L31.6905 33.8169L32.2002 33.9019V33.732L32.8799 33.1372L33.0499 32.9673L33.4747 32.7973L33.9844 32.2026L34.7491 31.2679V31.013L35.089 30.6731V30.4182L35.4288 30.1633H35.5987L35.7687 29.9934Z" fill="#DEF2FE"/>
<path d="M52.7607 20.4771L53.3555 20.9869L54.0352 21.5816L54.8848 22.5163L54.6299 22.6862L52.9307 23.196H52.5059V22.6012L52.6758 21.8365L52.7607 20.4771Z" fill="#9F9F9F"/>
<path d="M47.1544 20.2222L47.4093 20.3071L47.3243 20.647L46.3048 21.2418L45.9649 21.5816L44.9454 22.2614L44.0957 22.9411L43.6709 23.4509H42.7363L42.5664 23.281L43.586 22.4313L44.7754 21.5816L46.0499 20.732L46.6446 20.4771L47.1544 20.2222Z" fill="#DCF0FE"/>
<path d="M56.7559 9.60132H57.9453L58.4551 10.1111L58.795 10.7059L58.9649 11.3007L59.0498 11.8105H58.625L58.4551 12.2353L58.2002 12.5752L57.9453 13H57.7754L57.8604 12.4052L58.2852 11.6405L58.3701 11.2157L57.6904 10.7909L57.1807 10.536L56.6709 10.451L56.7559 10.2811H57.0107L56.5859 10.1961L56.6709 9.68629L56.7559 9.60132Z" fill="#8C8C8C"/>
<path d="M24.7237 2.80396H26.1681V3.05886H25.4034L25.3184 3.31376L23.959 3.7386L22.9395 4.2484L22.0049 4.58827L21.4102 4.92814H20.9004L21.0703 4.67324H21.3252V4.41833L22.2598 3.9935V3.82356L24.7237 2.80396Z" fill="#E2F5FE"/>
<path d="M36.6192 25.4053H37.4688L37.7237 25.4902H38.4883L38.9981 25.7451L39.253 26L39.0831 26.3399L38.8282 26.5098L36.3643 26.2549L35.9395 26.085L36.0244 25.9151L36.959 26V25.8301H36.2793V25.4902L36.6192 25.4053Z" fill="#8C8C8C"/>
<path d="M4.33399 45.4575H4.84376L5.86331 46.1373L6.03324 46.3072V46.817L5.52346 47.1569L4.7588 46.902L4.0791 46.3922L3.99414 46.3072L4.0791 45.7124L4.33399 45.4575Z" fill="#FE6D43"/>
<path d="M35.004 30.4182L35.1739 30.6731L34.7491 31.098V31.3529L33.9844 32.2875L33.3897 32.9672L32.9649 33.1372L32.3701 33.7319H32.2002V33.9019H32.0303L31.9453 34.0718V33.8169L31.7754 33.7319L32.9649 32.4574L33.5596 31.7777L34.5791 30.843L35.004 30.4182Z" fill="#E3F2FE"/>
<path d="M10.1113 23.196H10.2813V23.366H10.4512L10.961 24.0457L11.5557 24.4706L11.8106 24.5555H12.4903L13.3399 24.2157L13.5948 23.9608H14.0196L13.9346 24.2157L13.2549 24.8104L13 25.0653L12.4053 25.1503H11.5557L11.1309 24.8954L10.4512 24.1307L10.1113 23.366V23.196Z" fill="#DCEFFE"/>
<path d="M13.7646 55.3137L13.8496 55.4837L14.1895 55.6536L14.4443 56.0784L14.9541 56.5882L15.5489 56.6732L15.8037 57.3529L16.1436 57.6928L16.5684 57.9477L16.9932 58.3725L17.3331 58.5425L17.6729 58.8823L17.7579 59.2222L17.3331 59.0523L15.8037 57.8627L14.6992 56.9281L13.6797 55.9935V55.8235H13.8496L13.7646 55.3137Z" fill="#8C8C8C"/>
<path d="M16.1426 48.5164L16.6524 48.7713L17.7569 49.451L18.6065 50.0458L18.9463 50.2157L18.8614 50.7255L18.6065 51.0654H18.3516V50.8954H18.1817L17.5869 50.2157L17.1621 49.8758L16.7373 49.451L16.6524 49.1961L16.3125 49.0262L16.1426 48.7713V48.5164Z" fill="#797878"/>
<path d="M42.5664 35.7712H42.7364V36.0261L42.9912 35.9412L42.9063 36.5359L42.4815 37.0457L42.0567 37.3856L41.6319 37.8105L41.207 38.0654V37.8105L40.8672 38.0654H40.6973V37.5556L41.377 36.9608L42.5664 35.7712Z" fill="#5A5A5A"/>
<path d="M31.4356 24.8105H32.2002L32.4551 24.9805L33.3047 25.2354L33.5596 25.1504L33.6446 25.3204V25.8302L30.7559 25.4903L30.416 25.3204V25.1504L31.4356 24.8105Z" fill="#E2F1FD"/>
<path d="M58.3701 40.1045H58.4551L58.54 49.196L58.71 50.3006L59.2197 51.0653L59.8994 51.4051L60.1543 51.4901H61.3438L61.7686 51.2352H62.1085L61.9385 51.5751L61.1739 51.745H60.1543L59.4746 51.4901L58.71 50.8104L58.3701 49.9607L58.2852 49.281V46.562L58.3701 40.1045Z" fill="#8391E5"/>
<path d="M35.9386 41.804L36.1085 41.8889L36.0235 42.1438L35.2589 42.9085H35.0889V43.0785L34.4092 43.6732L34.0694 43.8432L33.6446 44.183L33.5596 44.353H33.3897L33.2198 44.6928L32.71 45.1177H32.5401V45.2876H32.3701V45.4575L31.7754 45.7125L31.5205 46.0523H31.3506L31.1807 46.3922L30.7559 46.6471L30.5859 46.5621L31.3506 45.7125L32.2002 45.0327L33.3047 44.0981L35.6837 42.0589L35.9386 41.804Z" fill="#797878"/>
<path d="M45.8789 37.8955L46.0488 38.2354H46.4736L46.2188 38.4053L46.3887 38.9151L46.6436 39.17L46.8985 39.9347L46.8135 40.6994L46.6436 40.9543L46.5586 41.804H46.8985V41.9739L46.6436 42.0589L46.4736 42.4837H46.3887L46.2188 40.6994L45.8789 38.1504V37.8955Z" fill="#DBEAFC"/>
<path d="M21.4961 7.05225H22.5157L23.1954 7.39212L23.7901 8.07185L24.045 8.75159V9.2614L23.7901 9.60127V8.58166L23.4503 7.90192L22.9405 7.47708L22.0909 7.39212L21.5811 7.47708L20.9863 7.73198L20.6465 8.15682L20.4766 8.66662V9.34636L20.8164 10.1111L21.1563 10.5359L20.7315 10.366L20.3066 9.7712L20.1367 9.17643L20.2217 8.24179L20.5615 7.64702H20.7315V7.47708L21.4961 7.05225Z" fill="#FEC144"/>
<path d="M14.1045 25.7451L14.2744 25.8301L14.0195 26.2549L13.7647 26.9347V28.1242L14.1045 28.9739L14.8692 29.8235L15.6338 30.2484L15.9737 30.3334L20.2218 30.4183L20.8165 30.7582L20.9865 31.0131L20.9015 31.268L20.7316 30.8432L20.3068 30.6732L16.1436 30.5883L15.294 30.3334L14.7842 29.9935L14.1045 29.3137L13.6797 28.634L13.5098 27.9543V27.1046L13.7647 26.2549L14.1045 25.7451Z" fill="#B9CCF9"/>
<path d="M46.6445 42.9934L46.8145 43.3333L47.1543 43.5032L47.4942 44.013L47.5791 44.6928L47.2393 45.4575L47.0693 45.8823L46.8145 45.6274L46.6445 44.4379V42.9934Z" fill="#E2F1FD"/>
<path d="M37.7237 14.8694L37.9786 14.9544L37.8087 15.2942L37.3838 15.2093L37.2139 15.5491L35.4297 16.1439L34.665 15.974V15.804L34.4102 15.7191V15.5491L36.2793 15.3792L37.5538 14.9544L37.7237 14.8694Z" fill="#9F9F9F"/>
<path d="M29.3125 7.22217L29.9072 7.73197L30.6719 8.15681L31.0117 8.24178L37.0441 8.32674L37.9787 8.49668L38.1486 8.66661L37.5539 8.58164L31.0967 8.49668L30.502 8.32674L29.8223 7.90191L29.3975 7.47707L29.3125 7.22217Z" fill="#BACDFA"/>
<path d="M27.1026 24.1306L27.6973 24.2156L28.6319 24.7254L28.7168 25.0653H28.1221L27.5274 24.8104L26.8477 24.8953H25.998V24.7254L26.3379 24.4705H26.5078L26.5928 24.3005L27.1026 24.1306Z" fill="#E2F1FD"/>
<path d="M38.7422 26.5947V26.8496V27.0196L38.9121 27.1045V27.2745H38.6572L38.4873 27.7843L38.0625 28.0392L38.4024 28.2091L37.8926 28.464H37.5527V27.6993L38.2324 27.1045L38.7422 26.5947Z" fill="#E3F5FE"/>
<path d="M17.1621 49.366L17.6719 49.5359L18.3516 49.8758L18.7764 50.1307V50.6405L18.4365 50.7254L18.0117 50.4705L17.332 49.7908L17.1621 49.366Z" fill="#797878"/>
<path d="M23.4492 32.8823L23.7891 33.0523L25.0635 34.2418L25.7432 34.9215L26.3379 35.6013L26.5079 35.8562L25.9131 35.6862V35.5163L25.5733 35.3464V35.1764H25.4034L24.8086 34.4117V34.2418L24.5537 34.1568L23.959 33.4771L23.4492 32.8823Z" fill="#797878"/>
<path d="M21.5801 6.88232H22.3448L22.9395 7.13723L22.7696 7.22219L22.5147 7.13723H21.4951L20.9004 7.4771H20.7305V7.64703H20.5606L20.3906 8.07187L20.2207 8.66664L20.3057 9.51631L20.5606 10.0261L20.8154 10.451L20.4756 10.281L20.1357 9.68625L20.0508 9.26141V8.4967L20.3057 7.732L21.0703 7.05226L21.5801 6.88232Z" fill="#FDFDFD"/>
<path d="M18.7774 31.353H19.9668L20.0518 31.6929L19.8819 31.8628H18.9473L18.2676 31.6079L18.3525 31.438L18.7774 31.353Z" fill="#C1D5FC"/>
<path d="M49.0235 26.4248H49.1084V27.5294L48.7686 28.1242H48.5987V28.3791L48.2588 28.464L47.834 28.634V28.8039L47.4941 28.9738L47.6641 28.634L48.5137 27.6993L48.9385 26.9346L49.0235 26.4248Z" fill="#98A9EF"/>
<path d="M7.05273 25.7451L7.39258 26.085L8.07228 27.0196L9.60161 28.549L9.77153 28.634V28.8039L10.1114 28.9739L10.7911 29.5686H10.5362L9.60161 28.8039L8.58206 27.8693L7.98732 27.1896L7.30762 26.3399L7.05273 25.9151V25.7451Z" fill="#BACDF9"/>
<path d="M24.044 8.75171H24.2139L24.129 9.43145L23.7041 10.1962L23.0244 10.8759L22.8545 10.9609H21.665L21.2402 10.7909L21.4951 10.706L22.1748 10.7909L22.8545 10.621L23.3643 10.2811L23.8741 9.43145L24.044 8.75171Z" fill="#FDFDFD"/>
<path d="M6.542 20.3071L6.79688 20.562L7.05177 20.647L7.2217 20.3071L7.05177 21.0718L6.88185 21.3267L6.62696 21.5816L6.45703 21.8365L6.28711 21.6666L6.45703 20.4771L6.542 20.3071Z" fill="#E2F5FE"/>
<path d="M58.7949 50.8105H59.0498L59.3897 51.1504L60.1543 51.4903H61.3438L61.7686 51.2354H62.1085L61.9385 51.5753L61.1739 51.7452H60.1543L59.4746 51.4903L58.7949 50.8955V50.8105Z" fill="#8192E7"/>
<path d="M21.1563 52.8496H21.5811L22.0059 53.4444L21.921 53.6143L21.751 53.5293L21.6661 53.2744L21.4961 53.1895V53.0195L20.7315 53.2744L19.3721 53.7842L18.5225 53.8692L18.4375 53.6993L19.7119 53.4444L20.9864 52.9346L21.1563 52.8496Z" fill="#8588CF"/>
<path d="M35.9395 41.804L36.1094 41.8889L36.0244 42.1438L35.2598 42.9085H35.0899V43.0785L34.4102 43.6732L34.2402 43.5033L35.2598 42.3987L35.9395 41.804Z" fill="#797878"/>
<path d="M20.5615 31.2681H21.0713V31.8628L20.6465 32.2877L20.3066 32.1177L20.4766 31.353L20.5615 31.2681Z" fill="#F2F6FC"/>
<path d="M11.5547 20.7319H12.4043L12.4893 20.9019L11.3848 21.0718L10.7051 21.5816L10.4502 22.0064L10.2803 23.111H10.1953V22.1764L10.6201 21.3267L11.2998 20.8169L11.5547 20.7319Z" fill="#C1D5FC"/>
<path d="M33.4746 24.8955L33.8145 25.1504V25.3203L34.1543 25.4053L34.3242 25.4903V25.6602L34.6641 25.8301L34.834 26.0001L33.7295 25.9151L33.4746 25.1504V24.8955Z" fill="#AEAEAE"/>
<path d="M28.208 37.9805L28.293 38.1504L27.7832 39.0001L27.5283 39.255H27.2734V39.4249L26.9336 39.5099L27.0186 39.17L27.4434 38.8301L28.0381 38.1504L28.208 37.9805Z" fill="#E1F5FE"/>
<path d="M54.8018 15.719L55.2266 15.8889V16.0589H55.3965L55.4815 16.9085L55.1416 17.3334L54.8867 17.7582L54.6318 17.9281L54.8018 17.5033L55.2266 16.8236V16.3138L54.5469 15.8889L54.8018 15.719Z" fill="#8C8C8C"/>
<path d="M55.2256 22.6013H55.3955L55.4805 22.9412L56.5 23.9608V24.1307H56.6699V24.3007L57.0098 24.4706L57.1797 24.8105L56.7549 24.6405L56.1602 23.9608L55.1406 22.8562L55.2256 22.6013Z" fill="#919FEA"/>
<path d="M32.2002 45.0327L32.3701 45.1177L31.9453 45.6275L31.5205 46.0523H31.3506L31.1807 46.3922L30.7559 46.6471L30.5859 46.5621L31.3506 45.7125L32.2002 45.0327Z" fill="#797878"/>
<path d="M53.6104 15.1243L53.9502 15.2092L54.5449 15.5491V15.804L54.2051 15.6341L53.6953 15.719L53.3555 16.0589V15.804H53.5254L53.4404 15.5491L53.6104 15.1243Z" fill="#8C8C8C"/>
<path d="M26.084 49.7058L26.3389 49.7908L25.8291 50.2156L25.9141 51.4901L25.999 51.915V52.5947H25.9141L25.7441 51.5751L25.6592 50.6405L25.5742 50.1306L26.084 49.7058Z" fill="#797878"/>
<path d="M32.626 25.3203L33.3057 25.4053L33.3906 25.5752L33.4756 25.3203H33.6455V25.8301L32.2012 25.6602L32.2861 25.4902H32.626V25.3203Z" fill="#F3F6FC"/>
<path d="M54.2901 22.6863L54.6299 22.7712L52.5908 23.451H52.3359L52.4209 22.9412L52.5059 23.1961L54.2901 22.6863Z" fill="#9F9F9F"/>
<path d="M6.71289 19.8823H7.13771L7.22267 20.3072L7.05274 20.647L6.71289 20.5621L6.54297 20.2222L6.71289 19.8823Z" fill="#E2F2FE"/>
<path d="M6.54297 19.9673L6.62794 20.2222L6.37305 21.6666L6.28809 23.4509H6.20312V20.817L6.54297 19.9673Z" fill="#C0D4FB"/>
<path d="M25.4883 2.54907L27.1875 2.88894L27.6123 3.14384L27.4424 3.22881L26.7627 2.97391L24.9785 2.80397L25.2334 2.63404L25.4883 2.54907Z" fill="#BDD1FB"/>
<path d="M17.502 54.2092L17.6719 54.2942V54.719L17.0772 55.2288L17.2471 54.889L17.502 54.6341V54.2092ZM16.8223 55.2288H17.0772L16.9922 55.4837L16.4824 55.8236L15.9727 55.9086L16.1426 55.6537H16.4824L16.6524 55.3138L16.8223 55.2288Z" fill="#8C8C8C"/>
<path d="M25.6592 54.634L25.999 54.719L26.084 55.0589L25.8291 55.3138L25.4043 55.2288V54.8889L25.6592 54.634Z" fill="#5A5A5A"/>
<path d="M27.1875 24.7256L27.7822 24.8106L28.1221 24.9805L28.6319 25.0655V25.1504L27.3574 25.0655L26.6777 24.9805L26.8477 24.8106L27.1875 24.7256Z" fill="#FDFDFD"/>
<path d="M48.5137 29.1438H48.6836V29.3137H48.5137L48.3438 29.6536L47.1543 30.9281L46.9844 30.8431L47.749 30.0784L48.5137 29.1438Z" fill="#3C62E9"/>
<path d="M29.3125 7.22217L29.9072 7.73197L30.6719 8.15681L31.0117 8.24178V8.41171H30.5869L30.2471 8.15681L29.8223 7.90191L29.3975 7.47707L29.3125 7.22217Z" fill="#BED2FB"/>
<path d="M16.7383 45.7124L16.9082 45.7974L15.5488 47.1568L15.6338 46.732L16.2285 46.1372L16.7383 45.7124Z" fill="#5A5A5A"/>
<path d="M39.8477 45.3726L40.1025 45.7124L40.6973 47.0719V47.3268L40.3574 47.1569L40.2725 46.6471L39.8477 45.6275V45.3726Z" fill="#7C76B7"/>
<path d="M19.9668 53.3594L20.3067 53.4443L19.3721 53.7842L18.5225 53.8692L18.4375 53.6992L19.7119 53.4443L19.9668 53.3594Z" fill="#7E8FE6"/>
<path d="M29.0566 24.4707H29.3115V24.6406H29.4815L29.8213 25.1504L29.3965 25.3204L29.0566 24.5557V24.4707Z" fill="#9F9F9F"/>
<path d="M45.0303 33.1372L45.2002 33.2222L44.7754 33.8169L44.4356 33.9869L43.9258 34.4967L43.7559 34.4117L45.0303 33.1372Z" fill="#5A5A5A"/>
<path d="M7.22266 25.4053L7.39258 25.4902L7.47755 25.8301L7.73243 25.9151H7.56251L7.8174 26.5948L7.56251 26.5098L7.05273 25.7451L7.22266 25.4053Z" fill="#E2F5FE"/>
<path d="M52.2529 17.5881L52.3379 17.7581L52.2529 17.928V18.4378L52.9326 18.8626L52.7627 18.9476L52.2529 18.8626L52.3379 18.6077L52.083 18.5228L51.998 17.928L52.2529 17.5881Z" fill="#8C8C8C"/>
<path d="M57.5205 13.085L57.6055 13.2549L57.4356 13.9346H57.0957L57.0107 14.1895L56.5859 14.2745L57.0107 13.8497L57.5205 13.085Z" fill="#8C8C8C"/>
<path d="M13.4248 26.9346H13.5947V28.1241L13.2549 27.9542L13.1699 27.5293L13.4248 26.9346Z" fill="#E2F5FE"/>
<path d="M28.207 37.7256L28.377 37.8106V37.9805L27.6973 38.5753L27.1875 39.17V38.9151L28.207 37.7256Z" fill="#C1D5FA"/>
<path d="M20.1357 8.49683L20.2207 8.66676L20.3057 9.51643L20.5606 10.0262L20.8154 10.4511L20.4756 10.2811L20.1357 9.68637L20.0508 9.26153V8.58179L20.1357 8.49683Z" fill="#FBFBFC"/>
<path d="M17.6729 54.2942H17.8428V54.804L17.6729 55.0589H17.5029V55.2288L17.0781 55.3138L17.5879 54.719L17.6729 54.2942Z" fill="#8C8C8C"/>
<path d="M33.4746 24.8955L33.8994 25.3203L33.9844 25.7452L34.1543 25.8301L33.6445 25.7452L33.4746 24.8955Z" fill="#9F9F9F"/>
<path d="M39.7617 10.5359L39.9316 10.7058L40.0166 11.5555L39.9316 11.3006H39.6768L39.5918 10.7058L39.7617 10.5359Z" fill="#E2F6FF"/>
<path d="M17.1621 49.366L17.502 49.5359L17.8418 49.8758L18.0967 50.3006L18.0117 50.4705L17.332 49.7908L17.1621 49.366Z" fill="#797878"/>
<path d="M60.833 12.8301L61.2578 13.2549L61.3428 13.4248L61.1729 13.5948L60.748 13.1699V12.915L60.833 12.8301Z" fill="#9F9F9F"/>
<path d="M25.3193 41.2092L25.4043 41.3792L25.2344 41.804L24.5547 42.3988V42.1439L25.3193 41.2092Z" fill="#C4D8FA"/>
<path d="M11.8105 30.1633L12.1504 30.2483L12.4053 30.3333L12.6602 30.2483L12.5752 30.5882L13 30.7581L12.7451 30.8431L11.8105 30.2483V30.1633Z" fill="#E2F5FE"/>
<path d="M56.2461 23.7908L56.501 23.9607V24.1306H56.6709V24.3006L57.0108 24.4705L57.1807 24.8104L56.7559 24.6404L56.2461 24.0457V23.7908Z" fill="#95A5ED"/>
<path d="M6.37207 22.1765L6.542 22.3464L6.62696 22.9412L6.28711 23.3661V22.6014L6.37207 22.1765Z" fill="#E2F6FF"/>
<path d="M45.8789 37.8955L46.0488 38.2354H46.4736L46.2188 38.4053V38.8301H45.9639L45.8789 37.8955Z" fill="#CEDBF9"/>
<path d="M37.7236 14.8694L37.9785 14.9544L37.8086 15.2942L37.3838 15.2093V15.3792H37.2139L37.1289 15.1243L37.7236 14.8694Z" fill="#0A95FA"/>
<path d="M39.252 9.68628L39.5068 9.77125L39.7617 10.1961L39.6768 10.451L39.252 10.1111V9.68628Z" fill="#E2F5FE"/>
</svg>
