<svg width="65" height="65" viewBox="0 0 65 65" fill="none" xmlns="http://www.w3.org/2000/svg">
<g clip-path="url(#clip0_252_8699)">
<path d="M60.5719 0H63.2531L63.4562 0.203125L64.025 0.65L64.2281 0.853125L64.675 1.34062L65 1.82812V4.10312L64.4312 5.93125L64.1469 6.74375L63.5375 8.08437L62.8469 9.50625L62.2781 10.5219L61.7906 11.2937L60.9781 12.5125L60.4906 13.2031L60.0437 13.7719L59.5156 14.4625L59.15 14.9094L58.6625 15.4781L58.175 16.0062L57.8906 16.3312L57.525 16.7375L57.0781 17.225L56.5094 17.8344L48.7906 25.5531H48.7094L48.6281 25.7156L48.0187 26.2844L47.775 26.65L47.6937 26.8531L47.8969 27.1781L48.0594 27.7062L48.425 28.9656L49.6437 32.8656L50.05 34.125L50.4562 35.5062L51.2687 38.025L51.4312 38.5125L51.5125 38.6344L51.7156 38.5938L52.3656 38.1469L53.0562 37.7406L53.5437 37.4562L53.9094 37.2125H54.1937L54.5187 37.4562L54.8437 37.7812L55.1687 38.0656L56.7125 39.6094V39.6906L56.875 39.7719V39.8531L57.0375 39.9344L57.85 40.7469L58.0937 41.1531L58.0531 41.5187L57.5656 42.3312L57.0375 43.2656L56.5906 43.9156L56.225 44.3219L55.8594 44.7687L55.4937 45.0938L55.2094 45.4187L54.8031 45.7844L54.3562 46.15L54.1125 46.3531L54.0312 46.475L54.0719 46.8L54.2344 47.4094L54.7625 49.1562L55.1281 50.2937L55.575 51.7562L56.225 53.7875L56.8344 55.7781L57.2 56.9156L57.6469 58.3375L57.9312 59.3531L58.0125 59.8V60.3281L57.8906 60.6125L57.5656 61.0594L57.0781 61.5875L56.7125 61.9937L56.0625 62.6844L54.8437 63.9031L54.5187 64.1875L53.5031 65H52.2437L51.7969 64.7156L51.1062 64.1875L50.7406 63.7812L50.2937 63.05L49.6437 61.8719L49.1562 61.0187L48.6281 60.0437L48.1 59.1094L47.5312 58.0531L47.0031 57.1187L46.3531 55.9406L45.825 55.0062L45.2156 53.8687L44.85 53.2187L44.2 52.0406L42.9812 49.8469L42.4531 48.8719L41.925 47.9375L41.3156 46.8L40.95 46.15L40.3812 45.1344L39.8531 44.1594L39.325 43.225L38.7156 42.0875L38.3094 41.3562L37.7812 40.3812L37.2531 39.4469L36.7656 38.4719L36.4406 38.025L36.1562 38.1875L35.5875 38.675L35.1 39.1625L34.775 39.4469L34.2062 39.975L33.8812 40.2594L33.3531 40.7875L33.0281 41.0719L32.6219 41.4781L32.175 41.8438L31.7281 42.25L31.2812 42.6156L30.7125 43.1031L30.3875 43.3875L29.8187 43.875L29.25 44.3219L28.6812 44.8094L28.2344 45.175L27.7469 45.5812L26.9344 46.1906L26.2844 46.7188L25.5531 47.2875L25.025 47.6937L24.2531 48.2219L23.8469 48.5062H23.7656L24.2125 49.4406L24.7406 50.375L25.3906 51.5531L26 52.6906L26.4875 53.5844L27.0562 54.6406L27.3812 55.2906L27.6656 55.9812L27.8281 56.6719L27.9094 57.3219V57.85L27.8281 58.7031L27.6656 59.3125L27.3812 59.9625L27.0156 60.5719L26.65 61.0187L26.2437 61.425L25.6344 61.8719L25.2281 62.1562L24.8625 62.3187H24.5781L24.1719 62.1156L23.7656 61.75L23.2781 61.1812L22.8312 60.6125L22.2625 59.9219L21.7344 59.2312L21.2062 58.5812L20.6781 57.8906L20.2312 57.3219L19.825 56.7937L19.3781 56.225L18.85 55.575L18.3219 54.8844L17.8344 54.2344L17.3875 53.7062L17.225 53.6656L16.6562 54.0719L16.1281 54.4375L15.1937 54.925L14.625 55.1281L13.2031 55.4937H12.5531L11.7 55.2906L11.1312 55.0469L10.7656 54.8031L10.3594 54.4375L10.0344 54.0312L9.70937 53.3812L9.54688 52.8125L9.46562 52.2437V51.8375L9.5875 51.1875L9.79062 50.3344L10.1562 49.4812L10.6844 48.6281L11.0906 48.1L11.3344 47.8156L11.2937 47.6125L10.5219 47.0437L9.79062 46.475L8.775 45.6625L8.20625 45.2156L7.6375 44.7281L7.06875 44.2812L6.58125 43.9156L5.89062 43.3469L5.2 42.8187L4.55 42.2906L4.02187 41.8844L3.575 41.5187L2.80312 40.7469L2.6 40.4219L2.64062 40.0969L2.84375 39.6906L3.33125 39.0812L3.53437 38.8375L3.98125 38.4719L4.30625 38.2281L4.95625 37.8625L5.72812 37.5375L6.45937 37.3344L6.9875 37.2531H8.20625L9.01875 37.375L9.87187 37.6187L10.5625 37.9031L11.4969 38.3906L12.1062 38.7562L13.2031 39.3656L14.0969 39.8531L15.275 40.5031L16.2906 41.1125L16.4531 41.0719L16.7781 40.6656L17.0625 40.2594L17.3875 39.8937L17.8344 39.2437L18.1187 38.8781L18.6469 38.2281L19.2156 37.5375L19.6219 37.0094L20.1906 36.2781L20.7188 35.6281L21.0844 35.2219L21.45 34.775L21.9781 34.1656L22.3438 33.7594L22.7094 33.3125L23.1562 32.825L23.5219 32.3781L24.0094 31.8094L24.4969 31.2812L24.7812 30.9562L25.0656 30.6719L25.35 30.3469L26.4875 29.2094L26.8125 28.925L26.975 28.7219V28.6L26.3656 28.2344L25.2687 27.625L23.3187 26.4875L22.2219 25.8781L21.0031 25.2281L20.15 24.7406L18.9719 24.0906L17.9156 23.5219L15.5594 22.2219L14.6656 21.7344L13.4875 21.0844L12.7562 20.6781L11.7406 20.1094L10.5625 19.4594L9.5875 18.9312L8.85625 18.525L6.90625 17.4688L6.05312 16.9812L5.15937 16.4937L4.30625 16.0062L3.33125 15.4781L2.39687 14.95L1.70625 14.5437L1.1375 14.1375L0.609375 13.65L0.365625 13.3656L0.121875 13L0 12.8375V11.4156L0.325 11.0094L0.8125 10.4406L1.42188 9.79062L2.72187 8.49062L3.00625 8.16562L3.53437 7.6375L4.18437 7.15L4.50937 6.9875L4.91562 6.90625L5.85 7.10937L7.02812 7.43437L8.2875 7.8L10.3594 8.45L11.6187 8.85625L17.3062 10.6437L18.0375 10.8875L18.2 10.9281H18.4844L18.7281 10.725L18.9719 10.4L19.175 10.1969L19.5406 9.79062L19.825 9.50625L20.1094 9.18125L20.5969 8.73438L21.0844 8.32812L21.6125 7.92187L22.0594 7.6375L22.9125 7.15L23.6031 6.78437L23.8062 6.825L24.2125 7.15L24.8625 7.75937L25.2687 8.16562L25.5938 8.45L25.8781 8.73438L26.1625 9.05937L27.1375 10.0344L27.4219 10.3594L27.7875 10.9281L27.5437 11.2937L26.975 12.3094L26.6094 12.8375L26.2844 13.2844H26.2031V13.3656L26.3656 13.4062L27.1781 13.7312L29.1687 14.3812L31.525 15.1125L32.7844 15.5187L34.8969 16.1687L36.6437 16.6969L37.6187 16.9812L38.2687 17.2656L38.4312 17.1844L39.2437 16.3719H39.325L39.4062 16.2094L39.65 16.0062L39.9344 15.6812L41.4781 14.1375L41.7625 13.8937L42.0062 13.6094L42.3312 13.325L42.4937 13.1219L42.8187 12.8375L43.1437 12.4719H43.225L43.3062 12.3094L43.6312 12.025L43.9156 11.7L44.2406 11.4156L45.0125 10.6437L45.2969 10.3187L45.6625 9.99375L45.9469 9.66875L46.3125 9.34375L46.5562 9.05937L46.8812 8.775L47.8969 7.75937L48.2219 7.475L48.5469 7.15L48.8719 6.86562L49.4406 6.3375L49.7656 6.05312L51.4719 4.7125L52.2437 4.14375L53.8281 3.0875L54.5594 2.64062L55.4937 2.1125L56.2656 1.70625L57.3625 1.17812L58.5812 0.690625L59.5562 0.365625L60.2469 0.1625L60.4906 0.08125L60.5719 0Z" fill="#DFF3FC"/>
<path d="M62.5217 0H63.2529L63.4561 0.203125L64.0248 0.65L64.2279 0.853125L64.6748 1.34062L64.9998 1.82812V4.10312L64.4311 5.93125L64.1467 6.74375L63.5373 8.08437L62.8467 9.50625L62.2779 10.5219L61.7904 11.2937L60.9779 12.5125L60.4904 13.2031L60.0436 13.7719L59.5154 14.4625L59.1498 14.9094L58.6623 15.4781L58.1748 16.0062L57.8904 16.3312L57.5248 16.7375L57.0779 17.225L56.5092 17.8344L48.7904 25.5531H48.7092L48.6279 25.7156L48.0186 26.2844L47.7748 26.65L47.6936 26.8531L47.8967 27.1781L48.0592 27.7062L48.4248 28.9656L49.6436 32.8656L50.0498 34.125L50.4561 35.5062L51.2686 38.025L51.4311 38.5125L51.5123 38.6344L51.7154 38.5938L52.3654 38.1469L53.0561 37.7406L53.5436 37.4562L53.9092 37.2125H54.1936L54.5186 37.4562L54.8436 37.7812L55.1686 38.0656L56.7123 39.6094V39.6906L56.8748 39.7719V39.8531L57.0373 39.9344L57.8498 40.7469L58.0936 41.1531L58.0529 41.5187L57.5654 42.3312L57.0373 43.2656L56.5904 43.9156L56.2248 44.3219L55.8592 44.7687L55.4936 45.0938L55.2092 45.4187L54.8029 45.7844L54.3561 46.15L54.1123 46.3531L54.0311 46.475L54.0717 46.8L54.2342 47.4094L54.7623 49.1562L55.1279 50.2937L55.5748 51.7562L56.2248 53.7875L56.8342 55.7781L57.1998 56.9156L57.6467 58.3375L57.9311 59.3531L58.0123 59.8V60.3281L57.8904 60.6125L57.5654 61.0594L57.0779 61.5875L56.7123 61.9937L56.0623 62.6844L54.8436 63.9031L54.5186 64.1875L53.5029 65H52.2436L51.7967 64.7156L51.1061 64.1875L50.7404 63.7812L50.2936 63.05L49.6436 61.8719L49.1561 61.0187L48.6279 60.0437L48.0998 59.1094L47.5311 58.0531L47.0029 57.1187L46.3529 55.9406L45.8248 55.0062L45.2154 53.8687L44.8498 53.2187L44.1998 52.0406L42.9811 49.8469L42.4529 48.8719L41.9248 47.9375L41.3154 46.8L40.9498 46.15L40.3811 45.1344L39.8529 44.1594L39.3248 43.225L38.7154 42.0875L38.3092 41.3562L37.7811 40.3812L37.2529 39.4469L36.7654 38.4719L36.4404 38.025L36.1561 38.1875L35.5873 38.675L35.0998 39.1625L34.7748 39.4469L34.2061 39.975L33.8811 40.2594L33.3529 40.7875L33.0279 41.0719L32.6217 41.4781L32.1748 41.8438L31.7279 42.25L31.2811 42.6156L30.7123 43.1031L30.3873 43.3875L29.8186 43.875L29.2498 44.3219L28.6811 44.8094L28.2342 45.175L27.7467 45.5812L26.9342 46.1906L26.2842 46.7188L25.5529 47.2875L25.0248 47.6937L24.2529 48.2219L23.8467 48.5062H23.7654L24.2123 49.4406L24.7404 50.375L25.3904 51.5531L25.9998 52.6906L26.4873 53.5844L27.0561 54.6406L27.3811 55.2906L27.6654 55.9812L27.8279 56.6719L27.9092 57.3219V57.85L27.8279 58.7031L27.6654 59.3125L27.3811 59.9625L27.0154 60.5719L26.6498 61.0187L26.2436 61.425L25.6342 61.8719L25.2279 62.1562L24.8623 62.3187H24.5779L24.1717 62.1156L23.7654 61.75L23.2779 61.1812L22.8311 60.6125L22.2623 59.9219L21.7342 59.2312L21.2061 58.5812L20.6779 57.8906L20.2311 57.3219L19.8248 56.7937L19.3779 56.225L18.8498 55.575L18.3217 54.8844L17.8342 54.2344L17.3873 53.7062L17.2248 53.6656L16.6561 54.0719L16.1279 54.4375L15.1936 54.925L14.6248 55.1281L13.2029 55.4937H12.5529L11.6998 55.2906L11.1311 55.0469L10.7654 54.8031L10.3592 54.4375L10.0342 54.0312L9.70918 53.3812L9.62793 53.1375V52.8937L9.83105 52.9344L9.95293 53.0969L10.1561 53.0562L10.5623 52.8531L11.0904 52.65L11.2936 52.4469L11.5779 52.0812H11.6592L11.7404 51.9187L11.8217 51.7156L12.0248 51.5125L12.1873 51.2687H12.2686L12.3498 51.0656L12.5123 50.8625H12.5936L12.6748 50.7L12.8373 50.5375H12.9186L12.9998 50.375L13.1623 50.1719H13.2436L13.3248 50.0094H13.4061L13.4467 49.8875L13.6904 49.6844L13.8123 49.5219H13.8936L13.9748 49.3594H14.0561L14.0967 49.2375L14.3404 49.0344L14.6248 48.7094L14.7467 48.5875H14.8279L14.9092 48.425L15.0311 48.3844L15.1123 48.2219L15.5998 47.7344L15.7217 47.5719H15.8029L15.8842 47.4094H15.9654L16.0467 47.2469H16.1279L16.2092 47.0844L16.3717 46.8812L16.6967 46.5969H16.7779L16.8592 46.3937H16.9404V46.3125H17.0217V46.2312H17.1029L17.1842 46.0687H17.2654L17.3467 45.9062L18.5248 44.7281H18.6061L18.6873 44.5656H18.7686L18.8498 44.4031L19.1342 44.1187L19.4592 43.8344L19.5404 43.7125H19.6217L19.6623 43.5906L20.1092 43.2656L20.3123 43.0625L20.5154 42.9406L20.9217 42.8187H21.2467L21.6123 43.1844V43.3062H21.6936V43.3875H21.7748V43.4688H21.8561L21.8967 43.6719L22.0592 43.7531L22.1811 43.875L22.2217 43.9969L22.3842 44.0781H22.7904L23.0342 43.9562L23.4404 43.7125L23.5623 43.6312H23.6842V43.55L24.4561 42.9812L25.0654 42.575L25.5936 42.1687L26.2029 41.6812H26.2842V41.6H26.3654V41.5187L26.5279 41.4375L26.7311 41.2344L27.1373 40.9094L27.3811 40.7062H27.4623V40.625L28.1123 40.1375L28.5592 39.7312L28.9248 39.4469L29.0873 39.2844H29.1686L29.2498 39.1219H29.3311V39.0406L29.6561 38.7562L30.2654 38.1875L30.7123 37.7812L31.0373 37.4969L31.8092 36.725H31.8904L31.9717 36.5625L32.1748 36.4L32.3779 36.1969L32.7029 35.9125L32.9061 35.7094L33.2311 35.3438H33.3123V35.2625H33.3936L33.4748 35.1H33.5561L33.5967 34.9781L33.8404 34.775L33.8811 34.6937H33.9623V34.6125L34.2467 34.3687L34.2873 34.2875H34.3686L34.4498 34.125L34.6123 34.0437V33.9625L34.8967 33.7188L36.4404 32.175H36.5217V32.0938H36.6029V32.0125H36.6842L36.7248 31.8906L36.9279 31.6875L37.0904 31.6062V31.525L37.3342 31.3219L37.4154 31.2H37.4967V31.1187H37.5779V31.0375H37.6592L37.7404 30.875L38.0654 30.5906L38.3904 30.225H38.4717V30.1437H38.5529V30.0625H38.6342L38.7154 29.9H38.7967V29.8187H38.8779V29.7375H38.9592L39.0404 29.575L39.2029 29.4937L39.2842 29.3312H39.3654L39.4467 29.1687H39.5279V29.0875H39.6092L39.6904 28.925L40.0154 28.6H40.0967L40.1779 28.4375L40.4217 28.2344L40.7061 27.9094L40.9092 27.7062L41.0717 27.625V27.5437L41.3967 27.2594L41.5998 27.0156L41.8436 26.8125L42.0467 26.6094L42.5342 26.0812L42.8186 25.7562L42.9811 25.5938H43.0623L43.1436 25.4312H43.2248L43.3061 25.2687L43.5092 25.025H43.5904V24.9437L43.9154 24.7L43.9561 24.6187H44.0373V24.5375L44.1998 24.375H44.2811V24.2937L44.6061 24.0094L45.7436 22.8719L45.9061 22.7906L45.9873 22.6281L46.1092 22.5062H46.1904L46.2717 22.3438L47.8561 20.7594L47.9779 20.7188L48.0592 20.5562L49.7654 18.85L49.9686 18.6062L50.2529 18.3625L50.5373 18.0375L50.7404 17.875L50.8623 17.7125H50.9436L51.0248 17.55L51.3092 17.225H51.3904L51.4717 17.0625L54.6404 13.8937H54.7217V13.8125L55.0467 13.5281L55.1686 13.4875L55.2498 13.325L55.6561 12.9594H55.7779L55.5342 12.6344L55.1279 12.2281L54.8029 11.9437L54.1529 11.2937L53.8279 11.0094V10.9281H53.7467L53.4623 10.6031L52.9342 10.075L52.6498 9.75L52.2029 9.2625L51.8373 8.81562L51.3092 8.16562L51.0654 7.84062L50.7811 7.475L50.6998 7.27187V6.90625L50.8217 6.70312L51.5123 6.21562L51.9592 5.85H52.6498L53.3404 6.13437L54.0311 6.5L54.7623 6.9875L55.4936 7.55625L55.8998 7.92187L56.5092 8.49062L56.7936 8.81562L57.0779 9.1V9.18125H57.1592L57.4436 9.50625L57.4842 9.62812H57.5654L58.0123 10.1969L58.1342 10.2375L58.1748 10.0344L58.3373 9.62812L58.5811 9.14062L58.7842 8.69375L59.1498 8.08437L59.3936 7.6375L59.7592 6.94687L60.1248 6.29688L60.6529 5.15937L60.9779 4.42812L61.5873 2.80312L61.8311 2.1125L61.9936 1.70625L62.4811 0.24375L62.5217 0Z" fill="#C6D1D9"/>
<path d="M23.6031 6.78442L23.8062 6.82505L24.2125 7.15005L24.8625 7.75942L25.2687 8.16567L25.5938 8.45005L25.8781 8.73442L26.1625 9.05942L27.1375 10.0344L27.4219 10.3594L27.7875 10.9282L27.5437 11.2938L26.975 12.3094L26.6094 12.8375L26.2844 13.2844H26.2031V13.3657L26.3656 13.4063L27.1781 13.7313L29.1687 14.3813L31.525 15.1125L32.7844 15.5188L34.8969 16.1688L36.6437 16.6969L37.6187 16.9813L38.1469 17.225L38.0656 17.4688L37.7406 17.9157L37.375 18.3219L36.9688 18.7688L36.6437 19.0532L34.2469 21.45L33.9219 21.7344L30.6719 24.9844L30.4687 25.2282L30.1844 25.4719L29.9 25.7969L29.6156 26.0407L28.4375 27.2188L28.1125 27.5032L27.5437 28.0719L26.975 28.4375L26.7719 28.4782L26.0812 28.0719L24.9844 27.4625L23.3187 26.4876L22.2219 25.8782L21.0031 25.2282L20.15 24.7407L18.9719 24.0907L17.9156 23.5219L15.5594 22.2219L14.6656 21.7344L13.4875 21.0844L12.7562 20.6782L11.7406 20.1094L10.5625 19.4594L9.5875 18.9313L8.85625 18.525L6.90625 17.4688L6.05312 16.9813L5.15937 16.4938L4.30625 16.0063L3.33125 15.4782L2.39687 14.95L1.70625 14.5438L1.1375 14.1375L0.609375 13.65L0.365625 13.3657L0.121875 13L0 12.8375V11.4157L0.325 11.0094L0.8125 10.4407L1.42188 9.79067L2.72187 8.49067L3.00625 8.16567L3.53437 7.63755L4.18437 7.15005L4.50937 6.98755L4.91562 6.9063L5.85 7.10942L7.02812 7.43442L8.2875 7.80005L10.3594 8.45005L11.6187 8.8563L17.3062 10.6438L18.0375 10.8875L18.2 10.9282H18.4844L18.7281 10.725L18.9719 10.4L19.175 10.1969L19.5406 9.79067L19.825 9.5063L20.1094 9.1813L20.5969 8.73442L21.0844 8.32817L21.6125 7.92192L22.0594 7.63755L22.9125 7.15005L23.6031 6.78442Z" fill="#8C8A8A"/>
<path d="M47.6126 26.8938L47.7751 26.9344L47.9782 27.3813L48.2626 28.4375L48.8313 30.2657L49.6438 32.8657L50.0501 34.125L50.4563 35.5063L51.2688 38.025L51.4313 38.5125L51.5126 38.6344L51.7157 38.5938L52.3657 38.1469L53.0563 37.7407L53.5438 37.4563L53.9095 37.2125H54.1938L54.5188 37.4563L54.8438 37.7813L55.1688 38.0657L56.7126 39.6094V39.6907L56.8751 39.7719V39.8532L57.0376 39.9344L57.8501 40.7469L58.0938 41.1532L58.0532 41.5188L57.5657 42.3313L57.0376 43.2657L56.5907 43.9157L56.2251 44.3219L55.8595 44.7688L55.4938 45.0938L55.2095 45.4188L54.8032 45.7844L54.3563 46.15L54.1126 46.3532L54.0313 46.475L54.072 46.8001L54.2345 47.4094L54.7626 49.1563L55.1282 50.2938L55.5751 51.7563L56.2251 53.7875L56.8345 55.7782L57.2001 56.9157L57.647 58.3376L57.9313 59.3532L58.0126 59.8V60.3282L57.8907 60.6125L57.5657 61.0594L57.0782 61.5876L56.7126 61.9938L56.0626 62.6844L54.8438 63.9032L54.5188 64.1875L53.5032 65H52.2438L51.797 64.7157L51.1063 64.1875L50.7407 63.7813L50.2938 63.0501L49.6438 61.8719L49.1563 61.0188L48.6282 60.0438L48.1001 59.1094L47.5313 58.0532L47.0032 57.1188L46.3532 55.9407L45.8251 55.0063L45.2157 53.8688L44.8501 53.2188L44.2001 52.0407L42.9813 49.8469L42.4532 48.8719L41.9251 47.9375L41.3157 46.8001L40.9501 46.15L40.3813 45.1344L39.8532 44.1594L39.3251 43.225L38.7157 42.0875L38.3095 41.3563L37.7813 40.3813L37.2532 39.4469L36.7657 38.4719L36.522 38.1063L36.5626 37.8625L36.7657 37.5782H36.847L36.9282 37.4157L37.2938 37.0094H37.3751L37.4563 36.8469H37.5376L37.6188 36.6844L38.2282 36.0344L38.8782 35.3438L39.1626 35.0594L39.3657 34.8157L39.6907 34.5313L45.8251 28.3969L46.1501 28.1125L46.5563 27.7063H46.6376V27.625L47.0845 27.2594L47.4907 26.975L47.6126 26.8938Z" fill="#8C8A8A"/>
<path d="M23.7656 48.7906H23.8875L24.4563 49.8875L24.9844 50.8219L25.5938 51.9188L26.0813 52.8531L26.4469 53.5031L27.0563 54.6406L27.3813 55.2906L27.6656 55.9813L27.8281 56.6719L27.9094 57.3219V57.85L27.8281 58.7031L27.6656 59.3125L27.3813 59.9625L27.0156 60.5719L26.65 61.0188L26.2438 61.425L25.6344 61.8719L25.2281 62.1563L24.8625 62.3188H24.5781L24.1719 62.1156L23.7656 61.75L23.2781 61.1813L22.8313 60.6125L22.2625 59.9219L21.7344 59.2313L21.2063 58.5813L20.6781 57.8906L20.2313 57.3219L19.825 56.7938L19.3781 56.225L18.85 55.575L18.3219 54.8844L17.8344 54.2344L17.4688 53.7875L17.5094 53.625L17.875 53.2188L18.0781 53.0156L18.4438 52.6906L18.8906 52.325L19.5406 51.7969L20.3125 51.2281L20.8406 50.8219L21.2063 50.5375H21.2875L21.3281 50.4156L21.775 50.0906L22.425 49.6031L22.7906 49.4L23.3188 49.0344L23.7656 48.7906Z" fill="#8C8A8A"/>
<path d="M6.9876 37.2532H8.20635L9.01885 37.375L9.87197 37.6188L10.5626 37.9032L11.497 38.3907L12.1063 38.7563L13.2032 39.3657L14.097 39.8532L15.2751 40.5032L16.2907 41.1125L16.3313 41.275L15.9251 41.7219L15.6813 42.0875L15.397 42.4532L14.9501 43.0625L14.6251 43.5094L14.3407 43.875L14.0157 44.2813L13.6907 44.6469L13.447 45.0125L13.0407 45.5L12.7157 45.9469L12.4313 46.2719L12.1063 46.7188L11.7407 47.125L11.3345 47.5719L11.172 47.5313L10.6438 47.125L9.99385 46.6375L9.54697 46.2719L9.01885 45.8657L8.36885 45.3375L7.92197 44.9719L7.23135 44.4032L6.58135 43.9157L5.89072 43.3469L5.2001 42.8188L4.5501 42.2907L4.02197 41.8844L3.5751 41.5188L2.80322 40.7469L2.6001 40.4219L2.64072 40.0969L2.84385 39.6907L3.33135 39.0813L3.53447 38.8375L3.98135 38.4719L4.30635 38.2282L4.95635 37.8625L5.72822 37.5375L6.45947 37.3344L6.9876 37.2532Z" fill="#8C8A8A"/>
<path d="M23.6031 6.78442L23.8063 6.82505L24.2125 7.15005L24.8625 7.75942L25.2688 8.16567L25.5938 8.45005L25.8781 8.73442L26.1625 9.05942L27.1375 10.0344L27.4219 10.3594L27.7875 10.9282L27.5438 11.2938L26.975 12.3094L26.6094 12.8375L26.2844 13.2844H26.2031L26.1625 13.3657L25.7969 13.2438L23.5625 12.5938L22.7906 12.35L21.9375 12.1063L20.5156 11.6594L19.4188 11.2938L18.6063 11.0094L18.4844 10.9282L18.7281 10.725L18.9719 10.4L19.175 10.1969L19.5406 9.79067L19.825 9.5063L20.1094 9.1813L20.5969 8.73442L21.0844 8.32817L21.6125 7.92192L22.0594 7.63755L22.9125 7.15005L23.6031 6.78442Z" fill="#C6D1D9"/>
<path d="M53.9093 37.2125H54.1937L54.5187 37.4563L54.8437 37.7813L55.1687 38.0656L56.7124 39.6094V39.6906L56.8749 39.7719V39.8531L57.0374 39.9344L57.8499 40.7469L58.0937 41.1531L58.053 41.5188L57.5655 42.3313L57.0374 43.2656L56.5905 43.9156L56.2249 44.3219L55.8593 44.7688L55.4937 45.0938L55.2093 45.4188L54.803 45.7844L54.3562 46.15L54.1124 46.3532L54.0312 46.4344L53.4624 44.8906L53.0968 43.7125L52.6905 42.4531L52.2437 40.9906L51.9593 40.0156L51.7968 39.325L51.6343 38.7563V38.6344L52.3655 38.1469L53.0562 37.7406L53.5437 37.4563L53.9093 37.2125Z" fill="#C6D1D9"/>
<path d="M51.9596 5.84998H52.6502L53.3408 6.13435L54.0314 6.49998L54.7627 6.98748L55.4939 7.55623L55.9002 7.92185L56.5096 8.4906L56.7939 8.8156L57.0783 9.09998V9.18123H57.1596L57.4439 9.50623L57.4846 9.6281H57.5658L58.0127 10.1969L58.2971 10.6437L58.6627 11.2531L58.9877 11.9844L59.0689 12.2687V12.675L58.9064 13.1219L58.5814 13.5281L58.2564 13.8125L57.8502 14.0156H57.5658L56.9158 13.6906L56.3064 13.2844L55.7377 12.8781L55.3721 12.4719L54.6814 11.8219L54.1533 11.2937L53.8283 11.0094V10.9281H53.7471L53.4627 10.6031L52.9346 10.075L52.6502 9.74998L52.2033 9.26248L51.8377 8.8156L51.3096 8.1656L51.0658 7.8406L50.7814 7.47498L50.7002 7.27185V6.90623L50.8221 6.7031L51.5127 6.2156L51.9596 5.84998Z" fill="#49C4FF"/>
<path d="M20.9624 42.9812L21.2874 43.0625L21.6937 43.5093L21.9374 43.9156L21.8968 44.1593L21.6937 44.4437H21.6124L21.5312 44.6468L21.0437 45.175L20.7593 45.5L20.5562 45.7031H20.4749L20.3937 45.8656L20.0687 46.15L18.8905 47.3281L18.6062 47.6531L16.3718 49.8875L16.2093 50.0906L15.9249 50.3343L15.7218 50.5781L15.5593 50.7406H15.478V50.8218H15.3968L15.3155 50.9843L15.1124 51.1468L13.853 52.4062L13.4062 52.7718L12.9999 53.1375L12.6343 53.3L12.3905 53.2593L11.9843 53.0562L11.6593 52.65L11.6187 52.5687V52.2437L11.903 51.7968L12.3499 51.3093L12.6343 50.9843L12.9999 50.6593L13.2843 50.3343L16.6562 46.9625L16.9812 46.6781L17.2655 46.3531L17.5905 46.0687L18.0374 45.5812L18.8905 44.7281L19.1749 44.4031L19.9062 43.6718L20.2312 43.4281L20.5155 43.1843L20.7999 43.0218L20.9624 42.9812Z" fill="#FB3262"/>
<path d="M54.0721 14.3812L54.1533 14.4219L51.4314 17.1437L51.3908 17.225H51.3096L51.2283 17.3875L50.9439 17.7125L50.6189 17.9969L50.3752 18.2812H50.2939L50.2127 18.4437H50.1314L50.0502 18.6062H49.9689L49.8877 18.7687H49.8064L49.7252 18.9312L48.4252 20.2312H48.3439L48.2627 20.3937H48.1814L48.1002 20.5562L45.6627 22.9937H45.5814L45.5002 23.1562L44.3627 24.2937H44.2814V24.375H44.2002L44.1189 24.5375H44.0377V24.6187H43.9564L43.8752 24.7812L43.6721 24.9437H43.5908V25.025H43.5096L43.4283 25.1875L43.2252 25.4312L43.0627 25.5937H42.9814L42.9002 25.7562H42.8189L42.7377 25.9187L42.2502 26.4062L42.0471 26.65L41.6814 27.0156H41.6002L41.5596 27.1375H41.4783L41.3971 27.3L41.1533 27.5437H41.0721V27.625L40.8689 27.8281L40.5033 28.1531L40.3002 28.3562L40.0971 28.6L39.7721 28.8844L39.6096 29.0875H39.5283V29.1687L39.2439 29.4125L39.0408 29.6156L38.9596 29.7375H38.8783V29.8187H38.7971V29.9L38.6346 30.0625H38.5533V30.1437H38.4721V30.225L38.2689 30.3875L38.0252 30.6719L37.7002 30.9562L37.6596 31.0375H37.5783V31.1187H37.4971V31.2L37.1721 31.525H37.0908V31.6062L36.6846 32.0125H36.6033V32.0937H36.5221V32.175L36.1971 32.4594L35.2627 33.3937H35.1814L35.1002 33.5562L34.9377 33.6375L34.8564 33.8L34.6939 33.9625H34.6127V34.0437L34.4096 34.2062L34.3689 34.2875H34.2877L34.2064 34.45L34.0439 34.6125H33.9627V34.6937H33.8814L33.8408 34.8156L33.5971 35.0187L33.3939 35.2625H33.3127V35.3437L33.1096 35.5062L32.9064 35.75L32.7033 35.9531L32.2564 36.3187L32.0939 36.5219L31.7689 36.8062L30.9564 37.6187L30.6314 37.9031L30.1439 38.35L29.5752 38.8781H29.4939L29.4127 39.0406H29.3314V39.1219L29.0471 39.3656H28.9658L28.8846 39.5281L28.4377 39.8937L27.9096 40.3406L27.5439 40.625H27.4627V40.7062L26.9346 41.1125L26.6096 41.3562L26.4877 41.5187H26.3658V41.6H26.2846V41.6812L25.9189 41.9656L25.3908 42.3719L24.9439 42.6969L24.2939 43.1437L23.7658 43.55H23.6846V43.6312L23.4408 43.7531L23.0346 43.9969L22.7908 44.1187H22.3846L22.1814 43.9969L22.1408 43.7937L21.9783 43.7125L21.8564 43.5906L21.9377 43.55V43.6312L22.1002 43.7125L22.2221 43.8344L22.5064 43.875L22.8721 43.7531L23.2783 43.55L23.7252 43.2656L24.1314 42.9406L24.9033 42.3719L25.3096 42.0469H25.3908V41.9656L25.8377 41.6406L26.2846 41.2344L26.7314 40.8687L27.2189 40.5031L27.5846 40.1781H27.6658V40.0969L27.8689 40.0156V39.9344L28.3158 39.5687L28.8033 39.1219L29.1283 38.8375H29.2096L29.2908 38.675L29.4533 38.5531H29.5346V38.4719L29.9814 38.1062L30.4283 37.7L30.8752 37.3344L30.9564 37.2125H31.0377V37.1312L31.2408 36.9687L31.3221 36.8469H31.4033V36.7656L31.7283 36.4812L32.2971 35.9125H32.3783L32.4596 35.75L33.0283 35.2625L33.3127 34.9375L33.5971 34.6937L33.8814 34.3687L34.2064 34.0031H34.2877L34.3689 33.8406L34.5721 33.5969H34.6533V33.5156H34.7346V33.4344H34.8158V33.3531H34.8971L34.9783 33.1906L36.5221 31.6469H36.6033V31.5656H36.6846L36.7658 31.4031L36.9283 31.3219V31.2406H37.0096V31.1594H37.0908V31.0781H37.1721V30.9969H37.2533V30.9156L37.5783 30.6312L38.5533 29.6562H38.6346V29.575L38.9189 29.3312L40.0971 28.1531H40.1783L40.2596 27.9906L40.5439 27.7062H40.6252L40.7064 27.5437L41.0314 27.2187H41.1127L41.1939 27.0562L41.6002 26.65H41.6814L41.7627 26.4875L42.1689 26.0812L42.3314 25.8781H42.4127V25.7969L42.6564 25.5937L42.9408 25.2687L43.8346 24.375L44.1596 24.0906L44.5252 23.725L44.8502 23.4406L45.1346 23.1562L45.4596 22.8719L45.6627 22.6687H45.7439L45.8252 22.5062L45.9877 22.3437H46.0689L46.1502 22.1812L46.2721 22.0594H46.3533L46.4346 21.8969L46.5971 21.7344H46.6783L46.7596 21.5719L46.8814 21.5312L46.9221 21.4094H47.0033V21.3281H47.0846V21.2469L47.4096 20.9625L47.5721 20.7594L47.7346 20.7187L47.8158 20.5562L48.2627 20.1094H48.3439V20.0281H48.4252L48.4658 19.9062L48.6689 19.7437L49.5221 18.8906H49.6033L49.6846 18.7281L49.8471 18.5656H49.9283L50.0096 18.4031L51.3908 17.0219H51.4721L51.5533 16.8594H51.6346V16.7781H51.7158V16.6969L51.8783 16.5344H51.9596V16.4531L52.1627 16.2906L52.3658 16.0875L54.0721 14.3812Z" fill="#D3E3EC"/>
<path d="M20.922 42.8187H21.247L21.6126 43.1844V43.3062H21.6938V43.3875H21.7751V43.4687H21.8563L22.0188 43.7937L22.1001 43.9969L21.9376 44.3219L21.6938 44.6469H21.6126L21.5313 44.8094L21.2876 45.0937H21.2063L21.1251 45.2562L19.7032 46.6781L19.4595 46.9625H19.3782L19.297 47.125L18.0376 48.3844L17.997 48.4656H17.9157V48.5469H17.8345V48.6281H17.7532L17.672 48.7906L17.5095 48.9531H17.4282L17.347 49.1156L17.1845 49.2781H17.1032L17.022 49.4406H16.9407L16.8595 49.6031H16.7782L16.697 49.7656L15.4782 50.9844L15.4376 51.0656H15.3563L15.2751 51.2281L15.1532 51.2687V51.35L14.8282 51.6343L14.1782 52.2437L13.7313 52.6094L13.2845 53.0156L13.0001 53.2187L12.6345 53.3812L12.3907 53.3406L11.9438 53.0969L11.6595 52.7719L11.5376 52.5687V52.2844L11.822 51.7156L12.0251 51.5125L12.1876 51.2687H12.2688L12.3501 51.0656L12.5126 50.8625H12.5938L12.6751 50.7L12.8376 50.5375H12.9188L13.0001 50.375L13.1626 50.1719H13.2438L13.3251 50.0094H13.4063L13.447 49.8875L13.6907 49.6844L13.8126 49.5219H13.8938L13.9751 49.3594H14.0563L14.097 49.2375L14.3407 49.0344L14.6251 48.7094L14.747 48.5875H14.8282L14.9095 48.425L15.0313 48.3844L15.1126 48.2219L15.6001 47.7344L15.722 47.5719H15.8032L15.8845 47.4094H15.9657L16.047 47.2469H16.1282L16.2095 47.0844L16.372 46.8812L16.697 46.5969H16.7782L16.8595 46.3937H16.9407V46.3125H17.022V46.2312H17.1032L17.1845 46.0687H17.2657L17.347 45.9062L18.5251 44.7281H18.6063L18.6876 44.5656H18.7688L18.8501 44.4031L19.1345 44.1187L19.4595 43.8344L19.5407 43.7125H19.622L19.6626 43.5906L20.1095 43.2656L20.3126 43.0625L20.5157 42.9406L20.922 42.8187ZM20.9626 42.9812L20.6376 43.1031L20.272 43.3875L19.9876 43.6312L19.6626 43.9156L18.9313 44.6469L18.647 44.9719L17.7126 45.9062L17.4282 46.2312L17.1032 46.5156L16.8188 46.8406L16.3313 47.2875L13.0407 50.5781L12.8782 50.7812L12.5532 51.0656L12.0251 51.6343L11.7407 52.0406L11.6188 52.2437V52.5687L11.9438 53.0156L12.1876 53.1781L12.472 53.3L12.7563 53.2593L13.0813 53.0562L13.6907 52.5281L14.1782 52.0812L14.9907 51.2687L15.3157 50.9844L15.397 50.8218H15.4782V50.7406H15.5595L15.8032 50.4562L16.047 50.2531L16.3313 49.9281L16.5345 49.7656L16.8188 49.4406L18.8501 47.4094L19.1345 47.0844L20.1907 46.0281L20.4751 45.7844V45.7031L20.597 45.6625L20.8813 45.3375L21.3688 44.85L21.6126 44.525V44.4437H21.6938L21.9376 44.0781L21.897 43.8344L21.6532 43.4687L21.2876 43.0625L20.9626 42.9812Z" fill="#D7B9C3"/>
<path d="M20.9624 42.9812L21.2874 43.0625L21.6937 43.5093L21.9374 43.9156L21.8968 44.1593L21.6937 44.4437H21.6124L21.5312 44.6468L21.0437 45.175L20.7593 45.5L20.5562 45.7031H20.4749L20.3937 45.8656L20.0687 46.15L18.8905 47.3281L18.6062 47.6531L16.3718 49.8875L16.2093 50.0906L15.9249 50.3343L15.7218 50.5781L15.5593 50.7406H15.478V50.8218H15.3968L15.3155 50.9843L15.1124 51.1468L13.853 52.4062L13.4062 52.7718L12.9999 53.1375L12.6343 53.3L12.3905 53.2593L11.9843 53.0562L11.6593 52.65L11.6187 52.5687V52.2437L11.903 51.7968L12.3499 51.3093L12.6343 50.9843L12.9999 50.6593L13.2843 50.3343L16.6562 46.9625L16.9812 46.6781L17.2655 46.3531L17.5905 46.0687L18.0374 45.5812L18.8905 44.7281L19.1749 44.4031L19.9062 43.6718L20.2312 43.4281L20.5155 43.1843L20.7999 43.0218L20.9624 42.9812ZM20.7593 43.1843L20.4343 43.4281L20.2312 43.6312V43.7125L20.028 43.7937L19.7843 43.9968L19.4999 44.3218L19.1343 44.6062L19.053 44.7687L18.728 45.0531L18.4437 45.3375L18.2405 45.5812L17.9155 45.8656L17.5905 46.2312L17.2655 46.5156L16.8999 46.9218L16.5749 47.2062L16.453 47.3281V47.4093L16.3312 47.45V47.5312L16.1687 47.6125L15.8843 47.8562L15.5999 48.1812L15.1937 48.5468L14.9093 48.8718L14.5843 49.1562L14.2999 49.4812L14.0968 49.6437V49.725L13.9343 49.8062L13.7312 50.05V50.1312H13.6499V50.2125L13.4874 50.2937L13.2843 50.4562L13.1218 50.7L12.5124 51.2687L11.903 51.8781L11.7405 52.2437L11.6999 52.4875L12.0249 52.9343L12.3093 53.1375H12.878L13.2843 52.8125L13.4874 52.5687L13.8124 52.2843L14.7062 51.3906V51.3093H14.7874V51.2281L14.9499 51.1468L15.5999 50.4968V50.4156H15.6812V50.3343L15.8437 50.2531L16.0874 50.0093V49.9281L16.2499 49.8468L16.7374 49.3593V49.2781L16.8999 49.1968L17.1437 48.9937L17.428 48.6687L19.3374 46.7593V46.6781L19.4593 46.6375L19.6624 46.3937L19.9468 46.15L20.1499 45.9468V45.8656L20.2718 45.825L20.4749 45.6218V45.5406L20.6374 45.4593L20.9218 45.1343V45.0531L21.0843 44.9718L21.3687 44.6468L21.4499 44.4843L21.4093 44.3625L21.4905 44.3218L21.3687 44.2406L21.328 44.1187L21.2062 43.9968H21.0843L21.1249 43.875L21.0437 43.7125L21.0843 43.55H20.9624L20.9218 43.3468V43.225L20.7593 43.1843Z" fill="#8C8A8A"/>
<path d="M47.0439 27.2188L47.1252 27.2594L46.7189 27.625H46.6377V27.7063L46.3127 27.9906L45.9064 28.3969L45.5814 28.6813L42.0471 32.2156H41.9658L41.8846 32.3781L39.4471 34.8156H39.3658L39.2846 34.9781H39.2033L39.1221 35.1406L38.5533 35.7094L38.2689 36.0344L37.9033 36.4L37.6189 36.725L37.3752 37.0094L37.0908 37.2531L36.8471 37.5781H36.7658L36.5221 38.0656L36.4814 37.9031L36.7252 37.5375L37.1721 37.05L37.5377 36.6031L37.7002 36.4L37.9033 36.1969L38.3096 35.75L38.6752 35.3031L38.8783 35.1H38.9596L39.0408 34.9375L39.2033 34.7344L39.5283 34.45L39.8127 34.125L40.1377 33.8H40.2189L40.3002 33.6375L41.1533 32.7844L41.4783 32.5L42.1283 31.85H42.2096L42.2908 31.6875H42.3721L42.4127 31.5656L42.7377 31.2812L43.1033 30.9156H43.1846L43.2658 30.7531L43.5096 30.55L43.7127 30.3063L43.9971 30.0625L44.6877 29.3719L45.0127 29.0875L45.5002 28.6L45.8252 28.3156L46.4346 27.7469L46.8814 27.3406L47.0439 27.2188Z" fill="#D8B9C3"/>
<path d="M46.8813 27.4219L46.9626 27.4625L46.597 27.8281L46.3938 28.0719H46.3126V28.1531H46.2313V28.2344L45.9063 28.5188L45.7438 28.6L45.6626 28.7625L45.3376 29.0875H45.2563L45.1751 29.25H45.0938L45.0126 29.4125H44.9313L44.8501 29.575L44.6876 29.7375H44.6063L44.5251 29.9H44.4438L44.3626 30.0625L43.1438 31.2813L42.8595 31.6063L42.4938 31.9313L42.4532 32.0531L42.047 32.3781L41.9251 32.5406H41.8438L41.8032 32.7031L41.4782 32.9875H41.397L41.3157 33.15L41.1532 33.3531H41.072L40.9907 33.5156L40.7063 33.7594L40.5032 34.0031H40.422L40.3813 34.125L40.0563 34.4094L39.8532 34.6531L39.6501 34.8156L39.5282 34.9375H39.447L39.3657 35.1406L39.122 35.3438L38.8782 35.6281L38.5938 35.8719L38.3907 36.1156H38.3095L38.2282 36.2781L37.9438 36.5219L37.7407 36.7656H37.6595L37.5782 36.9688L37.2126 37.2531L37.0501 37.4969H36.9688L36.8876 37.6594L36.6845 37.8625L36.5626 38.1063L36.522 37.9438L36.7657 37.5781H36.847L36.9282 37.4156L37.2938 37.0094H37.3751L37.4563 36.8469H37.5376L37.6188 36.6844L38.2282 36.0344L38.8782 35.3438L39.1626 35.0594L39.3657 34.8156L39.6907 34.5313L45.8251 28.3969L46.1501 28.1125L46.5563 27.7063H46.6376V27.625L46.8813 27.4219Z" fill="#8C8A8A"/>
<path d="M20.922 42.8187H21.247L21.6126 43.1844L21.572 43.3062L21.3282 43.0219L21.2063 42.9406H20.922L20.4345 43.1437L20.0688 43.4687L19.7438 43.7531L18.8095 44.6875L18.7688 44.7687H18.6876L18.6063 44.9312L18.2001 45.3375L17.997 45.5812L17.7126 45.825L17.4688 46.1094L17.1438 46.3937L16.9813 46.5969L16.7376 46.8L13.1626 50.375L13.0813 50.4969H13.0001L12.9188 50.6594L12.7563 50.8219H12.6751L12.5938 50.9844H12.5126L12.4313 51.1469L12.1876 51.4312L12.147 51.35L12.1876 51.2687H12.2688L12.3501 51.0656L12.5126 50.8625H12.5938L12.6751 50.7L12.8376 50.5375H12.9188L13.0001 50.375L13.1626 50.1719H13.2438L13.3251 50.0094H13.4063L13.447 49.8875L13.6907 49.6844L13.8126 49.5219H13.8938L13.9751 49.3594H14.0563L14.097 49.2375L14.3407 49.0344L14.6251 48.7094L14.747 48.5875H14.8282L14.9095 48.425L15.0313 48.3844L15.1126 48.2219L15.6001 47.7344L15.722 47.5719H15.8032L15.8845 47.4094H15.9657L16.047 47.2469H16.1282L16.2095 47.0844L16.372 46.8812L16.697 46.5969H16.7782L16.8595 46.3937H16.9407V46.3125H17.022V46.2312H17.1032L17.1845 46.0687H17.2657L17.347 45.9062L18.5251 44.7281H18.6063L18.6876 44.5656H18.7688L18.8501 44.4031L19.1345 44.1187L19.4595 43.8344L19.5407 43.7125H19.622L19.6626 43.5906L20.1095 43.2656L20.3126 43.0625L20.5157 42.9406L20.922 42.8187Z" fill="#C6D1D9"/>
<path d="M51.4312 38.5938L51.6343 38.675L51.7968 39.1219L51.9593 39.8531L52.2437 40.9094L52.5687 41.925L53.0968 43.5906L53.4624 44.7281L53.7468 45.5406L54.0312 46.3125L53.9905 46.5969H53.9499L53.8687 46.2313L53.5843 45.5406L53.4624 45.2156L53.2999 44.7688L53.1374 44.2406L53.0968 44.0375L53.1374 43.9563H53.0562L52.8937 43.4281L52.6905 42.8188L52.5687 42.4938V42.3719H52.4874L52.3655 41.8031L52.2843 41.7625L52.3249 41.6406L52.1624 41.2344L52.0405 40.7875L51.8374 40.1781L51.7968 40.0969L51.7562 39.7313L51.6343 39.5688L51.5937 39.325L51.6343 39.2438L51.5937 39.0406L51.4718 39L51.4312 38.675V38.5938Z" fill="#F76589"/>
<path d="M18.2407 10.9688H18.6063L19.4188 11.2531L20.8813 11.7406L22.5876 12.2688L23.4407 12.5125L25.3501 13.0813L26.122 13.2844L26.3657 13.4063L26.2845 13.4469L25.6751 13.325L25.4313 13.2844H25.1876V13.2031L25.0251 13.1219L24.5376 12.9594L24.0095 12.9188V12.8375L23.6438 12.7563L23.4001 12.6344H23.0345L22.9938 12.5125L22.5063 12.3906L22.1407 12.3094H21.6938L21.4907 12.0656H21.1251L20.922 11.9844L20.8001 11.8219L20.3126 11.6594L19.8657 11.6188L19.622 11.4969H19.2563L18.9313 11.2938L18.8501 11.1719L18.5251 11.05L18.2407 11.0094V10.9688Z" fill="#F76589"/>
<path d="M23.1564 49.075L23.2377 49.1156L22.7908 49.4406L22.3846 49.6843L21.7346 50.1718L21.3283 50.4562L21.1252 50.6593L20.4752 51.1468L19.6221 51.7968L19.0533 52.2437L18.1596 52.975L17.9971 53.1781L17.6721 53.4625L17.4689 53.7468L17.3877 53.6656L17.6314 53.3406L17.8346 53.1375L18.1596 52.7718L18.2002 52.6906L18.4033 52.5687H18.4846V52.4875L18.8096 52.2031L18.9721 52.1218V52.0406L19.5002 51.6343L19.9471 51.2687L20.3127 50.9843H20.3939V50.9031L20.6377 50.7406L20.9221 50.5781L21.0846 50.4968L21.2064 50.375L21.6533 50.05L21.9783 49.8062L22.3846 49.5218L22.8314 49.2781L23.1564 49.075Z" fill="#D8B9C3"/>
<path d="M23.7658 48.7906H23.8877V48.8719L23.5221 49.0344L23.0752 49.3188L22.5471 49.725L22.3033 49.8875L21.8971 50.1719L21.2877 50.6594L20.6377 51.1469L20.5158 51.1875V51.2688L19.5408 52L19.0127 52.4063H18.9314L18.8908 52.5281L18.2408 53.0156L18.0377 53.2594L17.7127 53.5031L17.5908 53.5844L17.6721 53.4219L18.0377 53.0969L18.2814 52.8125L18.6471 52.5281L19.3377 51.9594L20.1502 51.35L20.8408 50.8219L21.2064 50.5375H21.2877L21.3283 50.4156L21.7752 50.0906L22.4252 49.6031L22.7908 49.4L23.3189 49.0344L23.7658 48.7906Z" fill="#8C8A8A"/>
<path d="M51.6343 38.6344H51.7155L51.878 39.2031L52.1624 40.3L52.3655 40.95L52.6093 41.7625L53.0968 43.3469L53.4624 44.4438L53.7062 45.2969L54.0718 46.2719L54.0312 46.4344L53.4624 44.8906L53.0968 43.7125L52.6905 42.4531L52.2437 40.9906L51.9593 40.0156L51.7968 39.325L51.6343 38.7563V38.6344Z" fill="#D8B9C3"/>
<path d="M18.8906 11.05L19.2562 11.1313L20.1094 11.4157L21.4094 11.8219L22.2625 12.0657L23.8469 12.5532L25.0656 12.9188L26.2031 13.2438L26.1625 13.3657L25.7969 13.2438L23.5625 12.5938L22.7906 12.35L21.9375 12.1063L20.5156 11.6594L19.4187 11.2938L18.8906 11.0907V11.05Z" fill="#D8B9C3"/>
<path d="M36.8873 18.7688L36.9686 18.8094L34.3686 21.4094L34.0842 21.7344L33.6779 22.1407H33.5967L33.5154 22.3032L33.3529 22.4657L33.1498 22.5875L31.8498 23.8875L31.7686 23.8469L34.1654 21.45L34.4904 21.1657L36.8873 18.7688Z" fill="#DBD5DF"/>
<path d="M11.5375 52.0813V52.2032L11.1719 52.65L10.725 52.8532L10.1969 53.0563L10.075 53.1375L9.9125 53.0969L9.79063 52.9344L9.62813 52.8938L9.5875 52.975L9.54688 52.5688L9.79063 52.6094L9.9125 52.6907L10.4406 52.65L10.9688 52.5688L11.1719 52.4063H11.2531V52.325L11.5375 52.0813Z" fill="#D4E4ED"/>
<path d="M15.8438 41.7219V41.8438L15.6812 42.0875L15.3969 42.4532L14.95 43.0625L14.625 43.5094L14.3406 43.875L14.0156 44.2813L13.6906 44.6469L13.4469 45.0125L13.0406 45.5L12.8375 45.7844L12.7969 45.7032L13.0812 45.2969L13.4062 44.9313L13.65 44.5657L14.0156 44.1594L14.3406 43.7125L14.7062 43.225L14.9906 42.7782L15.1125 42.6157H15.1937L15.275 42.4532L15.6812 41.925L15.8438 41.7219Z" fill="#8C8A8A"/>
<path d="M33.6373 21.8969L33.7186 21.9375L30.6717 24.9844L30.4686 25.2281L30.1436 25.4719L30.2248 25.3094L30.7123 24.8219L30.8748 24.6187L31.1592 24.375L31.3623 24.1312L31.6873 23.8469L31.8498 23.6437L32.1342 23.4L32.3373 23.1969L32.4998 22.9937L32.8248 22.7094L33.3123 22.2219L33.6373 21.8969Z" fill="#8C8A8A"/>
<path d="M15.6813 42.0469V42.1687L15.1532 42.9L14.747 43.4688L14.3813 43.9156L14.097 44.2812L13.6095 44.8906L13.1626 45.4594L12.9595 45.7031V45.5812L13.2438 45.2156L13.6095 44.7281L13.8938 44.3625L14.2595 43.9562L14.5438 43.55L14.8688 43.1437L15.1126 42.7781L15.3563 42.4531L15.6813 42.0469Z" fill="#D7B9C3"/>
<path d="M59.15 7.96252L59.1906 8.0844L58.825 8.69377L58.6219 9.14065L58.4594 9.42502L58.3781 9.62815L58.175 10.1156L58.1344 10.2375L57.9719 10.1969L57.8906 10.075L58.0938 10.0344L58.2969 9.42502L58.6625 8.81565L58.9062 8.36877L59.15 7.96252Z" fill="#D3E3EC"/>
<path d="M20.9626 42.7375H21.2876L21.4095 42.8188L21.4501 43.0219L21.247 42.8594H20.922L20.3938 43.0219L20.2313 43.225L19.7438 43.5907L19.6626 43.55L19.9063 43.2657L20.0688 43.225L20.1095 43.1032H20.1907L20.272 42.9407L20.9626 42.7375Z" fill="#D4E4ED"/>
<path d="M18.6061 44.5657L18.6873 44.6063L17.3467 45.9469L17.1029 46.2313H17.0217V46.3125H16.9404L17.0217 46.15L17.1029 46.0282H17.2248L17.3061 45.8657L17.5092 45.6625L17.7529 45.3782L18.0373 45.175L18.3217 44.8094L18.6061 44.5657Z" fill="#D4E4ED"/>
<path d="M34.1657 21.45L34.3282 21.4906L33.6782 22.1406H33.597L33.5157 22.3031L33.3532 22.4656L33.272 22.425L33.5157 22.1812L33.6376 21.9781L34.1657 21.45Z" fill="#ECE2E6"/>
<path d="M62.3187 0H62.5218L62.4812 0.365625L62.2374 1.09687L62.1968 0.934375L62.278 0.4875L62.3187 0Z" fill="#D4E4ED"/>
<path d="M18.7688 10.6438L18.85 10.8063L19.2156 11.05L19.3375 11.1719L18.6063 11.0094L18.4844 10.9282L18.7281 10.725L18.7688 10.6438Z" fill="#DCE7EF"/>
<path d="M38.0658 17.225H38.1471L38.0658 17.4687L37.7408 17.9156L37.3752 18.3219L37.2939 18.3625L37.3752 18.2L37.5377 17.9969H37.6189L37.7002 17.7937L37.9439 17.4281L38.0658 17.225Z" fill="#8C8A8A"/>
<path d="M53.9095 37.2125H54.1938L54.1532 37.375L53.8282 37.4969H53.6251L53.5845 37.4156L53.9095 37.2125Z" fill="#D4E5EE"/>
<path d="M38.1467 17.225L38.3092 17.3062L38.2279 17.4687L37.9436 17.7937L37.6592 18.0375L37.7404 17.875L37.9029 17.6719L38.1467 17.225Z" fill="#D4BEC8"/>
<path d="M37.2937 18.4437V18.5656L36.4406 19.4187L36.3594 19.3781L36.9281 18.8094L37.2125 18.4844L37.2937 18.4437Z" fill="#F9F6F7"/>
<path d="M30.3876 25.2281L30.5501 25.2688L30.1032 25.7156L29.9001 25.8781L29.8188 25.8375L30.0626 25.5531H30.1438L30.2251 25.3906L30.3876 25.2281Z" fill="#E3DAE1"/>
<path d="M12.3498 51.2281V51.35L12.0654 51.6344L11.7811 52.0406L11.6592 52.0813L11.7404 51.9188L11.8217 51.7156L12.0248 51.5125L12.3498 51.2281Z" fill="#D2C2CB"/>
<path d="M30.0623 25.4719H30.1436V25.5532L29.9404 25.7563L29.6154 26.0407L29.4123 26.2438L29.3311 26.2844L29.4123 26.1219H29.4936L29.5748 25.9594L29.7373 25.7969H29.8186L29.8998 25.6344L30.0623 25.4719Z" fill="#8C8A8A"/>
<path d="M20.1096 9.18127V9.30315L19.9064 9.58752H19.8252V9.66877H19.7439V9.75002H19.6627V9.83127L19.5002 9.95315L19.4189 9.91252L19.8252 9.50627L20.1096 9.18127Z" fill="#D6E7F0"/>
<path d="M16.8998 46.3125L16.9404 46.3938H16.8592L16.7779 46.5969L16.6154 46.7188H16.5342L16.4529 46.8813H16.3717L16.2904 47.0438L16.1279 47.1656L16.2092 47.0031L16.4936 46.6781L16.7779 46.4344L16.8998 46.3125Z" fill="#D4E4ED"/>
<path d="M23.7657 48.7906H23.8876V48.8719L23.522 49.0344L23.197 49.2375L23.1157 49.1969L23.3188 49.0344L23.7657 48.7906Z" fill="#F7678A"/>
<path d="M16.128 41.0312L16.2905 41.1125L16.3312 41.275L16.0874 41.4781V41.1531L16.128 41.0312Z" fill="#F6698C"/>
<path d="M16.8189 40.5844H16.8596L16.8189 40.8687L16.5752 41.0312V40.9094L16.8189 40.5844Z" fill="#FEFEFE"/>
</g>
<defs>
<clipPath id="clip0_252_8699">
<rect width="65" height="65" fill="white"/>
</clipPath>
</defs>
</svg>
