<svg width="65" height="65" viewBox="0 0 65 65" fill="none" xmlns="http://www.w3.org/2000/svg">
<g clip-path="url(#clip0_862_7464)">
<path d="M60.5719 0H63.2531L63.4562 0.203125L64.025 0.65L64.2281 0.853125L64.675 1.34062L65 1.82812V4.10312L64.4312 5.93125L64.1469 6.74375L63.5375 8.08437L62.8469 9.50625L62.2781 10.5219L61.7906 11.2937L60.9781 12.5125L60.4906 13.2031L60.0437 13.7719L59.5156 14.4625L59.15 14.9094L58.6625 15.4781L58.175 16.0062L57.8906 16.3312L57.525 16.7375L57.0781 17.225L56.5094 17.8344L48.7906 25.5531H48.7094L48.6281 25.7156L48.0187 26.2844L47.775 26.65L47.6937 26.8531L47.8969 27.1781L48.0594 27.7062L48.425 28.9656L49.6437 32.8656L50.05 34.125L50.4562 35.5062L51.2687 38.025L51.4312 38.5125L51.5125 38.6344L51.7156 38.5938L52.3656 38.1469L53.0562 37.7406L53.5437 37.4562L53.9094 37.2125H54.1937L54.5187 37.4562L54.8437 37.7812L55.1687 38.0656L56.7125 39.6094V39.6906L56.875 39.7719V39.8531L57.0375 39.9344L57.85 40.7469L58.0937 41.1531L58.0531 41.5187L57.5656 42.3312L57.0375 43.2656L56.5906 43.9156L56.225 44.3219L55.8594 44.7687L55.4937 45.0938L55.2094 45.4187L54.8031 45.7844L54.3562 46.15L54.1125 46.3531L54.0312 46.475L54.0719 46.8L54.2344 47.4094L54.7625 49.1562L55.1281 50.2937L55.575 51.7562L56.225 53.7875L56.8344 55.7781L57.2 56.9156L57.6469 58.3375L57.9312 59.3531L58.0125 59.8V60.3281L57.8906 60.6125L57.5656 61.0594L57.0781 61.5875L56.7125 61.9937L56.0625 62.6844L54.8437 63.9031L54.5187 64.1875L53.5031 65H52.2437L51.7969 64.7156L51.1062 64.1875L50.7406 63.7812L50.2937 63.05L49.6437 61.8719L49.1562 61.0187L48.6281 60.0437L48.1 59.1094L47.5312 58.0531L47.0031 57.1187L46.3531 55.9406L45.825 55.0062L45.2156 53.8687L44.85 53.2187L44.2 52.0406L42.9812 49.8469L42.4531 48.8719L41.925 47.9375L41.3156 46.8L40.95 46.15L40.3812 45.1344L39.8531 44.1594L39.325 43.225L38.7156 42.0875L38.3094 41.3562L37.7812 40.3812L37.2531 39.4469L36.7656 38.4719L36.4406 38.025L36.1562 38.1875L35.5875 38.675L35.1 39.1625L34.775 39.4469L34.2062 39.975L33.8812 40.2594L33.3531 40.7875L33.0281 41.0719L32.6219 41.4781L32.175 41.8438L31.7281 42.25L31.2812 42.6156L30.7125 43.1031L30.3875 43.3875L29.8187 43.875L29.25 44.3219L28.6812 44.8094L28.2344 45.175L27.7469 45.5812L26.9344 46.1906L26.2844 46.7188L25.5531 47.2875L25.025 47.6937L24.2531 48.2219L23.8469 48.5062H23.7656L24.2125 49.4406L24.7406 50.375L25.3906 51.5531L26 52.6906L26.4875 53.5844L27.0562 54.6406L27.3812 55.2906L27.6656 55.9812L27.8281 56.6719L27.9094 57.3219V57.85L27.8281 58.7031L27.6656 59.3125L27.3812 59.9625L27.0156 60.5719L26.65 61.0187L26.2437 61.425L25.6344 61.8719L25.2281 62.1562L24.8625 62.3187H24.5781L24.1719 62.1156L23.7656 61.75L23.2781 61.1812L22.8312 60.6125L22.2625 59.9219L21.7344 59.2312L21.2062 58.5812L20.6781 57.8906L20.2312 57.3219L19.825 56.7937L19.3781 56.225L18.85 55.575L18.3219 54.8844L17.8344 54.2344L17.3875 53.7062L17.225 53.6656L16.6562 54.0719L16.1281 54.4375L15.1937 54.925L14.625 55.1281L13.2031 55.4937H12.5531L11.7 55.2906L11.1312 55.0469L10.7656 54.8031L10.3594 54.4375L10.0344 54.0312L9.70937 53.3812L9.54688 52.8125L9.46562 52.2437V51.8375L9.5875 51.1875L9.79062 50.3344L10.1562 49.4812L10.6844 48.6281L11.0906 48.1L11.3344 47.8156L11.2937 47.6125L10.5219 47.0437L9.79062 46.475L8.775 45.6625L8.20625 45.2156L7.6375 44.7281L7.06875 44.2812L6.58125 43.9156L5.89062 43.3469L5.2 42.8187L4.55 42.2906L4.02187 41.8844L3.575 41.5187L2.80312 40.7469L2.6 40.4219L2.64062 40.0969L2.84375 39.6906L3.33125 39.0812L3.53437 38.8375L3.98125 38.4719L4.30625 38.2281L4.95625 37.8625L5.72812 37.5375L6.45937 37.3344L6.9875 37.2531H8.20625L9.01875 37.375L9.87187 37.6187L10.5625 37.9031L11.4969 38.3906L12.1062 38.7562L13.2031 39.3656L14.0969 39.8531L15.275 40.5031L16.2906 41.1125L16.4531 41.0719L16.7781 40.6656L17.0625 40.2594L17.3875 39.8937L17.8344 39.2437L18.1187 38.8781L18.6469 38.2281L19.2156 37.5375L19.6219 37.0094L20.1906 36.2781L20.7188 35.6281L21.0844 35.2219L21.45 34.775L21.9781 34.1656L22.3438 33.7594L22.7094 33.3125L23.1562 32.825L23.5219 32.3781L24.0094 31.8094L24.4969 31.2812L24.7812 30.9562L25.0656 30.6719L25.35 30.3469L26.4875 29.2094L26.8125 28.925L26.975 28.7219V28.6L26.3656 28.2344L25.2687 27.625L23.3187 26.4875L22.2219 25.8781L21.0031 25.2281L20.15 24.7406L18.9719 24.0906L17.9156 23.5219L15.5594 22.2219L14.6656 21.7344L13.4875 21.0844L12.7562 20.6781L11.7406 20.1094L10.5625 19.4594L9.5875 18.9312L8.85625 18.525L6.90625 17.4688L6.05312 16.9812L5.15937 16.4937L4.30625 16.0062L3.33125 15.4781L2.39687 14.95L1.70625 14.5437L1.1375 14.1375L0.609375 13.65L0.365625 13.3656L0.121875 13L0 12.8375V11.4156L0.325 11.0094L0.8125 10.4406L1.42188 9.79062L2.72187 8.49062L3.00625 8.16562L3.53437 7.6375L4.18437 7.15L4.50937 6.9875L4.91562 6.90625L5.85 7.10937L7.02812 7.43437L8.2875 7.8L10.3594 8.45L11.6187 8.85625L17.3062 10.6437L18.0375 10.8875L18.2 10.9281H18.4844L18.7281 10.725L18.9719 10.4L19.175 10.1969L19.5406 9.79062L19.825 9.50625L20.1094 9.18125L20.5969 8.73438L21.0844 8.32812L21.6125 7.92187L22.0594 7.6375L22.9125 7.15L23.6031 6.78437L23.8062 6.825L24.2125 7.15L24.8625 7.75937L25.2687 8.16562L25.5938 8.45L25.8781 8.73438L26.1625 9.05937L27.1375 10.0344L27.4219 10.3594L27.7875 10.9281L27.5437 11.2937L26.975 12.3094L26.6094 12.8375L26.2844 13.2844H26.2031V13.3656L26.3656 13.4062L27.1781 13.7312L29.1687 14.3812L31.525 15.1125L32.7844 15.5187L34.8969 16.1687L36.6437 16.6969L37.6187 16.9812L38.2687 17.2656L38.4312 17.1844L39.2437 16.3719H39.325L39.4062 16.2094L39.65 16.0062L39.9344 15.6812L41.4781 14.1375L41.7625 13.8937L42.0062 13.6094L42.3312 13.325L42.4937 13.1219L42.8187 12.8375L43.1437 12.4719H43.225L43.3062 12.3094L43.6312 12.025L43.9156 11.7L44.2406 11.4156L45.0125 10.6437L45.2969 10.3187L45.6625 9.99375L45.9469 9.66875L46.3125 9.34375L46.5562 9.05937L46.8812 8.775L47.8969 7.75937L48.2219 7.475L48.5469 7.15L48.8719 6.86562L49.4406 6.3375L49.7656 6.05312L51.4719 4.7125L52.2437 4.14375L53.8281 3.0875L54.5594 2.64062L55.4937 2.1125L56.2656 1.70625L57.3625 1.17812L58.5812 0.690625L59.5562 0.365625L60.2469 0.1625L60.4906 0.08125L60.5719 0Z" fill="#DFF3FC"/>
<path d="M62.5227 0H63.2539L63.457 0.203125L64.0258 0.65L64.2289 0.853125L64.6758 1.34062L65.0008 1.82812V4.10312L64.432 5.93125L64.1477 6.74375L63.5383 8.08437L62.8477 9.50625L62.2789 10.5219L61.7914 11.2937L60.9789 12.5125L60.4914 13.2031L60.0445 13.7719L59.5164 14.4625L59.1508 14.9094L58.6633 15.4781L58.1758 16.0062L57.8914 16.3312L57.5258 16.7375L57.0789 17.225L56.5102 17.8344L48.7914 25.5531H48.7102L48.6289 25.7156L48.0195 26.2844L47.7758 26.65L47.6945 26.8531L47.8977 27.1781L48.0602 27.7062L48.4258 28.9656L49.6445 32.8656L50.0508 34.125L50.457 35.5062L51.2695 38.025L51.432 38.5125L51.5133 38.6344L51.7164 38.5938L52.3664 38.1469L53.057 37.7406L53.5445 37.4562L53.9102 37.2125H54.1945L54.5195 37.4562L54.8445 37.7812L55.1695 38.0656L56.7133 39.6094V39.6906L56.8758 39.7719V39.8531L57.0383 39.9344L57.8508 40.7469L58.0945 41.1531L58.0539 41.5187L57.5664 42.3312L57.0383 43.2656L56.5914 43.9156L56.2258 44.3219L55.8602 44.7687L55.4945 45.0938L55.2102 45.4187L54.8039 45.7844L54.357 46.15L54.1133 46.3531L54.032 46.475L54.0727 46.8L54.2352 47.4094L54.7633 49.1562L55.1289 50.2937L55.5758 51.7562L56.2258 53.7875L56.8352 55.7781L57.2008 56.9156L57.6477 58.3375L57.932 59.3531L58.0133 59.8V60.3281L57.8914 60.6125L57.5664 61.0594L57.0789 61.5875L56.7133 61.9937L56.0633 62.6844L54.8445 63.9031L54.5195 64.1875L53.5039 65H52.2445L51.7977 64.7156L51.107 64.1875L50.7414 63.7812L50.2945 63.05L49.6445 61.8719L49.157 61.0187L48.6289 60.0437L48.1008 59.1094L47.532 58.0531L47.0039 57.1187L46.3539 55.9406L45.8258 55.0062L45.2164 53.8687L44.8508 53.2187L44.2008 52.0406L42.982 49.8469L42.4539 48.8719L41.9258 47.9375L41.3164 46.8L40.9508 46.15L40.382 45.1344L39.8539 44.1594L39.3258 43.225L38.7164 42.0875L38.3102 41.3562L37.782 40.3812L37.2539 39.4469L36.7664 38.4719L36.4414 38.025L36.157 38.1875L35.5883 38.675L35.1008 39.1625L34.7758 39.4469L34.207 39.975L33.882 40.2594L33.3539 40.7875L33.0289 41.0719L32.6227 41.4781L32.1758 41.8438L31.7289 42.25L31.282 42.6156L30.7133 43.1031L30.3883 43.3875L29.8195 43.875L29.2508 44.3219L28.682 44.8094L28.2352 45.175L27.7477 45.5812L26.9352 46.1906L26.2852 46.7188L25.5539 47.2875L25.0258 47.6937L24.2539 48.2219L23.8477 48.5062H23.7664L24.2133 49.4406L24.7414 50.375L25.3914 51.5531L26.0008 52.6906L26.4883 53.5844L27.057 54.6406L27.382 55.2906L27.6664 55.9812L27.8289 56.6719L27.9102 57.3219V57.85L27.8289 58.7031L27.6664 59.3125L27.382 59.9625L27.0164 60.5719L26.6508 61.0187L26.2445 61.425L25.6352 61.8719L25.2289 62.1562L24.8633 62.3187H24.5789L24.1727 62.1156L23.7664 61.75L23.2789 61.1812L22.832 60.6125L22.2633 59.9219L21.7352 59.2312L21.207 58.5812L20.6789 57.8906L20.232 57.3219L19.8258 56.7937L19.3789 56.225L18.8508 55.575L18.3227 54.8844L17.8352 54.2344L17.3883 53.7062L17.2258 53.6656L16.657 54.0719L16.1289 54.4375L15.1945 54.925L14.6258 55.1281L13.2039 55.4937H12.5539L11.7008 55.2906L11.132 55.0469L10.7664 54.8031L10.3602 54.4375L10.0352 54.0312L9.71016 53.3812L9.62891 53.1375V52.8937L9.83203 52.9344L9.95391 53.0969L10.157 53.0562L10.5633 52.8531L11.0914 52.65L11.2945 52.4469L11.5789 52.0812H11.6602L11.7414 51.9187L11.8227 51.7156L12.0258 51.5125L12.1883 51.2687H12.2695L12.3508 51.0656L12.5133 50.8625H12.5945L12.6758 50.7L12.8383 50.5375H12.9195L13.0008 50.375L13.1633 50.1719H13.2445L13.3258 50.0094H13.407L13.4477 49.8875L13.6914 49.6844L13.8133 49.5219H13.8945L13.9758 49.3594H14.057L14.0977 49.2375L14.3414 49.0344L14.6258 48.7094L14.7477 48.5875H14.8289L14.9102 48.425L15.032 48.3844L15.1133 48.2219L15.6008 47.7344L15.7227 47.5719H15.8039L15.8852 47.4094H15.9664L16.0477 47.2469H16.1289L16.2102 47.0844L16.3727 46.8812L16.6977 46.5969H16.7789L16.8602 46.3937H16.9414V46.3125H17.0227V46.2312H17.1039L17.1852 46.0687H17.2664L17.3477 45.9062L18.5258 44.7281H18.607L18.6883 44.5656H18.7695L18.8508 44.4031L19.1352 44.1187L19.4602 43.8344L19.5414 43.7125H19.6227L19.6633 43.5906L20.1102 43.2656L20.3133 43.0625L20.5164 42.9406L20.9227 42.8187H21.2477L21.6133 43.1844V43.3062H21.6945V43.3875H21.7758V43.4688H21.857L21.8977 43.6719L22.0602 43.7531L22.182 43.875L22.2227 43.9969L22.3852 44.0781H22.7914L23.0352 43.9562L23.4414 43.7125L23.5633 43.6312H23.6852V43.55L24.457 42.9812L25.0664 42.575L25.5945 42.1687L26.2039 41.6812H26.2852V41.6H26.3664V41.5187L26.5289 41.4375L26.732 41.2344L27.1383 40.9094L27.382 40.7062H27.4633V40.625L28.1133 40.1375L28.5602 39.7312L28.9258 39.4469L29.0883 39.2844H29.1695L29.2508 39.1219H29.332V39.0406L29.657 38.7562L30.2664 38.1875L30.7133 37.7812L31.0383 37.4969L31.8102 36.725H31.8914L31.9727 36.5625L32.1758 36.4L32.3789 36.1969L32.7039 35.9125L32.907 35.7094L33.232 35.3438H33.3133V35.2625H33.3945L33.4758 35.1H33.557L33.5977 34.9781L33.8414 34.775L33.882 34.6937H33.9633V34.6125L34.2477 34.3687L34.2883 34.2875H34.3695L34.4508 34.125L34.6133 34.0437V33.9625L34.8977 33.7188L36.4414 32.175H36.5227V32.0938H36.6039V32.0125H36.6852L36.7258 31.8906L36.9289 31.6875L37.0914 31.6062V31.525L37.3352 31.3219L37.4164 31.2H37.4977V31.1187H37.5789V31.0375H37.6602L37.7414 30.875L38.0664 30.5906L38.3914 30.225H38.4727V30.1437H38.5539V30.0625H38.6352L38.7164 29.9H38.7977V29.8187H38.8789V29.7375H38.9602L39.0414 29.575L39.2039 29.4937L39.2852 29.3312H39.3664L39.4477 29.1687H39.5289V29.0875H39.6102L39.6914 28.925L40.0164 28.6H40.0977L40.1789 28.4375L40.4227 28.2344L40.707 27.9094L40.9102 27.7062L41.0727 27.625V27.5437L41.3977 27.2594L41.6008 27.0156L41.8445 26.8125L42.0477 26.6094L42.5352 26.0812L42.8195 25.7562L42.982 25.5938H43.0633L43.1445 25.4312H43.2258L43.307 25.2687L43.5102 25.025H43.5914V24.9437L43.9164 24.7L43.957 24.6187H44.0383V24.5375L44.2008 24.375H44.282V24.2937L44.607 24.0094L45.7445 22.8719L45.907 22.7906L45.9883 22.6281L46.1102 22.5062H46.1914L46.2727 22.3438L47.857 20.7594L47.9789 20.7188L48.0602 20.5562L49.7664 18.85L49.9695 18.6062L50.2539 18.3625L50.5383 18.0375L50.7414 17.875L50.8633 17.7125H50.9445L51.0258 17.55L51.3102 17.225H51.3914L51.4727 17.0625L54.6414 13.8937H54.7227V13.8125L55.0477 13.5281L55.1695 13.4875L55.2508 13.325L55.657 12.9594H55.7789L55.5352 12.6344L55.1289 12.2281L54.8039 11.9437L54.1539 11.2937L53.8289 11.0094V10.9281H53.7477L53.4633 10.6031L52.9352 10.075L52.6508 9.75L52.2039 9.2625L51.8383 8.81562L51.3102 8.16562L51.0664 7.84062L50.782 7.475L50.7008 7.27187V6.90625L50.8227 6.70312L51.5133 6.21562L51.9602 5.85H52.6508L53.3414 6.13437L54.032 6.5L54.7633 6.9875L55.4945 7.55625L55.9008 7.92187L56.5102 8.49062L56.7945 8.81562L57.0789 9.1V9.18125H57.1602L57.4445 9.50625L57.4852 9.62812H57.5664L58.0133 10.1969L58.1352 10.2375L58.1758 10.0344L58.3383 9.62812L58.582 9.14062L58.7852 8.69375L59.1508 8.08437L59.3945 7.6375L59.7602 6.94687L60.1258 6.29688L60.6539 5.15937L60.9789 4.42812L61.5883 2.80312L61.832 2.1125L61.9945 1.70625L62.482 0.24375L62.5227 0Z" fill="#C6D1D9"/>
<path d="M23.6031 6.78442L23.8062 6.82505L24.2125 7.15005L24.8625 7.75942L25.2687 8.16567L25.5938 8.45005L25.8781 8.73442L26.1625 9.05942L27.1375 10.0344L27.4219 10.3594L27.7875 10.9282L27.5437 11.2938L26.975 12.3094L26.6094 12.8375L26.2844 13.2844H26.2031V13.3657L26.3656 13.4063L27.1781 13.7313L29.1687 14.3813L31.525 15.1125L32.7844 15.5188L34.8969 16.1688L36.6437 16.6969L37.6187 16.9813L38.1469 17.225L38.0656 17.4688L37.7406 17.9157L37.375 18.3219L36.9688 18.7688L36.6437 19.0532L34.2469 21.45L33.9219 21.7344L30.6719 24.9844L30.4687 25.2282L30.1844 25.4719L29.9 25.7969L29.6156 26.0407L28.4375 27.2188L28.1125 27.5032L27.5437 28.0719L26.975 28.4375L26.7719 28.4782L26.0812 28.0719L24.9844 27.4625L23.3187 26.4876L22.2219 25.8782L21.0031 25.2282L20.15 24.7407L18.9719 24.0907L17.9156 23.5219L15.5594 22.2219L14.6656 21.7344L13.4875 21.0844L12.7562 20.6782L11.7406 20.1094L10.5625 19.4594L9.5875 18.9313L8.85625 18.525L6.90625 17.4688L6.05312 16.9813L5.15937 16.4938L4.30625 16.0063L3.33125 15.4782L2.39687 14.95L1.70625 14.5438L1.1375 14.1375L0.609375 13.65L0.365625 13.3657L0.121875 13L0 12.8375V11.4157L0.325 11.0094L0.8125 10.4407L1.42188 9.79067L2.72187 8.49067L3.00625 8.16567L3.53437 7.63755L4.18437 7.15005L4.50937 6.98755L4.91562 6.9063L5.85 7.10942L7.02812 7.43442L8.2875 7.80005L10.3594 8.45005L11.6187 8.8563L17.3062 10.6438L18.0375 10.8875L18.2 10.9282H18.4844L18.7281 10.725L18.9719 10.4L19.175 10.1969L19.5406 9.79067L19.825 9.5063L20.1094 9.1813L20.5969 8.73442L21.0844 8.32817L21.6125 7.92192L22.0594 7.63755L22.9125 7.15005L23.6031 6.78442Z" fill="#8C8A8A"/>
<path d="M47.6121 26.8938L47.7746 26.9344L47.9777 27.3813L48.2621 28.4375L48.8309 30.2657L49.6434 32.8657L50.0496 34.125L50.4559 35.5063L51.2684 38.025L51.4309 38.5125L51.5121 38.6344L51.7152 38.5938L52.3652 38.1469L53.0559 37.7407L53.5434 37.4563L53.909 37.2125H54.1934L54.5184 37.4563L54.8434 37.7813L55.1684 38.0657L56.7121 39.6094V39.6907L56.8746 39.7719V39.8532L57.0371 39.9344L57.8496 40.7469L58.0934 41.1532L58.0527 41.5188L57.5652 42.3313L57.0371 43.2657L56.5902 43.9157L56.2246 44.3219L55.859 44.7688L55.4934 45.0938L55.209 45.4188L54.8027 45.7844L54.3559 46.15L54.1121 46.3532L54.0309 46.475L54.0715 46.8001L54.234 47.4094L54.7621 49.1563L55.1277 50.2938L55.5746 51.7563L56.2246 53.7875L56.834 55.7782L57.1996 56.9157L57.6465 58.3376L57.9309 59.3532L58.0121 59.8V60.3282L57.8902 60.6125L57.5652 61.0594L57.0777 61.5876L56.7121 61.9938L56.0621 62.6844L54.8434 63.9032L54.5184 64.1875L53.5027 65H52.2434L51.7965 64.7157L51.1059 64.1875L50.7402 63.7813L50.2934 63.0501L49.6434 61.8719L49.1559 61.0188L48.6277 60.0438L48.0996 59.1094L47.5309 58.0532L47.0027 57.1188L46.3527 55.9407L45.8246 55.0063L45.2152 53.8688L44.8496 53.2188L44.1996 52.0407L42.9809 49.8469L42.4527 48.8719L41.9246 47.9375L41.3152 46.8001L40.9496 46.15L40.3809 45.1344L39.8527 44.1594L39.3246 43.225L38.7152 42.0875L38.309 41.3563L37.7809 40.3813L37.2527 39.4469L36.7652 38.4719L36.5215 38.1063L36.5621 37.8625L36.7652 37.5782H36.8465L36.9277 37.4157L37.2934 37.0094H37.3746L37.4559 36.8469H37.5371L37.6184 36.6844L38.2277 36.0344L38.8777 35.3438L39.1621 35.0594L39.3652 34.8157L39.6902 34.5313L45.8246 28.3969L46.1496 28.1125L46.5559 27.7063H46.6371V27.625L47.084 27.2594L47.4902 26.975L47.6121 26.8938Z" fill="#8C8A8A"/>
<path d="M23.7656 48.7905H23.8875L24.4563 49.8874L24.9844 50.8218L25.5938 51.9187L26.0813 52.853L26.4469 53.503L27.0563 54.6405L27.3813 55.2905L27.6656 55.9812L27.8281 56.6718L27.9094 57.3218V57.8499L27.8281 58.703L27.6656 59.3124L27.3813 59.9624L27.0156 60.5718L26.65 61.0187L26.2438 61.4249L25.6344 61.8718L25.2281 62.1562L24.8625 62.3187H24.5781L24.1719 62.1155L23.7656 61.7499L23.2781 61.1812L22.8313 60.6124L22.2625 59.9218L21.7344 59.2312L21.2063 58.5812L20.6781 57.8905L20.2313 57.3218L19.825 56.7937L19.3781 56.2249L18.85 55.5749L18.3219 54.8843L17.8344 54.2343L17.4688 53.7874L17.5094 53.6249L17.875 53.2187L18.0781 53.0155L18.4438 52.6905L18.8906 52.3249L19.5406 51.7968L20.3125 51.228L20.8406 50.8218L21.2063 50.5374H21.2875L21.3281 50.4155L21.775 50.0905L22.425 49.603L22.7906 49.3999L23.3188 49.0343L23.7656 48.7905Z" fill="#8C8A8A"/>
<path d="M6.98711 37.2532H8.20586L9.01836 37.375L9.87148 37.6188L10.5621 37.9032L11.4965 38.3907L12.1059 38.7563L13.2027 39.3657L14.0965 39.8532L15.2746 40.5032L16.2902 41.1125L16.3309 41.275L15.9246 41.7219L15.6809 42.0875L15.3965 42.4532L14.9496 43.0625L14.6246 43.5094L14.3402 43.875L14.0152 44.2813L13.6902 44.6469L13.4465 45.0125L13.0402 45.5L12.7152 45.9469L12.4309 46.2719L12.1059 46.7188L11.7402 47.125L11.334 47.5719L11.1715 47.5313L10.6434 47.125L9.99336 46.6375L9.54648 46.2719L9.01836 45.8657L8.36836 45.3375L7.92148 44.9719L7.23086 44.4032L6.58086 43.9157L5.89023 43.3469L5.19961 42.8188L4.54961 42.2907L4.02148 41.8844L3.57461 41.5188L2.80273 40.7469L2.59961 40.4219L2.64023 40.0969L2.84336 39.6907L3.33086 39.0813L3.53398 38.8375L3.98086 38.4719L4.30586 38.2282L4.95586 37.8625L5.72773 37.5375L6.45898 37.3344L6.98711 37.2532Z" fill="#8C8A8A"/>
<path d="M23.6031 6.78442L23.8063 6.82505L24.2125 7.15005L24.8625 7.75942L25.2688 8.16567L25.5938 8.45005L25.8781 8.73442L26.1625 9.05942L27.1375 10.0344L27.4219 10.3594L27.7875 10.9282L27.5438 11.2938L26.975 12.3094L26.6094 12.8375L26.2844 13.2844H26.2031L26.1625 13.3657L25.7969 13.2438L23.5625 12.5938L22.7906 12.35L21.9375 12.1063L20.5156 11.6594L19.4188 11.2938L18.6063 11.0094L18.4844 10.9282L18.7281 10.725L18.9719 10.4L19.175 10.1969L19.5406 9.79067L19.825 9.5063L20.1094 9.1813L20.5969 8.73442L21.0844 8.32817L21.6125 7.92192L22.0594 7.63755L22.9125 7.15005L23.6031 6.78442Z" fill="#C6D1D9"/>
<path d="M53.9098 37.2124H54.1941L54.5191 37.4562L54.8441 37.7812L55.1691 38.0655L56.7129 39.6093V39.6905L56.8754 39.7718V39.853L57.0379 39.9343L57.8504 40.7468L58.0941 41.153L58.0535 41.5187L57.566 42.3312L57.0379 43.2655L56.591 43.9155L56.2254 44.3218L55.8598 44.7687L55.4941 45.0937L55.2098 45.4187L54.8035 45.7843L54.3566 46.1499L54.1129 46.353L54.0316 46.4343L53.4629 44.8905L53.0973 43.7124L52.691 42.453L52.2441 40.9905L51.9598 40.0155L51.7973 39.3249L51.6348 38.7562V38.6343L52.366 38.1468L53.0566 37.7405L53.5441 37.4562L53.9098 37.2124Z" fill="#C6D1D9"/>
<path d="M51.9586 5.8501H52.6492L53.3398 6.13447L54.0305 6.5001L54.7617 6.9876L55.493 7.55635L55.8992 7.92197L56.5086 8.49072L56.793 8.81572L57.0773 9.1001V9.18135H57.1586L57.443 9.50635L57.4836 9.62822H57.5648L58.0117 10.197L58.2961 10.6438L58.6617 11.2532L58.9867 11.9845L59.068 12.2688V12.6751L58.9055 13.122L58.5805 13.5282L58.2555 13.8126L57.8492 14.0157H57.5648L56.9148 13.6907L56.3055 13.2845L55.7367 12.8782L55.3711 12.472L54.6805 11.822L54.1523 11.2938L53.8273 11.0095V10.9282H53.7461L53.4617 10.6032L52.9336 10.0751L52.6492 9.7501L52.2023 9.2626L51.8367 8.81572L51.3086 8.16572L51.0648 7.84072L50.7805 7.4751L50.6992 7.27197V6.90635L50.8211 6.70322L51.5117 6.21572L51.9586 5.8501Z" fill="#49C4FF"/>
<path d="M20.9629 42.9812L21.2879 43.0625L21.6941 43.5093L21.9379 43.9156L21.8973 44.1593L21.6941 44.4437H21.6129L21.5316 44.6468L21.0441 45.175L20.7598 45.5L20.5566 45.7031H20.4754L20.3941 45.8656L20.0691 46.15L18.891 47.3281L18.6066 47.6531L16.3723 49.8875L16.2098 50.0906L15.9254 50.3343L15.7223 50.5781L15.5598 50.7406H15.4785V50.8218H15.3973L15.316 50.9843L15.1129 51.1468L13.8535 52.4062L13.4066 52.7718L13.0004 53.1375L12.6348 53.3L12.391 53.2593L11.9848 53.0562L11.6598 52.65L11.6191 52.5687V52.2437L11.9035 51.7968L12.3504 51.3093L12.6348 50.9843L13.0004 50.6593L13.2848 50.3343L16.6566 46.9625L16.9816 46.6781L17.266 46.3531L17.591 46.0687L18.0379 45.5812L18.891 44.7281L19.1754 44.4031L19.9066 43.6718L20.2316 43.4281L20.516 43.1843L20.8004 43.0218L20.9629 42.9812Z" fill="#FB3262"/>
<path d="M54.0711 14.3813L54.1523 14.422L51.4305 17.1438L51.3898 17.2251H51.3086L51.2273 17.3876L50.943 17.7126L50.618 17.997L50.3742 18.2813H50.293L50.2117 18.4438H50.1305L50.0492 18.6063H49.968L49.8867 18.7688H49.8055L49.7242 18.9313L48.4242 20.2313H48.343L48.2617 20.3938H48.1805L48.0992 20.5563L45.6617 22.9938H45.5805L45.4992 23.1563L44.3617 24.2938H44.2805V24.3751H44.1992L44.118 24.5376H44.0367V24.6188H43.9555L43.8742 24.7813L43.6711 24.9438H43.5898V25.0251H43.5086L43.4273 25.1876L43.2242 25.4313L43.0617 25.5938H42.9805L42.8992 25.7563H42.818L42.7367 25.9188L42.2492 26.4063L42.0461 26.6501L41.6805 27.0157H41.5992L41.5586 27.1376H41.4773L41.3961 27.3001L41.1523 27.5438H41.0711V27.6251L40.868 27.8282L40.5023 28.1532L40.2992 28.3563L40.0961 28.6001L39.7711 28.8845L39.6086 29.0876H39.5273V29.1688L39.243 29.4126L39.0398 29.6157L38.9586 29.7376H38.8773V29.8188H38.7961V29.9001L38.6336 30.0626H38.5523V30.1439H38.4711V30.2251L38.268 30.3876L38.0242 30.672L37.6992 30.9564L37.6586 31.0376H37.5773V31.1189H37.4961V31.2001L37.1711 31.5251H37.0898V31.6063L36.6836 32.0126H36.6023V32.0939H36.5211V32.1751L36.1961 32.4595L35.2617 33.3939H35.1805L35.0992 33.5564L34.9367 33.6376L34.8555 33.8001L34.693 33.9626H34.6117V34.0438L34.4086 34.2064L34.368 34.2876H34.2867L34.2055 34.4501L34.043 34.6126H33.9617V34.6939H33.8805L33.8398 34.8157L33.5961 35.0189L33.393 35.2626H33.3117V35.3439L33.1086 35.5064L32.9055 35.7501L32.7023 35.9532L32.2555 36.3189L32.093 36.522L31.768 36.8064L30.9555 37.6189L30.6305 37.9032L30.143 38.3501L29.5742 38.8782H29.493L29.4117 39.0407H29.3305V39.122L29.0461 39.3657H28.9648L28.8836 39.5282L28.4367 39.8939L27.9086 40.3407L27.543 40.6251H27.4617V40.7064L26.9336 41.1126L26.6086 41.3564L26.4867 41.5189H26.3648V41.6001H26.2836V41.6814L25.918 41.9657L25.3898 42.372L24.943 42.697L24.293 43.1439L23.7648 43.5501H23.6836V43.6314L23.4398 43.7532L23.0336 43.997L22.7898 44.1189H22.3836L22.1805 43.997L22.1398 43.7939L21.9773 43.7126L21.8555 43.5907L21.9367 43.5501V43.6314L22.0992 43.7126L22.2211 43.8345L22.5055 43.8751L22.8711 43.7532L23.2773 43.5501L23.7242 43.2657L24.1305 42.9407L24.9023 42.372L25.3086 42.047H25.3898V41.9657L25.8367 41.6407L26.2836 41.2345L26.7305 40.8689L27.218 40.5032L27.5836 40.1782H27.6648V40.097L27.868 40.0157V39.9345L28.3148 39.5689L28.8023 39.122L29.1273 38.8376H29.2086L29.2898 38.6751L29.4523 38.5532H29.5336V38.472L29.9805 38.1064L30.4273 37.7001L30.8742 37.3345L30.9555 37.2126H31.0367V37.1314L31.2398 36.9689L31.3211 36.847H31.4023V36.7657L31.7273 36.4813L32.2961 35.9126H32.3773L32.4586 35.7501L33.0273 35.2626L33.3117 34.9376L33.5961 34.6939L33.8805 34.3689L34.2055 34.0032H34.2867L34.368 33.8407L34.5711 33.597H34.6523V33.5157H34.7336V33.4345H34.8148V33.3532H34.8961L34.9773 33.1907L36.5211 31.647H36.6023V31.5657H36.6836L36.7648 31.4032L36.9273 31.322V31.2407H37.0086V31.1595H37.0898V31.0782H37.1711V30.997H37.2523V30.9157L37.5773 30.6313L38.5523 29.6564H38.6336V29.5751L38.918 29.3314L40.0961 28.1532H40.1773L40.2586 27.9907L40.543 27.7063H40.6242L40.7055 27.5438L41.0305 27.2188H41.1117L41.193 27.0563L41.5992 26.6501H41.6805L41.7617 26.4876L42.168 26.0813L42.3305 25.8782H42.4117V25.797L42.6555 25.5938L42.9398 25.2688L43.8336 24.3751L44.1586 24.0907L44.5242 23.7251L44.8492 23.4407L45.1336 23.1563L45.4586 22.872L45.6617 22.6688H45.743L45.8242 22.5063L45.9867 22.3438H46.068L46.1492 22.1813L46.2711 22.0595H46.3523L46.4336 21.897L46.5961 21.7345H46.6773L46.7586 21.572L46.8805 21.5313L46.9211 21.4095H47.0023V21.3282H47.0836V21.247L47.4086 20.9626L47.5711 20.7595L47.7336 20.7188L47.8148 20.5563L48.2617 20.1095H48.343V20.0282H48.4242L48.4648 19.9063L48.668 19.7438L49.5211 18.8907H49.6023L49.6836 18.7282L49.8461 18.5657H49.9273L50.0086 18.4032L51.3898 17.022H51.4711L51.5523 16.8595H51.6336V16.7782H51.7148V16.697L51.8773 16.5345H51.9586V16.4532L52.1617 16.2907L52.3648 16.0876L54.0711 14.3813Z" fill="#D3E3EC"/>
<path d="M20.9215 42.8188H21.2465L21.6121 43.1845V43.3063H21.6934V43.3876H21.7746V43.4688H21.8559L22.0184 43.7938L22.0996 43.997L21.9371 44.322L21.6934 44.647H21.6121L21.5309 44.8095L21.2871 45.0938H21.2059L21.1246 45.2563L19.7027 46.6782L19.459 46.9626H19.3777L19.2965 47.1251L18.0371 48.3845L17.9965 48.4657H17.9152V48.547H17.834V48.6282H17.7527L17.6715 48.7907L17.509 48.9532H17.4277L17.3465 49.1157L17.184 49.2782H17.1027L17.0215 49.4407H16.9402L16.859 49.6032H16.7777L16.6965 49.7657L15.4777 50.9845L15.4371 51.0657H15.3559L15.2746 51.2282L15.1527 51.2688V51.3501L14.8277 51.6345L14.1777 52.2438L13.7309 52.6095L13.284 53.0157L12.9996 53.2188L12.634 53.3813L12.3902 53.3407L11.9434 53.097L11.659 52.772L11.5371 52.5688V52.2845L11.8215 51.7157L12.0246 51.5126L12.1871 51.2688H12.2684L12.3496 51.0657L12.5121 50.8626H12.5934L12.6746 50.7001L12.8371 50.5376H12.9184L12.9996 50.3751L13.1621 50.172H13.2434L13.3246 50.0095H13.4059L13.4465 49.8876L13.6902 49.6845L13.8121 49.522H13.8934L13.9746 49.3595H14.0559L14.0965 49.2376L14.3402 49.0345L14.6246 48.7095L14.7465 48.5876H14.8277L14.909 48.4251L15.0309 48.3845L15.1121 48.222L15.5996 47.7345L15.7215 47.572H15.8027L15.884 47.4095H15.9652L16.0465 47.247H16.1277L16.209 47.0845L16.3715 46.8813L16.6965 46.597H16.7777L16.859 46.3938H16.9402V46.3126H17.0215V46.2313H17.1027L17.184 46.0688H17.2652L17.3465 45.9063L18.5246 44.7282H18.6059L18.6871 44.5657H18.7684L18.8496 44.4032L19.134 44.1188L19.459 43.8345L19.5402 43.7126H19.6215L19.6621 43.5907L20.109 43.2657L20.3121 43.0626L20.5152 42.9407L20.9215 42.8188ZM20.9621 42.9813L20.6371 43.1032L20.2715 43.3876L19.9871 43.6313L19.6621 43.9157L18.9309 44.647L18.6465 44.972L17.7121 45.9063L17.4277 46.2313L17.1027 46.5157L16.8184 46.8407L16.3309 47.2876L13.0402 50.5782L12.8777 50.7813L12.5527 51.0657L12.0246 51.6345L11.7402 52.0407L11.6184 52.2438V52.5688L11.9434 53.0157L12.1871 53.1782L12.4715 53.3001L12.7559 53.2595L13.0809 53.0563L13.6902 52.5282L14.1777 52.0813L14.9902 51.2688L15.3152 50.9845L15.3965 50.822H15.4777V50.7407H15.559L15.8027 50.4563L16.0465 50.2532L16.3309 49.9282L16.534 49.7657L16.8184 49.4407L18.8496 47.4095L19.134 47.0845L20.1902 46.0282L20.4746 45.7845V45.7032L20.5965 45.6626L20.8809 45.3376L21.3684 44.8501L21.6121 44.5251V44.4438H21.6934L21.9371 44.0782L21.8965 43.8345L21.6527 43.4688L21.2871 43.0626L20.9621 42.9813Z" fill="#D7B9C3"/>
<path d="M20.9629 42.9812L21.2879 43.0625L21.6941 43.5093L21.9379 43.9156L21.8973 44.1593L21.6941 44.4437H21.6129L21.5316 44.6468L21.0441 45.175L20.7598 45.5L20.5566 45.7031H20.4754L20.3941 45.8656L20.0691 46.15L18.891 47.3281L18.6066 47.6531L16.3723 49.8875L16.2098 50.0906L15.9254 50.3343L15.7223 50.5781L15.5598 50.7406H15.4785V50.8218H15.3973L15.316 50.9843L15.1129 51.1468L13.8535 52.4062L13.4066 52.7718L13.0004 53.1375L12.6348 53.3L12.391 53.2593L11.9848 53.0562L11.6598 52.65L11.6191 52.5687V52.2437L11.9035 51.7968L12.3504 51.3093L12.6348 50.9843L13.0004 50.6593L13.2848 50.3343L16.6566 46.9625L16.9816 46.6781L17.266 46.3531L17.591 46.0687L18.0379 45.5812L18.891 44.7281L19.1754 44.4031L19.9066 43.6718L20.2316 43.4281L20.516 43.1843L20.8004 43.0218L20.9629 42.9812ZM20.7598 43.1843L20.4348 43.4281L20.2316 43.6312V43.7125L20.0285 43.7937L19.7848 43.9968L19.5004 44.3218L19.1348 44.6062L19.0535 44.7687L18.7285 45.0531L18.4441 45.3375L18.241 45.5812L17.916 45.8656L17.591 46.2312L17.266 46.5156L16.9004 46.9218L16.5754 47.2062L16.4535 47.3281V47.4093L16.3316 47.45V47.5312L16.1691 47.6125L15.8848 47.8562L15.6004 48.1812L15.1941 48.5468L14.9098 48.8718L14.5848 49.1562L14.3004 49.4812L14.0973 49.6437V49.725L13.9348 49.8062L13.7316 50.05V50.1312H13.6504V50.2125L13.4879 50.2937L13.2848 50.4562L13.1223 50.7L12.5129 51.2687L11.9035 51.8781L11.741 52.2437L11.7004 52.4875L12.0254 52.9343L12.3098 53.1375H12.8785L13.2848 52.8125L13.4879 52.5687L13.8129 52.2843L14.7066 51.3906V51.3093H14.7879V51.2281L14.9504 51.1468L15.6004 50.4968V50.4156H15.6816V50.3343L15.8441 50.2531L16.0879 50.0093V49.9281L16.2504 49.8468L16.7379 49.3593V49.2781L16.9004 49.1968L17.1441 48.9937L17.4285 48.6687L19.3379 46.7593V46.6781L19.4598 46.6375L19.6629 46.3937L19.9473 46.15L20.1504 45.9468V45.8656L20.2723 45.825L20.4754 45.6218V45.5406L20.6379 45.4593L20.9223 45.1343V45.0531L21.0848 44.9718L21.3691 44.6468L21.4504 44.4843L21.4098 44.3625L21.491 44.3218L21.3691 44.2406L21.3285 44.1187L21.2066 43.9968H21.0848L21.1254 43.875L21.0441 43.7125L21.0848 43.55H20.9629L20.9223 43.3468V43.225L20.7598 43.1843Z" fill="#8C8A8A"/>
<path d="M47.043 27.2188L47.1242 27.2594L46.718 27.625H46.6367V27.7063L46.3117 27.9906L45.9055 28.3969L45.5805 28.6813L42.0461 32.2156H41.9648L41.8836 32.3781L39.4461 34.8156H39.3648L39.2836 34.9781H39.2023L39.1211 35.1406L38.5523 35.7094L38.268 36.0344L37.9023 36.4L37.618 36.725L37.3742 37.0094L37.0898 37.2531L36.8461 37.5781H36.7648L36.5211 38.0656L36.4805 37.9031L36.7242 37.5375L37.1711 37.05L37.5367 36.6031L37.6992 36.4L37.9023 36.1969L38.3086 35.75L38.6742 35.3031L38.8773 35.1H38.9586L39.0398 34.9375L39.2023 34.7344L39.5273 34.45L39.8117 34.125L40.1367 33.8H40.218L40.2992 33.6375L41.1523 32.7844L41.4773 32.5L42.1273 31.85H42.2086L42.2898 31.6875H42.3711L42.4117 31.5656L42.7367 31.2812L43.1023 30.9156H43.1836L43.2648 30.7531L43.5086 30.55L43.7117 30.3063L43.9961 30.0625L44.6867 29.3719L45.0117 29.0875L45.4992 28.6L45.8242 28.3156L46.4336 27.7469L46.8805 27.3406L47.043 27.2188Z" fill="#D8B9C3"/>
<path d="M46.8809 27.4219L46.9621 27.4625L46.5965 27.8281L46.3934 28.0719H46.3121V28.1531H46.2309V28.2344L45.9059 28.5188L45.7434 28.6L45.6621 28.7625L45.3371 29.0875H45.2559L45.1746 29.25H45.0934L45.0121 29.4125H44.9309L44.8496 29.575L44.6871 29.7375H44.6059L44.5246 29.9H44.4434L44.3621 30.0625L43.1434 31.2813L42.859 31.6063L42.4934 31.9313L42.4527 32.0531L42.0465 32.3781L41.9246 32.5406H41.8434L41.8027 32.7031L41.4777 32.9875H41.3965L41.3152 33.15L41.1527 33.3531H41.0715L40.9902 33.5156L40.7059 33.7594L40.5027 34.0031H40.4215L40.3809 34.125L40.0559 34.4094L39.8527 34.6531L39.6496 34.8156L39.5277 34.9375H39.4465L39.3652 35.1406L39.1215 35.3438L38.8777 35.6281L38.5934 35.8719L38.3902 36.1156H38.309L38.2277 36.2781L37.9434 36.5219L37.7402 36.7656H37.659L37.5777 36.9688L37.2121 37.2531L37.0496 37.4969H36.9684L36.8871 37.6594L36.684 37.8625L36.5621 38.1063L36.5215 37.9438L36.7652 37.5781H36.8465L36.9277 37.4156L37.2934 37.0094H37.3746L37.4559 36.8469H37.5371L37.6184 36.6844L38.2277 36.0344L38.8777 35.3438L39.1621 35.0594L39.3652 34.8156L39.6902 34.5313L45.8246 28.3969L46.1496 28.1125L46.5559 27.7063H46.6371V27.625L46.8809 27.4219Z" fill="#8C8A8A"/>
<path d="M20.9215 42.8188H21.2465L21.6121 43.1845L21.5715 43.3063L21.3277 43.022L21.2059 42.9407H20.9215L20.434 43.1438L20.0684 43.4688L19.7434 43.7532L18.809 44.6876L18.7684 44.7688H18.6871L18.6059 44.9313L18.1996 45.3376L17.9965 45.5813L17.7121 45.8251L17.4684 46.1095L17.1434 46.3938L16.9809 46.597L16.7371 46.8001L13.1621 50.3751L13.0809 50.497H12.9996L12.9184 50.6595L12.7559 50.822H12.6746L12.5934 50.9845H12.5121L12.4309 51.147L12.1871 51.4313L12.1465 51.3501L12.1871 51.2688H12.2684L12.3496 51.0657L12.5121 50.8626H12.5934L12.6746 50.7001L12.8371 50.5376H12.9184L12.9996 50.3751L13.1621 50.172H13.2434L13.3246 50.0095H13.4059L13.4465 49.8876L13.6902 49.6845L13.8121 49.522H13.8934L13.9746 49.3595H14.0559L14.0965 49.2376L14.3402 49.0345L14.6246 48.7095L14.7465 48.5876H14.8277L14.909 48.4251L15.0309 48.3845L15.1121 48.222L15.5996 47.7345L15.7215 47.572H15.8027L15.884 47.4095H15.9652L16.0465 47.247H16.1277L16.209 47.0845L16.3715 46.8813L16.6965 46.597H16.7777L16.859 46.3938H16.9402V46.3126H17.0215V46.2313H17.1027L17.184 46.0688H17.2652L17.3465 45.9063L18.5246 44.7282H18.6059L18.6871 44.5657H18.7684L18.8496 44.4032L19.134 44.1188L19.459 43.8345L19.5402 43.7126H19.6215L19.6621 43.5907L20.109 43.2657L20.3121 43.0626L20.5152 42.9407L20.9215 42.8188Z" fill="#C6D1D9"/>
<path d="M51.4316 38.5938L51.6348 38.675L51.7973 39.1219L51.9598 39.8531L52.2441 40.9094L52.5691 41.925L53.0973 43.5906L53.4629 44.7281L53.7473 45.5406L54.0316 46.3125L53.991 46.5969H53.9504L53.8691 46.2313L53.5848 45.5406L53.4629 45.2156L53.3004 44.7688L53.1379 44.2406L53.0973 44.0375L53.1379 43.9563H53.0566L52.8941 43.4281L52.691 42.8188L52.5691 42.4938V42.3719H52.4879L52.366 41.8031L52.2848 41.7625L52.3254 41.6406L52.1629 41.2344L52.041 40.7875L51.8379 40.1781L51.7973 40.0969L51.7566 39.7313L51.6348 39.5688L51.5941 39.325L51.6348 39.2438L51.5941 39.0406L51.4723 39L51.4316 38.675V38.5938Z" fill="#F76589"/>
<path d="M18.2402 10.9688H18.6059L19.4184 11.2531L20.8809 11.7406L22.5871 12.2688L23.4402 12.5125L25.3496 13.0813L26.1215 13.2844L26.3652 13.4063L26.284 13.4469L25.6746 13.325L25.4309 13.2844H25.1871V13.2031L25.0246 13.1219L24.5371 12.9594L24.009 12.9188V12.8375L23.6434 12.7563L23.3996 12.6344H23.034L22.9934 12.5125L22.5059 12.3906L22.1402 12.3094H21.6934L21.4902 12.0656H21.1246L20.9215 11.9844L20.7996 11.8219L20.3121 11.6594L19.8652 11.6188L19.6215 11.4969H19.2559L18.9309 11.2938L18.8496 11.1719L18.5246 11.05L18.2402 11.0094V10.9688Z" fill="#F76589"/>
<path d="M23.1555 49.075L23.2367 49.1156L22.7898 49.4406L22.3836 49.6843L21.7336 50.1718L21.3273 50.4562L21.1242 50.6593L20.4742 51.1468L19.6211 51.7968L19.0523 52.2437L18.1586 52.975L17.9961 53.1781L17.6711 53.4625L17.468 53.7468L17.3867 53.6656L17.6305 53.3406L17.8336 53.1375L18.1586 52.7718L18.1992 52.6906L18.4023 52.5687H18.4836V52.4875L18.8086 52.2031L18.9711 52.1218V52.0406L19.4992 51.6343L19.9461 51.2687L20.3117 50.9843H20.393V50.9031L20.6367 50.7406L20.9211 50.5781L21.0836 50.4968L21.2055 50.375L21.6523 50.05L21.9773 49.8062L22.3836 49.5218L22.8305 49.2781L23.1555 49.075Z" fill="#D8B9C3"/>
<path d="M23.7648 48.7905H23.8867V48.8718L23.5211 49.0343L23.0742 49.3187L22.5461 49.7249L22.3023 49.8874L21.8961 50.1718L21.2867 50.6593L20.6367 51.1468L20.5148 51.1874V51.2687L19.5398 51.9999L19.0117 52.4062H18.9305L18.8898 52.528L18.2398 53.0155L18.0367 53.2593L17.7117 53.503L17.5898 53.5843L17.6711 53.4218L18.0367 53.0968L18.2805 52.8124L18.6461 52.528L19.3367 51.9593L20.1492 51.3499L20.8398 50.8218L21.2055 50.5374H21.2867L21.3273 50.4155L21.7742 50.0905L22.4242 49.603L22.7898 49.3999L23.318 49.0343L23.7648 48.7905Z" fill="#8C8A8A"/>
<path d="M51.6348 38.6343H51.716L51.8785 39.203L52.1629 40.2999L52.366 40.9499L52.6098 41.7624L53.0973 43.3468L53.4629 44.4437L53.7066 45.2968L54.0723 46.2718L54.0316 46.4343L53.4629 44.8905L53.0973 43.7124L52.691 42.453L52.2441 40.9905L51.9598 40.0155L51.7973 39.3249L51.6348 38.7562V38.6343Z" fill="#D8B9C3"/>
<path d="M18.8906 11.05L19.2562 11.1313L20.1094 11.4157L21.4094 11.8219L22.2625 12.0657L23.8469 12.5532L25.0656 12.9188L26.2031 13.2438L26.1625 13.3657L25.7969 13.2438L23.5625 12.5938L22.7906 12.35L21.9375 12.1063L20.5156 11.6594L19.4187 11.2938L18.8906 11.0907V11.05Z" fill="#D8B9C3"/>
<path d="M36.8883 18.7688L36.9695 18.8094L34.3695 21.4094L34.0852 21.7344L33.6789 22.1407H33.5977L33.5164 22.3032L33.3539 22.4657L33.1508 22.5875L31.8508 23.8875L31.7695 23.8469L34.1664 21.45L34.4914 21.1657L36.8883 18.7688Z" fill="#DBD5DF"/>
<path d="M11.5375 52.0813V52.2032L11.1719 52.65L10.725 52.8532L10.1969 53.0563L10.075 53.1375L9.9125 53.0969L9.79063 52.9344L9.62813 52.8938L9.5875 52.975L9.54688 52.5688L9.79063 52.6094L9.9125 52.6907L10.4406 52.65L10.9688 52.5688L11.1719 52.4063H11.2531V52.325L11.5375 52.0813Z" fill="#D4E4ED"/>
<path d="M15.8438 41.7219V41.8438L15.6812 42.0875L15.3969 42.4532L14.95 43.0625L14.625 43.5094L14.3406 43.875L14.0156 44.2813L13.6906 44.6469L13.4469 45.0125L13.0406 45.5L12.8375 45.7844L12.7969 45.7032L13.0812 45.2969L13.4062 44.9313L13.65 44.5657L14.0156 44.1594L14.3406 43.7125L14.7062 43.225L14.9906 42.7782L15.1125 42.6157H15.1937L15.275 42.4532L15.6812 41.925L15.8438 41.7219Z" fill="#8C8A8A"/>
<path d="M33.6383 21.897L33.7195 21.9376L30.6727 24.9845L30.4695 25.2282L30.1445 25.472L30.2258 25.3095L30.7133 24.822L30.8758 24.6188L31.1602 24.3751L31.3633 24.1313L31.6883 23.847L31.8508 23.6438L32.1352 23.4001L32.3383 23.197L32.5008 22.9938L32.8258 22.7095L33.3133 22.222L33.6383 21.897Z" fill="#8C8A8A"/>
<path d="M15.6809 42.0469V42.1687L15.1527 42.9L14.7465 43.4688L14.3809 43.9156L14.0965 44.2812L13.609 44.8906L13.1621 45.4594L12.959 45.7031V45.5812L13.2434 45.2156L13.609 44.7281L13.8934 44.3625L14.259 43.9562L14.5434 43.55L14.8684 43.1437L15.1121 42.7781L15.3559 42.4531L15.6809 42.0469Z" fill="#D7B9C3"/>
<path d="M59.15 7.9624L59.1906 8.08428L58.825 8.69365L58.6219 9.14053L58.4594 9.4249L58.3781 9.62803L58.175 10.1155L58.1344 10.2374L57.9719 10.1968L57.8906 10.0749L58.0938 10.0343L58.2969 9.4249L58.6625 8.81553L58.9062 8.36865L59.15 7.9624Z" fill="#D3E3EC"/>
<path d="M20.9621 42.7375H21.2871L21.409 42.8188L21.4496 43.0219L21.2465 42.8594H20.9215L20.3934 43.0219L20.2309 43.225L19.7434 43.5907L19.6621 43.55L19.9059 43.2657L20.0684 43.225L20.109 43.1032H20.1902L20.2715 42.9407L20.9621 42.7375Z" fill="#D4E4ED"/>
<path d="M18.607 44.5657L18.6883 44.6063L17.3477 45.9469L17.1039 46.2313H17.0227V46.3125H16.9414L17.0227 46.15L17.1039 46.0282H17.2258L17.307 45.8657L17.5102 45.6625L17.7539 45.3782L18.0383 45.175L18.3227 44.8094L18.607 44.5657Z" fill="#D4E4ED"/>
<path d="M34.1652 21.45L34.3277 21.4906L33.6777 22.1406H33.5965L33.5152 22.3031L33.3527 22.4656L33.2715 22.425L33.5152 22.1812L33.6371 21.9781L34.1652 21.45Z" fill="#ECE2E6"/>
<path d="M62.3191 0H62.5223L62.4816 0.365625L62.2379 1.09687L62.1973 0.934375L62.2785 0.4875L62.3191 0Z" fill="#D4E4ED"/>
<path d="M18.7688 10.6438L18.85 10.8063L19.2156 11.05L19.3375 11.1719L18.6063 11.0094L18.4844 10.9282L18.7281 10.725L18.7688 10.6438Z" fill="#DCE7EF"/>
<path d="M38.0648 17.2251H38.1461L38.0648 17.4688L37.7398 17.9157L37.3742 18.322L37.293 18.3626L37.3742 18.2001L37.5367 17.997H37.618L37.6992 17.7938L37.943 17.4282L38.0648 17.2251Z" fill="#8C8A8A"/>
<path d="M53.909 37.2124H54.1934L54.1527 37.3749L53.8277 37.4968H53.6246L53.584 37.4155L53.909 37.2124Z" fill="#D4E5EE"/>
<path d="M38.1477 17.2251L38.3102 17.3063L38.2289 17.4688L37.9445 17.7938L37.6602 18.0376L37.7414 17.8751L37.9039 17.672L38.1477 17.2251Z" fill="#D4BEC8"/>
<path d="M37.2937 18.4438V18.5657L36.4406 19.4188L36.3594 19.3782L36.9281 18.8095L37.2125 18.4845L37.2937 18.4438Z" fill="#F9F6F7"/>
<path d="M30.3871 25.228L30.5496 25.2687L30.1027 25.7155L29.8996 25.878L29.8184 25.8374L30.0621 25.553H30.1434L30.2246 25.3905L30.3871 25.228Z" fill="#E3DAE1"/>
<path d="M12.3508 51.228V51.3499L12.0664 51.6343L11.782 52.0405L11.6602 52.0812L11.7414 51.9187L11.8227 51.7155L12.0258 51.5124L12.3508 51.228Z" fill="#D2C2CB"/>
<path d="M30.0633 25.4719H30.1445V25.5532L29.9414 25.7563L29.6164 26.0407L29.4133 26.2438L29.332 26.2844L29.4133 26.1219H29.4945L29.5758 25.9594L29.7383 25.7969H29.8195L29.9008 25.6344L30.0633 25.4719Z" fill="#8C8A8A"/>
<path d="M20.1086 9.18115V9.30303L19.9055 9.5874H19.8242V9.66865H19.743V9.7499H19.6617V9.83115L19.4992 9.95303L19.418 9.9124L19.8242 9.50615L20.1086 9.18115Z" fill="#D6E7F0"/>
<path d="M16.9008 46.3125L16.9414 46.3938H16.8602L16.7789 46.5969L16.6164 46.7188H16.5352L16.4539 46.8813H16.3727L16.2914 47.0438L16.1289 47.1656L16.2102 47.0031L16.4945 46.6781L16.7789 46.4344L16.9008 46.3125Z" fill="#D4E4ED"/>
<path d="M23.7652 48.7905H23.8871V48.8718L23.5215 49.0343L23.1965 49.2374L23.1152 49.1968L23.3184 49.0343L23.7652 48.7905Z" fill="#F7678A"/>
<path d="M16.1285 41.0312L16.291 41.1125L16.3316 41.275L16.0879 41.4781V41.1531L16.1285 41.0312Z" fill="#F6698C"/>
<path d="M16.818 40.5845H16.8586L16.818 40.8688L16.5742 41.0313V40.9095L16.818 40.5845Z" fill="#FEFEFE"/>
</g>
<defs>
<clipPath id="clip0_862_7464">
<rect width="65" height="65" fill="white"/>
</clipPath>
</defs>
</svg>
