<svg width="35" height="36" viewBox="0 0 35 36" fill="none" xmlns="http://www.w3.org/2000/svg">
<g clip-path="url(#clip0_811_1809)">
<path d="M16.6456 0.485917C16.7087 0.485423 16.7717 0.484929 16.8366 0.48442C19.485 0.468367 19.485 0.468367 20.6501 0.710136C20.7545 0.731555 20.7545 0.731555 20.8609 0.753407C22.4011 1.07912 23.8545 1.56255 25.2701 2.25014C25.3206 2.27447 25.3711 2.29879 25.4231 2.32386C29.4618 4.29503 32.6248 7.97927 34.0975 12.2065C34.6293 13.7985 35.0055 15.461 35.0144 17.1456C35.0149 17.2087 35.0153 17.2717 35.0159 17.3366C35.0319 19.985 35.0319 19.985 34.7901 21.1501C34.7687 21.2545 34.7687 21.2545 34.7469 21.3609C34.4212 22.9011 33.9377 24.3545 33.2501 25.7701C33.2258 25.8206 33.2015 25.8711 33.1764 25.9231C31.2052 29.9618 27.521 33.1248 23.2937 34.5975C21.7018 35.1293 20.0393 35.5055 18.3546 35.5144C18.2601 35.5151 18.2601 35.5151 18.1636 35.5159C15.5152 35.5319 15.5152 35.5319 14.3501 35.2901C14.2458 35.2687 14.2458 35.2687 14.1393 35.2469C12.5992 34.9212 11.1458 34.4377 9.73013 33.7501C9.67966 33.7258 9.62919 33.7015 9.57718 33.6764C5.53848 31.7052 2.3755 28.021 0.902753 23.7937C0.370942 22.2018 -0.00523378 20.5393 -0.0140829 18.8546C-0.014577 18.7916 -0.0150712 18.7286 -0.0155804 18.6636C-0.0316331 16.0152 -0.0316331 16.0152 0.210136 14.8501C0.231555 14.7458 0.231555 14.7458 0.253407 14.6393C0.579123 13.0992 1.06255 11.6458 1.75014 10.2301C1.77447 10.1797 1.79879 10.1292 1.82386 10.0772C3.79503 6.03848 7.47927 2.8755 11.7065 1.40275C13.2985 0.870942 14.961 0.494766 16.6456 0.485917Z" fill="#54D817"/>
<path d="M17.4468 6.42833C17.4941 6.42846 17.5414 6.42858 17.5902 6.42872C18.3492 6.43215 19.0709 6.48242 19.8093 6.6602C19.8629 6.67259 19.9166 6.68497 19.9719 6.69773C22.9984 7.40518 25.6619 9.19178 27.3217 11.8482C28.4314 13.6901 29.0808 15.7434 29.0711 17.904C29.0708 17.996 29.0704 18.0881 29.0701 18.1829C29.0313 21.423 27.6068 24.297 25.3322 26.5551C25.1131 26.7613 24.8788 26.9448 24.6393 27.1265C24.5875 27.1657 24.5358 27.205 24.4825 27.2454C22.0418 29.0693 18.939 29.8936 15.9105 29.4963C15.6443 29.4541 15.3819 29.4009 15.1193 29.3402C15.0266 29.3188 15.0266 29.3188 14.9321 29.2969C14.0679 29.0906 13.2552 28.8252 12.4593 28.4302C12.4152 28.4087 12.3711 28.3873 12.3257 28.3652C9.65101 27.0506 7.57989 24.6831 6.59505 21.8767C5.57779 18.8785 5.72639 15.6944 7.11707 12.8372C8.49711 10.0995 10.9049 8.02749 13.7893 7.0102C14.9932 6.62786 16.1816 6.42288 17.4468 6.42833Z" fill="#76E044"/>
<path d="M17.374 4.33266C17.4482 4.33259 17.4482 4.33259 17.5239 4.33252C18.3938 4.33383 19.2358 4.39535 20.0909 4.56016C20.1796 4.57651 20.1796 4.57651 20.2701 4.59318C22.4955 5.01631 24.6137 6.08851 26.3209 7.57016C26.3789 7.62042 26.4369 7.67068 26.4967 7.72247C29.1065 10.0291 30.9045 13.2967 31.1509 16.8102C31.2968 20.4992 30.3797 24.0977 27.8609 26.8902C27.7806 26.9849 27.7004 27.0797 27.6203 27.1745C26.9921 27.8831 26.3155 28.5027 25.5509 29.0602C25.4905 29.1043 25.4905 29.1043 25.4288 29.1492C24.2849 29.9715 23.0348 30.5766 21.7009 31.0202C21.6238 31.0472 21.5468 31.0743 21.4674 31.1022C21.0014 31.2579 20.5287 31.3597 20.0471 31.4533C19.987 31.465 19.9269 31.4767 19.8649 31.4887C16.5348 32.1049 12.8577 31.3601 10.0415 29.4802C9.8425 29.343 9.64629 29.2024 9.45089 29.0602C9.40886 29.0303 9.36683 29.0004 9.32353 28.9696C6.43688 26.9041 4.56879 23.6199 3.96928 20.1554C3.42564 16.6204 4.29105 12.9283 6.37089 10.0202C6.61263 9.7033 6.87408 9.40595 7.14089 9.11016C7.22116 9.01542 7.30137 8.92064 7.38151 8.82579C9.8999 5.98514 13.5821 4.33593 17.374 4.33266ZM15.3326 6.62574C15.1758 6.66384 15.0182 6.69684 14.8603 6.72989C11.934 7.36996 9.36437 9.25583 7.73223 11.7485C6.97773 12.9519 6.47034 14.2375 6.16089 15.6202C6.14922 15.6717 6.13756 15.7233 6.12554 15.7764C5.96643 16.5127 5.93193 17.2391 5.92901 17.9914C5.92862 18.0754 5.92823 18.1594 5.92783 18.2459C5.93234 18.8055 5.98984 19.3401 6.09089 19.8902C6.10565 19.9722 6.10565 19.9722 6.12071 20.0558C6.71615 23.1992 8.4814 25.8789 11.1267 27.6828C13.0163 28.92 15.1895 29.5621 17.444 29.5633C17.5307 29.5641 17.6174 29.565 17.7066 29.5659C18.2814 29.5668 18.8261 29.5156 19.3909 29.4102C19.4455 29.4003 19.5001 29.3905 19.5564 29.3803C22.6555 28.7947 25.2668 27.0791 27.0909 24.5102C28.1349 22.9792 28.7106 21.2939 28.9809 19.4702C28.9937 19.3986 29.0065 19.3271 29.0197 19.2533C29.169 17.9453 29.0793 16.6162 28.7709 15.3402C28.7585 15.2858 28.7462 15.2314 28.7334 15.1753C28.337 13.451 27.4683 11.8491 26.3209 10.5102C26.2879 10.4716 26.2549 10.433 26.2208 10.3932C24.6287 8.55469 22.5582 7.34293 20.209 6.74329C20.1556 6.72964 20.1022 6.71599 20.0472 6.70193C19.1964 6.49724 18.3527 6.42454 17.479 6.42829C17.4315 6.42842 17.3841 6.42854 17.3351 6.42867C16.6519 6.43176 15.9979 6.46158 15.3326 6.62574Z" fill="#3C9A10"/>
<path d="M26.1804 12.19C26.0739 12.4846 25.8879 12.5862 25.6291 12.75C23.9597 13.8591 23.1277 15.6506 22.3654 17.44C21.5595 19.3312 20.7524 21.1326 18.7604 21.99C17.2187 22.6004 15.4148 22.2632 13.9082 21.6991C13.5703 21.572 13.5703 21.572 13.2304 21.64C13.0918 21.8095 12.9729 21.9735 12.8541 22.1563C12.8183 22.2104 12.7825 22.2646 12.7456 22.3204C12.3656 22.9112 12.048 23.5354 11.7347 24.1633C11.6955 24.2415 11.6562 24.3198 11.6157 24.4004C11.5811 24.4705 11.5465 24.5405 11.5109 24.6127C11.4192 24.7745 11.3455 24.8853 11.2004 25C10.9262 25.0427 10.802 25.0119 10.5573 24.8775C10.2394 24.6232 10.2394 24.6232 10.1504 24.44C10.1755 24.02 10.3176 23.6911 10.5004 23.3157C10.5285 23.2573 10.5566 23.199 10.5856 23.1389C11.5763 21.1252 13.2043 19.2891 14.9804 17.93C15.0856 17.8441 15.0856 17.8441 15.1929 17.7564C17.0727 16.2242 19.2284 15.0929 21.4204 14.08C18.4349 13.8938 15.2702 15.3965 13.0568 17.3102C12.4448 17.8519 11.8722 18.4114 11.3751 19.0615C11.3406 19.1039 11.306 19.1463 11.2704 19.19C11.2473 19.19 11.2242 19.19 11.2004 19.19C11.1608 17.9756 11.156 16.8547 11.5504 15.69C11.5713 15.622 11.5923 15.554 11.6138 15.4839C12.1486 13.944 13.5028 12.7467 14.9221 12.0427C17.8615 10.6412 23.3561 10.3301 26.1804 12.19Z" fill="#3C9A10"/>
<path d="M33.5296 17.2299C33.7397 17.4049 33.7397 17.4049 33.8797 17.5799C33.9028 17.603 33.9258 17.6261 33.9496 17.6499C34.2146 21.4637 32.7793 25.5304 30.3096 28.4299C30.2458 28.5066 30.182 28.5834 30.1182 28.6602C29.4308 29.4814 28.7047 30.2194 27.8596 30.8799C27.794 30.9335 27.7284 30.9871 27.6609 31.0424C26.3078 32.1255 24.7642 32.946 23.1327 33.5238C22.988 33.5751 22.8439 33.6282 22.7013 33.6851C22.0404 33.9468 21.3434 34.0941 20.6496 34.2399C20.5932 34.2518 20.5368 34.2637 20.4787 34.2759C19.7128 34.4297 18.954 34.4722 18.1734 34.4806C18.0416 34.4829 18.0416 34.4829 17.9072 34.4853C17.1304 34.4833 17.1304 34.4833 16.7996 34.1699C16.6371 33.8965 16.6267 33.6433 16.6596 33.3299C16.8338 32.9816 17.0013 32.8419 17.3596 32.6999C17.5724 32.6717 17.784 32.6713 17.9984 32.6693C21.6034 32.5516 25.0061 31.1636 27.6139 28.671C27.6855 28.6025 27.7575 28.5345 27.8298 28.4667C28.7998 27.5551 29.5747 26.5003 30.2396 25.3499C30.2686 25.3004 30.2975 25.2508 30.3274 25.1998C30.8651 24.2676 31.2373 23.2916 31.5696 22.2699C31.5861 22.2198 31.6025 22.1697 31.6194 22.118C31.9993 20.926 32.1658 19.6341 32.1644 18.3866C32.1698 17.9637 32.2311 17.7161 32.4797 17.3699C32.8131 17.1218 33.1409 17.1097 33.5296 17.2299Z" fill="#76E044"/>
<path d="M12.1048 2.89331C12.3541 3.11239 12.4491 3.27856 12.4854 3.61081C12.4557 3.89264 12.4014 4.04135 12.2491 4.28019C12.0803 4.38692 11.9309 4.4674 11.7504 4.54706C11.6492 4.59478 11.548 4.64264 11.4469 4.69062C11.3946 4.71504 11.3422 4.73946 11.2883 4.76462C9.86805 5.43879 8.59176 6.31181 7.45602 7.39803C7.38392 7.46695 7.31147 7.5355 7.23871 7.60372C5.78447 8.97041 4.77041 10.6734 3.93227 12.4702C3.83723 12.6596 3.77615 12.7529 3.61727 12.8989C3.36259 12.9819 3.13167 13.0075 2.86914 12.9602C2.60649 12.8191 2.47459 12.7184 2.30914 12.4702C2.21673 11.8845 2.38108 11.4394 2.64602 10.9258C2.68081 10.8561 2.7156 10.7864 2.75144 10.7146C3.82628 8.5959 5.32934 6.65431 7.20914 5.19019C7.27465 5.13668 7.34016 5.08317 7.40766 5.02804C8.34207 4.27979 9.37074 3.66885 10.4423 3.13831C10.54 3.08851 10.54 3.08851 10.6398 3.03771C11.123 2.80668 11.591 2.68563 12.1048 2.89331Z" fill="#76E044"/>
<path d="M3.56975 23.1854C3.83305 23.3532 3.92582 23.5424 4.04772 23.8187C4.09544 23.9199 4.1433 24.0211 4.19128 24.1222C4.2157 24.1745 4.24012 24.2268 4.26528 24.2807C4.88054 25.5769 5.6544 26.7706 6.63335 27.8218C7.39754 28.6447 7.39754 28.6447 7.4646 29.0337C7.40293 29.3667 7.26514 29.5809 7.01124 29.8037C6.78659 29.9475 6.61286 29.9553 6.35007 29.9453C5.95999 29.8518 5.72368 29.5571 5.46085 29.2699C5.42855 29.2351 5.39626 29.2002 5.36299 29.1642C4.10228 27.79 3.13069 26.2126 2.38085 24.5099C2.35251 24.4462 2.32418 24.3825 2.29499 24.3169C2.19248 24.0197 2.27189 23.7557 2.39835 23.4774C2.71335 23.0724 3.09437 23.0137 3.56975 23.1854Z" fill="#76E044"/>
</g>
<defs>
<clipPath id="clip0_811_1809">
<rect width="35" height="35" fill="white" transform="translate(0 0.5)"/>
</clipPath>
</defs>
</svg>
