<svg width="47" height="63" viewBox="0 0 47 63" fill="none" xmlns="http://www.w3.org/2000/svg">
<path d="M22.2812 0.706299H24.8812L26.6687 0.950049L28.2125 1.3563L29.7562 2.0063L30.8125 2.57505L31.7875 3.3063L32.6 4.03755L33.4937 5.2563L33.8187 5.9063V6.0688H34.875L38.3687 6.31255L40.075 6.47505L41.375 6.80005L42.35 7.2063L43.4875 7.93755L44.4625 8.8313L45.1937 9.8063L45.8438 11.1063L46.1687 12.2438L46.25 13.0563V44.3376L46.0875 45.4751L45.6812 46.6938L45.275 47.5063L44.3 48.8063L43.5687 49.4563L42.4312 50.1876L41.2937 50.6751L39.8312 51.0001L39.9125 51.4063L40.6437 53.1126L42.5125 57.7438L43.325 59.7751L43.4062 60.1001V60.7501L43 61.5626L42.4312 62.0501L41.7 62.2938L40.8875 62.2126L40.2375 61.8876L39.75 61.2376L39.0187 59.5313L38.45 58.0688L34.875 57.9876L19.3562 57.9063L8.55 57.8251L8.46875 58.3126L7.49375 60.6688L7.0875 61.4813L6.68125 61.8876L6.35625 62.1313L5.7875 62.2938L4.89375 62.2126L4.40625 61.9688L3.8375 61.3188L3.59375 60.6688V60.1001L4.08125 58.7188L6.68125 52.3001L7.16875 51.0813V51.0001L6.03125 50.7563L4.89375 50.3501L3.675 49.6188L2.7 48.7251L2.13125 48.0751L1.48125 47.0188L1.075 46.125L0.75 44.5V12.8938L0.99375 11.5938L1.48125 10.375L2.2125 9.23755L3.1875 8.1813L4.325 7.3688L5.38125 6.8813L6.6 6.5563L7.7375 6.3938L11.475 6.15005L12.775 6.0688L13.1812 5.98755L13.5875 5.17505L14.3187 4.20005L15.2937 3.22505L16.5125 2.41255L17.8125 1.76255L19.3562 1.1938L20.9 0.868799L22.2812 0.706299ZM11.3937 51.0001L11.0687 51.6501L10.175 53.8438V53.9251L10.825 54.0063L17 54.0876H36.825L36.5812 53.3563L35.6875 51.0813L35.6062 51.0001H11.3937Z" fill="#55D917"/>
<path d="M9.0375 13.9501H38.0437L38.9375 14.1938L39.6687 14.7626L40.1562 15.4126L40.4812 16.2251L40.5625 17.5251V29.2251L40.4812 30.4438L40.2375 31.1751L39.75 31.9063L39.1812 32.3938L38.3687 32.7188L37.8 32.8001L17.65 32.8813L8.875 32.8001L7.9 32.4751L7.0875 31.7438L6.51875 30.6063L6.4375 30.2813V16.4688L6.7625 15.5751L7.0875 15.0876L7.49375 14.6001L8.30625 14.1126L9.0375 13.9501Z" fill="#FDFDFC"/>
<path d="M9.0375 13.9501H27.8063V14.1126H26.9938L26.8313 14.5188L25.6938 15.7376L24.9625 16.4688H24.8L24.7188 16.7126H24.5563L24.3938 17.0376L22.2813 19.1501H22.1188L21.9563 19.4751L21.1438 20.2876H20.9813L20.8188 20.6126L13.75 27.6813L13.1 28.2501L12.3688 29.0626L10.2563 31.1751L9.60625 31.9876H9.44375V32.1501L9.0375 32.3938L8.95625 32.6376H8.30625L7.65625 32.3126L7.0875 31.7438L6.51875 30.6063L6.4375 30.2813V16.4688L6.7625 15.5751L7.0875 15.0876L7.49375 14.6001L8.30625 14.1126L9.0375 13.9501Z" fill="#FEFEFD"/>
<path d="M7.16875 51.0813H9.3625L11.3125 51.1625L10.825 52.4625L10.2562 53.8438L10.825 53.925L17 54.0063L36.825 54.0875L35.9312 51.8938L35.7687 51.4875V51.2438L36.3375 51.1625L38.3687 51.0813H39.75L40.5625 52.8688L41.4562 55.1438L42.675 58.15L43.325 59.775L43.4062 60.1V60.75L43 61.5625L42.4312 62.05L41.7 62.2938L40.8875 62.2125L40.2375 61.8875L39.75 61.2375L39.0187 59.5313L38.45 58.0688L34.875 57.9875L19.3562 57.9063L8.55 57.825L8.46875 58.3125L7.49375 60.6688L7.0875 61.4813L6.68125 61.8875L6.35625 62.1313L5.7875 62.2938L4.89375 62.2125L4.40625 61.9688L3.8375 61.3188L3.59375 60.6688V60.1L4.08125 58.7188L6.68125 52.3L7.16875 51.0813Z" fill="#444343"/>
<path d="M31.7875 14.0312H38.45L39.1812 14.3562L39.75 14.8438L40.2375 15.575L40.4 15.9V16.875L39.5062 17.3625L36.5812 20.2875L36.2562 20.6937L35.6062 21.2625L25.6125 31.2562L25.0437 31.9062L24.8 32.2312L24.7188 32.475L26.6687 32.6375V32.7188H13.75L14.1562 32.3125L14.725 31.5812L15.05 31.4187V31.2562L15.9437 30.525L16.675 29.7937H16.8375L17 29.4687H17.1625L17.325 29.1437H17.4875V28.9812L17.8937 28.6562L17.975 28.4937H18.1375L18.3 28.1687L28.375 18.0938H28.5375V17.9312L29.1875 17.3625L30.8937 15.6562H31.0562L31.2188 15.3312L31.8687 14.5187L32.0312 14.1937L31.7875 14.0312Z" fill="#E7EDF2"/>
<path d="M27.8061 13.9501H38.0436V14.0313L33.9811 14.1126H32.1936L32.0311 14.1938L31.8686 14.6813L31.1373 15.4938L30.7311 15.9813L30.0811 16.5501L28.6998 17.9313H28.5373V18.0938L27.8873 18.6626L18.2186 28.3313L18.1373 28.4938H17.9748L17.8123 28.8188L17.4873 28.9813V29.1438L16.9186 29.6313L15.6998 30.8501L15.2123 31.2563H15.0498V31.4188L14.5623 31.8251L13.9936 32.6376H24.9623L26.5873 32.7188V32.8001L17.6498 32.8813L8.8748 32.8001L8.5498 32.6376H8.95605L9.0373 32.3126L9.44355 32.1501V31.9876H9.60605L9.76855 31.6626L10.9061 30.4438L12.8561 28.4938L13.4248 27.8438L14.3998 26.9501L24.4748 16.8751L24.7998 16.4688L25.3686 15.9813L26.3436 15.0063L26.9123 14.2751L26.9936 14.1126H27.8061V13.9501Z" fill="#FEFEFD"/>
<path d="M10.9063 36.8625H12.2063L13.0188 37.025L14.075 37.5125L14.8063 38L15.2938 38.4063L16.1063 39.5438L16.5125 40.5188L16.675 41.25V42.7938L16.2688 44.0938L15.7813 44.9875L14.9688 45.8813L14.1563 46.45L13.0188 46.9375L12.2875 47.1H10.9063L9.60625 46.775L8.79375 46.3688L8.0625 45.8L7.49375 45.2313L6.925 44.2563L6.6 43.4438L6.4375 42.7125V41.25L6.68125 40.275L7.25 39.1375L7.98125 38.325L8.63125 37.7563L9.93125 37.1063L10.9063 36.8625Z" fill="#FDB65A"/>
<path d="M34.9564 36.8625H36.0127L36.9877 37.1063L38.2877 37.7563L38.9377 38.325L39.5064 38.8938L40.1564 40.0313L40.4002 40.6813L40.5627 41.575V42.4688L40.2377 43.7688L39.6689 44.825L39.1814 45.475L38.3689 46.2063L37.0689 46.8563L36.0127 47.1H34.9564L33.8189 46.8563L32.8439 46.45L32.0314 45.8813L31.4627 45.3125L30.8127 44.2563L30.4064 43.0375L30.3252 42.55V41.3313L30.6502 40.0313L31.1377 39.1375L32.0314 38.1625L32.4377 37.8375L33.4127 37.2688L34.4689 36.9438L34.9564 36.8625Z" fill="#F79847"/>
<path d="M22.5249 14.0312H27.8062V14.1125H26.9937L26.8312 14.5188L25.6937 15.7375L24.9624 16.4688H24.7999L24.7187 16.7125H24.5562L24.3937 17.0375L22.2812 19.15H22.1187L21.9562 19.475L21.1437 20.2875H20.9812L20.8187 20.6125L13.7499 27.6813L13.0999 28.25L12.3687 29.0625L10.2562 31.175L9.60615 31.9875H9.44365V32.15L9.0374 32.3938L8.95615 32.6375H8.30615L7.65615 32.3125L7.0874 31.7438L6.7624 31.175L6.68115 30.2812L7.00615 29.7125L7.4124 29.3063L8.3874 28.4125L9.0374 27.8438L18.7874 18.0938H18.9499L19.1124 17.7688H19.2749L19.3562 17.525L20.0062 16.9563L20.8999 16.0625H21.0624V15.9H21.2249V15.7375H21.3874L21.5499 15.4125H21.7124L21.7937 15.1688L22.1999 14.8438L22.7687 14.1938L22.5249 14.0312Z" fill="#E7EDF2"/>
<path d="M38.3689 51.0813H39.7502L40.5627 52.8688L41.4564 55.1438L42.6752 58.15L43.3252 59.775L43.4064 60.1V60.75L43.0002 61.5625L42.4314 62.05L41.7002 62.2938L40.8877 62.2125L40.2377 61.8875L39.7502 61.2375L39.0189 59.5313L38.4502 58.0688L38.0439 57.9875L38.2877 57.9063L37.2314 55.3063L36.8252 54.3313L36.7439 54.25L29.5127 54.1688V54.0875H36.8252L35.9314 51.8938L35.7689 51.4875V51.2438L36.3377 51.1625L38.3689 51.0813Z" fill="#454444"/>
<path d="M7.16875 51.0813H9.3625L11.3125 51.1625L10.825 52.4625L10.2562 53.8438L10.825 53.925V54.0063H10.175L9.93125 54.7375L8.79375 57.5813L8.7125 57.7438H9.28125V57.825H8.55L8.46875 58.3125L7.49375 60.6688L7.0875 61.4813L6.68125 61.8875L6.35625 62.1313L5.7875 62.2938L4.89375 62.2125L4.40625 61.9688L3.8375 61.3188L3.59375 60.6688V60.1L4.08125 58.7188L6.68125 52.3L7.16875 51.0813Z" fill="#454343"/>
<path d="M23.4189 3.79382L24.9627 3.95632L26.1002 4.28132L26.9127 4.68757L27.7252 5.41882L28.0502 5.90632V6.80007L27.6439 7.53132L27.0752 8.01882L26.0189 8.50632L25.0439 8.83132L24.4752 8.91257H22.6064L21.1439 8.58757L20.0064 8.10007L19.1939 7.36882L18.9502 6.96257V5.82507L19.4377 5.17507L20.0877 4.68757L20.9002 4.28132L22.1189 3.95632L23.4189 3.79382Z" fill="#F79647"/>
<path d="M2.8625 15.25L3.675 15.3312L4.24375 15.8187L4.325 16.1437V25.4062L4.24375 26.625L4 27.0312L3.75625 27.1937L3.35 27.275H2.7L2.29375 27.0312L2.05 26.4625L1.96875 23.9437V16.1437L2.29375 15.4937L2.8625 15.25Z" fill="#F76256"/>
<path d="M22.4437 37.675H26.5875L27.1562 37.9188L27.5625 38.65V39.4625L27.2375 40.0313L26.8312 40.3563L26.0187 40.5188H22.2812L20.3312 40.4375L19.925 40.275L19.5187 39.625L19.4375 39.3813V38.7313L19.7625 38.0813L20.4125 37.7563L22.4437 37.675Z" fill="#444343"/>
<path d="M22.2812 43.525H26.5875L27.1562 43.7688L27.4812 44.2563L27.5625 44.5V45.2313L27.2375 45.8813L26.8312 46.2063L26.0187 46.3688H23.6625L20.4125 46.2875L19.925 46.125L19.4375 45.3125V44.5813L19.6812 44.0938L20.1687 43.6875L20.4125 43.6063L22.2812 43.525Z" fill="#444343"/>
<path d="M22.6064 4.0376H23.3377L23.5002 4.11885L23.5814 4.93135V8.83135H22.2002L20.9002 8.50635L19.7627 7.9376L19.1939 7.36885L18.9502 6.9626V5.8251L19.4377 5.1751L20.0877 4.6876L20.9002 4.28135L22.6064 4.0376Z" fill="#FDB55A"/>
<path d="M23.5811 37.675H26.5873L27.1561 37.9188L27.5623 38.65V39.4625L27.2373 40.0313L26.8311 40.3563L26.0186 40.5188H23.6623L23.5811 40.4375V37.675Z" fill="#2D2E30"/>
<path d="M23.6623 43.525H26.5873L27.1561 43.7688L27.4811 44.2563L27.5623 44.5V45.2313L27.2373 45.8813L26.8311 46.2063L26.0186 46.3688H23.6623L23.5811 46.0438V43.6063L23.6623 43.525Z" fill="#2D2E30"/>
<path d="M38.8562 52.625H39.4249L39.8312 53.275L41.1312 56.7688L41.4562 57.825L41.2937 57.9875L41.0499 58.0688H40.2374L39.8312 57.2563L39.0187 55.1438L38.4499 53.3563L38.3687 52.8688L38.8562 52.625Z" fill="#766565"/>
<path d="M10.1749 54.0063H12.0437L11.6374 55.2251L10.5812 57.6626L10.4999 57.7438L9.28115 57.8251L8.7124 57.7438L8.95615 57.0126L9.8499 54.7376L10.1749 54.0063Z" fill="#2D2E30"/>
<path d="M35.0376 54.1688H36.7438L36.9876 54.4938L37.8813 56.6876L38.2876 57.7438V57.9063L38.0438 57.9876H36.5813L36.0126 56.7688L35.4438 55.3876L35.0376 54.1688Z" fill="#2D2E30"/>
</svg>
