<svg width="47" height="63" viewBox="0 0 47 63" fill="none" xmlns="http://www.w3.org/2000/svg">
<path d="M22.2812 0.706055H24.8812L26.6687 0.949805L28.2125 1.35605L29.7562 2.00605L30.8125 2.5748L31.7875 3.30605L32.6 4.0373L33.4937 5.25605L33.8187 5.90605V6.06855H34.875L38.3687 6.3123L40.075 6.4748L41.375 6.79981L42.35 7.20606L43.4875 7.9373L44.4625 8.83105L45.1937 9.80606L45.8438 11.1061L46.1687 12.2436L46.25 13.0561V44.3373L46.0875 45.4748L45.6812 46.6936L45.275 47.5061L44.3 48.8061L43.5687 49.4561L42.4312 50.1873L41.2937 50.6748L39.8312 50.9998L39.9125 51.4061L40.6437 53.1123L42.5125 57.7436L43.325 59.7748L43.4062 60.0998V60.7498L43 61.5623L42.4312 62.0498L41.7 62.2936L40.8875 62.2123L40.2375 61.8873L39.75 61.2373L39.0187 59.5311L38.45 58.0686L34.875 57.9873L19.3562 57.9061L8.55 57.8248L8.46875 58.3123L7.49375 60.6686L7.0875 61.4811L6.68125 61.8873L6.35625 62.1311L5.7875 62.2936L4.89375 62.2123L4.40625 61.9686L3.8375 61.3186L3.59375 60.6686V60.0998L4.08125 58.7186L6.68125 52.2998L7.16875 51.0811V50.9998L6.03125 50.7561L4.89375 50.3498L3.675 49.6186L2.7 48.7248L2.13125 48.0748L1.48125 47.0186L1.075 46.1248L0.75 44.4998V12.8936L0.99375 11.5936L1.48125 10.3748L2.2125 9.2373L3.1875 8.18106L4.325 7.36856L5.38125 6.88105L6.6 6.55606L7.7375 6.39356L11.475 6.14981L12.775 6.06855L13.1812 5.98731L13.5875 5.17481L14.3187 4.1998L15.2937 3.2248L16.5125 2.4123L17.8125 1.7623L19.3562 1.19355L20.9 0.868555L22.2812 0.706055ZM11.3937 50.9998L11.0687 51.6498L10.175 53.8436V53.9248L10.825 54.0061L17 54.0873H36.825L36.5812 53.3561L35.6875 51.0811L35.6062 50.9998H11.3937Z" fill="#8C8A8A"/>
<path d="M9.0375 13.9497H38.0437L38.9375 14.1935L39.6687 14.7622L40.1562 15.4122L40.4812 16.2247L40.5625 17.5247V29.2247L40.4812 30.4435L40.2375 31.1747L39.75 31.906L39.1812 32.3935L38.3687 32.7185L37.8 32.7997L17.65 32.881L8.875 32.7997L7.9 32.4747L7.0875 31.7435L6.51875 30.606L6.4375 30.281V16.4685L6.7625 15.5747L7.0875 15.0872L7.49375 14.5997L8.30625 14.1122L9.0375 13.9497Z" fill="#FDFDFC"/>
<path d="M9.0375 13.9497H27.8063V14.1122H26.9938L26.8313 14.5185L25.6938 15.7372L24.9625 16.4685H24.8L24.7188 16.7122H24.5563L24.3938 17.0372L22.2813 19.1497H22.1188L21.9563 19.4747L21.1438 20.2872H20.9813L20.8188 20.6122L13.75 27.681L13.1 28.2497L12.3688 29.0622L10.2563 31.1747L9.60625 31.9872H9.44375V32.1497L9.0375 32.3935L8.95625 32.6372H8.30625L7.65625 32.3122L7.0875 31.7435L6.51875 30.606L6.4375 30.281V16.4685L6.7625 15.5747L7.0875 15.0872L7.49375 14.5997L8.30625 14.1122L9.0375 13.9497Z" fill="#FEFEFD"/>
<path d="M7.16875 51.0811H9.3625L11.3125 51.1623L10.825 52.4623L10.2562 53.8436L10.825 53.9248L17 54.0061L36.825 54.0873L35.9312 51.8936L35.7687 51.4873V51.2436L36.3375 51.1623L38.3687 51.0811H39.75L40.5625 52.8686L41.4562 55.1436L42.675 58.1498L43.325 59.7748L43.4062 60.0998V60.7498L43 61.5623L42.4312 62.0498L41.7 62.2936L40.8875 62.2123L40.2375 61.8873L39.75 61.2373L39.0187 59.5311L38.45 58.0686L34.875 57.9873L19.3562 57.9061L8.55 57.8248L8.46875 58.3123L7.49375 60.6686L7.0875 61.4811L6.68125 61.8873L6.35625 62.1311L5.7875 62.2936L4.89375 62.2123L4.40625 61.9686L3.8375 61.3186L3.59375 60.6686V60.0998L4.08125 58.7186L6.68125 52.2998L7.16875 51.0811Z" fill="#444343"/>
<path d="M31.7875 14.0312H38.45L39.1812 14.3562L39.75 14.8438L40.2375 15.575L40.4 15.9V16.875L39.5062 17.3625L36.5812 20.2875L36.2562 20.6937L35.6062 21.2625L25.6125 31.2562L25.0437 31.9062L24.8 32.2312L24.7188 32.475L26.6687 32.6375V32.7188H13.75L14.1562 32.3125L14.725 31.5812L15.05 31.4187V31.2562L15.9437 30.525L16.675 29.7937H16.8375L17 29.4687H17.1625L17.325 29.1437H17.4875V28.9812L17.8937 28.6562L17.975 28.4937H18.1375L18.3 28.1687L28.375 18.0938H28.5375V17.9312L29.1875 17.3625L30.8937 15.6562H31.0562L31.2188 15.3312L31.8687 14.5187L32.0312 14.1937L31.7875 14.0312Z" fill="#E7EDF2"/>
<path d="M27.807 13.9497H38.0445V14.031L33.982 14.1122H32.1945L32.032 14.1935L31.8695 14.681L31.1383 15.4935L30.732 15.981L30.082 16.5497L28.7008 17.931H28.5383V18.0935L27.8883 18.6622L18.2195 28.331L18.1383 28.4935H17.9758L17.8133 28.8185L17.4883 28.981V29.1435L16.9195 29.631L15.7008 30.8497L15.2133 31.256H15.0508V31.4185L14.5633 31.8247L13.9945 32.6372H24.9633L26.5883 32.7185V32.7997L17.6508 32.881L8.87578 32.7997L8.55078 32.6372H8.95703L9.03828 32.3122L9.44453 32.1497V31.9872H9.60703L9.76953 31.6622L10.907 30.4435L12.857 28.4935L13.4258 27.8435L14.4008 26.9497L24.4758 16.8747L24.8008 16.4685L25.3695 15.981L26.3445 15.006L26.9133 14.2747L26.9945 14.1122H27.807V13.9497Z" fill="#FEFEFD"/>
<path d="M10.9063 36.8623H12.2063L13.0188 37.0248L14.075 37.5123L14.8063 37.9998L15.2938 38.4061L16.1063 39.5436L16.5125 40.5186L16.675 41.2498V42.7936L16.2688 44.0936L15.7813 44.9873L14.9688 45.8811L14.1563 46.4498L13.0188 46.9373L12.2875 47.0998H10.9063L9.60625 46.7748L8.79375 46.3686L8.0625 45.7998L7.49375 45.2311L6.925 44.2561L6.6 43.4436L6.4375 42.7123V41.2498L6.68125 40.2748L7.25 39.1373L7.98125 38.3248L8.63125 37.7561L9.93125 37.1061L10.9063 36.8623Z" fill="#FDB65A"/>
<path d="M34.9555 36.8623H36.0117L36.9867 37.1061L38.2867 37.7561L38.9367 38.3248L39.5055 38.8936L40.1555 40.0311L40.3992 40.6811L40.5617 41.5748V42.4686L40.2367 43.7686L39.668 44.8248L39.1805 45.4748L38.368 46.2061L37.068 46.8561L36.0117 47.0998H34.9555L33.818 46.8561L32.843 46.4498L32.0305 45.8811L31.4617 45.3123L30.8117 44.2561L30.4055 43.0373L30.3242 42.5498V41.3311L30.6492 40.0311L31.1367 39.1373L32.0305 38.1623L32.4367 37.8373L33.4117 37.2686L34.468 36.9436L34.9555 36.8623Z" fill="#F79847"/>
<path d="M22.5254 14.0312H27.8066V14.1125H26.9941L26.8316 14.5188L25.6941 15.7375L24.9629 16.4688H24.8004L24.7191 16.7125H24.5566L24.3941 17.0375L22.2816 19.15H22.1191L21.9566 19.475L21.1441 20.2875H20.9816L20.8191 20.6125L13.7504 27.6813L13.1004 28.25L12.3691 29.0625L10.2566 31.175L9.60664 31.9875H9.44414V32.15L9.03789 32.3938L8.95664 32.6375H8.30664L7.65664 32.3125L7.08789 31.7438L6.76289 31.175L6.68164 30.2812L7.00664 29.7125L7.41289 29.3063L8.38789 28.4125L9.03789 27.8438L18.7879 18.0938H18.9504L19.1129 17.7688H19.2754L19.3566 17.525L20.0066 16.9563L20.9004 16.0625H21.0629V15.9H21.2254V15.7375H21.3879L21.5504 15.4125H21.7129L21.7941 15.1688L22.2004 14.8438L22.7691 14.1938L22.5254 14.0312Z" fill="#E7EDF2"/>
<path d="M38.368 51.0811H39.7492L40.5617 52.8686L41.4555 55.1436L42.6742 58.1498L43.3242 59.7748L43.4055 60.0998V60.7498L42.9992 61.5623L42.4305 62.0498L41.6992 62.2936L40.8867 62.2123L40.2367 61.8873L39.7492 61.2373L39.018 59.5311L38.4492 58.0686L38.043 57.9873L38.2867 57.9061L37.2305 55.3061L36.8242 54.3311L36.743 54.2498L29.5117 54.1686V54.0873H36.8242L35.9305 51.8936L35.768 51.4873V51.2436L36.3367 51.1623L38.368 51.0811Z" fill="#454444"/>
<path d="M7.16875 51.0811H9.3625L11.3125 51.1623L10.825 52.4623L10.2562 53.8436L10.825 53.9248V54.0061H10.175L9.93125 54.7373L8.79375 57.5811L8.7125 57.7436H9.28125V57.8248H8.55L8.46875 58.3123L7.49375 60.6686L7.0875 61.4811L6.68125 61.8873L6.35625 62.1311L5.7875 62.2936L4.89375 62.2123L4.40625 61.9686L3.8375 61.3186L3.59375 60.6686V60.0998L4.08125 58.7186L6.68125 52.2998L7.16875 51.0811Z" fill="#454343"/>
<path d="M23.418 3.79346L24.9617 3.95596L26.0992 4.28096L26.9117 4.68721L27.7242 5.41846L28.0492 5.90596V6.79971L27.643 7.53096L27.0742 8.01846L26.018 8.50596L25.043 8.83096L24.4742 8.91221H22.6055L21.143 8.58721L20.0055 8.09971L19.193 7.36846L18.9492 6.96221V5.82471L19.4367 5.17471L20.0867 4.68721L20.8992 4.28096L22.118 3.95596L23.418 3.79346Z" fill="#F79647"/>
<path d="M2.8625 15.25L3.675 15.3312L4.24375 15.8187L4.325 16.1437V25.4062L4.24375 26.625L4 27.0312L3.75625 27.1937L3.35 27.275H2.7L2.29375 27.0312L2.05 26.4625L1.96875 23.9437V16.1437L2.29375 15.4937L2.8625 15.25Z" fill="#F76256"/>
<path d="M22.4437 37.6748H26.5875L27.1562 37.9186L27.5625 38.6498V39.4623L27.2375 40.0311L26.8312 40.3561L26.0187 40.5186H22.2812L20.3312 40.4373L19.925 40.2748L19.5187 39.6248L19.4375 39.3811V38.7311L19.7625 38.0811L20.4125 37.7561L22.4437 37.6748Z" fill="#444343"/>
<path d="M22.2812 43.5249H26.5875L27.1562 43.7687L27.4812 44.2562L27.5625 44.4999V45.2312L27.2375 45.8812L26.8312 46.2062L26.0187 46.3687H23.6625L20.4125 46.2874L19.925 46.1249L19.4375 45.3124V44.5812L19.6812 44.0937L20.1687 43.6874L20.4125 43.6062L22.2812 43.5249Z" fill="#444343"/>
<path d="M22.6055 4.03711H23.3367L23.4992 4.11836L23.5805 4.93086V8.83086H22.1992L20.8992 8.50586L19.7617 7.93711L19.193 7.36836L18.9492 6.96211V5.82461L19.4367 5.17461L20.0867 4.68711L20.8992 4.28086L22.6055 4.03711Z" fill="#FDB55A"/>
<path d="M23.582 37.6748H26.5883L27.157 37.9186L27.5633 38.6498V39.4623L27.2383 40.0311L26.832 40.3561L26.0195 40.5186H23.6633L23.582 40.4373V37.6748Z" fill="#2D2E30"/>
<path d="M23.6633 43.5249H26.5883L27.157 43.7687L27.482 44.2562L27.5633 44.4999V45.2312L27.2383 45.8812L26.832 46.2062L26.0195 46.3687H23.6633L23.582 46.0437V43.6062L23.6633 43.5249Z" fill="#2D2E30"/>
<path d="M38.8566 52.625H39.4254L39.8316 53.275L41.1316 56.7688L41.4566 57.825L41.2941 57.9875L41.0504 58.0688H40.2379L39.8316 57.2563L39.0191 55.1438L38.4504 53.3563L38.3691 52.8688L38.8566 52.625Z" fill="#766565"/>
<path d="M10.1754 54.0059H12.0441L11.6379 55.2246L10.5816 57.6621L10.5004 57.7434L9.28164 57.8246L8.71289 57.7434L8.95664 57.0121L9.85039 54.7371L10.1754 54.0059Z" fill="#2D2E30"/>
<path d="M35.0371 54.1685H36.7434L36.9871 54.4935L37.8809 56.6872L38.2871 57.7435V57.906L38.0434 57.9872H36.5809L36.0121 56.7685L35.4434 55.3872L35.0371 54.1685Z" fill="#2D2E30"/>
</svg>
