<svg width="68" height="65" viewBox="0 0 68 65" fill="none" xmlns="http://www.w3.org/2000/svg">
<path d="M34.2398 0.849731H37.4683L40.1022 1.10463L43.0759 1.61444L45.2849 2.20921L47.7488 3.05888L50.0428 4.07849L51.9969 5.0981L53.8661 6.28764L56.245 8.07195L57.0947 8.83666L57.7744 9.43143L59.8984 11.5556L60.6631 12.4903L61.6826 13.7648L62.4473 14.8693L63.6368 16.7386L64.7413 18.7778L65.7608 21.0719L66.7804 24.1308L67.545 27.2746L67.9698 29.9935V35.7713L67.4601 38.8301L66.8653 41.4641L66.3556 43.1634L65.6759 44.9478L64.9962 46.4772L64.3165 47.9216L63.127 49.9608L62.4473 50.9804L61.2578 52.5948L60.2383 53.7844L59.6435 54.4641L58.7089 55.4837L57.8593 56.3334L57.1796 56.9282L55.9901 57.9478L54.6307 58.9674L53.1014 59.987L51.2323 61.0915L49.1932 62.1112L46.8992 63.0458L44.7751 63.7255L42.736 64.2353L39.5924 64.7451L37.8932 64.9151L35.4292 65L32.7954 64.8301L30.4165 64.4902L28.2924 64.0654L26.1683 63.4706L24.0443 62.7059L21.7503 61.6863L19.5413 60.4968L17.842 59.3922L16.5676 58.4576L15.3781 57.5229L14.3586 56.5883L13.6789 55.9935L12.4044 54.719L11.8097 54.0393L10.8751 52.9347L9.60068 51.2353L8.49617 49.536L7.3067 47.4118L6.28715 45.2027L5.52249 43.1634L4.92775 41.1242L4.41798 39L3.99317 36.0262L3.9082 35.0066V30.8432L4.16309 28.3791L4.50294 26.3399L5.2676 23.451L6.03226 21.2419L6.79692 19.3726L7.47662 18.0131L8.58113 16.0589L9.68565 14.4445L10.7052 13.085L11.4699 12.1504L12.4044 11.0458L14.2736 9.17653L15.2082 8.41182L16.2277 7.56215L17.842 6.37261L19.4563 5.353L20.8157 4.58829L22.2601 3.82359L24.724 2.80398L27.4428 1.95431L29.227 1.52947L31.7759 1.10463L34.2398 0.849731Z" fill="#0C90F9"/>
<path d="M50.5529 4.5033L50.9777 4.58826L52.2521 5.268L53.8664 6.28761L56.2453 8.07192L57.095 8.83663L57.7747 9.4314L59.8987 11.5556L60.6634 12.4902L61.6829 13.7647L62.4476 14.8693L63.6371 16.7386L64.7416 18.7778L65.7611 21.0719L66.7807 24.1307L67.5453 27.2745L67.9702 29.9935V35.7713L67.4604 38.8301L66.8656 41.4641L66.3559 43.1634L65.6762 44.9477L64.9965 46.4771L64.3168 47.9216L63.1273 49.9608L62.4476 50.9804L61.2581 52.5948L60.2386 53.7843L59.6438 54.4641L58.7093 55.4837L57.8596 56.3334L57.1799 56.9281L55.9905 57.9477L54.6311 58.9673L53.1017 59.9869L51.2326 61.0915L49.1935 62.1111L46.8995 63.0458L44.7754 63.7255L42.7363 64.2353L39.5927 64.7451L37.8935 64.9151L35.4296 65L32.7957 64.8301L30.4168 64.4902L28.2927 64.0654L26.1687 63.4706L24.0446 62.7059L21.7506 61.6863L19.5416 60.4967L17.8424 59.3922L17.5875 58.8824L17.3326 58.7124V58.5425L16.9927 58.4575L16.5679 58.0327L15.8882 57.5229L15.6333 57.268L15.4634 56.7582L14.9536 56.6732L14.189 55.9085L14.019 55.5686L13.7642 55.3137V54.8889L14.189 54.4641L15.0386 53.8693L16.2281 53.1896H16.7378L17.0777 53.6144V53.7843H17.3326L17.6724 54.2941V54.719L16.9927 55.4837L16.483 55.8236H16.313V55.9935H16.1431L15.9732 56.3334L15.8882 56.7582H16.483L16.9927 56.4183L17.7574 56.3334L17.8424 56.1634L18.0972 56.0785H18.8619L19.1168 55.8236L20.1363 56.1634V55.8236H19.9664L19.7115 55.3987V55.2288L19.3717 55.0588L18.7769 54.4641L18.5221 54.1242L18.607 53.8693L19.8815 53.5294L20.986 53.1046L21.0709 53.0196H21.4957V53.1896L21.7506 53.2745V53.5294L22.1754 53.6994L22.9401 54.9739L23.7048 56.1634L24.0446 56.5883L24.4694 56.5033L25.5739 55.4837L26.0837 54.9739V53.7843L25.7439 51.5752L25.6589 50.6405L25.5739 50.1307L26.0837 49.7059L26.6784 49.451L27.4431 48.8562L27.8679 48.4314L28.6326 47.9216L29.6521 47.0719L30.7566 46.2222L32.201 45.0327L33.3055 44.0981L35.6845 42.0588L36.789 41.0392L37.6386 40.3595L37.8085 40.4445L38.4882 41.9739L39.2529 43.7582L40.3574 46.3072L40.9521 47.7517L41.5469 49.0262L42.2266 50.5556L42.6514 51.6602L43.0762 52.3399L43.501 52.2549L44.3506 51.5752L46.4747 49.451L46.9844 48.7713L47.0694 48.0915L46.9844 47.4968V46.3072L47.4942 46.2222V46.0523H47.6641V45.8824L47.919 45.7124L48.004 45.4575H48.1739L48.2589 45.0327L48.3438 44.9477L48.4288 43.9281H48.2589L48.004 43.3334L47.3243 42.7386L46.5596 42.5686L46.4747 42.2288L46.6446 41.9739H46.8995L46.9844 41.719L47.4093 41.3791L47.7491 40.6994V39.7647L47.4093 38.9151L46.8995 38.4902L46.0499 38.2353L45.795 37.4706L45.3702 34.0719L45.2852 32.7974L45.8799 32.2026L46.4747 31.5229L47.2393 30.5883L48.1739 29.5687L48.9386 28.549L49.2784 28.2092L49.6183 27.6144H49.7882L49.8732 27.2745L50.0431 27.0196H50.213L50.298 26.6798L51.3175 24.9804L52.0822 23.536L52.422 22.6013L52.592 21.4118V20.7321L52.2521 19.9673L51.9972 19.5425L51.2326 19.2026L50.213 19.1177L49.0235 19.3726L47.919 19.7974L46.5596 20.4771L45.3702 21.2419L45.0303 21.1569L44.9454 20.902V19.5425L44.6905 18.0981V17.4183L44.8604 16.6536L45.2852 16.2288L45.5401 16.4837L45.8799 16.0588L46.8145 15.3791L47.4942 14.7843L47.7491 14.4445H47.919L48.089 14.1046L48.5138 13.5948H48.089V13.2549H48.3438V13.4249H48.5138L48.5987 13.17L49.5333 13.3399L50.213 13.4249L50.9777 13.7647L51.7423 14.0196L53.1017 14.5294L53.5266 14.4445V12.6602L53.0168 11.3007L52.3371 9.6863L51.8273 8.58173L51.4875 7.81702L51.0626 6.45754L50.5529 5.43794V5.18303H50.3829L50.298 4.7582L50.5529 4.5033Z" fill="#2E54E8"/>
<path d="M50.2125 19.0327L51.2321 19.1177L52.0817 19.5425L52.5065 20.2223L52.6764 20.7321L52.5915 22.1765L52.2516 23.2811L51.5719 24.7255L50.3824 26.6798L50.2125 27.0196L49.8727 27.3595L49.7877 27.6144H49.6178L49.4479 27.9543L49.193 28.3791H49.023L48.8531 28.804L47.9185 29.9085L47.3238 30.5883L46.3042 31.7778L45.3697 32.7974L45.5396 34.7517L45.8794 37.4706L46.0494 38.2353L46.6441 38.3203L47.2388 38.6602L47.5787 39L47.8336 39.7647V40.6994L47.4937 41.3791L46.9839 41.804L46.899 41.9739L46.6441 42.0589L46.5591 42.4837L47.3238 42.6536L48.1734 43.4183L48.2584 43.9281H48.4283V44.9477L48.1734 45.4575H48.0035L47.9185 45.7974L47.6636 45.8824V46.0523H47.4937V46.2223L46.9839 46.3072L47.1539 48.5164L46.899 49.0262L45.8794 50.1307L44.0952 51.9151L43.4155 52.4249L42.9907 52.3399L42.5659 51.6602L41.7163 49.6209L40.9516 47.8366L40.5268 46.902L39.1674 43.7582L38.1479 41.3791L37.723 40.4445L37.2982 40.6994L36.1937 41.719L35.0042 42.7386L33.7298 43.8432L32.5403 44.8628L31.6058 45.6275L30.1614 46.817L28.802 47.8366L28.0373 48.4314L27.6125 48.6863L27.1877 49.1111L26.423 49.7059L25.8283 49.9608L25.6584 50.1307L25.9133 52.085L26.1682 53.7843V54.9739L24.8937 56.2484L24.3839 56.6732L23.9591 56.5883L23.4494 55.9085L21.7501 53.1896L21.5802 52.8497L20.8155 53.1046L19.4561 53.6144L18.9464 53.6994H18.2667L18.0118 53.3595V52.4249L18.5215 51.0654L18.8614 50.5556L18.9464 50.2157L18.4366 50.0458L17.7569 49.536L16.6524 48.8562L15.7178 48.2615L15.123 47.8366V47.3268L15.4629 47.1569L15.6328 46.7321L16.2276 46.1373L16.9073 45.6275L17.0772 45.5425H17.6719L20.2208 45.9673L21.5802 46.0523L22.1749 45.2876L22.8546 44.353L23.7892 43.1634L24.6388 42.0589L25.7433 40.6994L26.508 39.7647L27.6975 38.3203L28.4621 37.4706L29.2268 36.536L30.1614 35.5164L30.7561 34.8366L31.011 34.4968H31.1809L31.2659 34.1569L30.2464 33.6471L28.9719 33.1373L26.8479 32.2026L23.0245 30.5883L21.2403 29.8236L20.2208 29.3987L20.1358 29.1438L19.796 29.0589L19.2862 28.719L19.3712 28.2942L20.1358 27.4445L22.005 25.5752L22.8546 24.8105L23.1945 24.6406H25.4035L25.8283 23.9608L26.423 23.536L27.0178 23.366L27.8674 23.451L28.5471 23.7909L29.0569 24.3857L29.3967 25.1504V25.3203L29.7366 25.1504L29.9915 24.7255L30.7561 24.0458L31.011 23.9608H32.0306L32.8802 24.3007L33.4749 24.8955L33.6448 25.3203L33.7298 25.8301L37.723 26.3399L38.8276 26.4249L39.6772 25.7451L40.6967 24.8105L41.6313 24.0458L42.8208 23.0262L44.1802 22.0066L45.6245 20.987L46.899 20.2223L48.2584 19.5425L49.7027 19.1177L50.2125 19.0327Z" fill="#C0D4FB"/>
<path d="M25.4886 2.54907L27.1879 2.88894L27.6976 3.22881L28.1224 3.56868L28.6322 4.58829L28.9721 6.28763L29.3119 7.05234L29.9067 7.73208L30.6713 8.15691L31.0112 8.24188L37.0435 8.32685L37.9781 8.49678L38.9976 9.00659L39.5924 9.68633L40.0172 10.621L40.1021 11.0458V11.8955L39.8473 12.7451L39.1676 13.7648L38.4879 14.4445L37.3833 15.1242L36.2788 15.4641L34.4097 15.634L33.3051 16.0589L32.4555 16.5687L31.351 17.5883L27.2728 21.6667L25.9134 22.6863L24.7239 23.3661L23.1097 24.0458L21.4954 24.4706L20.4758 24.6406L19.2864 24.7255H16.0578L15.1232 25.0654L14.4435 25.5752L14.1037 26L13.7638 26.9347V28.1242L14.1037 28.9739L14.8683 29.8236L15.633 30.2484L15.9728 30.3334L20.2209 30.4183L20.8157 30.7582L21.0706 31.268V31.8628L20.7307 32.3726L20.2209 32.6275H18.4367L16.3976 32.2876L14.6134 31.7778L12.8292 31.0131L10.96 29.9085L9.60064 28.804L8.5811 27.8693L7.98636 27.1896L7.30666 26.3399L6.62696 25.0654L6.28711 23.9608L6.20215 23.451V20.817L6.79689 19.3726L7.47658 18.0131L8.5811 16.0589L9.68561 14.4445L10.7052 13.085L11.4698 12.1504L12.4044 11.0458L14.2736 9.17652L15.2082 8.41182L16.2277 7.56214L17.842 6.3726L19.4563 5.35299L20.8157 4.58829L22.26 3.82358L24.7239 2.80397L25.4886 2.54907Z" fill="#E1F1FD"/>
<path d="M34.2401 0.849731H37.4687L40.1025 1.10463L43.0762 1.61444L45.2852 2.20921L47.7491 3.05888L50.0431 4.07849L50.6378 4.41836L50.5529 4.58829H50.3829V5.18306H50.5529L51.1476 6.45757L51.4025 7.30725L51.7423 8.15692L52.3371 9.60136L52.8469 10.7059L53.3566 12.0654L53.6115 12.8301V13.8497L53.5266 14.4445L53.1017 14.6144L51.7423 14.1046L50.8078 13.7648L50.1281 13.5099L48.8536 13.255H48.5987L48.5138 13.4249H48.3439V13.255H48.089L48.2589 13.5099L48.5138 13.5948L48.4288 13.8497H48.2589L48.089 14.1896L47.919 14.4445H47.7491L47.5792 14.7844L46.9845 15.3791L46.2198 15.8889L45.8799 16.0589L45.71 16.3987L45.4551 16.5687V16.3138L45.1153 16.3987L44.8604 16.8236L44.7754 17.7582L44.9454 19.1177L45.0303 20.0523V20.902L45.1153 21.1569L45.2852 21.3269L43.8408 22.3465L42.6514 23.2811L41.5469 24.2157L40.6123 24.9804L40.0175 25.5752L38.8281 26.5099L36.3642 26.255L33.7303 25.9151L33.4754 25.1504L33.2205 24.7255L32.7108 24.3007L32.0311 24.0458H31.0115L30.4168 24.3857L29.907 24.8955L29.7371 25.2353L29.3972 25.3203L29.0574 24.5556L28.7175 24.0458L28.2927 23.7059L27.5281 23.451L26.6784 23.536L25.9138 23.9608L25.6589 24.3007L25.404 24.7255H23.195L22.4303 25.2353L21.8356 25.8301H21.6657L21.4957 26.17L19.6266 28.0393L19.3717 28.3791L19.4566 28.804L19.6266 28.8889L19.7115 29.5687H19.8815V29.7386L20.2213 29.9086L20.4762 30.1635V30.3334L20.816 30.5033L21.1559 31.0131V31.268H20.986L20.7311 30.7582L20.2213 30.5033L15.9732 30.4184L15.1236 30.0785L14.4439 29.4837L13.9341 28.804L13.6792 28.1242V26.9347L14.104 25.9151L14.6138 25.3203L15.4634 24.8105L16.0581 24.6406H19.2867L20.986 24.4706L22.5153 24.1308L23.5348 23.7909L25.0642 23.1112L26.1687 22.4314L27.0183 21.7517L27.8679 20.987L28.4627 20.4772L29.0574 19.7974L32.0311 16.8236L32.9657 16.1438L33.9002 15.719L34.41 15.5491L36.2792 15.3791L37.5536 14.9543L38.5732 14.2746L39.1679 13.6798L39.7627 12.7452L40.0175 11.8955V11.0458L39.7627 10.1961L39.2529 9.34646L38.8281 9.00659L37.9784 8.58176L37.0439 8.41182L31.0115 8.32685L30.1619 7.98699L29.3123 7.22228L28.9724 6.54254L28.4627 4.33339L28.1228 3.73862V3.56869L27.783 3.39875L27.3581 3.05888L25.9987 2.71901L25.5739 2.63404L25.7439 2.46411L28.3777 1.6994L30.5867 1.27457L33.1356 0.934699L34.2401 0.849731Z" fill="#07A6FC"/>
<path d="M60.5783 22.5164L63.552 22.6013L64.7415 22.8562L65.3362 23.1961L65.5911 23.451L66.0159 23.7059L66.6956 24.3856L66.8655 24.4706L67.5452 27.2745L67.97 29.9935V35.7713L67.4603 38.8301L66.8655 41.4641L66.3558 43.1634L65.6761 44.9477L64.9964 46.4771L64.3167 47.9216L63.1272 49.9608L62.4475 50.9804L62.1076 51.3203L61.6828 51.4052L61.343 51.5752H60.1535L59.3888 51.2353L58.964 50.8105L58.6242 50.3007L58.4543 49.1961V40.1046H58.2843L57.9445 39.085L57.7746 38.8301V38.5752L57.4347 38.4052L57.0949 38.0654L55.8204 37.6405L53.7813 37.3856L52.5069 36.9608L51.7422 36.536L50.8926 36.0262L49.958 35.0915L49.2783 33.9869L48.9385 33.1373V32.4575L49.2783 32.2876V32.1177L50.4678 31.183H50.6377V31.0131L51.4024 30.4183L51.7422 30.2484V30.0784L52.8467 29.3137L54.1212 28.634L54.8009 28.1242L55.5655 27.6144H55.7355L55.9054 27.2745L56.6701 26.4249L57.0949 26.085L57.5197 26L57.6046 25.5752L57.2648 25.1503V24.9804L56.9249 24.8105V24.6405H56.755L56.1603 23.9608L55.1407 22.8562L55.2257 22.6013L60.5783 22.5164Z" fill="#C0D4FB"/>
<path d="M49.4483 19.2876H50.2129L50.128 19.7974L49.6182 20.3922L49.4483 21.2418L48.3438 22.3464H48.1738L48.0039 22.6863L47.4941 23.1111L47.0693 23.2811L46.6445 23.1961L45.54 22.7713L44.9453 22.6863L43.9257 23.1961L43.331 23.7909L42.6513 24.3856L42.1415 24.8954L42.0565 25.1503L42.9911 25.2353L43.9257 25.6601L44.2656 26.085L44.0107 26.7647L43.6708 27.4445L42.6513 28.549H42.4814V28.719L41.6317 29.3987L41.2069 29.9085L40.7821 30.3333L40.3573 30.6732L39.9325 31.183L39.4227 31.6079H39.2528L39.0829 31.9477H38.9129V32.1177L37.0438 33.9869L36.3641 34.5817L35.8543 35.0915H35.6844L35.5144 35.4314L35.0047 35.8562L34.6648 36.2811L34.24 36.7059L32.8806 38.1503L31.8611 39.2549L30.5866 40.6144L29.9919 41.2092L29.3972 41.8889L29.0573 42.3137H28.8874L28.7175 42.6536L28.1227 43.2484L27.1881 44.4379L27.0182 44.6928H26.8483L26.6784 45.0327L25.7438 46.0523L25.149 46.732L24.4693 47.3268L23.6197 48.0915H23.4498L23.2799 48.4314H23.1099L22.94 48.7713H22.7701L22.6002 49.1111H22.4302L22.3453 49.451H22.1754L22.0054 49.7909L20.9009 50.8105L19.9663 51.5752L19.2017 51.8301H18.8618L18.6919 51.3203L19.1167 50.2157L19.2017 49.7909L20.3911 47.8366L21.3257 46.4771L21.4107 46.1373L21.8355 45.7974L22.5152 44.7778L23.5348 43.5033L24.6393 42.0588L25.7438 40.6994L26.5084 39.7647L27.6979 38.3203L28.4626 37.4706L29.2272 36.536L30.1618 35.5164L30.7566 34.8366L31.0114 34.4967H31.1814L31.2663 34.1569L30.2468 33.6471L28.9723 33.1373L26.8483 32.2026L23.025 30.5882L21.2408 29.8235L20.2212 29.3987L20.1363 29.1438L19.7964 29.0588L19.2866 28.719L19.3716 28.2941L20.1363 27.4445L22.0054 25.5752L22.8551 24.8105L23.1949 24.6405H25.4039L25.8287 23.9608L26.4235 23.536L27.0182 23.366L27.8678 23.451L28.5475 23.7909L29.0573 24.3856L29.3972 25.1503V25.3203L29.737 25.1503L29.9919 24.7255L30.7566 24.0458L31.0114 23.9608H32.031L32.8806 24.3007L33.4753 24.8954L33.6453 25.3203L33.7302 25.8301L37.7235 26.3399L38.828 26.4249L39.6776 25.7451L40.6972 24.8105L41.6317 24.0458L42.8212 23.0262L44.1806 22.0066L45.625 20.9869L46.3047 20.5621L46.9844 20.3072L48.4287 19.6275L49.4483 19.2876Z" fill="#E1F1FD"/>
<path d="M6.20219 20.902H6.28715V23.451L6.627 24.8105L7.3067 26.17L7.9864 27.1046L8.58113 27.6994L8.92098 28.1242L9.60068 28.719L10.6202 29.5686L11.8097 30.3333L13.1691 31.0981L14.8684 31.7778L16.3977 32.2026L18.4368 32.5425L20.136 32.6275L19.8811 32.7974L20.136 32.8824L20.0511 33.2222L19.3714 33.6471L18.5217 34.1569L17.5022 34.4967L16.2277 35.1765L15.4631 35.5164H15.2932L15.1232 36.0262L14.8684 36.451L14.4435 36.7909L14.3586 37.0458V37.8954L14.5285 38.3203L15.3781 38.7451L18.2668 39.5098L19.4563 39.8497L20.3059 40.2745L19.8811 40.6144L19.3714 40.8693H17.6721L14.6135 40.3595L14.4435 40.4445L14.5285 41.2941L14.6984 42.9085L14.6135 43.7582L14.4435 43.9281L13.8488 43.8431L13.509 43.4183L13.2541 42.6536L12.7443 40.7843L12.4044 40.0196L11.9796 40.1046L11.7247 40.1896L11.5548 40.5294L11.045 40.8693L10.6202 41.8039L10.1105 42.5686L9.85557 42.9085V43.9281L10.5353 45.7124L10.7052 46.3072L10.1105 46.3922L9.85557 46.4771L8.58113 45.6275L7.90144 45.0327L7.56159 45.2026L7.39166 46.2222L7.73151 46.817L7.81647 48.0915L7.47662 47.7516L6.45707 45.6275L5.60745 43.4183L4.92775 41.1242L4.41798 39L3.99317 36.0262L3.9082 35.0065V30.8432L4.16309 28.3791L4.50294 26.3399L5.2676 23.451L6.03226 21.2418L6.20219 20.902Z" fill="#07A7FC"/>
<path d="M50.5528 4.5033L50.9776 4.58826L52.2521 5.268L53.8664 6.28761L56.2453 8.07192L57.0949 8.83663L57.7746 9.4314L59.8987 11.5556L60.6634 12.4902L61.6829 13.7647L62.4476 14.8693L63.637 16.7386L64.7416 18.7778L65.7611 21.0719L66.7806 24.1307L66.6957 24.4706L65.8461 23.6209L65.4213 23.366L64.9964 23.0262L63.9769 22.7713L63.5521 22.6863L60.5784 22.6013H55.1408V22.5164L56.6701 22.4314L55.9055 19.7974L55.4807 18.7778L55.2258 18.268L54.9709 18.0131L55.3957 17.1634V16.0588H55.2258V15.8889L54.3761 15.8039L54.2062 15.634L53.6964 15.719L52.9318 16.8236L52.422 17.5883L52.0822 17.9281L52.1671 18.5229L52.337 18.6079V18.7778L52.5919 18.8628L53.1017 19.5425L53.0167 19.7974L52.337 19.8824L51.8273 19.4575L51.2325 19.2026L50.213 19.1177L49.0235 19.3726L47.919 19.7974L46.5596 20.4771L45.3701 21.2419L45.0303 21.1569L44.9453 20.902V19.5425L44.6904 18.0981V17.4183L44.8604 16.6536L45.2852 16.2288L45.5401 16.4837L45.8799 16.0588L46.8145 15.3791L47.4942 14.7843L47.7491 14.4445H47.919L48.0889 14.1046L48.5137 13.5948H48.0889V13.2549H48.3438V13.4249H48.5137L48.5987 13.17L49.5333 13.3399L50.213 13.4249L50.9776 13.7647L51.7423 14.0196L53.1017 14.5294L53.5265 14.4445V12.6602L53.0167 11.3007L52.337 9.6863L51.8273 8.58173L51.4874 7.81702L51.0626 6.45754L50.5528 5.43794V5.18303H50.3829L50.2979 4.7582L50.5528 4.5033Z" fill="#1282F6"/>
<path d="M53.8659 15.5491L54.2907 15.634L54.3756 15.719H54.8854L55.2253 15.8889V16.0589H55.3952L55.4802 16.9085L55.3952 17.3334L55.0553 18.0131L55.3952 18.438L55.905 19.5425L56.6696 22.0916L56.7546 22.5164L55.2253 22.6014L55.3102 22.9412L55.905 23.536L56.4997 24.2157L56.7546 24.4706V24.6406H56.9245L57.5193 25.3203L57.6892 25.5752L57.6042 26.0001L57.0095 26.255L56.4147 26.7648L55.735 27.6144L54.5456 28.3791L53.6959 28.9739L52.4215 29.6536L51.9117 30.0785H51.7418V30.2484L50.8072 31.0131H50.6373V31.1831L49.6177 31.9478L49.2779 32.1177V32.2876L49.023 32.4576V33.1373L49.4478 34.1569L50.0426 35.0916L50.8922 35.9412L51.402 36.2811L52.3365 36.7909L53.4411 37.2157L54.4606 37.3857L55.82 37.5556L57.0944 37.9804L57.7741 38.5752L58.114 39.255L58.2839 40.1046H58.4538L58.5388 49.1961L58.7087 50.3007L59.2185 51.0654L59.8982 51.4053L60.1531 51.4902H61.3426L61.7674 51.2353H62.1072L61.9373 51.5752L61.1726 51.7451H60.1531L59.4734 51.4902L58.7087 50.8105V50.6406L58.4538 50.5556V50.3007L57.7741 50.2157H56.9245L56.7546 49.7909L56.8396 49.1112L57.1794 48.3465L57.2644 47.8367L56.9245 47.9216L56.4997 48.4314H56.1599L56.0749 47.8367L56.2448 47.5817L55.9899 47.2419L56.0749 46.3922L56.2448 45.2876L56.4147 44.8628L57.0095 42.4837L57.3493 40.6144L57.2644 40.2746H56.9245V40.4445L55.6501 40.6144L53.4411 41.0393L50.3824 41.5491L49.023 41.8889L48.6832 42.0589L48.5982 42.8236L48.7681 43.1635L48.6832 43.6733L48.8531 43.9282L48.6832 44.268H48.5982L48.5132 44.7778H48.4283V43.9282H48.2584L48.0035 43.3334L47.3238 42.7386L46.5591 42.5687L46.4741 42.2288L46.6441 41.9739H46.899L46.9839 41.719L47.4087 41.3791L47.7486 40.6994V39.7648L47.4087 38.9151L46.899 38.4902L46.0493 38.2353L45.7944 37.4706L45.3696 34.0719L45.2847 32.7974L45.8794 32.2027L46.4741 31.5229L47.2388 30.5883L48.1734 29.5687L48.9381 28.5491L49.2779 28.2092L49.6177 27.6144H49.7877L49.8726 27.2746L50.0426 27.0197H50.2125L50.2974 26.6798L51.317 24.9804L52.0817 23.536L52.4215 22.6014L52.5914 21.4118V20.7321L52.2516 19.9674V19.7125L52.4215 19.7974L53.0162 19.7125L52.8463 19.2876L52.5914 19.0327V18.8628L52.2516 18.7778L52.3365 18.6079L52.0817 18.5229L51.9967 17.9282L52.5914 17.2484L53.1862 16.3138L53.6959 15.634L53.8659 15.5491Z" fill="#2E54E8"/>
<path d="M27.0182 23.366L27.8678 23.4509L28.5475 23.7908L29.0573 24.3856L29.3971 25.1503V25.3202L29.737 25.1503L29.9919 24.7254L30.7565 24.0457L31.0114 23.9607H32.031L32.8806 24.3006L33.4753 24.8954L33.6453 25.3202L33.7302 25.83L37.7235 26.3398L38.5731 26.4248L38.743 26.5098L38.5731 26.8496L37.7235 27.6993L37.0438 28.2941L34.4949 30.8431L33.9002 31.5228L33.1355 32.2875L32.5408 32.9673L31.6062 33.9869L31.2663 34.1568L30.2468 33.647L28.9723 33.1372L26.8483 32.2026L23.025 30.5882L21.2408 29.8235L20.2212 29.3986L20.1362 29.1437L19.7964 29.0588L19.2866 28.7189L19.3716 28.2941L20.1362 27.4444L22.0054 25.5751L22.855 24.8104L23.1949 24.6405H25.4039L25.8287 23.9607L26.4235 23.5359L27.0182 23.366Z" fill="#FDC74B"/>
<path d="M45.0299 33.1372H45.3698L45.7946 36.7908L45.9645 37.8954L46.0495 38.2352L46.6442 38.3202L47.2389 38.6601L47.5788 39L47.8337 39.7647V40.6993L47.4938 41.379L46.984 41.8039L46.8991 41.9738L46.6442 42.0588L46.5592 42.4836L47.3239 42.6535L48.1735 43.4183L48.2585 43.9281H48.4284V44.9477L48.1735 45.4575H48.0036L47.9186 45.7973L47.6637 45.8823V46.0522H47.4938V46.2222L46.984 46.3071L47.154 48.5163L46.8991 49.0261L45.8795 50.1307L44.0953 51.915L43.4156 52.4248L42.9908 52.3398L42.566 51.6601L41.7164 49.6209L40.9517 47.8366L40.5269 46.9019L39.1675 43.7581L38.148 41.379L37.7231 40.4444L37.8931 40.1045L38.4878 39.5098L39.1675 38.915L40.1021 37.9803L40.7818 37.3856L45.0299 33.1372Z" fill="#FEC74A"/>
<path d="M38.3183 14.4445L38.7431 14.6144H38.998L39.1679 14.7843L38.3183 15.634L37.5536 16.1438L36.9589 16.3987L36.4491 16.3137L36.1942 16.4837L35.5145 16.5686L35.6845 16.7386L35.0048 17.1634L35.2596 17.3333L34.3251 17.8432L33.2205 18.7778L32.8807 19.0327H32.7108L32.5408 19.3726L31.6063 20.1373L31.1814 20.4771H31.0115L30.8416 20.817L30.2469 21.2418V22.4314L30.4168 22.8562H30.8416L31.0115 23.0262L32.201 23.1961H34.0702L41.292 23.366L42.0566 23.7059L41.6318 24.1307L40.4424 25.1503L39.4228 26.085L38.8281 26.5098L36.3642 26.2549L33.7303 25.915L33.4754 25.1503L33.2205 24.7255L32.7108 24.3007L32.0311 24.0458H31.0115L30.4168 24.3856L29.907 24.8954L29.7371 25.2353L29.3972 25.3203L29.0574 24.5556L28.7175 24.0458L28.2927 23.7059L27.5281 23.451L26.6784 23.536L25.9138 23.9608L25.6589 24.3007L25.404 24.7255H23.195L22.4303 25.2353L21.8356 25.8301H21.6657L21.4957 26.1699L19.6266 28.0392L19.3717 28.3791L19.4566 28.8039L19.6266 28.8889L19.7115 29.5686H19.8815V29.7386L20.2213 29.9085L20.4762 30.1634V30.3333L20.816 30.5033L21.1559 31.0131V31.268H20.986L20.7311 30.7582L20.2213 30.5033L15.9732 30.4183L15.1236 30.0784L14.4439 29.4837L13.9341 28.8039L13.6792 28.1242V26.9347L14.104 25.915L14.6138 25.3203L15.4634 24.8105L16.0581 24.6405H19.2867L20.986 24.4706L22.5153 24.1307L23.5348 23.7909L25.0642 23.1111L26.1687 22.4314L27.0183 21.7516L27.8679 20.9869L28.4627 20.4771L29.0574 19.7974L32.0311 16.8235L32.9657 16.1438L33.9002 15.719L34.41 15.549L36.2792 15.3791L37.5536 14.9543L38.3183 14.4445Z" fill="#07A7FC"/>
<path d="M60.5783 22.5164L63.552 22.6013L64.7415 22.8562L65.3362 23.1961L65.5911 23.451L66.0159 23.7059L66.6956 24.3856L66.8655 24.4706L67.0355 25.1503V25.6601H66.7806L66.3558 25.2353L66.0159 24.4706H65.761V24.3007L65.3362 24.2157L65.1663 23.7909L64.7415 23.366L64.5716 23.0262L63.8919 22.8562L62.5325 22.7713H55.3956L55.9054 23.366L56.5001 23.9608V24.1307H56.6701V24.3007L57.0099 24.4706L57.1798 24.8105H57.3498V24.9804H57.5197L57.9445 25.4052L58.964 26.5098L60.4084 27.9543L61.0881 28.549L61.5129 28.8889L62.5325 30.1634V30.4183H62.7024L62.9573 30.9281V31.353L62.6174 31.7778L61.9377 32.1177L61.258 32.5425L60.1535 33.2222L59.6437 33.4771L58.8791 33.9869L57.9445 34.5817L57.0099 35.2615L56.755 35.3464L56.6701 35.5164H56.5001L56.4152 35.8562L56.1603 36.2811L55.7355 36.536L54.8858 36.9608L54.8009 37.1307L56.2452 37.5556L56.5001 37.8105L55.3107 37.5556L53.7813 37.3856L52.5069 36.9608L51.7422 36.536L50.8926 36.0262L49.958 35.0915L49.2783 33.9869L48.9385 33.1373V32.4575L49.2783 32.2876V32.1177L50.4678 31.183H50.6377V31.0131L51.4024 30.4183L51.7422 30.2484V30.0784L52.8467 29.3137L54.1212 28.634L54.8009 28.1242L55.5655 27.6144H55.7355L55.9054 27.2745L56.6701 26.4249L57.0949 26.085L57.5197 26L57.6046 25.5752L57.2648 25.1503V24.9804L56.9249 24.8105V24.6405H56.755L56.1603 23.9608L55.1407 22.8562L55.2257 22.6013L60.5783 22.5164Z" fill="#8995E6"/>
<path d="M40.1022 11.3856L40.1872 11.6405L40.4421 11.7255V13L40.9518 12.8301L41.2917 12.6601L41.6315 12.7451L41.8864 13L42.3112 14.2745L42.821 16.6536L43.2458 19.2876L43.5857 22.0915L43.6706 22.4314L42.9909 23.0261L42.1413 23.7059L41.7165 23.6209L41.2917 23.451L33.3052 23.281H32.0308L31.0112 23.1111L30.8413 22.9412H30.4165L30.1616 22.4314V21.2418L30.9263 20.6471L31.3511 20.2222L32.6255 19.2026L33.0503 18.7778L34.2398 17.8431L35.0045 17.3333L34.8346 17.0784L35.5143 16.8235L35.5992 16.7386L35.4293 16.5686L35.5143 16.4837L36.3639 16.3137L36.5338 16.2288L36.9586 16.3137L37.9782 15.8039L38.9977 14.8693L39.0827 14.7843L38.8278 14.6144H38.5729L38.403 14.4444L39.1676 13.6797L39.7624 12.7451L40.1022 11.3856Z" fill="#0B90FA"/>
<path d="M50.8076 4.58826L51.3174 4.75819L52.252 5.268L53.8663 6.2876L56.2452 8.07192L57.0948 8.83662L57.7745 9.43139L59.8986 11.5556L60.6633 12.4902L61.6828 13.7647L62.4475 14.8693L63.6369 16.7386L64.7414 18.7778L65.761 21.0719L66.7805 24.1307L66.6956 24.4706L65.846 23.6209L65.4211 23.366L64.9963 23.0262L64.4016 22.7713L64.3166 22.2615L63.6369 21.3268V21.1569H63.467L62.7024 20.2222L61.8527 19.2876V19.1177L61.5129 18.9477L61.0881 18.5229V18.353H60.9181L60.0685 17.5033L58.964 16.5686L57.8595 15.719L57.0948 15.1242V14.9543L56.755 14.8693L55.4805 14.0196V13.8497L55.2257 13.7647L54.376 12.9151L54.1212 12.4052L53.6963 11.7255V11.4706H53.5264L52.7618 10.1961L52.252 8.75165L51.8272 7.47714L51.4024 6.5425L50.8076 5.35296L50.7227 4.75819L50.8076 4.58826Z" fill="#2768F1"/>
<path d="M58.369 50.9803L58.7089 51.0653L58.9637 51.1503L59.0487 51.3202L60.1532 51.6601H61.1728L61.9374 51.4902L61.7675 51.915L61.0878 52.7647L60.3231 53.6993L58.7938 55.3986L57.8592 56.3333L57.1795 56.9281L55.9901 57.9477L54.6307 58.9673L53.1013 59.9869L51.2322 61.0915L49.1931 62.1111L46.8991 63.0457L44.775 63.7254L42.7359 64.2352L39.5923 64.7451L38.9126 64.83H38.063V64.5751L37.6382 64.4052L37.8931 64.3202V64.1503L38.4878 64.0653L38.9126 63.8954H39.7622L41.8863 63.0457L42.2262 62.8758L42.566 62.5359L43.4156 62.281L43.5006 62.0261L43.8404 62.1111V62.281L44.86 61.8562L44.9449 61.6862L45.7096 61.6013L45.7946 61.1764L46.3043 60.9215L46.7292 60.5817L47.4089 60.4117L48.1735 59.8169L49.5329 58.4575L50.6374 57.6078L52.0818 56.2483L52.3367 55.9085H52.5066L52.6765 55.5686L53.6111 54.464L54.6307 53.1045L55.3953 52.2549L56.7547 51.2352L57.7743 51.0653L58.369 50.9803Z" fill="#3443E5"/>
<path d="M53.8663 15.5491L54.2911 15.634L54.3761 15.719H54.8858L55.2257 15.8889V16.0589H55.3956L55.4806 16.9085L55.3956 17.3334L55.0558 18.0131L55.3956 18.438L55.9054 19.5425L56.6701 22.0916L56.755 22.5164L55.2257 22.6014L55.3107 22.9412L55.9054 23.536L56.5001 24.2157L56.755 24.4706V24.6406H56.9249L57.5197 25.3203L57.6896 25.5752L57.6046 26L57.0099 26.255L56.4152 26.7648L55.7355 27.6144L54.546 28.3791L53.6964 28.9739L52.4219 29.6536L51.9122 30.0785H51.7422V30.2484L50.8077 31.0131H50.6377V31.1831L49.6182 31.9478L49.2783 32.1177V32.2876L49.0234 32.4576L48.9385 32.8824L48.7686 32.6275L48.5986 31.8628L48.5137 30.8432V29.9085L48.5986 28.9739L48.9385 28.5491L49.2783 28.2092L49.6182 27.6144H49.7881L49.8731 27.2746L50.043 27.0197H50.2129L50.2979 26.6798L51.3174 24.9804L52.0821 23.536L52.4219 22.6014L52.5919 21.4118V20.7321L52.252 19.9674V19.7125L52.4219 19.7974L53.0167 19.7125L52.8468 19.2876L52.5919 19.0327V18.8628L52.252 18.7778L52.337 18.6079L52.0821 18.5229L51.9971 17.9282L52.5919 17.2484L53.1866 16.3138L53.6964 15.634L53.8663 15.5491Z" fill="#687BE0"/>
<path d="M21.0709 53.0197H21.4957V53.1896L21.7506 53.2746V53.5295L22.1754 53.6994L22.0905 53.8693L21.4957 53.6144L21.2409 53.4445L20.6461 53.6144H20.816L20.986 54.0393V54.2942H20.3063L20.0514 54.2092L19.7965 54.4641L19.8815 54.9739V55.1438L21.9205 57.1831L22.0905 57.268V57.438L22.3454 57.5229L22.7702 58.0327L23.3649 58.5425L23.9596 59.2223L24.2145 59.4772V59.6471L24.5544 59.817V59.987L24.8093 60.0719V60.2419L25.1491 60.4118L25.8288 61.0066V61.1765L26.1687 61.3464L26.8484 62.1112V62.621L25.8288 62.451L25.1491 62.2811L25.489 62.621L25.7439 62.7909V62.9608L26.3386 63.0458V63.3007L26.6784 63.4706L26.5085 63.5556L24.4694 62.8759L21.9205 61.7713L19.9664 60.7517L18.3521 59.7321L17.7574 59.3072L17.5875 58.8824L17.3326 58.7125V58.5425L16.9927 58.4576L16.5679 58.0327L15.8882 57.5229L15.6333 57.268L15.4634 56.7582L14.9536 56.6732L14.189 55.9085L14.019 55.5687L13.7642 55.3138V54.8889L14.189 54.4641L15.0386 53.8693L16.2281 53.1896H16.7378L17.0777 53.6144V53.7844H17.3326L17.6724 54.2942V54.719L16.9927 55.4837L16.483 55.8236H16.313V55.9935H16.1431L15.9732 56.3334L15.8882 56.7582H16.483L16.9927 56.4183L17.7574 56.3334L17.8424 56.1634L18.0972 56.0785H18.8619L19.1168 55.8236L20.1363 56.1634V55.8236H19.9664L19.7115 55.3987V55.2288L19.3717 55.0589L18.7769 54.4641L18.5221 54.1242L18.607 53.8693L19.8815 53.5295L20.986 53.1046L21.0709 53.0197Z" fill="#2668F1"/>
<path d="M59.4738 27.1046L60.0685 27.6144L60.5783 28.0393L61.0031 28.4641L61.5129 28.8889L62.5324 30.1634V30.4183H62.7024L62.9572 30.9281V31.353L62.6174 31.7778L61.9377 32.1177L61.258 32.5425L60.1535 33.2223L59.6437 33.4772L58.8791 33.987L57.9445 34.5817L57.0099 35.2615L56.755 35.3464L56.67 35.5164H56.5001L56.4151 35.8562L56.1603 36.2811L55.7354 36.536L54.8858 36.9608L54.8009 37.1308L56.2452 37.5556L56.5001 37.8105L55.3106 37.5556L53.7813 37.3857L52.5069 36.9608L51.7422 36.536L51.0625 36.1111L50.4678 35.4314L50.2129 35.0915V34.9216L50.3828 34.8366L51.2324 34.7517L51.9971 34.3268L52.9317 33.6471L53.2715 33.3922H53.4415L53.6114 33.0523L54.2911 32.4576L55.6505 31.6079L56.1603 31.4379L57.0099 31.0131L57.8595 30.5033L58.1994 30.1634L58.8791 29.7386L59.7287 28.8889L60.3234 28.4641L60.1535 28.0393L59.4738 27.2745V27.1046Z" fill="#9AACF0"/>
<path d="M22.4302 25.3203L22.5152 25.4902H22.6851V25.6602L22.3453 25.7451L22.5152 26.0001V26.3399L22.94 26.5099L23.6197 26.6798H23.7896L24.2144 26.8497V27.0197L24.3844 27.1046L24.2994 27.1896L24.8092 27.5295L24.9791 27.8693L25.4889 28.2092H26.1686L26.0836 28.5491L25.4039 29.3987V29.6536L25.5738 29.7386V29.5687L26.3385 28.9739L26.6783 28.719L26.8483 28.804L26.7633 28.8889L27.528 29.0589L27.8678 29.3138L29.3122 29.6536L30.3317 29.9935L30.6716 30.1634V29.9085L31.0964 30.0785L31.7761 30.5883H32.5408L32.6257 30.7582V31.438L32.3708 31.5229L32.2009 32.0327H32.031V32.3726H32.2859L32.9656 32.2876L32.8806 32.6275L31.5212 34.0719H31.1814L29.5671 33.3922L27.443 32.4576L23.025 30.5883L21.2408 29.8236L20.2212 29.3987L20.1362 29.1438L19.7964 29.0589L19.2866 28.719L19.3716 28.2942L20.1362 27.4445L22.0054 25.5752L22.4302 25.3203Z" fill="#FBBD44"/>
<path d="M56.925 37.9803L57.2648 38.1503L57.7746 38.5751L58.1145 39.2549L58.2844 40.1045H58.4543L58.5393 49.196L58.7092 50.3006L59.219 51.0653L59.8987 51.4052L60.1536 51.4901H61.343L61.7678 51.2352H62.1077L61.9378 51.5751L61.1731 51.7451H60.1536L59.4739 51.4901L58.7092 50.8104V50.6405L58.4543 50.5555V50.3006L57.7746 50.2156H56.925L56.7551 49.7908L56.84 49.1111L57.1799 48.3464L57.2648 47.8366L56.925 47.9215L56.5002 48.4313H56.1603L56.0754 47.8366L56.2453 47.5817L55.9904 47.2418L56.0754 46.3921L56.2453 45.2875L56.4152 44.8627L57.0099 42.4836L57.3498 40.6143L57.2648 40.2745H56.925V40.4444L55.6505 40.6143L53.4415 41.0392L50.3829 41.549L49.0235 41.8888L48.6836 42.0588L48.5987 42.8235L48.7686 43.1634L48.6836 43.6732L48.8536 43.9281L48.6836 44.2679H48.5987L48.5137 44.7777H48.4287V43.9281H48.2588L48.0039 43.3333L47.3242 42.7385L46.5596 42.5686L46.4746 42.2287L46.6445 41.9738H46.8994L46.9844 41.7189L47.4092 41.379L47.749 40.6993L47.834 39.8496L48.0889 40.1045H49.7032L52.1671 39.7647L54.2062 39.3398L54.631 39.0849H54.8009L54.9708 38.7451L55.5656 38.4052H56.5002L57.0949 38.3202L56.925 37.9803Z" fill="#2668F1"/>
<path d="M15.6329 48.2615L15.9728 48.3464L17.3321 49.1961L18.2667 49.7909L18.9464 50.2157L18.8615 50.7255L18.4367 51.4053L18.0968 52.4249V53.3595L18.2667 53.6144H18.9464L19.966 53.3595L21.1555 52.8497H21.5803L22.0051 53.4445L21.9201 53.6144L21.7502 53.5294L21.6652 53.2745L21.4953 53.1896V53.0196L20.7306 53.2745L19.3712 53.7843L18.6066 53.9543L18.7765 54.2942L19.3712 54.9739L19.7961 55.3987L19.966 55.8236H20.1359L20.2209 56.2484L19.0314 55.9085L18.8615 56.1634H18.0968L17.9269 56.0785L17.8419 56.2484L17.3321 56.4183L16.7374 56.6732L16.3126 56.8432H15.8878L15.8028 56.4183L16.1427 55.9935H16.3126V55.8236L16.9923 55.3987L17.587 54.719V54.2942L17.3321 53.9543V53.7843H17.0773L16.7374 53.3595V53.1896L16.0577 53.3595L14.3585 54.3791L14.1036 54.634H13.9337L13.8487 55.3138V55.4837L14.1885 55.6536L14.4434 56.0785L14.9532 56.5883L15.5479 56.6732L15.8028 57.353L16.1427 57.6928L16.5675 57.9477L16.9923 58.3726L17.3321 58.5425L17.672 58.8824L17.757 59.2223L17.3321 59.0523L15.8028 57.8628L14.6983 56.9281L13.6788 55.9935V55.8236H13.8487L13.5938 55.3138L12.9141 54.8889L12.4893 54.2092L11.7246 53.3595V53.1896H11.5547L11.1299 52.6798L10.7051 51.9151L10.4502 51.4053V50.9804L10.79 50.8955L10.875 51.0654L11.2998 51.1504L11.2149 50.8105L11.6397 50.5556L12.2344 50.3857L13.9337 50.4706L14.1885 50.3857L15.2931 50.8105H15.7179L16.0577 50.3007L16.1427 50.0458L16.7374 50.1308L16.6524 49.7909L16.2276 49.451V49.2811L15.8878 49.1111L15.6329 48.7713V48.2615Z" fill="#1381F6"/>
<path d="M38.5728 39.5947L38.8277 39.8496L38.9976 40.2745L39.1675 40.8692L39.3374 40.9542L39.5923 41.379V41.1241L39.4224 40.6143L39.7622 40.6993L39.8472 40.9542L40.272 41.1241L40.6968 41.9738L40.5269 42.0588L40.8668 42.5686L41.2066 43.1634V43.3333L41.6314 43.5032L41.9713 43.6732L42.2262 44.5228L42.566 44.6928L42.8209 45.0326H42.651L42.9058 45.4575L43.0758 45.7973H43.2457L43.4156 46.2222L43.9254 46.3921L44.2652 47.1568V47.3268L44.5201 47.4117L44.775 47.6666V47.9215L45.0299 47.8366L45.3698 48.2614L45.4547 48.5163L45.8795 48.4313L46.2194 48.0915L46.4743 48.1764V48.8562L46.5592 49.0261L46.4743 49.196L46.6442 49.281L46.0495 49.9607L44.0953 51.915L43.4156 52.4248L42.9908 52.3398L42.566 51.6601L41.7164 49.6209L40.9517 47.8366L40.5269 46.9019L39.1675 43.7581L38.148 41.379L37.7231 40.4444L37.8931 40.1045L38.2329 39.8496L38.5728 39.5947Z" fill="#FEBF43"/>
<path d="M27.0181 23.366L27.8677 23.4509L28.5474 23.7908L29.0572 24.3856L29.3971 25.1503V25.3202L29.7369 25.1503L29.9918 24.7254L30.7564 24.0457L31.0113 23.9607H32.0309L32.8805 24.3006L33.4752 24.8954L33.6452 25.3202L33.7301 25.83L37.7234 26.3398L38.573 26.4248L38.7429 26.5098L38.573 26.8496L37.7234 27.6993L37.0437 28.2941L36.8737 28.464L35.5143 28.2941L35.2595 28.2091L33.7301 28.0392L31.0113 27.6993L29.3971 27.3594L28.3775 27.1045L27.5279 26.8496L25.9986 26.1699L25.7437 25.915V25.1503V24.9803L24.7241 24.8954L24.8091 24.7254L25.4038 24.6405L25.8286 23.9607L26.4234 23.5359L27.0181 23.366Z" fill="#FED252"/>
<path d="M45.0298 33.1372H45.3697L45.7945 36.7908L45.9644 37.8954L46.0494 38.2352L46.6441 38.3202L47.2388 38.6601L47.5787 39L47.8336 39.7647V40.6993L47.4937 41.379L46.984 41.8039L46.899 41.9738L46.6441 42.0588L46.5591 42.4836L47.3238 42.6535L48.1734 43.4183L48.2584 43.9281H48.4283V44.9477L48.1734 45.4575H48.0035L47.9185 45.7973L47.6637 45.8823V46.0522H47.4937V46.2222L46.984 46.3071V46.9869H46.899V45.6274L46.6441 45.7124L46.3892 45.2875L46.1343 45.2026V45.0326L45.7945 44.9477L45.5396 44.6078L45.1148 44.183L44.8599 43.5882L44.605 43.0784L44.4351 42.2287L44.2652 41.549L44.0103 39.7647L43.8403 39L43.6704 37.4705L43.4155 36.6209L43.2456 36.1111L43.1606 35.6862L43.2456 35.5163L43.1606 35.1764L43.5005 34.8366L43.7554 34.4117L45.0298 33.1372Z" fill="#FED252"/>
<path d="M19.6265 28.9739L20.1362 29.1438L20.3911 29.3987L22.0904 30.0785L23.025 30.5033L25.8287 31.6928L28.2077 32.7124L29.5671 33.3072L30.6716 33.732L31.3513 34.1569L31.1813 34.4968L30.7565 34.9216L29.652 36.1111L28.8874 37.0458L28.3776 37.6405L26.6783 35.9412L25.9986 35.3464L24.9791 34.2418L24.2994 33.5621L23.3648 32.7974L22.0054 31.4379L21.4956 31.0131V30.7582L21.1558 30.5883L20.731 30.1634L20.0513 29.3987L19.6265 28.9739Z" fill="#3444E5"/>
<path d="M49.4483 3.90845L49.8732 3.99341L50.6378 4.41825L50.5529 4.58819H50.3829V5.18296H50.5529L51.1476 6.45747L51.4025 7.30714L51.7423 8.15681L52.3371 9.60126L52.8468 10.7058L53.3566 12.0653L53.6115 12.83V13.8496L53.5265 14.4444L53.1017 14.6143L51.7423 14.1045L50.8077 13.7647L50.128 13.5098L48.8536 13.2549H48.5987L48.5138 13.4248H48.3438V13.2549H48.0889L48.2589 13.5098L48.5138 13.5947L48.4288 13.8496H48.2589L48.0889 14.1895L47.919 14.4444H47.7491L47.5792 14.7843L46.9844 15.379L46.2198 15.8888L45.8799 16.0588L45.71 16.3986L45.4551 16.5686V16.3137L45.1153 16.3986L44.8604 16.8235L44.7754 17.7581L44.9453 19.1176L45.0303 20.0522V20.9019L45.1153 21.1568L45.2852 21.3267L44.8604 21.4117L44.7754 21.0718V20.3071L44.0957 15.8039L43.6709 13.5098L43.416 12.4901L43.3311 11.7254L43.5859 11.4705L45.0303 11.7254L46.3897 12.0653L47.6641 12.4052L50.213 13.2549L52.592 14.1895H53.0168L53.1017 14.1045V13.4248L52.8468 11.5555L52.507 10.4509L51.9123 9.26139L50.9777 7.98688L50.213 7.1372L49.7032 6.54243L49.5333 6.45747V6.20256H49.3634V6.03263L49.1085 5.94766L48.4288 5.01302L48.3438 4.67315L48.5987 4.58819V4.33328L49.2784 4.24832L49.4483 3.90845Z" fill="#0C90FA"/>
<path d="M45.6246 6.11768L46.4742 6.28761L47.6637 7.13728L48.6832 8.07192L48.9381 8.24186V8.41179L49.2779 8.58173L49.7028 9.00656V9.1765H49.8727L50.6373 10.1111L51.7418 11.4706L52.0817 11.9804V12.3203L51.487 12.2353L50.5524 11.8105L48.8531 11.2157L47.5787 10.7909L46.6441 10.536L44.1802 9.85624L43.1606 9.4314L42.9058 9.09153V8.58173L43.2456 8.07192L43.5005 7.81702L43.8403 7.22225L44.69 6.79741L45.1997 6.62748L45.6246 6.11768Z" fill="#0C8FF9"/>
<path d="M53.8662 15.5491L54.2911 15.634L54.376 15.719H54.8858L55.2256 15.8889V16.0589H55.3956L55.4805 16.9085L55.3956 17.3334L55.0557 18.0131L55.3956 18.438L55.9053 19.5425L56.67 22.0916L56.755 22.5164L55.1407 22.6014L54.9708 22.7713L53.6114 23.1112L52.5918 23.451H52.3369L52.5918 21.4118V20.7321L52.252 19.9674V19.7125L52.4219 19.7974L53.0166 19.7125L52.8467 19.2876L52.5918 19.0327V18.8628L52.252 18.7778L52.3369 18.6079L52.082 18.5229L51.9971 17.9282L52.5918 17.2484L53.1865 16.3138L53.6963 15.634L53.8662 15.5491Z" fill="#2B69EF"/>
<path d="M44.8604 22.7712L45.71 22.8562L46.8995 23.451L47.6642 24.0457L48.3439 24.8105L48.9386 26.085L49.0236 26.9346L48.5987 27.6993L47.5792 28.8039L46.9845 29.4837L46.7296 29.5686L46.4747 28.8889L46.0499 27.8693L45.5401 27.0196L45.2002 26.6797V26.5098L44.8604 26.3399L44.0957 25.8301L42.9912 25.3203L42.2266 25.0654L42.3965 24.7255L43.2461 23.8758L43.9258 23.281L44.6055 22.8562L44.8604 22.7712Z" fill="#9B758B"/>
<path d="M19.9664 41.5491L22.4303 41.719L24.4694 41.9739V42.3987L23.4498 43.6733L22.8551 44.438L22.0055 45.6275L21.5807 46.1373L20.2213 46.0523L17.6724 45.6275H17.0776L16.5679 45.7974V45.2027L16.8228 44.8628L17.1626 44.6929L17.5874 44.268L17.8423 44.1831L18.3521 44.268L18.522 44.0131H18.1822V43.6733L17.9273 43.5883L18.2671 42.9935L18.522 42.3987H19.0318L19.2017 42.0589H19.3716L19.4566 41.719L19.9664 41.5491Z" fill="#1482F6"/>
<path d="M17.0772 45.5425H17.6719L20.2208 45.9673L21.1554 46.0523L21.4103 46.1373L21.3253 46.6471L20.6456 47.5817L19.5411 49.366L19.0313 50.2157L18.6065 50.1307L17.7569 49.5359L16.6524 48.8562L15.7178 48.2614L15.123 47.8366V47.3268L15.4629 47.1569L15.6328 46.732L16.2276 46.1373L16.9073 45.6274L17.0772 45.5425Z" fill="#FEC74A"/>
<path d="M25.3189 50.3856H25.6588L25.7437 50.6405L25.9136 52.085L26.1685 53.7843V54.9739L24.8941 56.2484L24.3843 56.6732L23.9595 56.5882L23.4497 55.9085L21.7505 53.1895L21.5806 53.0196L21.6655 52.6797L22.5152 52.1699L24.0445 51.2353L25.3189 50.3856Z" fill="#FEC74A"/>
<path d="M59.2188 11.9803H59.6436L60.3233 12.6601L60.7481 12.5751L61.8526 14.0196L62.4473 14.8692L63.6368 16.7385L64.7413 18.7777L65.7609 21.0718L66.7804 24.1307L66.6954 24.4705L65.8458 23.6209L65.421 23.366L65.2511 23.196V22.8562H65.0812V22.4313L64.7413 22.2614L64.4864 21.8366V21.6666H64.3165L63.8917 20.9019L63.3819 19.8823L62.7022 19.0326L62.5323 18.5228L62.6172 18.3529H62.7872L62.4473 17.7581L62.1924 16.9934L61.5127 15.6339L61.2578 15.2091L61.0879 14.7843H60.918L61.0879 14.4444L60.918 14.2745L61.003 14.1045L60.833 13.5098L60.6631 13.4248V13.2549L60.1533 13.3398L59.8135 13.2549L59.4736 12.915L59.1338 12.6601V12.0653L59.2188 11.9803Z" fill="#2F55E9"/>
<path d="M56.6699 16.8235L57.0098 16.9085L58.5391 17.9281L59.3038 18.6078L59.9835 19.2026L60.4083 19.5424L61.5977 20.732L62.1925 21.4117L62.3624 21.4967V21.6666L62.7023 21.8366L62.9571 22.5163L60.5782 22.6013H58.8789L58.3692 22.4313L58.1143 21.8366L57.6045 20.0522L57.0098 18.2679L56.7549 17.6732L56.5 16.9085L56.6699 16.8235Z" fill="#2668F1"/>
<path d="M19.7112 5.18298L20.051 5.35292L19.6262 5.77775L19.1164 6.11762L18.7766 6.45749L17.927 6.88233L17.757 7.2222L17.0773 7.81697L16.3127 8.32677L16.1427 8.83658L15.1232 9.34638L14.6134 9.68625L14.0187 10.366L13.7638 10.451L13.5939 10.7908L13.254 11.3006L12.4894 11.8954L12.2345 11.9804L12.0645 12.6601L11.7247 13.1699L11.2149 13.7647L10.96 14.2745L10.7051 14.5294L10.4503 14.8693H10.1954L10.1104 15.2941L10.1954 15.464L9.6856 16.2287L9.43071 16.5686L9.17582 17.1634L8.58109 18.098L8.24124 18.5229L8.15628 18.3529L7.6465 19.5425L7.47658 20.0523H7.30665L7.22169 20.3072L7.13673 19.9673L6.71192 19.8823L6.62695 20.0523L6.71192 19.6274L7.56154 17.8431L8.75101 15.8039L9.6856 14.4444L10.7051 13.0849L11.4698 12.1503L12.4044 11.0457L14.2736 9.17645L15.2082 8.41174L16.2277 7.56207L17.842 6.37253L19.4563 5.35292L19.7112 5.18298Z" fill="#E2F5FE"/>
<path d="M21.4956 7.05225H22.5152L23.1949 7.39212L23.7896 8.07185L24.0445 8.75159V9.2614L23.6197 10.0261L23.2798 10.4509L22.6851 10.7908L22.0904 10.8758L21.3257 10.7058L20.646 10.281L20.3062 9.7712L20.1362 9.17643L20.2212 8.24179L20.561 7.64702H20.731V7.47708L21.4956 7.05225Z" fill="#FE6B43"/>
<path d="M62.6172 25.5752H63.2969L64.1465 26L64.5713 26.5098L64.8262 27.2745L64.7413 27.9543L64.4014 28.634L63.8067 29.1438L63.212 29.3987L62.4473 29.3138L61.7676 28.9739L61.1729 28.2941L61.0879 28.0392V27.1046L61.3428 26.4249L62.0225 25.8301L62.6172 25.5752Z" fill="#87DDB1"/>
<path d="M42.566 19.8823H42.8209L42.9058 20.3921L43.1607 20.5621L43.4156 21.3268L43.5006 21.4117L43.6705 22.4313L42.9908 23.0261L42.566 23.366L41.8863 23.281L41.2916 23.196H40.4419L39.8472 23.281H38.2329L37.8081 23.196L37.8931 23.0261L37.7231 22.9411L37.8931 22.6013L38.9976 22.2614L39.7622 21.4967L40.7818 21.0719L41.2916 20.647L41.8863 20.3921L42.481 20.3072L42.566 19.8823Z" fill="#1182F7"/>
<path d="M11.6397 20.902H12.5743L13.3389 21.3268L13.7637 21.8366L13.9337 22.1765V23.2811L13.5938 23.8758L12.9991 24.3856L12.4893 24.6405H11.8096L11.0449 24.2157L10.4502 23.536L10.2803 23.1111V22.3464L10.5352 21.7517L10.96 21.2418L11.6397 20.902Z" fill="#87DDB1"/>
<path d="M24.6392 37.1307L24.8941 37.2157L24.9791 37.6405L25.4888 37.3856L25.9137 37.4706L26.1685 38.2353L26.3385 38.6601V39.5948H26.5084L26.4234 39.9347L25.9137 40.5294L25.234 40.4445L24.2144 40.1896L23.4498 40.2745L21.3257 39.8497V39.6798L20.9009 39.5948V39.4249L21.1558 39.2549L21.7505 39.17L22.6001 38.5752L23.4498 38.2353L24.1294 37.9804V37.7255H23.8746V37.4706L24.6392 37.1307Z" fill="#1182F7"/>
<path d="M49.4478 19.2876H50.2125L50.1275 19.7974L49.6178 20.3922L49.4478 21.2418L48.3433 22.3464H48.1734L48.0035 22.6863L47.4937 23.1111L47.0689 23.2811L46.6441 23.1961L45.5396 22.7713L44.9448 22.6863L44.0103 23.1111L44.0952 22.8562L44.9448 22.1765L45.9644 21.4967L46.3892 21.0719L47.3238 20.5621V20.1373L48.6832 19.5425L49.4478 19.2876Z" fill="#E2F2FE"/>
<path d="M40.3571 24.6405L40.6969 24.8104L40.1871 25.4052L39.0826 26.3398L38.8277 26.5098L36.3638 26.2549L33.73 25.915L33.4751 25.1503L33.3901 24.7255H33.645V24.8954L34.4946 24.7255H39.8473L40.3571 24.6405Z" fill="#0D90F9"/>
<path d="M0.424812 54.2941H1.10451L2.20902 54.6339L2.29398 54.8039L2.20902 56.2483V57.4379L1.86917 57.7777L0.849624 58.2026L0.424812 58.1176L0.0849624 57.6928L0 57.5228V55.0588L0.33985 54.379L0.424812 54.2941Z" fill="#FE6D43"/>
<path d="M56.7549 0L57.7744 0.0849673L58.709 0.424837L59.4737 0.93464L60.0684 1.69935L60.1534 2.20915L59.8135 2.54902L58.9639 2.88889L58.5391 2.97386L58.0293 2.71895L57.3496 2.29412L56.5 2.12418L56.415 2.03922V0.424837L56.585 0.0849673L56.7549 0Z" fill="#FD341C"/>
<path d="M2.63381 48.5164L3.14359 48.6013L4.16314 49.1961L4.33306 49.366L4.2481 49.9608L3.22855 52.17L2.97366 52.4249L2.37893 52.3399L1.35938 51.8301L1.18945 51.6601L1.27442 51.1503L1.86915 49.7909L2.37893 48.7713L2.63381 48.5164Z" fill="#FE6C43"/>
<path d="M58.709 4.9281L59.8135 5.01307L60.4932 5.26797V6.20261L59.9834 7.98692L59.5586 8.75163L58.8789 8.66666L57.8594 8.15686L57.6895 7.98692L57.8594 7.22222L58.4541 5.183L58.709 4.9281Z" fill="#FD341C"/>
<path d="M5.43754 58.2876H6.28717L6.62701 58.9673L6.79694 59.732L6.71198 60.1569L6.28717 60.4118L5.43754 60.5817L4.58792 60.6667H3.56837L3.0586 60.4118L2.97363 60.3268V59.6471L3.22852 58.7124L3.65333 58.4575L5.43754 58.2876Z" fill="#FE6D43"/>
<path d="M11.2999 56.0784L11.6397 56.1633L12.1495 56.8431L12.4893 57.5228L12.4044 57.8627L11.9795 58.2026L9.85549 59.2222H9.34572L9.00587 58.8823L8.58105 57.8627L8.66602 57.4378L9.34572 57.013L10.7051 56.3333L11.2999 56.0784Z" fill="#FE6B43"/>
<path d="M53.1016 0.509766H53.7813L54.1212 1.27447L54.2911 2.20911L53.9512 2.54898L51.4873 3.48362L51.0625 3.39865L50.4678 2.12414V1.61434L51.8272 0.934602L53.1016 0.509766Z" fill="#FE351C"/>
<path d="M16.2281 53.1896H16.7378L17.0777 53.6144V53.7843H17.3326L17.5875 54.3791L17.5025 54.719L17.0777 55.2288L16.5679 55.4837L16.483 55.6536L16.0581 55.8236L15.9732 55.9935L15.3784 56.1634V56.3334L14.6987 56.4183L14.189 55.9085L14.019 55.5687L13.7642 55.3138V54.8889L14.189 54.4641L15.0386 53.8693L16.2281 53.1896Z" fill="#F76947"/>
<path d="M56.6699 10.4509H57.1797L58.2842 11.0457L58.4542 11.3006L58.1143 12.1503L57.3496 13.5098L56.9248 14.1045L56.585 14.1895L55.6504 13.5947L55.2256 13.4248L55.1406 13.1699L55.3955 12.5751H55.5654L55.7354 12.1503L56.0752 11.4705L56.3301 10.8758H56.5L56.6699 10.4509Z" fill="#FC321C"/>
<path d="M23.0249 51.8301L23.1949 51.915L23.0249 52.085L23.1949 52.1699V52.4248L23.5347 52.5098L24.2144 53.9543V54.3791H24.3843L24.2994 55.1438L24.6392 55.9085L24.7242 56.3333L24.3843 56.6732L23.9595 56.5882L23.4497 55.9085L21.7505 53.1896L21.5806 53.0196L21.6655 52.6798L22.5152 52.1699L23.0249 51.8301Z" fill="#FEBF43"/>
<path d="M15.4629 46.9869L15.7178 47.0719L15.9727 47.5817L16.3975 47.4967L16.7373 47.5817H17.502L18.6065 47.9216L19.3712 48.1765V48.3464L19.9659 48.4314L19.8809 48.7713L19.2012 49.9608L19.0313 50.2157L18.6065 50.1307L17.7569 49.536L16.6524 48.8562L15.7178 48.2614L15.123 47.8366V47.3268L15.4629 47.1569V46.9869Z" fill="#FDBF43"/>
<path d="M53.8662 15.5491L54.2911 15.634L55.3106 16.3138V16.8236L54.461 18.1831L53.8662 18.9478L53.6114 19.2027L53.1865 19.1177L52.167 18.438V17.9282L53.1016 16.3987L53.6963 15.634L53.8662 15.5491Z" fill="#FE311A"/>
<path d="M39.8472 45.3726L40.1021 45.7124L40.9517 47.7516L41.5464 49.0262L42.2261 50.5556L42.6509 51.6601L43.0757 52.3399L43.5006 52.2549L43.9254 51.915L44.0953 52L43.5006 52.6797H43.3306L43.2457 53.0196L42.9058 53.6144L42.481 53.9543L42.1412 53.8693L41.9712 53.2745L41.8013 53.1046V52.2549L41.5464 51.1503L41.7163 50.6405L41.2066 49.7059L41.0366 49.536L40.9517 48.9412L40.6968 48.5163L40.5269 48.0065L40.3569 47.3268V46.817L39.8472 45.6275V45.3726Z" fill="#396BE4"/>
<path d="M46.4746 42.4836L47.3242 42.6536L48.1739 43.4183L48.2588 43.9281H48.4287V44.9477L48.1739 45.4575H48.0039L47.919 45.7974L47.6641 45.8823V46.0523H47.4942V46.2222L46.9844 46.3072V46.9869H46.8994L46.7295 45.0327L46.4746 42.9085V42.4836Z" fill="#EEF2FB"/>
<path d="M45.8799 37.8954L46.0498 38.2353L46.6445 38.3202L47.2393 38.6601L47.5791 39L47.834 39.7647V40.6993L47.4942 41.379L46.9844 41.8039L46.8994 41.9738L46.6445 42.0588L46.4746 42.4836H46.3897L46.2197 40.6993L45.8799 38.1503V37.8954Z" fill="#F6F8FC"/>
<path d="M31.0113 23.9608H32.0308L32.8804 24.3007L33.4752 24.8955L33.6451 25.3203V25.8301L30.7564 25.4902L29.8218 25.3203L29.7368 25.1504L29.9917 24.7255L30.7564 24.0458L31.0113 23.9608Z" fill="#F6F8FC"/>
<path d="M27.0181 23.366L27.8677 23.4509L28.5474 23.7908L29.0572 24.3856L29.3971 25.2352L28.0377 25.1503L25.9986 24.8954L24.8091 24.8104V24.7254L25.4038 24.6405L25.8286 23.9607L26.4234 23.5359L27.0181 23.366Z" fill="#F2F6FB"/>
<path d="M17.332 45.6274L19.2862 45.7974L20.2208 45.9673L21.1553 46.0523L21.4102 46.1372L21.3253 46.647L20.9854 47.0719L20.4756 47.2418H19.7959L18.6065 46.647L17.8418 46.5621L16.8223 46.647L16.9072 45.9673L17.332 45.6274Z" fill="#FED151"/>
<path d="M24.3844 10.366L24.4693 10.5359L23.8746 11.3006L24.4693 11.1307L24.8092 10.5359L24.8941 10.7908L24.6392 11.3006L23.3648 11.8954L22.94 12.0653L22.3453 12.3202H21.8355L21.4107 11.9803L20.9009 11.8954L20.4761 11.6405L20.2212 11.1307L20.0513 10.7058L20.8159 10.8758L21.8355 11.1307H22.2603L22.6851 11.0457L23.4498 10.8758L24.3844 10.366Z" fill="#E2F6FF"/>
<path d="M48.8531 44.3529L49.1929 44.6078L49.1079 45.1176L48.7681 46.2222L48.1734 47.4117L48.0034 47.8366H47.7485L47.6636 48.0915L47.4937 47.9215L47.2388 48.6013L47.0688 48.9411L46.9839 48.7712L47.0688 48.0915L46.9839 47.4967V46.3072L47.4937 46.2222V46.0523H47.6636V45.8823L47.9185 45.7124L48.0034 45.4575H48.1734L48.2583 45.0326L48.4282 44.9477V45.2026H48.5982L48.7681 44.9477L48.8531 44.3529Z" fill="#2F6BEF"/>
<path d="M60.5782 22.5164L63.5519 22.6013L64.7414 22.8562L65.3361 23.1961L65.591 23.451L66.0158 23.7059L66.6955 24.3856L66.8654 24.4706L67.0354 25.1503V25.6601H66.7805L66.3557 25.2353L66.0158 24.4706H65.7609V24.3007L65.3361 24.2157L65.1662 23.7909L64.7414 23.366L64.5714 23.0262L63.8917 22.8562L62.5324 22.7713H55.3955L55.9053 23.366L56.5 23.9608V24.1307H56.6699V24.3007L57.0098 24.4706L57.1797 24.8105L56.7549 24.6405L56.1602 23.9608L55.1406 22.8562L55.2256 22.6013L60.5782 22.5164Z" fill="#95A6EE"/>
<path d="M25.3189 50.3856H25.6587L25.7437 50.6405L25.9136 52.085L25.9986 52.5948V53.6993H25.7437L25.5738 53.6144V53.1046H25.4038L25.3189 53.3595L25.2339 52.9346H25.064V52.7647L24.8091 52.6797L24.4692 51.915L24.0444 51.4052V51.2353L25.3189 50.3856Z" fill="#FED050"/>
<path d="M35.7691 29.9934L35.9391 30.0784L35.0894 31.2679L34.3248 32.1176L33.73 32.7973L32.6255 33.9019L32.2007 34.8365L31.691 35.1764L31.2661 35.6013H30.5015L29.9067 36.0261L29.7368 35.9411L30.8413 34.7516L31.0113 34.4967H31.1812L31.3511 34.1568L31.691 33.8169L32.2007 33.9019V33.732L32.8804 33.1372L33.0503 32.9673L33.4752 32.7973L33.9849 32.2026L34.7496 31.2679V31.013L35.0894 30.6731V30.4182L35.4293 30.1633H35.5992L35.7691 29.9934Z" fill="#DEF2FE"/>
<path d="M52.7617 20.4772L53.3565 20.987L54.0362 21.5817L54.8858 22.5164L54.6309 22.6863L52.9316 23.1961H52.5068V22.6014L52.6768 21.8366L52.7617 20.4772Z" fill="#2D55E9"/>
<path d="M47.1544 20.2222L47.4093 20.3071L47.3243 20.647L46.3048 21.2418L45.9649 21.5816L44.9454 22.2614L44.0957 22.9411L43.6709 23.4509H42.7363L42.5664 23.281L43.586 22.4313L44.7754 21.5816L46.0499 20.732L46.6446 20.4771L47.1544 20.2222Z" fill="#DCF0FE"/>
<path d="M56.7549 9.60132H57.9444L58.4541 10.1111L58.794 10.7059L58.9639 11.3007L59.0489 11.8105H58.6241L58.4541 12.2353L58.1992 12.5752L57.9444 13H57.7744L57.8594 12.4052L58.2842 11.6405L58.3692 11.2157L57.6895 10.7909L57.1797 10.536L56.6699 10.451L56.7549 10.2811H57.0098L56.585 10.1961L56.6699 9.68629L56.7549 9.60132Z" fill="#3B59DE"/>
<path d="M24.7242 2.80396H26.1685V3.05886H25.4039L25.3189 3.31376L23.9595 3.7386L22.94 4.2484L22.0054 4.58827L21.4107 4.92814H20.9009L21.0708 4.67324H21.3257V4.41833L22.2603 3.9935V3.82356L24.7242 2.80396Z" fill="#E2F5FE"/>
<path d="M36.6187 25.4053H37.4683L37.7232 25.4902H38.4878L38.9976 25.7451L39.2525 26L39.0826 26.3399L38.8277 26.5098L36.3638 26.2549L35.939 26.085L36.0239 25.9151L36.9585 26V25.8301H36.2788V25.4902L36.6187 25.4053Z" fill="#1A84F1"/>
<path d="M4.33301 45.4575H4.84279L5.86234 46.1373L6.03226 46.3072V46.817L5.52249 47.1569L4.75783 46.902L4.07813 46.3922L3.99316 46.3072L4.07813 45.7124L4.33301 45.4575Z" fill="#FE6D43"/>
<path d="M35.0044 30.4183L35.1744 30.6732L34.7496 31.0981V31.353L33.9849 32.2876L33.3902 32.9674L32.9654 33.1373L32.3706 33.7321H32.2007V33.902H32.0308L31.9458 34.0719V33.817L31.7759 33.7321L32.9654 32.4576L33.5601 31.7778L34.5796 30.8432L35.0044 30.4183Z" fill="#E3F2FE"/>
<path d="M10.1104 23.196H10.2803V23.366H10.4502L10.96 24.0457L11.5547 24.4706L11.8096 24.5555H12.4893L13.3389 24.2157L13.5938 23.9608H14.0186L13.9337 24.2157L13.254 24.8104L12.9991 25.0653L12.4043 25.1503H11.5547L11.1299 24.8954L10.4502 24.1307L10.1104 23.366V23.196Z" fill="#DCEFFE"/>
<path d="M13.7642 55.3137L13.8491 55.4837L14.189 55.6536L14.4439 56.0784L14.9536 56.5882L15.5484 56.6732L15.8033 57.3529L16.1431 57.6928L16.5679 57.9477L16.9927 58.3725L17.3326 58.5425L17.6724 58.8823L17.7574 59.2222L17.3326 59.0523L15.8033 57.8627L14.6987 56.9281L13.6792 55.9935V55.8235H13.8491L13.7642 55.3137Z" fill="#1783F5"/>
<path d="M16.1431 48.5164L16.6528 48.7713L17.7574 49.451L18.607 50.0458L18.9468 50.2157L18.8619 50.7255L18.607 51.0654H18.3521V50.8954H18.1822L17.5874 50.2157L17.1626 49.8758L16.7378 49.451L16.6528 49.1961L16.313 49.0262L16.1431 48.7713V48.5164Z" fill="#4D6DD7"/>
<path d="M42.5659 35.7712H42.7359V36.0261L42.9908 35.9412L42.9058 36.5359L42.481 37.0457L42.0562 37.3856L41.6314 37.8105L41.2066 38.0654V37.8105L40.8667 38.0654H40.6968V37.5556L41.3765 36.9608L42.5659 35.7712Z" fill="#FED252"/>
<path d="M31.4361 24.8104H32.2007L32.4556 24.9804L33.3052 25.2353L33.5601 25.1503L33.6451 25.3202V25.83L30.7564 25.4902L30.4165 25.3202V25.1503L31.4361 24.8104Z" fill="#E2F1FD"/>
<path d="M58.3691 40.1046H58.4541L58.5391 49.1961L58.709 50.3007L59.2188 51.0654L59.8985 51.4053L60.1534 51.4902H61.3428L61.7676 51.2353H62.1075L61.9376 51.5752L61.1729 51.7451H60.1534L59.4737 51.4902L58.709 50.8105L58.3691 49.9608L58.2842 49.2811V46.5621L58.3691 40.1046Z" fill="#8391E5"/>
<path d="M35.9391 41.804L36.109 41.8889L36.024 42.1438L35.2594 42.9085H35.0894V43.0785L34.4097 43.6732L34.0699 43.8432L33.6451 44.183L33.5601 44.353H33.3902L33.2203 44.6928L32.7105 45.1177H32.5406V45.2876H32.3706V45.4575L31.7759 45.7125L31.521 46.0523H31.3511L31.1812 46.3922L30.7564 46.6471L30.5864 46.5621L31.3511 45.7125L32.2007 45.0327L33.3052 44.0981L35.6842 42.0589L35.9391 41.804Z" fill="#384DE5"/>
<path d="M45.8799 37.8954L46.0498 38.2353H46.4746L46.2197 38.4052L46.3897 38.915L46.6445 39.1699L46.8994 39.9346L46.8145 40.6993L46.6445 40.9542L46.5596 41.8039H46.8994V41.9738L46.6445 42.0588L46.4746 42.4836H46.3897L46.2197 40.6993L45.8799 38.1503V37.8954Z" fill="#DBEAFC"/>
<path d="M21.4956 7.05225H22.5152L23.1949 7.39212L23.7896 8.07185L24.0445 8.75159V9.2614L23.7896 9.60127V8.58166L23.4498 7.90192L22.94 7.47708L22.0904 7.39212L21.5806 7.47708L20.9859 7.73198L20.646 8.15682L20.4761 8.66662V9.34636L20.8159 10.1111L21.1558 10.5359L20.731 10.366L20.3062 9.7712L20.1362 9.17643L20.2212 8.24179L20.561 7.64702H20.731V7.47708L21.4956 7.05225Z" fill="#FEC144"/>
<path d="M14.1035 25.7451L14.2735 25.8301L14.0186 26.2549L13.7637 26.9347V28.1242L14.1035 28.9739L14.8682 29.8235L15.6328 30.2484L15.9727 30.3334L20.2208 30.4183L20.8156 30.7582L20.9855 31.0131L20.9005 31.268L20.7306 30.8432L20.3058 30.6732L16.1426 30.5883L15.293 30.3334L14.7832 29.9935L14.1035 29.3137L13.6787 28.634L13.5088 27.9543V27.1046L13.7637 26.2549L14.1035 25.7451Z" fill="#B9CCF9"/>
<path d="M46.6445 42.9934L46.8145 43.3333L47.1543 43.5032L47.4942 44.013L47.5791 44.6928L47.2393 45.4575L47.0693 45.8823L46.8145 45.6274L46.6445 44.4379V42.9934Z" fill="#E2F1FD"/>
<path d="M37.7232 14.8693L37.9781 14.9542L37.8082 15.2941L37.3834 15.2091L37.2134 15.549L35.4292 16.1438L34.6646 15.9738V15.8039L34.4097 15.7189V15.549L36.2788 15.3791L37.5533 14.9542L37.7232 14.8693Z" fill="#0B93FA"/>
<path d="M29.312 7.22217L29.9067 7.73197L30.6714 8.15681L31.0113 8.24178L37.0436 8.32674L37.9782 8.49668L38.1481 8.66661L37.5534 8.58164L31.0962 8.49668L30.5015 8.32674L29.8218 7.90191L29.397 7.47707L29.312 7.22217Z" fill="#BACDFA"/>
<path d="M27.103 24.1307L27.6978 24.2157L28.6324 24.7255L28.7173 25.0654H28.1226L27.5279 24.8105L26.8482 24.8954H25.9985V24.7255L26.3384 24.4706H26.5083L26.5933 24.3007L27.103 24.1307Z" fill="#E2F1FD"/>
<path d="M38.7432 26.5947V26.8496V27.0196L38.9131 27.1045V27.2745H38.6582L38.4883 27.7843L38.0635 28.0392L38.4033 28.2091L37.8936 28.464H37.5537V27.6993L38.2334 27.1045L38.7432 26.5947Z" fill="#E3F5FE"/>
<path d="M17.1626 49.366L17.6724 49.5359L18.3521 49.8758L18.7769 50.1307V50.6405L18.437 50.7254L18.0122 50.4705L17.3325 49.7908L17.1626 49.366Z" fill="#4251DA"/>
<path d="M23.4497 32.8823L23.7896 33.0523L25.064 34.2418L25.7437 34.9215L26.3384 35.6013L26.5084 35.8562L25.9136 35.6862V35.5163L25.5738 35.3464V35.1764H25.4038L24.8091 34.4117V34.2418L24.5542 34.1568L23.9595 33.4771L23.4497 32.8823Z" fill="#147EF6"/>
<path d="M21.5806 6.88232H22.3453L22.94 7.13723L22.7701 7.22219L22.5152 7.13723H21.4956L20.9009 7.4771H20.731V7.64703H20.561L20.3911 8.07187L20.2212 8.66664L20.3062 9.51631L20.561 10.0261L20.8159 10.451L20.4761 10.281L20.1362 9.68625L20.0513 9.26141V8.4967L20.3062 7.732L21.0708 7.05226L21.5806 6.88232Z" fill="#FDFDFD"/>
<path d="M18.7769 31.3529H19.9663L20.0513 31.6928L19.8814 31.8627H18.9468L18.2671 31.6078L18.3521 31.4379L18.7769 31.3529Z" fill="#C1D5FC"/>
<path d="M49.0235 26.4248H49.1084V27.5294L48.7686 28.1242H48.5987V28.3791L48.2588 28.464L47.834 28.634V28.8039L47.4941 28.9738L47.6641 28.634L48.5137 27.6993L48.9385 26.9346L49.0235 26.4248Z" fill="#98A9EF"/>
<path d="M7.05176 25.7451L7.39161 26.085L8.07131 27.0196L9.60063 28.549L9.77055 28.634V28.8039L10.1104 28.9739L10.7901 29.5686H10.5352L9.60063 28.8039L8.58108 27.8693L7.98634 27.1896L7.30664 26.3399L7.05176 25.9151V25.7451Z" fill="#BACDF9"/>
<path d="M24.0445 8.75159H24.2144L24.1294 9.43133L23.7046 10.196L23.0249 10.8758L22.855 10.9607H21.6655L21.2407 10.7908L21.4956 10.7058L22.1753 10.7908L22.855 10.6209L23.3648 10.281L23.8746 9.43133L24.0445 8.75159Z" fill="#FDFDFD"/>
<path d="M6.542 20.3073L6.79688 20.5622L7.05177 20.6471L7.2217 20.3073L7.05177 21.072L6.88185 21.3269L6.62696 21.5818L6.45703 21.8367L6.28711 21.6667L6.45703 20.4772L6.542 20.3073Z" fill="#E2F5FE"/>
<path d="M58.7939 50.8104H59.0488L59.3887 51.1503L60.1533 51.4902H61.3428L61.7676 51.2353H62.1075L61.9376 51.5751L61.1729 51.7451H60.1533L59.4736 51.4902L58.7939 50.8954V50.8104Z" fill="#8192E7"/>
<path d="M21.1558 52.8496H21.5806L22.0054 53.4444L21.9205 53.6143L21.7505 53.5293L21.6656 53.2744L21.4957 53.1895V53.0195L20.731 53.2744L19.3716 53.7842L18.522 53.8692L18.437 53.6993L19.7114 53.4444L20.9859 52.9346L21.1558 52.8496Z" fill="#8588CF"/>
<path d="M35.939 41.804L36.1089 41.8889L36.024 42.1438L35.2593 42.9085H35.0894V43.0785L34.4097 43.6732L34.2397 43.5033L35.2593 42.3987L35.939 41.804Z" fill="#364AE5"/>
<path d="M20.561 31.2679H21.0708V31.8627L20.646 32.2876L20.3062 32.1176L20.4761 31.3529L20.561 31.2679Z" fill="#F2F6FC"/>
<path d="M11.5547 20.7321H12.4043L12.4893 20.902L11.3848 21.0719L10.7051 21.5817L10.4502 22.0066L10.2803 23.1111H10.1953V22.1765L10.6201 21.3268L11.2998 20.817L11.5547 20.7321Z" fill="#C1D5FC"/>
<path d="M33.4751 24.8954L33.8149 25.1503V25.3202L34.1548 25.4052L34.3247 25.4902V25.6601L34.6646 25.83L34.8345 26L33.73 25.915L33.4751 25.1503V24.8954Z" fill="#3D7DDB"/>
<path d="M28.2075 37.9803L28.2925 38.1503L27.7827 39L27.5278 39.2549H27.273V39.4248L26.9331 39.5098L27.0181 39.1699L27.4429 38.83L28.0376 38.1503L28.2075 37.9803Z" fill="#E1F5FE"/>
<path d="M54.8008 15.719L55.2256 15.8889V16.0589H55.3955L55.4805 16.9085L55.1406 17.3334L54.8857 17.7582L54.6309 17.9281L54.8008 17.5033L55.2256 16.8236V16.3138L54.5459 15.8889L54.8008 15.719Z" fill="#7071B4"/>
<path d="M55.2256 22.6013H55.3955L55.4805 22.9412L56.5 23.9608V24.1307H56.6699V24.3007L57.0098 24.4706L57.1797 24.8105L56.7549 24.6405L56.1602 23.9608L55.1406 22.8562L55.2256 22.6013Z" fill="#919FEA"/>
<path d="M32.2007 45.0327L32.3706 45.1177L31.9458 45.6275L31.521 46.0523H31.3511L31.1812 46.3922L30.7564 46.6471L30.5864 46.5621L31.3511 45.7125L32.2007 45.0327Z" fill="#364BE5"/>
<path d="M53.6113 15.1241L53.9512 15.2091L54.5459 15.549V15.8039L54.2061 15.6339L53.6963 15.7189L53.3564 16.0588V15.8039H53.5264L53.4414 15.549L53.6113 15.1241Z" fill="#4D6DD3"/>
<path d="M26.0835 49.7058L26.3384 49.7908L25.8286 50.2156L25.9136 51.4901L25.9985 51.915V52.5947H25.9136L25.7437 51.5751L25.6587 50.6405L25.5737 50.1306L26.0835 49.7058Z" fill="#828BD8"/>
<path d="M32.6255 25.3203L33.3052 25.4053L33.3902 25.5752L33.4751 25.3203H33.645V25.8301L32.2007 25.6602L32.2856 25.4902H32.6255V25.3203Z" fill="#F3F6FC"/>
<path d="M54.291 22.6863L54.6309 22.7712L52.5918 23.451H52.3369L52.4219 22.9412L52.5068 23.1961L54.291 22.6863Z" fill="#2668F2"/>
<path d="M6.71192 19.8823H7.13673L7.22169 20.3072L7.05177 20.647L6.71192 20.5621L6.54199 20.2222L6.71192 19.8823Z" fill="#E2F2FE"/>
<path d="M6.542 19.9673L6.62696 20.2222L6.37207 21.6666L6.28711 23.4509H6.20215V20.817L6.542 19.9673Z" fill="#C0D4FB"/>
<path d="M25.4888 2.54907L27.188 2.88894L27.6128 3.14384L27.4429 3.22881L26.7632 2.97391L24.979 2.80397L25.2339 2.63404L25.4888 2.54907Z" fill="#BDD1FB"/>
<path d="M17.502 54.2091L17.6719 54.2941V54.7189L17.0772 55.2287L17.2471 54.8888L17.502 54.6339V54.2091ZM16.8223 55.2287H17.0772L16.9922 55.4836L16.4824 55.8235L15.9727 55.9085L16.1426 55.6536H16.4824L16.6524 55.3137L16.8223 55.2287Z" fill="#6C71BA"/>
<path d="M25.6587 54.634L25.9985 54.719L26.0835 55.0589L25.8286 55.3138L25.4038 55.2288V54.8889L25.6587 54.634Z" fill="#FED151"/>
<path d="M27.188 24.7255L27.7827 24.8104L28.1226 24.9804L28.6324 25.0653V25.1503L27.3579 25.0653L26.6782 24.9804L26.8481 24.8104L27.188 24.7255Z" fill="#FDFDFD"/>
<path d="M48.5132 29.1438H48.6831V29.3137H48.5132L48.3433 29.6536L47.1538 30.9281L46.9839 30.8431L47.7485 30.0784L48.5132 29.1438Z" fill="#3C62E9"/>
<path d="M29.312 7.22217L29.9067 7.73197L30.6714 8.15681L31.0113 8.24178V8.41171H30.5864L30.2466 8.15681L29.8218 7.90191L29.397 7.47707L29.312 7.22217Z" fill="#BED2FB"/>
<path d="M16.7373 45.7124L16.9072 45.7974L15.5479 47.1568L15.6328 46.732L16.2276 46.1372L16.7373 45.7124Z" fill="#E3C95E"/>
<path d="M39.8472 45.3726L40.1021 45.7124L40.6968 47.0719V47.3268L40.3569 47.1569L40.272 46.6471L39.8472 45.6275V45.3726Z" fill="#7C76B7"/>
<path d="M19.9663 53.3595L20.3062 53.4445L19.3716 53.7843L18.522 53.8693L18.437 53.6994L19.7114 53.4445L19.9663 53.3595Z" fill="#7E8FE6"/>
<path d="M29.0571 24.4706H29.312V24.6405H29.4819L29.8218 25.1503L29.397 25.3203L29.0571 24.5555V24.4706Z" fill="#3761E5"/>
<path d="M45.0303 33.1372L45.2002 33.2222L44.7754 33.8169L44.4356 33.9869L43.9258 34.4967L43.7559 34.4117L45.0303 33.1372Z" fill="#FEC749"/>
<path d="M7.22168 25.4053L7.39161 25.4902L7.47657 25.8301L7.73146 25.9151H7.56153L7.81642 26.5948L7.56153 26.5098L7.05176 25.7451L7.22168 25.4053Z" fill="#E2F5FE"/>
<path d="M52.252 17.5883L52.3369 17.7582L52.252 17.9281V18.4379L52.9317 18.8628L52.7617 18.9477L52.252 18.8628L52.3369 18.6079L52.082 18.5229L51.9971 17.9281L52.252 17.5883Z" fill="#987195"/>
<path d="M57.5195 13.085L57.6045 13.2549L57.4346 13.9346H57.0947L57.0098 14.1895L56.585 14.2745L57.0098 13.8497L57.5195 13.085Z" fill="#6D6AB8"/>
<path d="M13.4238 26.9347H13.5938V28.1242L13.2539 27.9543L13.1689 27.5295L13.4238 26.9347Z" fill="#E2F5FE"/>
<path d="M28.2075 37.7255L28.3775 37.8104V37.9804L27.6978 38.5751L27.188 39.1699V38.915L28.2075 37.7255Z" fill="#C1D5FA"/>
<path d="M20.1362 8.4967L20.2212 8.66664L20.3062 9.51631L20.561 10.0261L20.8159 10.451L20.4761 10.281L20.1362 9.68625L20.0513 9.26141V8.58167L20.1362 8.4967Z" fill="#FBFBFC"/>
<path d="M17.6724 54.2941H17.8423V54.8039L17.6724 55.0588H17.5024V55.2287L17.0776 55.3137L17.5874 54.7189L17.6724 54.2941Z" fill="#316BEE"/>
<path d="M33.4751 24.8954L33.8999 25.3202L33.9849 25.7451L34.1548 25.83L33.645 25.7451L33.4751 24.8954Z" fill="#364CE6"/>
<path d="M39.7622 10.536L39.9321 10.7059L40.0171 11.5556L39.9321 11.3007H39.6772L39.5923 10.7059L39.7622 10.536Z" fill="#E2F6FF"/>
<path d="M17.1626 49.366L17.5024 49.5359L17.8423 49.8758L18.0972 50.3006L18.0122 50.4705L17.3325 49.7908L17.1626 49.366Z" fill="#2D54E9"/>
<path d="M60.833 12.8301L61.2578 13.2549L61.3428 13.4248L61.1729 13.5948L60.748 13.1699V12.915L60.833 12.8301Z" fill="#2C6AF1"/>
<path d="M25.3189 41.2091L25.4038 41.379L25.2339 41.8039L24.5542 42.3986V42.1437L25.3189 41.2091Z" fill="#C4D8FA"/>
<path d="M11.8096 30.1635L12.1494 30.2484L12.4043 30.3334L12.6592 30.2484L12.5742 30.5883L12.999 30.7582L12.7442 30.8432L11.8096 30.2484V30.1635Z" fill="#E2F5FE"/>
<path d="M56.2451 23.7909L56.5 23.9608V24.1308H56.6699V24.3007L57.0098 24.4706L57.1797 24.8105L56.7549 24.6406L56.2451 24.0458V23.7909Z" fill="#95A5ED"/>
<path d="M6.37207 22.1765L6.542 22.3464L6.62696 22.9412L6.28711 23.3661V22.6014L6.37207 22.1765Z" fill="#E2F6FF"/>
<path d="M45.8799 37.8954L46.0498 38.2353H46.4746L46.2197 38.4052V38.83H45.9648L45.8799 37.8954Z" fill="#CEDBF9"/>
<path d="M37.7236 14.8693L37.9785 14.9542L37.8086 15.2941L37.3838 15.2091V15.3791H37.2139L37.1289 15.1242L37.7236 14.8693Z" fill="#0A95FA"/>
<path d="M39.2529 9.68628L39.5078 9.77125L39.7627 10.1961L39.6777 10.451L39.2529 10.1111V9.68628Z" fill="#E2F5FE"/>
</svg>
